%TF.GenerationSoftware,KiCad,Pcbnew,5.99.0+really5.1.10+dfsg1-1*%
%TF.CreationDate,2021-09-03T20:55:11+10:00*%
%TF.ProjectId,demo-driver,64656d6f-2d64-4726-9976-65722e6b6963,rev?*%
%TF.SameCoordinates,PX1c9c380PY7270e00*%
%TF.FileFunction,Copper,L1,Top*%
%TF.FilePolarity,Positive*%
%FSLAX46Y46*%
G04 Gerber Fmt 4.6, Leading zero omitted, Abs format (unit mm)*
G04 Created by KiCad (PCBNEW 5.99.0+really5.1.10+dfsg1-1) date 2021-09-03 20:55:11*
%MOMM*%
%LPD*%
G01*
G04 APERTURE LIST*
%TA.AperFunction,ComponentPad*%
%ADD10C,3.000000*%
%TD*%
%TA.AperFunction,ComponentPad*%
%ADD11R,3.000000X3.000000*%
%TD*%
%TA.AperFunction,ComponentPad*%
%ADD12O,1.700000X1.700000*%
%TD*%
%TA.AperFunction,ComponentPad*%
%ADD13R,1.700000X1.700000*%
%TD*%
%TA.AperFunction,ComponentPad*%
%ADD14C,6.400000*%
%TD*%
%TA.AperFunction,ComponentPad*%
%ADD15O,1.600000X1.600000*%
%TD*%
%TA.AperFunction,ComponentPad*%
%ADD16R,1.600000X1.600000*%
%TD*%
G04 APERTURE END LIST*
D10*
%TO.P,J3,2*%
%TO.N,GND*%
X38920000Y74280000D03*
D11*
%TO.P,J3,1*%
%TO.N,+5V*%
X44000000Y74280000D03*
%TD*%
D10*
%TO.P,J1,2*%
%TO.N,GNDA*%
X16920000Y74000000D03*
D11*
%TO.P,J1,1*%
%TO.N,+12V*%
X22000000Y74000000D03*
%TD*%
D12*
%TO.P,J6,4*%
%TO.N,PUL1*%
X46200000Y36180000D03*
%TO.P,J6,3*%
%TO.N,DIR1*%
X46200000Y33640000D03*
%TO.P,J6,2*%
%TO.N,ENA1*%
X46200000Y31100000D03*
D13*
%TO.P,J6,1*%
%TO.N,GND*%
X46200000Y28560000D03*
%TD*%
D12*
%TO.P,J5,4*%
%TO.N,PUL0*%
X46200000Y66660000D03*
%TO.P,J5,3*%
%TO.N,DIR0*%
X46200000Y64120000D03*
%TO.P,J5,2*%
%TO.N,ENA0*%
X46200000Y61580000D03*
D13*
%TO.P,J5,1*%
%TO.N,GND*%
X46200000Y59040000D03*
%TD*%
D14*
%TO.P,REF\u002A\u002A,1*%
%TO.N,GND*%
X4000000Y4000000D03*
%TD*%
%TO.P,REF\u002A\u002A,1*%
%TO.N,GND*%
X56000000Y4000000D03*
%TD*%
%TO.P,REF\u002A\u002A,1*%
%TO.N,GND*%
X56000000Y76000000D03*
%TD*%
%TO.P,REF\u002A\u002A,1*%
%TO.N,GND*%
X4000000Y76000000D03*
%TD*%
D15*
%TO.P,SW2,8*%
%TO.N,M10*%
X46200000Y13320000D03*
%TO.P,SW2,4*%
%TO.N,+5V*%
X53820000Y20940000D03*
%TO.P,SW2,7*%
%TO.N,M11*%
X46200000Y15860000D03*
%TO.P,SW2,3*%
%TO.N,+5V*%
X53820000Y18400000D03*
%TO.P,SW2,6*%
%TO.N,M12*%
X46200000Y18400000D03*
%TO.P,SW2,2*%
%TO.N,+5V*%
X53820000Y15860000D03*
%TO.P,SW2,5*%
%TO.N,Net-(SW2-Pad5)*%
X46200000Y20940000D03*
D16*
%TO.P,SW2,1*%
%TO.N,+5V*%
X53820000Y13320000D03*
%TD*%
D15*
%TO.P,SW1,8*%
%TO.N,M00*%
X46200000Y43800000D03*
%TO.P,SW1,4*%
%TO.N,+5V*%
X53820000Y51420000D03*
%TO.P,SW1,7*%
%TO.N,M01*%
X46200000Y46340000D03*
%TO.P,SW1,3*%
%TO.N,+5V*%
X53820000Y48880000D03*
%TO.P,SW1,6*%
%TO.N,M02*%
X46200000Y48880000D03*
%TO.P,SW1,2*%
%TO.N,+5V*%
X53820000Y46340000D03*
%TO.P,SW1,5*%
%TO.N,Net-(SW1-Pad5)*%
X46200000Y51420000D03*
D16*
%TO.P,SW1,1*%
%TO.N,+5V*%
X53820000Y43800000D03*
%TD*%
D12*
%TO.P,J4,4*%
%TO.N,B12*%
X15720000Y15860000D03*
%TO.P,J4,3*%
%TO.N,B11*%
X15720000Y18400000D03*
%TO.P,J4,2*%
%TO.N,A11*%
X15720000Y20940000D03*
D13*
%TO.P,J4,1*%
%TO.N,A12*%
X15720000Y23480000D03*
%TD*%
D12*
%TO.P,J2,4*%
%TO.N,B02*%
X15720000Y46340000D03*
%TO.P,J2,3*%
%TO.N,B01*%
X15720000Y48880000D03*
%TO.P,J2,2*%
%TO.N,A01*%
X15720000Y51420000D03*
D13*
%TO.P,J2,1*%
%TO.N,A02*%
X15720000Y53960000D03*
%TD*%
D15*
%TO.P,A2,16*%
%TO.N,DIR1*%
X36040000Y28560000D03*
%TO.P,A2,8*%
%TO.N,+12V*%
X23340000Y10780000D03*
%TO.P,A2,15*%
%TO.N,PUL1*%
X36040000Y26020000D03*
%TO.P,A2,7*%
%TO.N,GNDA*%
X23340000Y13320000D03*
%TO.P,A2,14*%
%TO.N,Net-(A2-Pad13)*%
X36040000Y23480000D03*
%TO.P,A2,6*%
%TO.N,B12*%
X23340000Y15860000D03*
%TO.P,A2,13*%
%TO.N,Net-(A2-Pad13)*%
X36040000Y20940000D03*
%TO.P,A2,5*%
%TO.N,B11*%
X23340000Y18400000D03*
%TO.P,A2,12*%
%TO.N,M12*%
X36040000Y18400000D03*
%TO.P,A2,4*%
%TO.N,A11*%
X23340000Y20940000D03*
%TO.P,A2,11*%
%TO.N,M11*%
X36040000Y15860000D03*
%TO.P,A2,3*%
%TO.N,A12*%
X23340000Y23480000D03*
%TO.P,A2,10*%
%TO.N,M10*%
X36040000Y13320000D03*
%TO.P,A2,2*%
%TO.N,Net-(A2-Pad2)*%
X23340000Y26020000D03*
%TO.P,A2,9*%
%TO.N,ENA1*%
X36040000Y10780000D03*
D16*
%TO.P,A2,1*%
%TO.N,GND*%
X23340000Y28560000D03*
%TD*%
D15*
%TO.P,A1,16*%
%TO.N,DIR0*%
X36040000Y59040000D03*
%TO.P,A1,8*%
%TO.N,+12V*%
X23340000Y41260000D03*
%TO.P,A1,15*%
%TO.N,PUL0*%
X36040000Y56500000D03*
%TO.P,A1,7*%
%TO.N,GNDA*%
X23340000Y43800000D03*
%TO.P,A1,14*%
%TO.N,Net-(A1-Pad13)*%
X36040000Y53960000D03*
%TO.P,A1,6*%
%TO.N,B02*%
X23340000Y46340000D03*
%TO.P,A1,13*%
%TO.N,Net-(A1-Pad13)*%
X36040000Y51420000D03*
%TO.P,A1,5*%
%TO.N,B01*%
X23340000Y48880000D03*
%TO.P,A1,12*%
%TO.N,M02*%
X36040000Y48880000D03*
%TO.P,A1,4*%
%TO.N,A01*%
X23340000Y51420000D03*
%TO.P,A1,11*%
%TO.N,M01*%
X36040000Y46340000D03*
%TO.P,A1,3*%
%TO.N,A02*%
X23340000Y53960000D03*
%TO.P,A1,10*%
%TO.N,M00*%
X36040000Y43800000D03*
%TO.P,A1,2*%
%TO.N,Net-(A1-Pad2)*%
X23340000Y56500000D03*
%TO.P,A1,9*%
%TO.N,ENA0*%
X36040000Y41260000D03*
D16*
%TO.P,A1,1*%
%TO.N,GND*%
X23340000Y59040000D03*
%TD*%
M02*
