M48
METRIC,TZ
T1C0.800
T2C1.000
T3C1.520
T4C3.200
%
G90
G05
T1
X23340Y59040
X23340Y56500
X23340Y53960
X23340Y51420
X23340Y48880
X23340Y46340
X23340Y43800
X23340Y41260
X23340Y28560
X23340Y26020
X23340Y23480
X23340Y20940
X23340Y18400
X23340Y15860
X23340Y13320
X23340Y10780
X36040Y59040
X36040Y56500
X36040Y53960
X36040Y51420
X36040Y48880
X36040Y46340
X36040Y43800
X36040Y41260
X36040Y28560
X36040Y26020
X36040Y23480
X36040Y20940
X36040Y18400
X36040Y15860
X36040Y13320
X36040Y10780
X46200Y51420
X46200Y48880
X46200Y46340
X46200Y43800
X46200Y20940
X46200Y18400
X46200Y15860
X46200Y13320
X53820Y51420
X53820Y48880
X53820Y46340
X53820Y43800
X53820Y20940
X53820Y18400
X53820Y15860
X53820Y13320
T2
X15720Y53960
X15720Y51420
X15720Y48880
X15720Y46340
X15720Y23480
X15720Y20940
X15720Y18400
X15720Y15860
X46200Y66660
X46200Y64120
X46200Y61580
X46200Y59040
X46200Y36180
X46200Y33640
X46200Y31100
X46200Y28560
T3
X16920Y74000
X22000Y74000
X38920Y74280
X44000Y74280
T4
X4000Y76000
X4000Y4000
X56000Y76000
X56000Y4000
T0
M30
