%TF.GenerationSoftware,KiCad,Pcbnew,5.99.0+really5.1.10+dfsg1-1*%
%TF.CreationDate,2021-08-26T21:24:32+10:00*%
%TF.ProjectId,power-clamp,706f7765-722d-4636-9c61-6d702e6b6963,rev?*%
%TF.SameCoordinates,Original*%
%TF.FileFunction,Paste,Top*%
%TF.FilePolarity,Positive*%
%FSLAX46Y46*%
G04 Gerber Fmt 4.6, Leading zero omitted, Abs format (unit mm)*
G04 Created by KiCad (PCBNEW 5.99.0+really5.1.10+dfsg1-1) date 2021-08-26 21:24:32*
%MOMM*%
%LPD*%
G01*
G04 APERTURE LIST*
%ADD10R,5.250000X4.550000*%
%ADD11R,1.100000X8.000000*%
%ADD12R,4.000000X2.800000*%
%ADD13R,0.800000X1.900000*%
%ADD14R,1.500000X2.700000*%
G04 APERTURE END LIST*
D10*
%TO.C,Q2*%
X73395000Y-54430000D03*
X67845000Y-49580000D03*
X67845000Y-54430000D03*
X73395000Y-49580000D03*
D11*
X73120000Y-62880000D03*
X70620000Y-62880000D03*
X68080000Y-62880000D03*
%TD*%
D12*
%TO.C,D1*%
X77000000Y-78000000D03*
X65500000Y-78000000D03*
%TD*%
%TO.C,R3*%
G36*
G01*
X63350000Y-68549999D02*
X63350000Y-69450001D01*
G75*
G02*
X63100001Y-69700000I-249999J0D01*
G01*
X62449999Y-69700000D01*
G75*
G02*
X62200000Y-69450001I0J249999D01*
G01*
X62200000Y-68549999D01*
G75*
G02*
X62449999Y-68300000I249999J0D01*
G01*
X63100001Y-68300000D01*
G75*
G02*
X63350000Y-68549999I0J-249999D01*
G01*
G37*
G36*
G01*
X65400000Y-68549999D02*
X65400000Y-69450001D01*
G75*
G02*
X65150001Y-69700000I-249999J0D01*
G01*
X64499999Y-69700000D01*
G75*
G02*
X64250000Y-69450001I0J249999D01*
G01*
X64250000Y-68549999D01*
G75*
G02*
X64499999Y-68300000I249999J0D01*
G01*
X65150001Y-68300000D01*
G75*
G02*
X65400000Y-68549999I0J-249999D01*
G01*
G37*
%TD*%
%TO.C,R2*%
G36*
G01*
X74880000Y-73570001D02*
X74880000Y-72669999D01*
G75*
G02*
X75129999Y-72420000I249999J0D01*
G01*
X75780001Y-72420000D01*
G75*
G02*
X76030000Y-72669999I0J-249999D01*
G01*
X76030000Y-73570001D01*
G75*
G02*
X75780001Y-73820000I-249999J0D01*
G01*
X75129999Y-73820000D01*
G75*
G02*
X74880000Y-73570001I0J249999D01*
G01*
G37*
G36*
G01*
X72830000Y-73570001D02*
X72830000Y-72669999D01*
G75*
G02*
X73079999Y-72420000I249999J0D01*
G01*
X73730001Y-72420000D01*
G75*
G02*
X73980000Y-72669999I0J-249999D01*
G01*
X73980000Y-73570001D01*
G75*
G02*
X73730001Y-73820000I-249999J0D01*
G01*
X73079999Y-73820000D01*
G75*
G02*
X72830000Y-73570001I0J249999D01*
G01*
G37*
%TD*%
%TO.C,R1*%
G36*
G01*
X79350000Y-72749999D02*
X79350000Y-73650001D01*
G75*
G02*
X79100001Y-73900000I-249999J0D01*
G01*
X78449999Y-73900000D01*
G75*
G02*
X78200000Y-73650001I0J249999D01*
G01*
X78200000Y-72749999D01*
G75*
G02*
X78449999Y-72500000I249999J0D01*
G01*
X79100001Y-72500000D01*
G75*
G02*
X79350000Y-72749999I0J-249999D01*
G01*
G37*
G36*
G01*
X81400000Y-72749999D02*
X81400000Y-73650001D01*
G75*
G02*
X81150001Y-73900000I-249999J0D01*
G01*
X80499999Y-73900000D01*
G75*
G02*
X80250000Y-73650001I0J249999D01*
G01*
X80250000Y-72749999D01*
G75*
G02*
X80499999Y-72500000I249999J0D01*
G01*
X81150001Y-72500000D01*
G75*
G02*
X81400000Y-72749999I0J-249999D01*
G01*
G37*
%TD*%
D13*
%TO.C,Q1*%
X68080000Y-69080000D03*
X69030000Y-72080000D03*
X67130000Y-72080000D03*
%TD*%
D14*
%TO.C,D4*%
X78100000Y-69310000D03*
X73300000Y-69310000D03*
%TD*%
%TO.C,D3*%
X82900000Y-63000000D03*
X78100000Y-63000000D03*
%TD*%
%TO.C,D2*%
X78100000Y-59190000D03*
X82900000Y-59190000D03*
%TD*%
M02*
