%TF.GenerationSoftware,KiCad,Pcbnew,5.99.0+really5.1.10+dfsg1-1*%
%TF.CreationDate,2021-08-26T21:24:32+10:00*%
%TF.ProjectId,power-clamp,706f7765-722d-4636-9c61-6d702e6b6963,rev?*%
%TF.SameCoordinates,Original*%
%TF.FileFunction,Legend,Top*%
%TF.FilePolarity,Positive*%
%FSLAX46Y46*%
G04 Gerber Fmt 4.6, Leading zero omitted, Abs format (unit mm)*
G04 Created by KiCad (PCBNEW 5.99.0+really5.1.10+dfsg1-1) date 2021-08-26 21:24:32*
%MOMM*%
%LPD*%
G01*
G04 APERTURE LIST*
%ADD10C,0.120000*%
%ADD11C,0.150000*%
G04 APERTURE END LIST*
D10*
%TO.C,Q2*%
X65420000Y-56830000D02*
X65420000Y-58330000D01*
X65420000Y-58330000D02*
X67230000Y-58330000D01*
X67230000Y-58330000D02*
X67230000Y-63455000D01*
X75820000Y-56830000D02*
X75820000Y-58330000D01*
X75820000Y-58330000D02*
X74010000Y-58330000D01*
X74010000Y-58330000D02*
X74010000Y-59430000D01*
%TO.C,D1*%
X75155000Y-79970000D02*
X75155000Y-76030000D01*
X74915000Y-79970000D02*
X74915000Y-76030000D01*
X75035000Y-79970000D02*
X75035000Y-76030000D01*
X67350000Y-76030000D02*
X67350000Y-76360000D01*
X76490000Y-76030000D02*
X67350000Y-76030000D01*
X76490000Y-76360000D02*
X76490000Y-76030000D01*
X67350000Y-79970000D02*
X67350000Y-79640000D01*
X76490000Y-79970000D02*
X67350000Y-79970000D01*
X76490000Y-79640000D02*
X76490000Y-79970000D01*
%TO.C,R3*%
X64061252Y-69710000D02*
X63538748Y-69710000D01*
X64061252Y-68290000D02*
X63538748Y-68290000D01*
%TO.C,R2*%
X74168748Y-72410000D02*
X74691252Y-72410000D01*
X74168748Y-73830000D02*
X74691252Y-73830000D01*
%TO.C,R1*%
X80061252Y-73910000D02*
X79538748Y-73910000D01*
X80061252Y-72490000D02*
X79538748Y-72490000D01*
%TO.C,Q1*%
X69660000Y-69820000D02*
X68730000Y-69820000D01*
X66500000Y-69820000D02*
X67430000Y-69820000D01*
X66500000Y-69820000D02*
X66500000Y-72980000D01*
X69660000Y-69820000D02*
X69660000Y-71280000D01*
%TO.C,J2*%
X71890000Y-82625000D02*
X71890000Y-85285000D01*
X71890000Y-82625000D02*
X69290000Y-82625000D01*
X69290000Y-82625000D02*
X69290000Y-85285000D01*
X71890000Y-85285000D02*
X69290000Y-85285000D01*
X74490000Y-85285000D02*
X73160000Y-85285000D01*
X74490000Y-83955000D02*
X74490000Y-85285000D01*
%TO.C,J1*%
X71890000Y-39826000D02*
X71890000Y-42486000D01*
X71890000Y-39826000D02*
X69290000Y-39826000D01*
X69290000Y-39826000D02*
X69290000Y-42486000D01*
X71890000Y-42486000D02*
X69290000Y-42486000D01*
X74490000Y-42486000D02*
X73160000Y-42486000D01*
X74490000Y-41156000D02*
X74490000Y-42486000D01*
%TO.C,D4*%
X78100000Y-67810000D02*
X72400000Y-67810000D01*
X72400000Y-67810000D02*
X72400000Y-70810000D01*
X72400000Y-70810000D02*
X78100000Y-70810000D01*
%TO.C,D3*%
X82900000Y-61500000D02*
X77200000Y-61500000D01*
X77200000Y-61500000D02*
X77200000Y-64500000D01*
X77200000Y-64500000D02*
X82900000Y-64500000D01*
%TO.C,D2*%
X78100000Y-60690000D02*
X83800000Y-60690000D01*
X83800000Y-60690000D02*
X83800000Y-57690000D01*
X83800000Y-57690000D02*
X78100000Y-57690000D01*
%TO.C,Q2*%
D11*
X64517619Y-55475238D02*
X64470000Y-55570476D01*
X64374761Y-55665714D01*
X64231904Y-55808571D01*
X64184285Y-55903809D01*
X64184285Y-55999047D01*
X64422380Y-55951428D02*
X64374761Y-56046666D01*
X64279523Y-56141904D01*
X64089047Y-56189523D01*
X63755714Y-56189523D01*
X63565238Y-56141904D01*
X63470000Y-56046666D01*
X63422380Y-55951428D01*
X63422380Y-55760952D01*
X63470000Y-55665714D01*
X63565238Y-55570476D01*
X63755714Y-55522857D01*
X64089047Y-55522857D01*
X64279523Y-55570476D01*
X64374761Y-55665714D01*
X64422380Y-55760952D01*
X64422380Y-55951428D01*
X63517619Y-55141904D02*
X63470000Y-55094285D01*
X63422380Y-54999047D01*
X63422380Y-54760952D01*
X63470000Y-54665714D01*
X63517619Y-54618095D01*
X63612857Y-54570476D01*
X63708095Y-54570476D01*
X63850952Y-54618095D01*
X64422380Y-55189523D01*
X64422380Y-54570476D01*
%TO.C,D1*%
X70546904Y-78452380D02*
X70546904Y-77452380D01*
X70785000Y-77452380D01*
X70927857Y-77500000D01*
X71023095Y-77595238D01*
X71070714Y-77690476D01*
X71118333Y-77880952D01*
X71118333Y-78023809D01*
X71070714Y-78214285D01*
X71023095Y-78309523D01*
X70927857Y-78404761D01*
X70785000Y-78452380D01*
X70546904Y-78452380D01*
X72070714Y-78452380D02*
X71499285Y-78452380D01*
X71785000Y-78452380D02*
X71785000Y-77452380D01*
X71689761Y-77595238D01*
X71594523Y-77690476D01*
X71499285Y-77738095D01*
X68205714Y-80627380D02*
X68824761Y-80627380D01*
X68491428Y-81008333D01*
X68634285Y-81008333D01*
X68729523Y-81055952D01*
X68777142Y-81103571D01*
X68824761Y-81198809D01*
X68824761Y-81436904D01*
X68777142Y-81532142D01*
X68729523Y-81579761D01*
X68634285Y-81627380D01*
X68348571Y-81627380D01*
X68253333Y-81579761D01*
X68205714Y-81532142D01*
X69253333Y-81532142D02*
X69300952Y-81579761D01*
X69253333Y-81627380D01*
X69205714Y-81579761D01*
X69253333Y-81532142D01*
X69253333Y-81627380D01*
X69634285Y-80627380D02*
X70253333Y-80627380D01*
X69920000Y-81008333D01*
X70062857Y-81008333D01*
X70158095Y-81055952D01*
X70205714Y-81103571D01*
X70253333Y-81198809D01*
X70253333Y-81436904D01*
X70205714Y-81532142D01*
X70158095Y-81579761D01*
X70062857Y-81627380D01*
X69777142Y-81627380D01*
X69681904Y-81579761D01*
X69634285Y-81532142D01*
X70539047Y-80627380D02*
X70872380Y-81627380D01*
X71205714Y-80627380D01*
X71539047Y-81246428D02*
X72300952Y-81246428D01*
X73205714Y-80960714D02*
X73205714Y-81627380D01*
X72967619Y-80579761D02*
X72729523Y-81294047D01*
X73348571Y-81294047D01*
X73729523Y-81532142D02*
X73777142Y-81579761D01*
X73729523Y-81627380D01*
X73681904Y-81579761D01*
X73729523Y-81532142D01*
X73729523Y-81627380D01*
X74110476Y-80627380D02*
X74777142Y-80627380D01*
X74348571Y-81627380D01*
X75015238Y-80627380D02*
X75348571Y-81627380D01*
X75681904Y-80627380D01*
%TO.C,R3*%
X63633333Y-71277380D02*
X63300000Y-70801190D01*
X63061904Y-71277380D02*
X63061904Y-70277380D01*
X63442857Y-70277380D01*
X63538095Y-70325000D01*
X63585714Y-70372619D01*
X63633333Y-70467857D01*
X63633333Y-70610714D01*
X63585714Y-70705952D01*
X63538095Y-70753571D01*
X63442857Y-70801190D01*
X63061904Y-70801190D01*
X63966666Y-70277380D02*
X64585714Y-70277380D01*
X64252380Y-70658333D01*
X64395238Y-70658333D01*
X64490476Y-70705952D01*
X64538095Y-70753571D01*
X64585714Y-70848809D01*
X64585714Y-71086904D01*
X64538095Y-71182142D01*
X64490476Y-71229761D01*
X64395238Y-71277380D01*
X64109523Y-71277380D01*
X64014285Y-71229761D01*
X63966666Y-71182142D01*
%TO.C,R2*%
X72252380Y-73366666D02*
X71776190Y-73700000D01*
X72252380Y-73938095D02*
X71252380Y-73938095D01*
X71252380Y-73557142D01*
X71300000Y-73461904D01*
X71347619Y-73414285D01*
X71442857Y-73366666D01*
X71585714Y-73366666D01*
X71680952Y-73414285D01*
X71728571Y-73461904D01*
X71776190Y-73557142D01*
X71776190Y-73938095D01*
X71347619Y-72985714D02*
X71300000Y-72938095D01*
X71252380Y-72842857D01*
X71252380Y-72604761D01*
X71300000Y-72509523D01*
X71347619Y-72461904D01*
X71442857Y-72414285D01*
X71538095Y-72414285D01*
X71680952Y-72461904D01*
X72252380Y-73033333D01*
X72252380Y-72414285D01*
%TO.C,R1*%
X82877380Y-73246666D02*
X82401190Y-73580000D01*
X82877380Y-73818095D02*
X81877380Y-73818095D01*
X81877380Y-73437142D01*
X81925000Y-73341904D01*
X81972619Y-73294285D01*
X82067857Y-73246666D01*
X82210714Y-73246666D01*
X82305952Y-73294285D01*
X82353571Y-73341904D01*
X82401190Y-73437142D01*
X82401190Y-73818095D01*
X82877380Y-72294285D02*
X82877380Y-72865714D01*
X82877380Y-72580000D02*
X81877380Y-72580000D01*
X82020238Y-72675238D01*
X82115476Y-72770476D01*
X82163095Y-72865714D01*
%TO.C,Q1*%
X64904761Y-73047619D02*
X64809523Y-73000000D01*
X64714285Y-72904761D01*
X64571428Y-72761904D01*
X64476190Y-72714285D01*
X64380952Y-72714285D01*
X64428571Y-72952380D02*
X64333333Y-72904761D01*
X64238095Y-72809523D01*
X64190476Y-72619047D01*
X64190476Y-72285714D01*
X64238095Y-72095238D01*
X64333333Y-72000000D01*
X64428571Y-71952380D01*
X64619047Y-71952380D01*
X64714285Y-72000000D01*
X64809523Y-72095238D01*
X64857142Y-72285714D01*
X64857142Y-72619047D01*
X64809523Y-72809523D01*
X64714285Y-72904761D01*
X64619047Y-72952380D01*
X64428571Y-72952380D01*
X65809523Y-72952380D02*
X65238095Y-72952380D01*
X65523809Y-72952380D02*
X65523809Y-71952380D01*
X65428571Y-72095238D01*
X65333333Y-72190476D01*
X65238095Y-72238095D01*
%TO.C,J2*%
X75382380Y-84288333D02*
X76096666Y-84288333D01*
X76239523Y-84335952D01*
X76334761Y-84431190D01*
X76382380Y-84574047D01*
X76382380Y-84669285D01*
X75477619Y-83859761D02*
X75430000Y-83812142D01*
X75382380Y-83716904D01*
X75382380Y-83478809D01*
X75430000Y-83383571D01*
X75477619Y-83335952D01*
X75572857Y-83288333D01*
X75668095Y-83288333D01*
X75810952Y-83335952D01*
X76382380Y-83907380D01*
X76382380Y-83288333D01*
%TO.C,J1*%
X75382380Y-41489333D02*
X76096666Y-41489333D01*
X76239523Y-41536952D01*
X76334761Y-41632190D01*
X76382380Y-41775047D01*
X76382380Y-41870285D01*
X76382380Y-40489333D02*
X76382380Y-41060761D01*
X76382380Y-40775047D02*
X75382380Y-40775047D01*
X75525238Y-40870285D01*
X75620476Y-40965523D01*
X75668095Y-41060761D01*
%TO.C,D4*%
X74961904Y-69762380D02*
X74961904Y-68762380D01*
X75200000Y-68762380D01*
X75342857Y-68810000D01*
X75438095Y-68905238D01*
X75485714Y-69000476D01*
X75533333Y-69190952D01*
X75533333Y-69333809D01*
X75485714Y-69524285D01*
X75438095Y-69619523D01*
X75342857Y-69714761D01*
X75200000Y-69762380D01*
X74961904Y-69762380D01*
X76390476Y-69095714D02*
X76390476Y-69762380D01*
X76152380Y-68714761D02*
X75914285Y-69429047D01*
X76533333Y-69429047D01*
%TO.C,D3*%
X79761904Y-63452380D02*
X79761904Y-62452380D01*
X80000000Y-62452380D01*
X80142857Y-62500000D01*
X80238095Y-62595238D01*
X80285714Y-62690476D01*
X80333333Y-62880952D01*
X80333333Y-63023809D01*
X80285714Y-63214285D01*
X80238095Y-63309523D01*
X80142857Y-63404761D01*
X80000000Y-63452380D01*
X79761904Y-63452380D01*
X80666666Y-62452380D02*
X81285714Y-62452380D01*
X80952380Y-62833333D01*
X81095238Y-62833333D01*
X81190476Y-62880952D01*
X81238095Y-62928571D01*
X81285714Y-63023809D01*
X81285714Y-63261904D01*
X81238095Y-63357142D01*
X81190476Y-63404761D01*
X81095238Y-63452380D01*
X80809523Y-63452380D01*
X80714285Y-63404761D01*
X80666666Y-63357142D01*
%TO.C,D2*%
X79761904Y-59642380D02*
X79761904Y-58642380D01*
X80000000Y-58642380D01*
X80142857Y-58690000D01*
X80238095Y-58785238D01*
X80285714Y-58880476D01*
X80333333Y-59070952D01*
X80333333Y-59213809D01*
X80285714Y-59404285D01*
X80238095Y-59499523D01*
X80142857Y-59594761D01*
X80000000Y-59642380D01*
X79761904Y-59642380D01*
X80714285Y-58737619D02*
X80761904Y-58690000D01*
X80857142Y-58642380D01*
X81095238Y-58642380D01*
X81190476Y-58690000D01*
X81238095Y-58737619D01*
X81285714Y-58832857D01*
X81285714Y-58928095D01*
X81238095Y-59070952D01*
X80666666Y-59642380D01*
X81285714Y-59642380D01*
%TD*%
M02*
