M48
METRIC,TZ
T1C0.700
T2C0.800
T3C1.520
%
G90
G05
T1
X34980Y7300
X37520Y7300
X40060Y7300
X42600Y7300
T2
X27130Y34130
X27130Y31590
X27130Y29050
X27130Y26510
X27130Y23970
X27130Y21430
X27130Y18890
X27130Y16350
X34750Y34130
X34750Y31590
X34750Y29050
X34750Y26510
X34750Y23970
X34750Y21430
X34750Y18890
X34750Y16350
X38200Y18400
X38270Y34130
T3
X4250Y40000
X4250Y34920
X4250Y29840
X4250Y24760
X4250Y18000
X4250Y12920
X4250Y7840
X4250Y2760
X18320Y4800
X23400Y4800
X65500Y40000
X65500Y34920
X65500Y29840
X65500Y24760
X65500Y18000
X65500Y12920
X65500Y7840
X65500Y2760
T0
M30
