%TF.GenerationSoftware,KiCad,Pcbnew,5.99.0+really5.1.10+dfsg1-1*%
%TF.CreationDate,2021-11-02T22:02:19+11:00*%
%TF.ProjectId,buffer,62756666-6572-42e6-9b69-6361645f7063,rev?*%
%TF.SameCoordinates,PX2faf080PY5f5e100*%
%TF.FileFunction,Plated,1,2,PTH,Drill*%
%TF.FilePolarity,Positive*%
%FSLAX46Y46*%
G04 Gerber Fmt 4.6, Leading zero omitted, Abs format (unit mm)*
G04 Created by KiCad (PCBNEW 5.99.0+really5.1.10+dfsg1-1) date 2021-11-02 22:02:19*
%MOMM*%
%LPD*%
G01*
G04 APERTURE LIST*
%TA.AperFunction,ComponentDrill*%
%ADD10C,0.700000*%
%TD*%
%TA.AperFunction,ComponentDrill*%
%ADD11C,0.800000*%
%TD*%
%TA.AperFunction,ViaDrill*%
%ADD12C,0.800000*%
%TD*%
%TA.AperFunction,ComponentDrill*%
%ADD13C,1.520000*%
%TD*%
G04 APERTURE END LIST*
D10*
%TO.C,U2*%
X34980000Y7300000D03*
X37520000Y7300000D03*
X40060000Y7300000D03*
X42600000Y7300000D03*
D11*
%TO.C,U1*%
X27130000Y34130000D03*
X27130000Y31590000D03*
X27130000Y29050000D03*
X27130000Y26510000D03*
X27130000Y23970000D03*
X27130000Y21430000D03*
X27130000Y18890000D03*
X27130000Y16350000D03*
X34750000Y34130000D03*
X34750000Y31590000D03*
X34750000Y29050000D03*
X34750000Y26510000D03*
X34750000Y23970000D03*
X34750000Y21430000D03*
X34750000Y18890000D03*
X34750000Y16350000D03*
%TD*%
D12*
X38200000Y18400000D03*
X38270000Y34130000D03*
D13*
%TO.C,J4*%
X4250000Y40000000D03*
X4250000Y34920000D03*
X4250000Y29840000D03*
X4250000Y24760000D03*
%TO.C,J3*%
X4250000Y18000000D03*
X4250000Y12920000D03*
X4250000Y7840000D03*
X4250000Y2760000D03*
%TO.C,J5*%
X18320000Y4800000D03*
X23400000Y4800000D03*
%TO.C,J2*%
X65500000Y40000000D03*
X65500000Y34920000D03*
X65500000Y29840000D03*
X65500000Y24760000D03*
%TO.C,J1*%
X65500000Y18000000D03*
X65500000Y12920000D03*
X65500000Y7840000D03*
X65500000Y2760000D03*
M02*
