%TF.GenerationSoftware,KiCad,Pcbnew,5.99.0+really5.1.10+dfsg1-1*%
%TF.CreationDate,2021-11-04T11:29:56+11:00*%
%TF.ProjectId,buffer,62756666-6572-42e6-9b69-6361645f7063,rev?*%
%TF.SameCoordinates,PX2faf080PY5f5e100*%
%TF.FileFunction,Copper,L2,Bot*%
%TF.FilePolarity,Positive*%
%FSLAX46Y46*%
G04 Gerber Fmt 4.6, Leading zero omitted, Abs format (unit mm)*
G04 Created by KiCad (PCBNEW 5.99.0+really5.1.10+dfsg1-1) date 2021-11-04 11:29:56*
%MOMM*%
%LPD*%
G01*
G04 APERTURE LIST*
%TA.AperFunction,ComponentPad*%
%ADD10R,1.500000X2.000000*%
%TD*%
%TA.AperFunction,ComponentPad*%
%ADD11O,1.500000X2.000000*%
%TD*%
%TA.AperFunction,ComponentPad*%
%ADD12O,2.400000X1.600000*%
%TD*%
%TA.AperFunction,ComponentPad*%
%ADD13R,2.400000X1.600000*%
%TD*%
%TA.AperFunction,ComponentPad*%
%ADD14R,3.000000X4.000000*%
%TD*%
%TA.AperFunction,ComponentPad*%
%ADD15O,3.000000X4.000000*%
%TD*%
%TA.AperFunction,ComponentPad*%
%ADD16O,4.000000X3.000000*%
%TD*%
%TA.AperFunction,ComponentPad*%
%ADD17R,4.000000X3.000000*%
%TD*%
%TA.AperFunction,ViaPad*%
%ADD18C,1.000000*%
%TD*%
%TA.AperFunction,Conductor*%
%ADD19C,1.016000*%
%TD*%
%TA.AperFunction,Conductor*%
%ADD20C,0.508000*%
%TD*%
%TA.AperFunction,Conductor*%
%ADD21C,0.254000*%
%TD*%
%TA.AperFunction,Conductor*%
%ADD22C,0.050000*%
%TD*%
G04 APERTURE END LIST*
%TO.P,L6,2*%
%TO.N,ZIPUL*%
%TA.AperFunction,SMDPad,CuDef*%
G36*
G01*
X60350000Y25150001D02*
X60350000Y24249999D01*
G75*
G02*
X60100001Y24000000I-249999J0D01*
G01*
X59449999Y24000000D01*
G75*
G02*
X59200000Y24249999I0J249999D01*
G01*
X59200000Y25150001D01*
G75*
G02*
X59449999Y25400000I249999J0D01*
G01*
X60100001Y25400000D01*
G75*
G02*
X60350000Y25150001I0J-249999D01*
G01*
G37*
%TD.AperFunction*%
%TO.P,L6,1*%
%TO.N,Net-(J2-Pad4)*%
%TA.AperFunction,SMDPad,CuDef*%
G36*
G01*
X62400000Y25150001D02*
X62400000Y24249999D01*
G75*
G02*
X62150001Y24000000I-249999J0D01*
G01*
X61499999Y24000000D01*
G75*
G02*
X61250000Y24249999I0J249999D01*
G01*
X61250000Y25150001D01*
G75*
G02*
X61499999Y25400000I249999J0D01*
G01*
X62150001Y25400000D01*
G75*
G02*
X62400000Y25150001I0J-249999D01*
G01*
G37*
%TD.AperFunction*%
%TD*%
%TO.P,L5,2*%
%TO.N,XIENA*%
%TA.AperFunction,SMDPad,CuDef*%
G36*
G01*
X58150000Y3200001D02*
X58150000Y2299999D01*
G75*
G02*
X57900001Y2050000I-249999J0D01*
G01*
X57249999Y2050000D01*
G75*
G02*
X57000000Y2299999I0J249999D01*
G01*
X57000000Y3200001D01*
G75*
G02*
X57249999Y3450000I249999J0D01*
G01*
X57900001Y3450000D01*
G75*
G02*
X58150000Y3200001I0J-249999D01*
G01*
G37*
%TD.AperFunction*%
%TO.P,L5,1*%
%TO.N,Net-(J1-Pad4)*%
%TA.AperFunction,SMDPad,CuDef*%
G36*
G01*
X60200000Y3200001D02*
X60200000Y2299999D01*
G75*
G02*
X59950001Y2050000I-249999J0D01*
G01*
X59299999Y2050000D01*
G75*
G02*
X59050000Y2299999I0J249999D01*
G01*
X59050000Y3200001D01*
G75*
G02*
X59299999Y3450000I249999J0D01*
G01*
X59950001Y3450000D01*
G75*
G02*
X60200000Y3200001I0J-249999D01*
G01*
G37*
%TD.AperFunction*%
%TD*%
%TO.P,L4,2*%
%TO.N,ZIDIR*%
%TA.AperFunction,SMDPad,CuDef*%
G36*
G01*
X60350000Y30450001D02*
X60350000Y29549999D01*
G75*
G02*
X60100001Y29300000I-249999J0D01*
G01*
X59449999Y29300000D01*
G75*
G02*
X59200000Y29549999I0J249999D01*
G01*
X59200000Y30450001D01*
G75*
G02*
X59449999Y30700000I249999J0D01*
G01*
X60100001Y30700000D01*
G75*
G02*
X60350000Y30450001I0J-249999D01*
G01*
G37*
%TD.AperFunction*%
%TO.P,L4,1*%
%TO.N,Net-(J2-Pad3)*%
%TA.AperFunction,SMDPad,CuDef*%
G36*
G01*
X62400000Y30450001D02*
X62400000Y29549999D01*
G75*
G02*
X62150001Y29300000I-249999J0D01*
G01*
X61499999Y29300000D01*
G75*
G02*
X61250000Y29549999I0J249999D01*
G01*
X61250000Y30450001D01*
G75*
G02*
X61499999Y30700000I249999J0D01*
G01*
X62150001Y30700000D01*
G75*
G02*
X62400000Y30450001I0J-249999D01*
G01*
G37*
%TD.AperFunction*%
%TD*%
%TO.P,L3,2*%
%TO.N,XIDIR*%
%TA.AperFunction,SMDPad,CuDef*%
G36*
G01*
X58100000Y8300001D02*
X58100000Y7399999D01*
G75*
G02*
X57850001Y7150000I-249999J0D01*
G01*
X57199999Y7150000D01*
G75*
G02*
X56950000Y7399999I0J249999D01*
G01*
X56950000Y8300001D01*
G75*
G02*
X57199999Y8550000I249999J0D01*
G01*
X57850001Y8550000D01*
G75*
G02*
X58100000Y8300001I0J-249999D01*
G01*
G37*
%TD.AperFunction*%
%TO.P,L3,1*%
%TO.N,Net-(J1-Pad3)*%
%TA.AperFunction,SMDPad,CuDef*%
G36*
G01*
X60150000Y8300001D02*
X60150000Y7399999D01*
G75*
G02*
X59900001Y7150000I-249999J0D01*
G01*
X59249999Y7150000D01*
G75*
G02*
X59000000Y7399999I0J249999D01*
G01*
X59000000Y8300001D01*
G75*
G02*
X59249999Y8550000I249999J0D01*
G01*
X59900001Y8550000D01*
G75*
G02*
X60150000Y8300001I0J-249999D01*
G01*
G37*
%TD.AperFunction*%
%TD*%
%TO.P,L2,2*%
%TO.N,ZIENA*%
%TA.AperFunction,SMDPad,CuDef*%
G36*
G01*
X60350000Y35450001D02*
X60350000Y34549999D01*
G75*
G02*
X60100001Y34300000I-249999J0D01*
G01*
X59449999Y34300000D01*
G75*
G02*
X59200000Y34549999I0J249999D01*
G01*
X59200000Y35450001D01*
G75*
G02*
X59449999Y35700000I249999J0D01*
G01*
X60100001Y35700000D01*
G75*
G02*
X60350000Y35450001I0J-249999D01*
G01*
G37*
%TD.AperFunction*%
%TO.P,L2,1*%
%TO.N,Net-(J2-Pad2)*%
%TA.AperFunction,SMDPad,CuDef*%
G36*
G01*
X62400000Y35450001D02*
X62400000Y34549999D01*
G75*
G02*
X62150001Y34300000I-249999J0D01*
G01*
X61499999Y34300000D01*
G75*
G02*
X61250000Y34549999I0J249999D01*
G01*
X61250000Y35450001D01*
G75*
G02*
X61499999Y35700000I249999J0D01*
G01*
X62150001Y35700000D01*
G75*
G02*
X62400000Y35450001I0J-249999D01*
G01*
G37*
%TD.AperFunction*%
%TD*%
%TO.P,L1,2*%
%TO.N,XIPUL*%
%TA.AperFunction,SMDPad,CuDef*%
G36*
G01*
X58100000Y13350001D02*
X58100000Y12449999D01*
G75*
G02*
X57850001Y12200000I-249999J0D01*
G01*
X57199999Y12200000D01*
G75*
G02*
X56950000Y12449999I0J249999D01*
G01*
X56950000Y13350001D01*
G75*
G02*
X57199999Y13600000I249999J0D01*
G01*
X57850001Y13600000D01*
G75*
G02*
X58100000Y13350001I0J-249999D01*
G01*
G37*
%TD.AperFunction*%
%TO.P,L1,1*%
%TO.N,Net-(J1-Pad2)*%
%TA.AperFunction,SMDPad,CuDef*%
G36*
G01*
X60150000Y13350001D02*
X60150000Y12449999D01*
G75*
G02*
X59900001Y12200000I-249999J0D01*
G01*
X59249999Y12200000D01*
G75*
G02*
X59000000Y12449999I0J249999D01*
G01*
X59000000Y13350001D01*
G75*
G02*
X59249999Y13600000I249999J0D01*
G01*
X59900001Y13600000D01*
G75*
G02*
X60150000Y13350001I0J-249999D01*
G01*
G37*
%TD.AperFunction*%
%TD*%
D10*
%TO.P,U2,1*%
%TO.N,VIN-*%
X42600000Y7300000D03*
D11*
%TO.P,U2,2*%
%TO.N,VIN+*%
X40060000Y7300000D03*
%TO.P,U2,3*%
%TO.N,GND*%
X37520000Y7300000D03*
%TO.P,U2,4*%
%TO.N,+5V*%
X34980000Y7300000D03*
%TD*%
D12*
%TO.P,U1,16*%
%TO.N,N/C*%
X27130000Y16350000D03*
D13*
%TO.P,U1,8*%
%TO.N,GND*%
X34750000Y34130000D03*
D12*
%TO.P,U1,15*%
%TO.N,ZOPUL*%
X27130000Y18890000D03*
%TO.P,U1,7*%
%TO.N,XIPUL*%
X34750000Y31590000D03*
%TO.P,U1,14*%
%TO.N,ZIPUL*%
X27130000Y21430000D03*
%TO.P,U1,6*%
%TO.N,XOPUL*%
X34750000Y29050000D03*
%TO.P,U1,13*%
%TO.N,N/C*%
X27130000Y23970000D03*
%TO.P,U1,5*%
%TO.N,XIDIR*%
X34750000Y26510000D03*
%TO.P,U1,12*%
%TO.N,ZODIR*%
X27130000Y26510000D03*
%TO.P,U1,4*%
%TO.N,XODIR*%
X34750000Y23970000D03*
%TO.P,U1,11*%
%TO.N,ZIDIR*%
X27130000Y29050000D03*
%TO.P,U1,3*%
%TO.N,XIENA*%
X34750000Y21430000D03*
%TO.P,U1,10*%
%TO.N,ZOENA*%
X27130000Y31590000D03*
%TO.P,U1,2*%
%TO.N,XOENA*%
X34750000Y18890000D03*
%TO.P,U1,9*%
%TO.N,ZIENA*%
X27130000Y34130000D03*
%TO.P,U1,1*%
%TO.N,+5V*%
X34750000Y16350000D03*
%TD*%
D14*
%TO.P,J5,2*%
%TO.N,VIN-*%
X18320000Y4800000D03*
D15*
%TO.P,J5,1*%
%TO.N,VIN+*%
X23400000Y4800000D03*
%TD*%
D16*
%TO.P,J4,4*%
%TO.N,ZOPUL*%
X4250000Y24760000D03*
D17*
%TO.P,J4,1*%
%TO.N,GND*%
X4250000Y40000000D03*
D16*
%TO.P,J4,3*%
%TO.N,ZODIR*%
X4250000Y29840000D03*
%TO.P,J4,2*%
%TO.N,ZOENA*%
X4250000Y34920000D03*
%TD*%
%TO.P,J3,4*%
%TO.N,XOENA*%
X4250000Y2760000D03*
D17*
%TO.P,J3,1*%
%TO.N,GND*%
X4250000Y18000000D03*
D16*
%TO.P,J3,3*%
%TO.N,XODIR*%
X4250000Y7840000D03*
%TO.P,J3,2*%
%TO.N,XOPUL*%
X4250000Y12920000D03*
%TD*%
%TO.P,J2,4*%
%TO.N,Net-(J2-Pad4)*%
X65500000Y24760000D03*
D17*
%TO.P,J2,1*%
%TO.N,GND*%
X65500000Y40000000D03*
D16*
%TO.P,J2,3*%
%TO.N,Net-(J2-Pad3)*%
X65500000Y29840000D03*
%TO.P,J2,2*%
%TO.N,Net-(J2-Pad2)*%
X65500000Y34920000D03*
%TD*%
%TO.P,J1,4*%
%TO.N,Net-(J1-Pad4)*%
X65500000Y2760000D03*
D17*
%TO.P,J1,1*%
%TO.N,GND*%
X65500000Y18000000D03*
D16*
%TO.P,J1,3*%
%TO.N,Net-(J1-Pad3)*%
X65500000Y7840000D03*
%TO.P,J1,2*%
%TO.N,Net-(J1-Pad2)*%
X65500000Y12920000D03*
%TD*%
%TO.P,C1,2*%
%TO.N,GND*%
%TA.AperFunction,SMDPad,CuDef*%
G36*
G01*
X41450001Y17800000D02*
X40549999Y17800000D01*
G75*
G02*
X40300000Y18049999I0J249999D01*
G01*
X40300000Y18700001D01*
G75*
G02*
X40549999Y18950000I249999J0D01*
G01*
X41450001Y18950000D01*
G75*
G02*
X41700000Y18700001I0J-249999D01*
G01*
X41700000Y18049999D01*
G75*
G02*
X41450001Y17800000I-249999J0D01*
G01*
G37*
%TD.AperFunction*%
%TO.P,C1,1*%
%TO.N,+5V*%
%TA.AperFunction,SMDPad,CuDef*%
G36*
G01*
X41450001Y15750000D02*
X40549999Y15750000D01*
G75*
G02*
X40300000Y15999999I0J249999D01*
G01*
X40300000Y16650001D01*
G75*
G02*
X40549999Y16900000I249999J0D01*
G01*
X41450001Y16900000D01*
G75*
G02*
X41700000Y16650001I0J-249999D01*
G01*
X41700000Y15999999D01*
G75*
G02*
X41450001Y15750000I-249999J0D01*
G01*
G37*
%TD.AperFunction*%
%TD*%
D18*
%TO.N,GND*%
X38200000Y18400000D03*
X38270000Y34130000D03*
%TD*%
D19*
%TO.N,GND*%
X37520000Y7300000D02*
X37520000Y9580000D01*
X34750000Y34130000D02*
X38270000Y34130000D01*
D20*
X38225000Y18375000D02*
X38200000Y18400000D01*
X41000000Y18375000D02*
X38225000Y18375000D01*
%TO.N,+5V*%
X41000000Y16325000D02*
X34775000Y16325000D01*
X34775000Y16325000D02*
X34750000Y16350000D01*
X34980000Y7300000D02*
X34980000Y16120000D01*
X34980000Y16120000D02*
X34800000Y16300000D01*
%TO.N,XIPUL*%
X50000000Y15500000D02*
X52600000Y12900000D01*
X50000000Y25200000D02*
X50000000Y15500000D01*
X43610000Y31590000D02*
X50000000Y25200000D01*
X34750000Y31590000D02*
X43610000Y31590000D01*
X52600000Y12900000D02*
X57500000Y12900000D01*
%TO.N,XIDIR*%
X53200000Y7800000D02*
X57500000Y7800000D01*
X46600000Y14400000D02*
X53200000Y7800000D01*
X46600000Y23200000D02*
X46600000Y14400000D01*
X43290000Y26510000D02*
X46600000Y23200000D01*
X34750000Y26510000D02*
X43290000Y26510000D01*
%TO.N,XIENA*%
X52700000Y2700000D02*
X57600000Y2700000D01*
X44000000Y11400000D02*
X52700000Y2700000D01*
X44000000Y19400000D02*
X44000000Y11400000D01*
X41970000Y21430000D02*
X44000000Y19400000D01*
X34750000Y21430000D02*
X41970000Y21430000D01*
%TO.N,ZIPUL*%
X56400000Y24700000D02*
X59800000Y24700000D01*
X54700000Y26400000D02*
X56400000Y24700000D01*
X54700000Y32900000D02*
X54700000Y26400000D01*
X50200000Y37400000D02*
X54700000Y32900000D01*
X32000000Y30600000D02*
X32000000Y34800000D01*
X29200000Y27800000D02*
X32000000Y30600000D01*
X34600000Y37400000D02*
X50200000Y37400000D01*
X29200000Y22200000D02*
X29200000Y27800000D01*
X28430000Y21430000D02*
X29200000Y22200000D01*
X32000000Y34800000D02*
X34600000Y37400000D01*
X27130000Y21430000D02*
X28430000Y21430000D01*
%TO.N,ZIDIR*%
X57800000Y30000000D02*
X59600000Y30000000D01*
X57000000Y30800000D02*
X57800000Y30000000D01*
X57000000Y34800000D02*
X57000000Y30800000D01*
X52000000Y39800000D02*
X57000000Y34800000D01*
X59600000Y30000000D02*
X59700000Y29900000D01*
X34000000Y39800000D02*
X52000000Y39800000D01*
X30500000Y36300000D02*
X34000000Y39800000D01*
X28850000Y29050000D02*
X30500000Y30700000D01*
X30500000Y30700000D02*
X30500000Y36300000D01*
X27130000Y29050000D02*
X28850000Y29050000D01*
%TO.N,Net-(J2-Pad4)*%
X65500000Y24800000D02*
X65500000Y24700000D01*
X65500000Y24700000D02*
X65400000Y24700000D01*
%TO.N,Net-(J2-Pad3)*%
X65000000Y30000000D02*
X65400000Y29600000D01*
%TO.N,ZIENA*%
X57400000Y38700000D02*
X59800000Y36300000D01*
X59800000Y36300000D02*
X59800000Y35000000D01*
X59800000Y35000000D02*
X59800000Y34900000D01*
X53900000Y42200000D02*
X57300000Y38800000D01*
X33300000Y42200000D02*
X53900000Y42200000D01*
X27130000Y36030000D02*
X33300000Y42200000D01*
X27130000Y34130000D02*
X27130000Y36030000D01*
%TO.N,XOPUL*%
X34700000Y29000000D02*
X34800000Y29100000D01*
X32100000Y29000000D02*
X34700000Y29000000D01*
X30300000Y27200000D02*
X32100000Y29000000D01*
X30300000Y15000000D02*
X30300000Y27200000D01*
X28220000Y12920000D02*
X30300000Y15000000D01*
X4250000Y12920000D02*
X28220000Y12920000D01*
%TO.N,XODIR*%
X32200000Y23900000D02*
X34700000Y23900000D01*
X28200000Y10300000D02*
X31300000Y13400000D01*
X9900000Y10300000D02*
X28200000Y10300000D01*
X31300000Y23000000D02*
X32200000Y23900000D01*
X31300000Y13400000D02*
X31300000Y23000000D01*
X7440000Y7840000D02*
X9900000Y10300000D01*
X4250000Y7840000D02*
X7440000Y7840000D01*
%TO.N,XOENA*%
X32400000Y18000000D02*
X33200000Y18800000D01*
X32400000Y10600000D02*
X32400000Y18000000D01*
X29800000Y8000000D02*
X32400000Y10600000D01*
X10500000Y8000000D02*
X29800000Y8000000D01*
X33200000Y18800000D02*
X34700000Y18800000D01*
X8950000Y6450000D02*
X10500000Y8000000D01*
X8950000Y4250000D02*
X8950000Y6450000D01*
X7460000Y2760000D02*
X8950000Y4250000D01*
X4250000Y2760000D02*
X7460000Y2760000D01*
%TO.N,ZOPUL*%
X4250000Y24760000D02*
X10740000Y24760000D01*
X10740000Y24760000D02*
X16600000Y18900000D01*
X16600000Y18900000D02*
X27000000Y18900000D01*
X27000000Y18900000D02*
X27100000Y18800000D01*
%TO.N,ZODIR*%
X4250000Y29840000D02*
X11860000Y29840000D01*
X11860000Y29840000D02*
X15200000Y26500000D01*
X15200000Y26500000D02*
X27300000Y26500000D01*
%TO.N,ZOENA*%
X4250000Y34920000D02*
X13280000Y34920000D01*
X13280000Y34920000D02*
X16700000Y31500000D01*
X16700000Y31500000D02*
X27100000Y31500000D01*
X27100000Y31500000D02*
X27100000Y31400000D01*
%TO.N,VIN-*%
X42600000Y7200000D02*
X42500000Y7200000D01*
X42600000Y3400000D02*
X42600000Y7200000D01*
X19350000Y1500000D02*
X40700000Y1500000D01*
X18400000Y2450000D02*
X19350000Y1500000D01*
X40700000Y1500000D02*
X42600000Y3400000D01*
X18400000Y5000000D02*
X18400000Y2450000D01*
%TO.N,VIN+*%
X40060000Y7300000D02*
X40060000Y6060000D01*
X23400000Y4800000D02*
X38800000Y4800000D01*
X38800000Y4800000D02*
X40060000Y6060000D01*
%TO.N,Net-(J1-Pad4)*%
X59625000Y2750000D02*
X65450000Y2750000D01*
%TO.N,Net-(J1-Pad3)*%
X59575000Y7850000D02*
X65450000Y7850000D01*
%TO.N,Net-(J1-Pad2)*%
X59575000Y12900000D02*
X65400000Y12900000D01*
%TO.N,Net-(J2-Pad4)*%
X61825000Y24700000D02*
X65500000Y24700000D01*
%TO.N,Net-(J2-Pad3)*%
X61825000Y30000000D02*
X65500000Y30000000D01*
X65500000Y30000000D02*
X65600000Y29900000D01*
%TO.N,Net-(J2-Pad2)*%
X61900000Y34900000D02*
X65500000Y34900000D01*
X61800000Y35000000D02*
X61900000Y34900000D01*
%TD*%
D21*
%TO.N,GND*%
X69340000Y660000D02*
X66432075Y660000D01*
X66820982Y777974D01*
X67191881Y976223D01*
X67516977Y1243023D01*
X67783777Y1568119D01*
X67982026Y1939018D01*
X68104108Y2341467D01*
X68145330Y2760000D01*
X68104108Y3178533D01*
X67982026Y3580982D01*
X67783777Y3951881D01*
X67516977Y4276977D01*
X67191881Y4543777D01*
X66820982Y4742026D01*
X66418533Y4864108D01*
X66104882Y4895000D01*
X64895118Y4895000D01*
X64581467Y4864108D01*
X64179018Y4742026D01*
X63808119Y4543777D01*
X63483023Y4276977D01*
X63216223Y3951881D01*
X63048985Y3639000D01*
X60717476Y3639000D01*
X60688405Y3693387D01*
X60577962Y3827962D01*
X60443387Y3938405D01*
X60289851Y4020472D01*
X60123255Y4071008D01*
X59950001Y4088072D01*
X59299999Y4088072D01*
X59126745Y4071008D01*
X58960149Y4020472D01*
X58806613Y3938405D01*
X58672038Y3827962D01*
X58600000Y3740184D01*
X58527962Y3827962D01*
X58393387Y3938405D01*
X58239851Y4020472D01*
X58073255Y4071008D01*
X57900001Y4088072D01*
X57249999Y4088072D01*
X57076745Y4071008D01*
X56910149Y4020472D01*
X56756613Y3938405D01*
X56622038Y3827962D01*
X56511595Y3693387D01*
X56455799Y3589000D01*
X53068236Y3589000D01*
X44889000Y11768235D01*
X44889000Y19356332D01*
X44893301Y19400000D01*
X44876136Y19574275D01*
X44855364Y19642752D01*
X44825303Y19741851D01*
X44742753Y19896291D01*
X44631659Y20031659D01*
X44597743Y20059493D01*
X42629499Y22027736D01*
X42601659Y22061659D01*
X42466291Y22172753D01*
X42311851Y22255303D01*
X42144274Y22306136D01*
X42013667Y22319000D01*
X42013660Y22319000D01*
X41970000Y22323300D01*
X41926340Y22319000D01*
X36651566Y22319000D01*
X36645365Y25621000D01*
X42921765Y25621000D01*
X45711000Y22831764D01*
X45711001Y14443670D01*
X45706700Y14400000D01*
X45723864Y14225726D01*
X45774698Y14058148D01*
X45857248Y13903709D01*
X45885104Y13869767D01*
X45968342Y13768341D01*
X46002259Y13740506D01*
X52540506Y7202258D01*
X52568341Y7168341D01*
X52703709Y7057247D01*
X52858149Y6974697D01*
X52951793Y6946291D01*
X53025725Y6923864D01*
X53200000Y6906699D01*
X53243668Y6911000D01*
X56459250Y6911000D01*
X56461595Y6906613D01*
X56572038Y6772038D01*
X56706613Y6661595D01*
X56860149Y6579528D01*
X57026745Y6528992D01*
X57199999Y6511928D01*
X57850001Y6511928D01*
X58023255Y6528992D01*
X58189851Y6579528D01*
X58343387Y6661595D01*
X58477962Y6772038D01*
X58550000Y6859816D01*
X58622038Y6772038D01*
X58756613Y6661595D01*
X58910149Y6579528D01*
X59076745Y6528992D01*
X59249999Y6511928D01*
X59900001Y6511928D01*
X60073255Y6528992D01*
X60239851Y6579528D01*
X60393387Y6661595D01*
X60527962Y6772038D01*
X60638405Y6906613D01*
X60667476Y6961000D01*
X63048985Y6961000D01*
X63216223Y6648119D01*
X63483023Y6323023D01*
X63808119Y6056223D01*
X64179018Y5857974D01*
X64581467Y5735892D01*
X64895118Y5705000D01*
X66104882Y5705000D01*
X66418533Y5735892D01*
X66820982Y5857974D01*
X67191881Y6056223D01*
X67516977Y6323023D01*
X67783777Y6648119D01*
X67982026Y7019018D01*
X68104108Y7421467D01*
X68145330Y7840000D01*
X68104108Y8258533D01*
X67982026Y8660982D01*
X67783777Y9031881D01*
X67516977Y9356977D01*
X67191881Y9623777D01*
X66820982Y9822026D01*
X66418533Y9944108D01*
X66104882Y9975000D01*
X64895118Y9975000D01*
X64581467Y9944108D01*
X64179018Y9822026D01*
X63808119Y9623777D01*
X63483023Y9356977D01*
X63216223Y9031881D01*
X63059675Y8739000D01*
X60667476Y8739000D01*
X60638405Y8793387D01*
X60527962Y8927962D01*
X60393387Y9038405D01*
X60239851Y9120472D01*
X60073255Y9171008D01*
X59900001Y9188072D01*
X59249999Y9188072D01*
X59076745Y9171008D01*
X58910149Y9120472D01*
X58756613Y9038405D01*
X58622038Y8927962D01*
X58550000Y8840184D01*
X58477962Y8927962D01*
X58343387Y9038405D01*
X58189851Y9120472D01*
X58023255Y9171008D01*
X57850001Y9188072D01*
X57199999Y9188072D01*
X57026745Y9171008D01*
X56860149Y9120472D01*
X56706613Y9038405D01*
X56572038Y8927962D01*
X56461595Y8793387D01*
X56405799Y8689000D01*
X53568236Y8689000D01*
X47489000Y14768235D01*
X47489000Y23156340D01*
X47493300Y23200000D01*
X47489000Y23243660D01*
X47489000Y23243667D01*
X47476136Y23374274D01*
X47467208Y23403708D01*
X47425302Y23541853D01*
X47382442Y23622038D01*
X47342753Y23696291D01*
X47231659Y23831659D01*
X47197743Y23859493D01*
X43949499Y27107736D01*
X43921659Y27141659D01*
X43786291Y27252753D01*
X43631851Y27335303D01*
X43464274Y27386136D01*
X43333667Y27399000D01*
X43333660Y27399000D01*
X43290000Y27403300D01*
X43246340Y27399000D01*
X36642026Y27399000D01*
X36635825Y30701000D01*
X43241765Y30701000D01*
X49111000Y24831764D01*
X49111001Y15543670D01*
X49106700Y15500000D01*
X49123864Y15325726D01*
X49174698Y15158148D01*
X49257248Y15003709D01*
X49296129Y14956333D01*
X49368342Y14868341D01*
X49402259Y14840506D01*
X51940501Y12302264D01*
X51968341Y12268341D01*
X52103709Y12157247D01*
X52258149Y12074697D01*
X52324058Y12054704D01*
X52425724Y12023864D01*
X52458924Y12020594D01*
X52556333Y12011000D01*
X52556339Y12011000D01*
X52599999Y12006700D01*
X52643659Y12011000D01*
X56432524Y12011000D01*
X56461595Y11956613D01*
X56572038Y11822038D01*
X56706613Y11711595D01*
X56860149Y11629528D01*
X57026745Y11578992D01*
X57199999Y11561928D01*
X57850001Y11561928D01*
X58023255Y11578992D01*
X58189851Y11629528D01*
X58343387Y11711595D01*
X58477962Y11822038D01*
X58550000Y11909816D01*
X58622038Y11822038D01*
X58756613Y11711595D01*
X58910149Y11629528D01*
X59076745Y11578992D01*
X59249999Y11561928D01*
X59900001Y11561928D01*
X60073255Y11578992D01*
X60239851Y11629528D01*
X60393387Y11711595D01*
X60527962Y11822038D01*
X60638405Y11956613D01*
X60667476Y12011000D01*
X63065020Y12011000D01*
X63216223Y11728119D01*
X63483023Y11403023D01*
X63808119Y11136223D01*
X64179018Y10937974D01*
X64581467Y10815892D01*
X64895118Y10785000D01*
X66104882Y10785000D01*
X66418533Y10815892D01*
X66820982Y10937974D01*
X67191881Y11136223D01*
X67516977Y11403023D01*
X67783777Y11728119D01*
X67982026Y12099018D01*
X68104108Y12501467D01*
X68145330Y12920000D01*
X68104108Y13338533D01*
X67982026Y13740982D01*
X67783777Y14111881D01*
X67516977Y14436977D01*
X67191881Y14703777D01*
X66820982Y14902026D01*
X66418533Y15024108D01*
X66104882Y15055000D01*
X64895118Y15055000D01*
X64581467Y15024108D01*
X64179018Y14902026D01*
X63808119Y14703777D01*
X63483023Y14436977D01*
X63216223Y14111881D01*
X63043640Y13789000D01*
X60667476Y13789000D01*
X60638405Y13843387D01*
X60527962Y13977962D01*
X60393387Y14088405D01*
X60239851Y14170472D01*
X60073255Y14221008D01*
X59900001Y14238072D01*
X59249999Y14238072D01*
X59076745Y14221008D01*
X58910149Y14170472D01*
X58756613Y14088405D01*
X58622038Y13977962D01*
X58550000Y13890184D01*
X58477962Y13977962D01*
X58343387Y14088405D01*
X58189851Y14170472D01*
X58023255Y14221008D01*
X57850001Y14238072D01*
X57199999Y14238072D01*
X57026745Y14221008D01*
X56860149Y14170472D01*
X56706613Y14088405D01*
X56572038Y13977962D01*
X56461595Y13843387D01*
X56432524Y13789000D01*
X52968235Y13789000D01*
X50889000Y15868235D01*
X50889000Y16500000D01*
X62861928Y16500000D01*
X62874188Y16375518D01*
X62910498Y16255820D01*
X62969463Y16145506D01*
X63048815Y16048815D01*
X63145506Y15969463D01*
X63255820Y15910498D01*
X63375518Y15874188D01*
X63500000Y15861928D01*
X65214250Y15865000D01*
X65373000Y16023750D01*
X65373000Y17873000D01*
X65627000Y17873000D01*
X65627000Y16023750D01*
X65785750Y15865000D01*
X67500000Y15861928D01*
X67624482Y15874188D01*
X67744180Y15910498D01*
X67854494Y15969463D01*
X67951185Y16048815D01*
X68030537Y16145506D01*
X68089502Y16255820D01*
X68125812Y16375518D01*
X68138072Y16500000D01*
X68135000Y17714250D01*
X67976250Y17873000D01*
X65627000Y17873000D01*
X65373000Y17873000D01*
X63023750Y17873000D01*
X62865000Y17714250D01*
X62861928Y16500000D01*
X50889000Y16500000D01*
X50889000Y19500000D01*
X62861928Y19500000D01*
X62865000Y18285750D01*
X63023750Y18127000D01*
X65373000Y18127000D01*
X65373000Y19976250D01*
X65627000Y19976250D01*
X65627000Y18127000D01*
X67976250Y18127000D01*
X68135000Y18285750D01*
X68138072Y19500000D01*
X68125812Y19624482D01*
X68089502Y19744180D01*
X68030537Y19854494D01*
X67951185Y19951185D01*
X67854494Y20030537D01*
X67744180Y20089502D01*
X67624482Y20125812D01*
X67500000Y20138072D01*
X65785750Y20135000D01*
X65627000Y19976250D01*
X65373000Y19976250D01*
X65214250Y20135000D01*
X63500000Y20138072D01*
X63375518Y20125812D01*
X63255820Y20089502D01*
X63145506Y20030537D01*
X63048815Y19951185D01*
X62969463Y19854494D01*
X62910498Y19744180D01*
X62874188Y19624482D01*
X62861928Y19500000D01*
X50889000Y19500000D01*
X50889000Y25156340D01*
X50893300Y25200000D01*
X50889000Y25243660D01*
X50889000Y25243667D01*
X50876136Y25374274D01*
X50870863Y25391659D01*
X50858729Y25431659D01*
X50825303Y25541851D01*
X50742753Y25696291D01*
X50631659Y25831659D01*
X50597743Y25859493D01*
X44269499Y32187736D01*
X44241659Y32221659D01*
X44106291Y32332753D01*
X43951851Y32415303D01*
X43784274Y32466136D01*
X43653667Y32479000D01*
X43653660Y32479000D01*
X43610000Y32483300D01*
X43566340Y32479000D01*
X36632486Y32479000D01*
X36627000Y35400238D01*
X36624560Y35424776D01*
X36622112Y35432845D01*
X36626831Y36511000D01*
X49831765Y36511000D01*
X53811000Y32531764D01*
X53811001Y26443670D01*
X53806700Y26400000D01*
X53823864Y26225726D01*
X53874698Y26058148D01*
X53957248Y25903709D01*
X54009118Y25840506D01*
X54068342Y25768341D01*
X54102259Y25740506D01*
X55740506Y24102258D01*
X55768341Y24068341D01*
X55903709Y23957247D01*
X56058149Y23874697D01*
X56152758Y23845998D01*
X56225725Y23823864D01*
X56244073Y23822057D01*
X56356333Y23811000D01*
X56356339Y23811000D01*
X56399999Y23806700D01*
X56443659Y23811000D01*
X58682524Y23811000D01*
X58711595Y23756613D01*
X58822038Y23622038D01*
X58956613Y23511595D01*
X59110149Y23429528D01*
X59276745Y23378992D01*
X59449999Y23361928D01*
X60100001Y23361928D01*
X60273255Y23378992D01*
X60439851Y23429528D01*
X60593387Y23511595D01*
X60727962Y23622038D01*
X60800000Y23709816D01*
X60872038Y23622038D01*
X61006613Y23511595D01*
X61160149Y23429528D01*
X61326745Y23378992D01*
X61499999Y23361928D01*
X62150001Y23361928D01*
X62323255Y23378992D01*
X62489851Y23429528D01*
X62643387Y23511595D01*
X62777962Y23622038D01*
X62888405Y23756613D01*
X62917476Y23811000D01*
X63086401Y23811000D01*
X63216223Y23568119D01*
X63483023Y23243023D01*
X63808119Y22976223D01*
X64179018Y22777974D01*
X64581467Y22655892D01*
X64895118Y22625000D01*
X66104882Y22625000D01*
X66418533Y22655892D01*
X66820982Y22777974D01*
X67191881Y22976223D01*
X67516977Y23243023D01*
X67783777Y23568119D01*
X67982026Y23939018D01*
X68104108Y24341467D01*
X68145330Y24760000D01*
X68104108Y25178533D01*
X67982026Y25580982D01*
X67783777Y25951881D01*
X67516977Y26276977D01*
X67191881Y26543777D01*
X66820982Y26742026D01*
X66418533Y26864108D01*
X66104882Y26895000D01*
X64895118Y26895000D01*
X64581467Y26864108D01*
X64179018Y26742026D01*
X63808119Y26543777D01*
X63483023Y26276977D01*
X63216223Y25951881D01*
X63022260Y25589000D01*
X62917476Y25589000D01*
X62888405Y25643387D01*
X62777962Y25777962D01*
X62643387Y25888405D01*
X62489851Y25970472D01*
X62323255Y26021008D01*
X62150001Y26038072D01*
X61499999Y26038072D01*
X61326745Y26021008D01*
X61160149Y25970472D01*
X61006613Y25888405D01*
X60872038Y25777962D01*
X60800000Y25690184D01*
X60727962Y25777962D01*
X60593387Y25888405D01*
X60439851Y25970472D01*
X60273255Y26021008D01*
X60100001Y26038072D01*
X59449999Y26038072D01*
X59276745Y26021008D01*
X59110149Y25970472D01*
X58956613Y25888405D01*
X58822038Y25777962D01*
X58711595Y25643387D01*
X58682524Y25589000D01*
X56768236Y25589000D01*
X55589000Y26768235D01*
X55589000Y32856341D01*
X55593300Y32900001D01*
X55589000Y32943661D01*
X55589000Y32943667D01*
X55576136Y33074274D01*
X55525303Y33241851D01*
X55442753Y33396291D01*
X55331659Y33531659D01*
X55297743Y33559493D01*
X50859499Y37997736D01*
X50831659Y38031659D01*
X50696291Y38142753D01*
X50541851Y38225303D01*
X50374274Y38276136D01*
X50243667Y38289000D01*
X50243660Y38289000D01*
X50200000Y38293300D01*
X50156340Y38289000D01*
X34643659Y38289000D01*
X34599999Y38293300D01*
X34556339Y38289000D01*
X34556333Y38289000D01*
X34458924Y38279406D01*
X34425724Y38276136D01*
X34324058Y38245296D01*
X34258149Y38225303D01*
X34103709Y38142753D01*
X33968341Y38031659D01*
X33940501Y37997736D01*
X32654728Y36711963D01*
X32173572Y36716337D01*
X34368236Y38911000D01*
X51631765Y38911000D01*
X56111000Y34431764D01*
X56111001Y30843670D01*
X56106700Y30800000D01*
X56123864Y30625726D01*
X56174698Y30458148D01*
X56257248Y30303709D01*
X56368342Y30168341D01*
X56402259Y30140506D01*
X57140504Y29402260D01*
X57168341Y29368341D01*
X57303709Y29257247D01*
X57458149Y29174697D01*
X57552758Y29145998D01*
X57625725Y29123864D01*
X57642325Y29122229D01*
X57756333Y29111000D01*
X57756340Y29111000D01*
X57800000Y29106700D01*
X57843660Y29111000D01*
X58682524Y29111000D01*
X58711595Y29056613D01*
X58822038Y28922038D01*
X58956613Y28811595D01*
X59110149Y28729528D01*
X59276745Y28678992D01*
X59449999Y28661928D01*
X60100001Y28661928D01*
X60273255Y28678992D01*
X60439851Y28729528D01*
X60593387Y28811595D01*
X60727962Y28922038D01*
X60800000Y29009816D01*
X60872038Y28922038D01*
X61006613Y28811595D01*
X61160149Y28729528D01*
X61326745Y28678992D01*
X61499999Y28661928D01*
X62150001Y28661928D01*
X62323255Y28678992D01*
X62489851Y28729528D01*
X62643387Y28811595D01*
X62777962Y28922038D01*
X62888405Y29056613D01*
X62917476Y29111000D01*
X62990071Y29111000D01*
X63017974Y29019018D01*
X63216223Y28648119D01*
X63483023Y28323023D01*
X63808119Y28056223D01*
X64179018Y27857974D01*
X64581467Y27735892D01*
X64895118Y27705000D01*
X66104882Y27705000D01*
X66418533Y27735892D01*
X66820982Y27857974D01*
X67191881Y28056223D01*
X67516977Y28323023D01*
X67783777Y28648119D01*
X67982026Y29019018D01*
X68104108Y29421467D01*
X68145330Y29840000D01*
X68104108Y30258533D01*
X67982026Y30660982D01*
X67783777Y31031881D01*
X67516977Y31356977D01*
X67191881Y31623777D01*
X66820982Y31822026D01*
X66418533Y31944108D01*
X66104882Y31975000D01*
X64895118Y31975000D01*
X64581467Y31944108D01*
X64179018Y31822026D01*
X63808119Y31623777D01*
X63483023Y31356977D01*
X63216223Y31031881D01*
X63139852Y30889000D01*
X62917476Y30889000D01*
X62888405Y30943387D01*
X62777962Y31077962D01*
X62643387Y31188405D01*
X62489851Y31270472D01*
X62323255Y31321008D01*
X62150001Y31338072D01*
X61499999Y31338072D01*
X61326745Y31321008D01*
X61160149Y31270472D01*
X61006613Y31188405D01*
X60872038Y31077962D01*
X60800000Y30990184D01*
X60727962Y31077962D01*
X60593387Y31188405D01*
X60439851Y31270472D01*
X60273255Y31321008D01*
X60100001Y31338072D01*
X59449999Y31338072D01*
X59276745Y31321008D01*
X59110149Y31270472D01*
X58956613Y31188405D01*
X58822038Y31077962D01*
X58711595Y30943387D01*
X58682524Y30889000D01*
X58168236Y30889000D01*
X57889000Y31168235D01*
X57889000Y34756340D01*
X57893300Y34800000D01*
X57889000Y34843660D01*
X57889000Y34843667D01*
X57876136Y34974274D01*
X57825303Y35141851D01*
X57742753Y35296291D01*
X57631659Y35431659D01*
X57597743Y35459493D01*
X52659499Y40397736D01*
X52631659Y40431659D01*
X52496291Y40542753D01*
X52341851Y40625303D01*
X52174274Y40676136D01*
X52043667Y40689000D01*
X52043660Y40689000D01*
X52000000Y40693300D01*
X51956340Y40689000D01*
X34043659Y40689000D01*
X33999999Y40693300D01*
X33956339Y40689000D01*
X33956333Y40689000D01*
X33858924Y40679406D01*
X33825724Y40676136D01*
X33724058Y40645296D01*
X33658149Y40625303D01*
X33503709Y40542753D01*
X33368341Y40431659D01*
X33340506Y40397742D01*
X29902259Y36959494D01*
X29868342Y36931659D01*
X29840507Y36897742D01*
X29840505Y36897740D01*
X29757248Y36796291D01*
X29726403Y36738584D01*
X29101500Y36744265D01*
X33668236Y41311000D01*
X53531765Y41311000D01*
X56702259Y38140505D01*
X56723267Y38123264D01*
X56740505Y38102260D01*
X58796239Y36046525D01*
X58711595Y35943387D01*
X58629528Y35789851D01*
X58578992Y35623255D01*
X58561928Y35450001D01*
X58561928Y34549999D01*
X58578992Y34376745D01*
X58629528Y34210149D01*
X58711595Y34056613D01*
X58822038Y33922038D01*
X58956613Y33811595D01*
X59110149Y33729528D01*
X59276745Y33678992D01*
X59449999Y33661928D01*
X60100001Y33661928D01*
X60273255Y33678992D01*
X60439851Y33729528D01*
X60593387Y33811595D01*
X60727962Y33922038D01*
X60800000Y34009816D01*
X60872038Y33922038D01*
X61006613Y33811595D01*
X61160149Y33729528D01*
X61326745Y33678992D01*
X61499999Y33661928D01*
X62150001Y33661928D01*
X62323255Y33678992D01*
X62489851Y33729528D01*
X62643387Y33811595D01*
X62777962Y33922038D01*
X62850971Y34011000D01*
X63065020Y34011000D01*
X63216223Y33728119D01*
X63483023Y33403023D01*
X63808119Y33136223D01*
X64179018Y32937974D01*
X64581467Y32815892D01*
X64895118Y32785000D01*
X66104882Y32785000D01*
X66418533Y32815892D01*
X66820982Y32937974D01*
X67191881Y33136223D01*
X67516977Y33403023D01*
X67783777Y33728119D01*
X67982026Y34099018D01*
X68104108Y34501467D01*
X68145330Y34920000D01*
X68104108Y35338533D01*
X67982026Y35740982D01*
X67783777Y36111881D01*
X67516977Y36436977D01*
X67191881Y36703777D01*
X66820982Y36902026D01*
X66418533Y37024108D01*
X66104882Y37055000D01*
X64895118Y37055000D01*
X64581467Y37024108D01*
X64179018Y36902026D01*
X63808119Y36703777D01*
X63483023Y36436977D01*
X63216223Y36111881D01*
X63043640Y35789000D01*
X62970730Y35789000D01*
X62970472Y35789851D01*
X62888405Y35943387D01*
X62777962Y36077962D01*
X62643387Y36188405D01*
X62489851Y36270472D01*
X62323255Y36321008D01*
X62150001Y36338072D01*
X61499999Y36338072D01*
X61326745Y36321008D01*
X61160149Y36270472D01*
X61006613Y36188405D01*
X60872038Y36077962D01*
X60800000Y35990184D01*
X60727962Y36077962D01*
X60689000Y36109937D01*
X60689000Y36256332D01*
X60693301Y36300000D01*
X60676136Y36474275D01*
X60645993Y36573643D01*
X60625303Y36641851D01*
X60542753Y36796291D01*
X60431659Y36931659D01*
X60397743Y36959493D01*
X58857236Y38500000D01*
X62861928Y38500000D01*
X62874188Y38375518D01*
X62910498Y38255820D01*
X62969463Y38145506D01*
X63048815Y38048815D01*
X63145506Y37969463D01*
X63255820Y37910498D01*
X63375518Y37874188D01*
X63500000Y37861928D01*
X65214250Y37865000D01*
X65373000Y38023750D01*
X65373000Y39873000D01*
X65627000Y39873000D01*
X65627000Y38023750D01*
X65785750Y37865000D01*
X67500000Y37861928D01*
X67624482Y37874188D01*
X67744180Y37910498D01*
X67854494Y37969463D01*
X67951185Y38048815D01*
X68030537Y38145506D01*
X68089502Y38255820D01*
X68125812Y38375518D01*
X68138072Y38500000D01*
X68135000Y39714250D01*
X67976250Y39873000D01*
X65627000Y39873000D01*
X65373000Y39873000D01*
X63023750Y39873000D01*
X62865000Y39714250D01*
X62861928Y38500000D01*
X58857236Y38500000D01*
X57997740Y39359495D01*
X57976736Y39376733D01*
X57959495Y39397741D01*
X55857236Y41500000D01*
X62861928Y41500000D01*
X62865000Y40285750D01*
X63023750Y40127000D01*
X65373000Y40127000D01*
X65373000Y41976250D01*
X65627000Y41976250D01*
X65627000Y40127000D01*
X67976250Y40127000D01*
X68135000Y40285750D01*
X68138072Y41500000D01*
X68125812Y41624482D01*
X68089502Y41744180D01*
X68030537Y41854494D01*
X67951185Y41951185D01*
X67854494Y42030537D01*
X67744180Y42089502D01*
X67624482Y42125812D01*
X67500000Y42138072D01*
X65785750Y42135000D01*
X65627000Y41976250D01*
X65373000Y41976250D01*
X65214250Y42135000D01*
X63500000Y42138072D01*
X63375518Y42125812D01*
X63255820Y42089502D01*
X63145506Y42030537D01*
X63048815Y41951185D01*
X62969463Y41854494D01*
X62910498Y41744180D01*
X62874188Y41624482D01*
X62861928Y41500000D01*
X55857236Y41500000D01*
X54559499Y42797736D01*
X54531659Y42831659D01*
X54396291Y42942753D01*
X54241851Y43025303D01*
X54074274Y43076136D01*
X53943667Y43089000D01*
X53943660Y43089000D01*
X53900000Y43093300D01*
X53856340Y43089000D01*
X33343660Y43089000D01*
X33300000Y43093300D01*
X33256340Y43089000D01*
X33256333Y43089000D01*
X33142325Y43077771D01*
X33125725Y43076136D01*
X33074892Y43060716D01*
X32958149Y43025303D01*
X32803709Y42942753D01*
X32668341Y42831659D01*
X32640506Y42797742D01*
X26609682Y36766917D01*
X25501154Y36776995D01*
X25475769Y36774667D01*
X25451913Y36767544D01*
X25429905Y36755904D01*
X25410591Y36740195D01*
X25394713Y36721019D01*
X25382881Y36699114D01*
X25375550Y36675321D01*
X25373001Y36650556D01*
X25363896Y34569980D01*
X25315764Y34411309D01*
X25288057Y34130000D01*
X25315764Y33848691D01*
X25360099Y33702535D01*
X25354351Y32389000D01*
X17068235Y32389000D01*
X13939499Y35517736D01*
X13911659Y35551659D01*
X13776291Y35662753D01*
X13621851Y35745303D01*
X13454274Y35796136D01*
X13323667Y35809000D01*
X13323660Y35809000D01*
X13280000Y35813300D01*
X13236340Y35809000D01*
X6695670Y35809000D01*
X6533777Y36111881D01*
X6266977Y36436977D01*
X5941881Y36703777D01*
X5570982Y36902026D01*
X5168533Y37024108D01*
X4854882Y37055000D01*
X3645118Y37055000D01*
X3331467Y37024108D01*
X2929018Y36902026D01*
X2558119Y36703777D01*
X2233023Y36436977D01*
X1966223Y36111881D01*
X1767974Y35740982D01*
X1645892Y35338533D01*
X1604670Y34920000D01*
X1645892Y34501467D01*
X1767974Y34099018D01*
X1966223Y33728119D01*
X2233023Y33403023D01*
X2558119Y33136223D01*
X2929018Y32937974D01*
X3331467Y32815892D01*
X3645118Y32785000D01*
X4854882Y32785000D01*
X5168533Y32815892D01*
X5570982Y32937974D01*
X5941881Y33136223D01*
X6266977Y33403023D01*
X6533777Y33728119D01*
X6695670Y34031000D01*
X12911765Y34031000D01*
X16040501Y30902264D01*
X16068341Y30868341D01*
X16203709Y30757247D01*
X16358149Y30674697D01*
X16415675Y30657247D01*
X16525724Y30623864D01*
X16558924Y30620594D01*
X16656333Y30611000D01*
X16656339Y30611000D01*
X16699999Y30606700D01*
X16743659Y30611000D01*
X25346570Y30611000D01*
X25341338Y29415617D01*
X25315764Y29331309D01*
X25288057Y29050000D01*
X25315764Y28768691D01*
X25338184Y28694783D01*
X25332469Y27389000D01*
X15568235Y27389000D01*
X12519499Y30437736D01*
X12491659Y30471659D01*
X12356291Y30582753D01*
X12201851Y30665303D01*
X12034274Y30716136D01*
X11903667Y30729000D01*
X11903660Y30729000D01*
X11860000Y30733300D01*
X11816340Y30729000D01*
X6695670Y30729000D01*
X6533777Y31031881D01*
X6266977Y31356977D01*
X5941881Y31623777D01*
X5570982Y31822026D01*
X5168533Y31944108D01*
X4854882Y31975000D01*
X3645118Y31975000D01*
X3331467Y31944108D01*
X2929018Y31822026D01*
X2558119Y31623777D01*
X2233023Y31356977D01*
X1966223Y31031881D01*
X1767974Y30660982D01*
X1645892Y30258533D01*
X1604670Y29840000D01*
X1645892Y29421467D01*
X1767974Y29019018D01*
X1966223Y28648119D01*
X2233023Y28323023D01*
X2558119Y28056223D01*
X2929018Y27857974D01*
X3331467Y27735892D01*
X3645118Y27705000D01*
X4854882Y27705000D01*
X5168533Y27735892D01*
X5570982Y27857974D01*
X5941881Y28056223D01*
X6266977Y28323023D01*
X6533777Y28648119D01*
X6695670Y28951000D01*
X11491765Y28951000D01*
X14540501Y25902264D01*
X14568341Y25868341D01*
X14703709Y25757247D01*
X14858149Y25674697D01*
X14915675Y25657247D01*
X15025724Y25623864D01*
X15054804Y25621000D01*
X15156333Y25611000D01*
X15156339Y25611000D01*
X15199999Y25606700D01*
X15243659Y25611000D01*
X25324688Y25611000D01*
X25318781Y24261254D01*
X25315764Y24251309D01*
X25288057Y23970000D01*
X25315764Y23688691D01*
X25316268Y23687030D01*
X25307243Y21624793D01*
X25288057Y21430000D01*
X25305610Y21251781D01*
X25299209Y19789000D01*
X16968236Y19789000D01*
X11399499Y25357736D01*
X11371659Y25391659D01*
X11236291Y25502753D01*
X11081851Y25585303D01*
X10914274Y25636136D01*
X10783667Y25649000D01*
X10783660Y25649000D01*
X10740000Y25653300D01*
X10696340Y25649000D01*
X6695670Y25649000D01*
X6533777Y25951881D01*
X6266977Y26276977D01*
X5941881Y26543777D01*
X5570982Y26742026D01*
X5168533Y26864108D01*
X4854882Y26895000D01*
X3645118Y26895000D01*
X3331467Y26864108D01*
X2929018Y26742026D01*
X2558119Y26543777D01*
X2233023Y26276977D01*
X1966223Y25951881D01*
X1767974Y25580982D01*
X1645892Y25178533D01*
X1604670Y24760000D01*
X1645892Y24341467D01*
X1767974Y23939018D01*
X1966223Y23568119D01*
X2233023Y23243023D01*
X2558119Y22976223D01*
X2929018Y22777974D01*
X3331467Y22655892D01*
X3645118Y22625000D01*
X4854882Y22625000D01*
X5168533Y22655892D01*
X5570982Y22777974D01*
X5941881Y22976223D01*
X6266977Y23243023D01*
X6533777Y23568119D01*
X6695670Y23871000D01*
X10371765Y23871000D01*
X15940504Y18302260D01*
X15968341Y18268341D01*
X16103709Y18157247D01*
X16258149Y18074697D01*
X16315675Y18057247D01*
X16425724Y18023864D01*
X16458924Y18020594D01*
X16556333Y18011000D01*
X16556339Y18011000D01*
X16599999Y18006700D01*
X16643659Y18011000D01*
X25291427Y18011000D01*
X25273038Y13809000D01*
X24402497Y13809000D01*
X8000914Y13926997D01*
X7974295Y13924371D01*
X7950525Y13916967D01*
X7928657Y13905067D01*
X7909530Y13889130D01*
X7893880Y13869767D01*
X7882308Y13847724D01*
X7875259Y13823846D01*
X7873909Y13809000D01*
X6695670Y13809000D01*
X6533777Y14111881D01*
X6266977Y14436977D01*
X5941881Y14703777D01*
X5570982Y14902026D01*
X5168533Y15024108D01*
X4854882Y15055000D01*
X3645118Y15055000D01*
X3331467Y15024108D01*
X2929018Y14902026D01*
X2558119Y14703777D01*
X2233023Y14436977D01*
X1966223Y14111881D01*
X1767974Y13740982D01*
X1645892Y13338533D01*
X1604670Y12920000D01*
X1645892Y12501467D01*
X1767974Y12099018D01*
X1966223Y11728119D01*
X2233023Y11403023D01*
X2558119Y11136223D01*
X2929018Y10937974D01*
X3331467Y10815892D01*
X3645118Y10785000D01*
X4854882Y10785000D01*
X5168533Y10815892D01*
X5570982Y10937974D01*
X5941881Y11136223D01*
X6266977Y11403023D01*
X6533777Y11728119D01*
X6695670Y12031000D01*
X7886198Y12031000D01*
X7904625Y9561860D01*
X7071765Y8729000D01*
X6695670Y8729000D01*
X6533777Y9031881D01*
X6266977Y9356977D01*
X5941881Y9623777D01*
X5570982Y9822026D01*
X5168533Y9944108D01*
X4854882Y9975000D01*
X3645118Y9975000D01*
X3331467Y9944108D01*
X2929018Y9822026D01*
X2558119Y9623777D01*
X2233023Y9356977D01*
X1966223Y9031881D01*
X1767974Y8660982D01*
X1645892Y8258533D01*
X1604670Y7840000D01*
X1645892Y7421467D01*
X1767974Y7019018D01*
X1966223Y6648119D01*
X2233023Y6323023D01*
X2558119Y6056223D01*
X2929018Y5857974D01*
X3331467Y5735892D01*
X3645118Y5705000D01*
X4854882Y5705000D01*
X5168533Y5735892D01*
X5570982Y5857974D01*
X5941881Y6056223D01*
X6266977Y6323023D01*
X6533777Y6648119D01*
X6695670Y6951000D01*
X7396340Y6951000D01*
X7440000Y6946700D01*
X7483660Y6951000D01*
X7483667Y6951000D01*
X7614274Y6963864D01*
X7781851Y7014697D01*
X7923070Y7090180D01*
X7942403Y4499638D01*
X7091765Y3649000D01*
X6695670Y3649000D01*
X6533777Y3951881D01*
X6266977Y4276977D01*
X5941881Y4543777D01*
X5570982Y4742026D01*
X5168533Y4864108D01*
X4854882Y4895000D01*
X3645118Y4895000D01*
X3331467Y4864108D01*
X2929018Y4742026D01*
X2558119Y4543777D01*
X2233023Y4276977D01*
X1966223Y3951881D01*
X1767974Y3580982D01*
X1645892Y3178533D01*
X1604670Y2760000D01*
X1645892Y2341467D01*
X1767974Y1939018D01*
X1966223Y1568119D01*
X2233023Y1243023D01*
X2558119Y976223D01*
X2929018Y777974D01*
X3317925Y660000D01*
X660000Y660000D01*
X660000Y16500000D01*
X1611928Y16500000D01*
X1624188Y16375518D01*
X1660498Y16255820D01*
X1719463Y16145506D01*
X1798815Y16048815D01*
X1895506Y15969463D01*
X2005820Y15910498D01*
X2125518Y15874188D01*
X2250000Y15861928D01*
X3964250Y15865000D01*
X4123000Y16023750D01*
X4123000Y17873000D01*
X4377000Y17873000D01*
X4377000Y16023750D01*
X4535750Y15865000D01*
X6250000Y15861928D01*
X6374482Y15874188D01*
X6494180Y15910498D01*
X6604494Y15969463D01*
X6701185Y16048815D01*
X6780537Y16145506D01*
X6839502Y16255820D01*
X6875812Y16375518D01*
X6888072Y16500000D01*
X6885000Y17714250D01*
X6726250Y17873000D01*
X4377000Y17873000D01*
X4123000Y17873000D01*
X1773750Y17873000D01*
X1615000Y17714250D01*
X1611928Y16500000D01*
X660000Y16500000D01*
X660000Y19500000D01*
X1611928Y19500000D01*
X1615000Y18285750D01*
X1773750Y18127000D01*
X4123000Y18127000D01*
X4123000Y19976250D01*
X4377000Y19976250D01*
X4377000Y18127000D01*
X6726250Y18127000D01*
X6885000Y18285750D01*
X6888072Y19500000D01*
X6875812Y19624482D01*
X6839502Y19744180D01*
X6780537Y19854494D01*
X6701185Y19951185D01*
X6604494Y20030537D01*
X6494180Y20089502D01*
X6374482Y20125812D01*
X6250000Y20138072D01*
X4535750Y20135000D01*
X4377000Y19976250D01*
X4123000Y19976250D01*
X3964250Y20135000D01*
X2250000Y20138072D01*
X2125518Y20125812D01*
X2005820Y20089502D01*
X1895506Y20030537D01*
X1798815Y19951185D01*
X1719463Y19854494D01*
X1660498Y19744180D01*
X1624188Y19624482D01*
X1611928Y19500000D01*
X660000Y19500000D01*
X660000Y38500000D01*
X1611928Y38500000D01*
X1624188Y38375518D01*
X1660498Y38255820D01*
X1719463Y38145506D01*
X1798815Y38048815D01*
X1895506Y37969463D01*
X2005820Y37910498D01*
X2125518Y37874188D01*
X2250000Y37861928D01*
X3964250Y37865000D01*
X4123000Y38023750D01*
X4123000Y39873000D01*
X4377000Y39873000D01*
X4377000Y38023750D01*
X4535750Y37865000D01*
X6250000Y37861928D01*
X6374482Y37874188D01*
X6494180Y37910498D01*
X6604494Y37969463D01*
X6701185Y38048815D01*
X6780537Y38145506D01*
X6839502Y38255820D01*
X6875812Y38375518D01*
X6888072Y38500000D01*
X6885000Y39714250D01*
X6726250Y39873000D01*
X4377000Y39873000D01*
X4123000Y39873000D01*
X1773750Y39873000D01*
X1615000Y39714250D01*
X1611928Y38500000D01*
X660000Y38500000D01*
X660000Y41500000D01*
X1611928Y41500000D01*
X1615000Y40285750D01*
X1773750Y40127000D01*
X4123000Y40127000D01*
X4123000Y41976250D01*
X4377000Y41976250D01*
X4377000Y40127000D01*
X6726250Y40127000D01*
X6885000Y40285750D01*
X6888072Y41500000D01*
X6875812Y41624482D01*
X6839502Y41744180D01*
X6780537Y41854494D01*
X6701185Y41951185D01*
X6604494Y42030537D01*
X6494180Y42089502D01*
X6374482Y42125812D01*
X6250000Y42138072D01*
X4535750Y42135000D01*
X4377000Y41976250D01*
X4123000Y41976250D01*
X3964250Y42135000D01*
X2250000Y42138072D01*
X2125518Y42125812D01*
X2005820Y42089502D01*
X1895506Y42030537D01*
X1798815Y41951185D01*
X1719463Y41854494D01*
X1660498Y41744180D01*
X1624188Y41624482D01*
X1611928Y41500000D01*
X660000Y41500000D01*
X660000Y49340000D01*
X69340001Y49340000D01*
X69340000Y660000D01*
%TA.AperFunction,Conductor*%
D22*
G36*
X69340000Y660000D02*
G01*
X66432075Y660000D01*
X66820982Y777974D01*
X67191881Y976223D01*
X67516977Y1243023D01*
X67783777Y1568119D01*
X67982026Y1939018D01*
X68104108Y2341467D01*
X68145330Y2760000D01*
X68104108Y3178533D01*
X67982026Y3580982D01*
X67783777Y3951881D01*
X67516977Y4276977D01*
X67191881Y4543777D01*
X66820982Y4742026D01*
X66418533Y4864108D01*
X66104882Y4895000D01*
X64895118Y4895000D01*
X64581467Y4864108D01*
X64179018Y4742026D01*
X63808119Y4543777D01*
X63483023Y4276977D01*
X63216223Y3951881D01*
X63048985Y3639000D01*
X60717476Y3639000D01*
X60688405Y3693387D01*
X60577962Y3827962D01*
X60443387Y3938405D01*
X60289851Y4020472D01*
X60123255Y4071008D01*
X59950001Y4088072D01*
X59299999Y4088072D01*
X59126745Y4071008D01*
X58960149Y4020472D01*
X58806613Y3938405D01*
X58672038Y3827962D01*
X58600000Y3740184D01*
X58527962Y3827962D01*
X58393387Y3938405D01*
X58239851Y4020472D01*
X58073255Y4071008D01*
X57900001Y4088072D01*
X57249999Y4088072D01*
X57076745Y4071008D01*
X56910149Y4020472D01*
X56756613Y3938405D01*
X56622038Y3827962D01*
X56511595Y3693387D01*
X56455799Y3589000D01*
X53068236Y3589000D01*
X44889000Y11768235D01*
X44889000Y19356332D01*
X44893301Y19400000D01*
X44876136Y19574275D01*
X44855364Y19642752D01*
X44825303Y19741851D01*
X44742753Y19896291D01*
X44631659Y20031659D01*
X44597743Y20059493D01*
X42629499Y22027736D01*
X42601659Y22061659D01*
X42466291Y22172753D01*
X42311851Y22255303D01*
X42144274Y22306136D01*
X42013667Y22319000D01*
X42013660Y22319000D01*
X41970000Y22323300D01*
X41926340Y22319000D01*
X36651566Y22319000D01*
X36645365Y25621000D01*
X42921765Y25621000D01*
X45711000Y22831764D01*
X45711001Y14443670D01*
X45706700Y14400000D01*
X45723864Y14225726D01*
X45774698Y14058148D01*
X45857248Y13903709D01*
X45885104Y13869767D01*
X45968342Y13768341D01*
X46002259Y13740506D01*
X52540506Y7202258D01*
X52568341Y7168341D01*
X52703709Y7057247D01*
X52858149Y6974697D01*
X52951793Y6946291D01*
X53025725Y6923864D01*
X53200000Y6906699D01*
X53243668Y6911000D01*
X56459250Y6911000D01*
X56461595Y6906613D01*
X56572038Y6772038D01*
X56706613Y6661595D01*
X56860149Y6579528D01*
X57026745Y6528992D01*
X57199999Y6511928D01*
X57850001Y6511928D01*
X58023255Y6528992D01*
X58189851Y6579528D01*
X58343387Y6661595D01*
X58477962Y6772038D01*
X58550000Y6859816D01*
X58622038Y6772038D01*
X58756613Y6661595D01*
X58910149Y6579528D01*
X59076745Y6528992D01*
X59249999Y6511928D01*
X59900001Y6511928D01*
X60073255Y6528992D01*
X60239851Y6579528D01*
X60393387Y6661595D01*
X60527962Y6772038D01*
X60638405Y6906613D01*
X60667476Y6961000D01*
X63048985Y6961000D01*
X63216223Y6648119D01*
X63483023Y6323023D01*
X63808119Y6056223D01*
X64179018Y5857974D01*
X64581467Y5735892D01*
X64895118Y5705000D01*
X66104882Y5705000D01*
X66418533Y5735892D01*
X66820982Y5857974D01*
X67191881Y6056223D01*
X67516977Y6323023D01*
X67783777Y6648119D01*
X67982026Y7019018D01*
X68104108Y7421467D01*
X68145330Y7840000D01*
X68104108Y8258533D01*
X67982026Y8660982D01*
X67783777Y9031881D01*
X67516977Y9356977D01*
X67191881Y9623777D01*
X66820982Y9822026D01*
X66418533Y9944108D01*
X66104882Y9975000D01*
X64895118Y9975000D01*
X64581467Y9944108D01*
X64179018Y9822026D01*
X63808119Y9623777D01*
X63483023Y9356977D01*
X63216223Y9031881D01*
X63059675Y8739000D01*
X60667476Y8739000D01*
X60638405Y8793387D01*
X60527962Y8927962D01*
X60393387Y9038405D01*
X60239851Y9120472D01*
X60073255Y9171008D01*
X59900001Y9188072D01*
X59249999Y9188072D01*
X59076745Y9171008D01*
X58910149Y9120472D01*
X58756613Y9038405D01*
X58622038Y8927962D01*
X58550000Y8840184D01*
X58477962Y8927962D01*
X58343387Y9038405D01*
X58189851Y9120472D01*
X58023255Y9171008D01*
X57850001Y9188072D01*
X57199999Y9188072D01*
X57026745Y9171008D01*
X56860149Y9120472D01*
X56706613Y9038405D01*
X56572038Y8927962D01*
X56461595Y8793387D01*
X56405799Y8689000D01*
X53568236Y8689000D01*
X47489000Y14768235D01*
X47489000Y23156340D01*
X47493300Y23200000D01*
X47489000Y23243660D01*
X47489000Y23243667D01*
X47476136Y23374274D01*
X47467208Y23403708D01*
X47425302Y23541853D01*
X47382442Y23622038D01*
X47342753Y23696291D01*
X47231659Y23831659D01*
X47197743Y23859493D01*
X43949499Y27107736D01*
X43921659Y27141659D01*
X43786291Y27252753D01*
X43631851Y27335303D01*
X43464274Y27386136D01*
X43333667Y27399000D01*
X43333660Y27399000D01*
X43290000Y27403300D01*
X43246340Y27399000D01*
X36642026Y27399000D01*
X36635825Y30701000D01*
X43241765Y30701000D01*
X49111000Y24831764D01*
X49111001Y15543670D01*
X49106700Y15500000D01*
X49123864Y15325726D01*
X49174698Y15158148D01*
X49257248Y15003709D01*
X49296129Y14956333D01*
X49368342Y14868341D01*
X49402259Y14840506D01*
X51940501Y12302264D01*
X51968341Y12268341D01*
X52103709Y12157247D01*
X52258149Y12074697D01*
X52324058Y12054704D01*
X52425724Y12023864D01*
X52458924Y12020594D01*
X52556333Y12011000D01*
X52556339Y12011000D01*
X52599999Y12006700D01*
X52643659Y12011000D01*
X56432524Y12011000D01*
X56461595Y11956613D01*
X56572038Y11822038D01*
X56706613Y11711595D01*
X56860149Y11629528D01*
X57026745Y11578992D01*
X57199999Y11561928D01*
X57850001Y11561928D01*
X58023255Y11578992D01*
X58189851Y11629528D01*
X58343387Y11711595D01*
X58477962Y11822038D01*
X58550000Y11909816D01*
X58622038Y11822038D01*
X58756613Y11711595D01*
X58910149Y11629528D01*
X59076745Y11578992D01*
X59249999Y11561928D01*
X59900001Y11561928D01*
X60073255Y11578992D01*
X60239851Y11629528D01*
X60393387Y11711595D01*
X60527962Y11822038D01*
X60638405Y11956613D01*
X60667476Y12011000D01*
X63065020Y12011000D01*
X63216223Y11728119D01*
X63483023Y11403023D01*
X63808119Y11136223D01*
X64179018Y10937974D01*
X64581467Y10815892D01*
X64895118Y10785000D01*
X66104882Y10785000D01*
X66418533Y10815892D01*
X66820982Y10937974D01*
X67191881Y11136223D01*
X67516977Y11403023D01*
X67783777Y11728119D01*
X67982026Y12099018D01*
X68104108Y12501467D01*
X68145330Y12920000D01*
X68104108Y13338533D01*
X67982026Y13740982D01*
X67783777Y14111881D01*
X67516977Y14436977D01*
X67191881Y14703777D01*
X66820982Y14902026D01*
X66418533Y15024108D01*
X66104882Y15055000D01*
X64895118Y15055000D01*
X64581467Y15024108D01*
X64179018Y14902026D01*
X63808119Y14703777D01*
X63483023Y14436977D01*
X63216223Y14111881D01*
X63043640Y13789000D01*
X60667476Y13789000D01*
X60638405Y13843387D01*
X60527962Y13977962D01*
X60393387Y14088405D01*
X60239851Y14170472D01*
X60073255Y14221008D01*
X59900001Y14238072D01*
X59249999Y14238072D01*
X59076745Y14221008D01*
X58910149Y14170472D01*
X58756613Y14088405D01*
X58622038Y13977962D01*
X58550000Y13890184D01*
X58477962Y13977962D01*
X58343387Y14088405D01*
X58189851Y14170472D01*
X58023255Y14221008D01*
X57850001Y14238072D01*
X57199999Y14238072D01*
X57026745Y14221008D01*
X56860149Y14170472D01*
X56706613Y14088405D01*
X56572038Y13977962D01*
X56461595Y13843387D01*
X56432524Y13789000D01*
X52968235Y13789000D01*
X50889000Y15868235D01*
X50889000Y16500000D01*
X62861928Y16500000D01*
X62874188Y16375518D01*
X62910498Y16255820D01*
X62969463Y16145506D01*
X63048815Y16048815D01*
X63145506Y15969463D01*
X63255820Y15910498D01*
X63375518Y15874188D01*
X63500000Y15861928D01*
X65214250Y15865000D01*
X65373000Y16023750D01*
X65373000Y17873000D01*
X65627000Y17873000D01*
X65627000Y16023750D01*
X65785750Y15865000D01*
X67500000Y15861928D01*
X67624482Y15874188D01*
X67744180Y15910498D01*
X67854494Y15969463D01*
X67951185Y16048815D01*
X68030537Y16145506D01*
X68089502Y16255820D01*
X68125812Y16375518D01*
X68138072Y16500000D01*
X68135000Y17714250D01*
X67976250Y17873000D01*
X65627000Y17873000D01*
X65373000Y17873000D01*
X63023750Y17873000D01*
X62865000Y17714250D01*
X62861928Y16500000D01*
X50889000Y16500000D01*
X50889000Y19500000D01*
X62861928Y19500000D01*
X62865000Y18285750D01*
X63023750Y18127000D01*
X65373000Y18127000D01*
X65373000Y19976250D01*
X65627000Y19976250D01*
X65627000Y18127000D01*
X67976250Y18127000D01*
X68135000Y18285750D01*
X68138072Y19500000D01*
X68125812Y19624482D01*
X68089502Y19744180D01*
X68030537Y19854494D01*
X67951185Y19951185D01*
X67854494Y20030537D01*
X67744180Y20089502D01*
X67624482Y20125812D01*
X67500000Y20138072D01*
X65785750Y20135000D01*
X65627000Y19976250D01*
X65373000Y19976250D01*
X65214250Y20135000D01*
X63500000Y20138072D01*
X63375518Y20125812D01*
X63255820Y20089502D01*
X63145506Y20030537D01*
X63048815Y19951185D01*
X62969463Y19854494D01*
X62910498Y19744180D01*
X62874188Y19624482D01*
X62861928Y19500000D01*
X50889000Y19500000D01*
X50889000Y25156340D01*
X50893300Y25200000D01*
X50889000Y25243660D01*
X50889000Y25243667D01*
X50876136Y25374274D01*
X50870863Y25391659D01*
X50858729Y25431659D01*
X50825303Y25541851D01*
X50742753Y25696291D01*
X50631659Y25831659D01*
X50597743Y25859493D01*
X44269499Y32187736D01*
X44241659Y32221659D01*
X44106291Y32332753D01*
X43951851Y32415303D01*
X43784274Y32466136D01*
X43653667Y32479000D01*
X43653660Y32479000D01*
X43610000Y32483300D01*
X43566340Y32479000D01*
X36632486Y32479000D01*
X36627000Y35400238D01*
X36624560Y35424776D01*
X36622112Y35432845D01*
X36626831Y36511000D01*
X49831765Y36511000D01*
X53811000Y32531764D01*
X53811001Y26443670D01*
X53806700Y26400000D01*
X53823864Y26225726D01*
X53874698Y26058148D01*
X53957248Y25903709D01*
X54009118Y25840506D01*
X54068342Y25768341D01*
X54102259Y25740506D01*
X55740506Y24102258D01*
X55768341Y24068341D01*
X55903709Y23957247D01*
X56058149Y23874697D01*
X56152758Y23845998D01*
X56225725Y23823864D01*
X56244073Y23822057D01*
X56356333Y23811000D01*
X56356339Y23811000D01*
X56399999Y23806700D01*
X56443659Y23811000D01*
X58682524Y23811000D01*
X58711595Y23756613D01*
X58822038Y23622038D01*
X58956613Y23511595D01*
X59110149Y23429528D01*
X59276745Y23378992D01*
X59449999Y23361928D01*
X60100001Y23361928D01*
X60273255Y23378992D01*
X60439851Y23429528D01*
X60593387Y23511595D01*
X60727962Y23622038D01*
X60800000Y23709816D01*
X60872038Y23622038D01*
X61006613Y23511595D01*
X61160149Y23429528D01*
X61326745Y23378992D01*
X61499999Y23361928D01*
X62150001Y23361928D01*
X62323255Y23378992D01*
X62489851Y23429528D01*
X62643387Y23511595D01*
X62777962Y23622038D01*
X62888405Y23756613D01*
X62917476Y23811000D01*
X63086401Y23811000D01*
X63216223Y23568119D01*
X63483023Y23243023D01*
X63808119Y22976223D01*
X64179018Y22777974D01*
X64581467Y22655892D01*
X64895118Y22625000D01*
X66104882Y22625000D01*
X66418533Y22655892D01*
X66820982Y22777974D01*
X67191881Y22976223D01*
X67516977Y23243023D01*
X67783777Y23568119D01*
X67982026Y23939018D01*
X68104108Y24341467D01*
X68145330Y24760000D01*
X68104108Y25178533D01*
X67982026Y25580982D01*
X67783777Y25951881D01*
X67516977Y26276977D01*
X67191881Y26543777D01*
X66820982Y26742026D01*
X66418533Y26864108D01*
X66104882Y26895000D01*
X64895118Y26895000D01*
X64581467Y26864108D01*
X64179018Y26742026D01*
X63808119Y26543777D01*
X63483023Y26276977D01*
X63216223Y25951881D01*
X63022260Y25589000D01*
X62917476Y25589000D01*
X62888405Y25643387D01*
X62777962Y25777962D01*
X62643387Y25888405D01*
X62489851Y25970472D01*
X62323255Y26021008D01*
X62150001Y26038072D01*
X61499999Y26038072D01*
X61326745Y26021008D01*
X61160149Y25970472D01*
X61006613Y25888405D01*
X60872038Y25777962D01*
X60800000Y25690184D01*
X60727962Y25777962D01*
X60593387Y25888405D01*
X60439851Y25970472D01*
X60273255Y26021008D01*
X60100001Y26038072D01*
X59449999Y26038072D01*
X59276745Y26021008D01*
X59110149Y25970472D01*
X58956613Y25888405D01*
X58822038Y25777962D01*
X58711595Y25643387D01*
X58682524Y25589000D01*
X56768236Y25589000D01*
X55589000Y26768235D01*
X55589000Y32856341D01*
X55593300Y32900001D01*
X55589000Y32943661D01*
X55589000Y32943667D01*
X55576136Y33074274D01*
X55525303Y33241851D01*
X55442753Y33396291D01*
X55331659Y33531659D01*
X55297743Y33559493D01*
X50859499Y37997736D01*
X50831659Y38031659D01*
X50696291Y38142753D01*
X50541851Y38225303D01*
X50374274Y38276136D01*
X50243667Y38289000D01*
X50243660Y38289000D01*
X50200000Y38293300D01*
X50156340Y38289000D01*
X34643659Y38289000D01*
X34599999Y38293300D01*
X34556339Y38289000D01*
X34556333Y38289000D01*
X34458924Y38279406D01*
X34425724Y38276136D01*
X34324058Y38245296D01*
X34258149Y38225303D01*
X34103709Y38142753D01*
X33968341Y38031659D01*
X33940501Y37997736D01*
X32654728Y36711963D01*
X32173572Y36716337D01*
X34368236Y38911000D01*
X51631765Y38911000D01*
X56111000Y34431764D01*
X56111001Y30843670D01*
X56106700Y30800000D01*
X56123864Y30625726D01*
X56174698Y30458148D01*
X56257248Y30303709D01*
X56368342Y30168341D01*
X56402259Y30140506D01*
X57140504Y29402260D01*
X57168341Y29368341D01*
X57303709Y29257247D01*
X57458149Y29174697D01*
X57552758Y29145998D01*
X57625725Y29123864D01*
X57642325Y29122229D01*
X57756333Y29111000D01*
X57756340Y29111000D01*
X57800000Y29106700D01*
X57843660Y29111000D01*
X58682524Y29111000D01*
X58711595Y29056613D01*
X58822038Y28922038D01*
X58956613Y28811595D01*
X59110149Y28729528D01*
X59276745Y28678992D01*
X59449999Y28661928D01*
X60100001Y28661928D01*
X60273255Y28678992D01*
X60439851Y28729528D01*
X60593387Y28811595D01*
X60727962Y28922038D01*
X60800000Y29009816D01*
X60872038Y28922038D01*
X61006613Y28811595D01*
X61160149Y28729528D01*
X61326745Y28678992D01*
X61499999Y28661928D01*
X62150001Y28661928D01*
X62323255Y28678992D01*
X62489851Y28729528D01*
X62643387Y28811595D01*
X62777962Y28922038D01*
X62888405Y29056613D01*
X62917476Y29111000D01*
X62990071Y29111000D01*
X63017974Y29019018D01*
X63216223Y28648119D01*
X63483023Y28323023D01*
X63808119Y28056223D01*
X64179018Y27857974D01*
X64581467Y27735892D01*
X64895118Y27705000D01*
X66104882Y27705000D01*
X66418533Y27735892D01*
X66820982Y27857974D01*
X67191881Y28056223D01*
X67516977Y28323023D01*
X67783777Y28648119D01*
X67982026Y29019018D01*
X68104108Y29421467D01*
X68145330Y29840000D01*
X68104108Y30258533D01*
X67982026Y30660982D01*
X67783777Y31031881D01*
X67516977Y31356977D01*
X67191881Y31623777D01*
X66820982Y31822026D01*
X66418533Y31944108D01*
X66104882Y31975000D01*
X64895118Y31975000D01*
X64581467Y31944108D01*
X64179018Y31822026D01*
X63808119Y31623777D01*
X63483023Y31356977D01*
X63216223Y31031881D01*
X63139852Y30889000D01*
X62917476Y30889000D01*
X62888405Y30943387D01*
X62777962Y31077962D01*
X62643387Y31188405D01*
X62489851Y31270472D01*
X62323255Y31321008D01*
X62150001Y31338072D01*
X61499999Y31338072D01*
X61326745Y31321008D01*
X61160149Y31270472D01*
X61006613Y31188405D01*
X60872038Y31077962D01*
X60800000Y30990184D01*
X60727962Y31077962D01*
X60593387Y31188405D01*
X60439851Y31270472D01*
X60273255Y31321008D01*
X60100001Y31338072D01*
X59449999Y31338072D01*
X59276745Y31321008D01*
X59110149Y31270472D01*
X58956613Y31188405D01*
X58822038Y31077962D01*
X58711595Y30943387D01*
X58682524Y30889000D01*
X58168236Y30889000D01*
X57889000Y31168235D01*
X57889000Y34756340D01*
X57893300Y34800000D01*
X57889000Y34843660D01*
X57889000Y34843667D01*
X57876136Y34974274D01*
X57825303Y35141851D01*
X57742753Y35296291D01*
X57631659Y35431659D01*
X57597743Y35459493D01*
X52659499Y40397736D01*
X52631659Y40431659D01*
X52496291Y40542753D01*
X52341851Y40625303D01*
X52174274Y40676136D01*
X52043667Y40689000D01*
X52043660Y40689000D01*
X52000000Y40693300D01*
X51956340Y40689000D01*
X34043659Y40689000D01*
X33999999Y40693300D01*
X33956339Y40689000D01*
X33956333Y40689000D01*
X33858924Y40679406D01*
X33825724Y40676136D01*
X33724058Y40645296D01*
X33658149Y40625303D01*
X33503709Y40542753D01*
X33368341Y40431659D01*
X33340506Y40397742D01*
X29902259Y36959494D01*
X29868342Y36931659D01*
X29840507Y36897742D01*
X29840505Y36897740D01*
X29757248Y36796291D01*
X29726403Y36738584D01*
X29101500Y36744265D01*
X33668236Y41311000D01*
X53531765Y41311000D01*
X56702259Y38140505D01*
X56723267Y38123264D01*
X56740505Y38102260D01*
X58796239Y36046525D01*
X58711595Y35943387D01*
X58629528Y35789851D01*
X58578992Y35623255D01*
X58561928Y35450001D01*
X58561928Y34549999D01*
X58578992Y34376745D01*
X58629528Y34210149D01*
X58711595Y34056613D01*
X58822038Y33922038D01*
X58956613Y33811595D01*
X59110149Y33729528D01*
X59276745Y33678992D01*
X59449999Y33661928D01*
X60100001Y33661928D01*
X60273255Y33678992D01*
X60439851Y33729528D01*
X60593387Y33811595D01*
X60727962Y33922038D01*
X60800000Y34009816D01*
X60872038Y33922038D01*
X61006613Y33811595D01*
X61160149Y33729528D01*
X61326745Y33678992D01*
X61499999Y33661928D01*
X62150001Y33661928D01*
X62323255Y33678992D01*
X62489851Y33729528D01*
X62643387Y33811595D01*
X62777962Y33922038D01*
X62850971Y34011000D01*
X63065020Y34011000D01*
X63216223Y33728119D01*
X63483023Y33403023D01*
X63808119Y33136223D01*
X64179018Y32937974D01*
X64581467Y32815892D01*
X64895118Y32785000D01*
X66104882Y32785000D01*
X66418533Y32815892D01*
X66820982Y32937974D01*
X67191881Y33136223D01*
X67516977Y33403023D01*
X67783777Y33728119D01*
X67982026Y34099018D01*
X68104108Y34501467D01*
X68145330Y34920000D01*
X68104108Y35338533D01*
X67982026Y35740982D01*
X67783777Y36111881D01*
X67516977Y36436977D01*
X67191881Y36703777D01*
X66820982Y36902026D01*
X66418533Y37024108D01*
X66104882Y37055000D01*
X64895118Y37055000D01*
X64581467Y37024108D01*
X64179018Y36902026D01*
X63808119Y36703777D01*
X63483023Y36436977D01*
X63216223Y36111881D01*
X63043640Y35789000D01*
X62970730Y35789000D01*
X62970472Y35789851D01*
X62888405Y35943387D01*
X62777962Y36077962D01*
X62643387Y36188405D01*
X62489851Y36270472D01*
X62323255Y36321008D01*
X62150001Y36338072D01*
X61499999Y36338072D01*
X61326745Y36321008D01*
X61160149Y36270472D01*
X61006613Y36188405D01*
X60872038Y36077962D01*
X60800000Y35990184D01*
X60727962Y36077962D01*
X60689000Y36109937D01*
X60689000Y36256332D01*
X60693301Y36300000D01*
X60676136Y36474275D01*
X60645993Y36573643D01*
X60625303Y36641851D01*
X60542753Y36796291D01*
X60431659Y36931659D01*
X60397743Y36959493D01*
X58857236Y38500000D01*
X62861928Y38500000D01*
X62874188Y38375518D01*
X62910498Y38255820D01*
X62969463Y38145506D01*
X63048815Y38048815D01*
X63145506Y37969463D01*
X63255820Y37910498D01*
X63375518Y37874188D01*
X63500000Y37861928D01*
X65214250Y37865000D01*
X65373000Y38023750D01*
X65373000Y39873000D01*
X65627000Y39873000D01*
X65627000Y38023750D01*
X65785750Y37865000D01*
X67500000Y37861928D01*
X67624482Y37874188D01*
X67744180Y37910498D01*
X67854494Y37969463D01*
X67951185Y38048815D01*
X68030537Y38145506D01*
X68089502Y38255820D01*
X68125812Y38375518D01*
X68138072Y38500000D01*
X68135000Y39714250D01*
X67976250Y39873000D01*
X65627000Y39873000D01*
X65373000Y39873000D01*
X63023750Y39873000D01*
X62865000Y39714250D01*
X62861928Y38500000D01*
X58857236Y38500000D01*
X57997740Y39359495D01*
X57976736Y39376733D01*
X57959495Y39397741D01*
X55857236Y41500000D01*
X62861928Y41500000D01*
X62865000Y40285750D01*
X63023750Y40127000D01*
X65373000Y40127000D01*
X65373000Y41976250D01*
X65627000Y41976250D01*
X65627000Y40127000D01*
X67976250Y40127000D01*
X68135000Y40285750D01*
X68138072Y41500000D01*
X68125812Y41624482D01*
X68089502Y41744180D01*
X68030537Y41854494D01*
X67951185Y41951185D01*
X67854494Y42030537D01*
X67744180Y42089502D01*
X67624482Y42125812D01*
X67500000Y42138072D01*
X65785750Y42135000D01*
X65627000Y41976250D01*
X65373000Y41976250D01*
X65214250Y42135000D01*
X63500000Y42138072D01*
X63375518Y42125812D01*
X63255820Y42089502D01*
X63145506Y42030537D01*
X63048815Y41951185D01*
X62969463Y41854494D01*
X62910498Y41744180D01*
X62874188Y41624482D01*
X62861928Y41500000D01*
X55857236Y41500000D01*
X54559499Y42797736D01*
X54531659Y42831659D01*
X54396291Y42942753D01*
X54241851Y43025303D01*
X54074274Y43076136D01*
X53943667Y43089000D01*
X53943660Y43089000D01*
X53900000Y43093300D01*
X53856340Y43089000D01*
X33343660Y43089000D01*
X33300000Y43093300D01*
X33256340Y43089000D01*
X33256333Y43089000D01*
X33142325Y43077771D01*
X33125725Y43076136D01*
X33074892Y43060716D01*
X32958149Y43025303D01*
X32803709Y42942753D01*
X32668341Y42831659D01*
X32640506Y42797742D01*
X26609682Y36766917D01*
X25501154Y36776995D01*
X25475769Y36774667D01*
X25451913Y36767544D01*
X25429905Y36755904D01*
X25410591Y36740195D01*
X25394713Y36721019D01*
X25382881Y36699114D01*
X25375550Y36675321D01*
X25373001Y36650556D01*
X25363896Y34569980D01*
X25315764Y34411309D01*
X25288057Y34130000D01*
X25315764Y33848691D01*
X25360099Y33702535D01*
X25354351Y32389000D01*
X17068235Y32389000D01*
X13939499Y35517736D01*
X13911659Y35551659D01*
X13776291Y35662753D01*
X13621851Y35745303D01*
X13454274Y35796136D01*
X13323667Y35809000D01*
X13323660Y35809000D01*
X13280000Y35813300D01*
X13236340Y35809000D01*
X6695670Y35809000D01*
X6533777Y36111881D01*
X6266977Y36436977D01*
X5941881Y36703777D01*
X5570982Y36902026D01*
X5168533Y37024108D01*
X4854882Y37055000D01*
X3645118Y37055000D01*
X3331467Y37024108D01*
X2929018Y36902026D01*
X2558119Y36703777D01*
X2233023Y36436977D01*
X1966223Y36111881D01*
X1767974Y35740982D01*
X1645892Y35338533D01*
X1604670Y34920000D01*
X1645892Y34501467D01*
X1767974Y34099018D01*
X1966223Y33728119D01*
X2233023Y33403023D01*
X2558119Y33136223D01*
X2929018Y32937974D01*
X3331467Y32815892D01*
X3645118Y32785000D01*
X4854882Y32785000D01*
X5168533Y32815892D01*
X5570982Y32937974D01*
X5941881Y33136223D01*
X6266977Y33403023D01*
X6533777Y33728119D01*
X6695670Y34031000D01*
X12911765Y34031000D01*
X16040501Y30902264D01*
X16068341Y30868341D01*
X16203709Y30757247D01*
X16358149Y30674697D01*
X16415675Y30657247D01*
X16525724Y30623864D01*
X16558924Y30620594D01*
X16656333Y30611000D01*
X16656339Y30611000D01*
X16699999Y30606700D01*
X16743659Y30611000D01*
X25346570Y30611000D01*
X25341338Y29415617D01*
X25315764Y29331309D01*
X25288057Y29050000D01*
X25315764Y28768691D01*
X25338184Y28694783D01*
X25332469Y27389000D01*
X15568235Y27389000D01*
X12519499Y30437736D01*
X12491659Y30471659D01*
X12356291Y30582753D01*
X12201851Y30665303D01*
X12034274Y30716136D01*
X11903667Y30729000D01*
X11903660Y30729000D01*
X11860000Y30733300D01*
X11816340Y30729000D01*
X6695670Y30729000D01*
X6533777Y31031881D01*
X6266977Y31356977D01*
X5941881Y31623777D01*
X5570982Y31822026D01*
X5168533Y31944108D01*
X4854882Y31975000D01*
X3645118Y31975000D01*
X3331467Y31944108D01*
X2929018Y31822026D01*
X2558119Y31623777D01*
X2233023Y31356977D01*
X1966223Y31031881D01*
X1767974Y30660982D01*
X1645892Y30258533D01*
X1604670Y29840000D01*
X1645892Y29421467D01*
X1767974Y29019018D01*
X1966223Y28648119D01*
X2233023Y28323023D01*
X2558119Y28056223D01*
X2929018Y27857974D01*
X3331467Y27735892D01*
X3645118Y27705000D01*
X4854882Y27705000D01*
X5168533Y27735892D01*
X5570982Y27857974D01*
X5941881Y28056223D01*
X6266977Y28323023D01*
X6533777Y28648119D01*
X6695670Y28951000D01*
X11491765Y28951000D01*
X14540501Y25902264D01*
X14568341Y25868341D01*
X14703709Y25757247D01*
X14858149Y25674697D01*
X14915675Y25657247D01*
X15025724Y25623864D01*
X15054804Y25621000D01*
X15156333Y25611000D01*
X15156339Y25611000D01*
X15199999Y25606700D01*
X15243659Y25611000D01*
X25324688Y25611000D01*
X25318781Y24261254D01*
X25315764Y24251309D01*
X25288057Y23970000D01*
X25315764Y23688691D01*
X25316268Y23687030D01*
X25307243Y21624793D01*
X25288057Y21430000D01*
X25305610Y21251781D01*
X25299209Y19789000D01*
X16968236Y19789000D01*
X11399499Y25357736D01*
X11371659Y25391659D01*
X11236291Y25502753D01*
X11081851Y25585303D01*
X10914274Y25636136D01*
X10783667Y25649000D01*
X10783660Y25649000D01*
X10740000Y25653300D01*
X10696340Y25649000D01*
X6695670Y25649000D01*
X6533777Y25951881D01*
X6266977Y26276977D01*
X5941881Y26543777D01*
X5570982Y26742026D01*
X5168533Y26864108D01*
X4854882Y26895000D01*
X3645118Y26895000D01*
X3331467Y26864108D01*
X2929018Y26742026D01*
X2558119Y26543777D01*
X2233023Y26276977D01*
X1966223Y25951881D01*
X1767974Y25580982D01*
X1645892Y25178533D01*
X1604670Y24760000D01*
X1645892Y24341467D01*
X1767974Y23939018D01*
X1966223Y23568119D01*
X2233023Y23243023D01*
X2558119Y22976223D01*
X2929018Y22777974D01*
X3331467Y22655892D01*
X3645118Y22625000D01*
X4854882Y22625000D01*
X5168533Y22655892D01*
X5570982Y22777974D01*
X5941881Y22976223D01*
X6266977Y23243023D01*
X6533777Y23568119D01*
X6695670Y23871000D01*
X10371765Y23871000D01*
X15940504Y18302260D01*
X15968341Y18268341D01*
X16103709Y18157247D01*
X16258149Y18074697D01*
X16315675Y18057247D01*
X16425724Y18023864D01*
X16458924Y18020594D01*
X16556333Y18011000D01*
X16556339Y18011000D01*
X16599999Y18006700D01*
X16643659Y18011000D01*
X25291427Y18011000D01*
X25273038Y13809000D01*
X24402497Y13809000D01*
X8000914Y13926997D01*
X7974295Y13924371D01*
X7950525Y13916967D01*
X7928657Y13905067D01*
X7909530Y13889130D01*
X7893880Y13869767D01*
X7882308Y13847724D01*
X7875259Y13823846D01*
X7873909Y13809000D01*
X6695670Y13809000D01*
X6533777Y14111881D01*
X6266977Y14436977D01*
X5941881Y14703777D01*
X5570982Y14902026D01*
X5168533Y15024108D01*
X4854882Y15055000D01*
X3645118Y15055000D01*
X3331467Y15024108D01*
X2929018Y14902026D01*
X2558119Y14703777D01*
X2233023Y14436977D01*
X1966223Y14111881D01*
X1767974Y13740982D01*
X1645892Y13338533D01*
X1604670Y12920000D01*
X1645892Y12501467D01*
X1767974Y12099018D01*
X1966223Y11728119D01*
X2233023Y11403023D01*
X2558119Y11136223D01*
X2929018Y10937974D01*
X3331467Y10815892D01*
X3645118Y10785000D01*
X4854882Y10785000D01*
X5168533Y10815892D01*
X5570982Y10937974D01*
X5941881Y11136223D01*
X6266977Y11403023D01*
X6533777Y11728119D01*
X6695670Y12031000D01*
X7886198Y12031000D01*
X7904625Y9561860D01*
X7071765Y8729000D01*
X6695670Y8729000D01*
X6533777Y9031881D01*
X6266977Y9356977D01*
X5941881Y9623777D01*
X5570982Y9822026D01*
X5168533Y9944108D01*
X4854882Y9975000D01*
X3645118Y9975000D01*
X3331467Y9944108D01*
X2929018Y9822026D01*
X2558119Y9623777D01*
X2233023Y9356977D01*
X1966223Y9031881D01*
X1767974Y8660982D01*
X1645892Y8258533D01*
X1604670Y7840000D01*
X1645892Y7421467D01*
X1767974Y7019018D01*
X1966223Y6648119D01*
X2233023Y6323023D01*
X2558119Y6056223D01*
X2929018Y5857974D01*
X3331467Y5735892D01*
X3645118Y5705000D01*
X4854882Y5705000D01*
X5168533Y5735892D01*
X5570982Y5857974D01*
X5941881Y6056223D01*
X6266977Y6323023D01*
X6533777Y6648119D01*
X6695670Y6951000D01*
X7396340Y6951000D01*
X7440000Y6946700D01*
X7483660Y6951000D01*
X7483667Y6951000D01*
X7614274Y6963864D01*
X7781851Y7014697D01*
X7923070Y7090180D01*
X7942403Y4499638D01*
X7091765Y3649000D01*
X6695670Y3649000D01*
X6533777Y3951881D01*
X6266977Y4276977D01*
X5941881Y4543777D01*
X5570982Y4742026D01*
X5168533Y4864108D01*
X4854882Y4895000D01*
X3645118Y4895000D01*
X3331467Y4864108D01*
X2929018Y4742026D01*
X2558119Y4543777D01*
X2233023Y4276977D01*
X1966223Y3951881D01*
X1767974Y3580982D01*
X1645892Y3178533D01*
X1604670Y2760000D01*
X1645892Y2341467D01*
X1767974Y1939018D01*
X1966223Y1568119D01*
X2233023Y1243023D01*
X2558119Y976223D01*
X2929018Y777974D01*
X3317925Y660000D01*
X660000Y660000D01*
X660000Y16500000D01*
X1611928Y16500000D01*
X1624188Y16375518D01*
X1660498Y16255820D01*
X1719463Y16145506D01*
X1798815Y16048815D01*
X1895506Y15969463D01*
X2005820Y15910498D01*
X2125518Y15874188D01*
X2250000Y15861928D01*
X3964250Y15865000D01*
X4123000Y16023750D01*
X4123000Y17873000D01*
X4377000Y17873000D01*
X4377000Y16023750D01*
X4535750Y15865000D01*
X6250000Y15861928D01*
X6374482Y15874188D01*
X6494180Y15910498D01*
X6604494Y15969463D01*
X6701185Y16048815D01*
X6780537Y16145506D01*
X6839502Y16255820D01*
X6875812Y16375518D01*
X6888072Y16500000D01*
X6885000Y17714250D01*
X6726250Y17873000D01*
X4377000Y17873000D01*
X4123000Y17873000D01*
X1773750Y17873000D01*
X1615000Y17714250D01*
X1611928Y16500000D01*
X660000Y16500000D01*
X660000Y19500000D01*
X1611928Y19500000D01*
X1615000Y18285750D01*
X1773750Y18127000D01*
X4123000Y18127000D01*
X4123000Y19976250D01*
X4377000Y19976250D01*
X4377000Y18127000D01*
X6726250Y18127000D01*
X6885000Y18285750D01*
X6888072Y19500000D01*
X6875812Y19624482D01*
X6839502Y19744180D01*
X6780537Y19854494D01*
X6701185Y19951185D01*
X6604494Y20030537D01*
X6494180Y20089502D01*
X6374482Y20125812D01*
X6250000Y20138072D01*
X4535750Y20135000D01*
X4377000Y19976250D01*
X4123000Y19976250D01*
X3964250Y20135000D01*
X2250000Y20138072D01*
X2125518Y20125812D01*
X2005820Y20089502D01*
X1895506Y20030537D01*
X1798815Y19951185D01*
X1719463Y19854494D01*
X1660498Y19744180D01*
X1624188Y19624482D01*
X1611928Y19500000D01*
X660000Y19500000D01*
X660000Y38500000D01*
X1611928Y38500000D01*
X1624188Y38375518D01*
X1660498Y38255820D01*
X1719463Y38145506D01*
X1798815Y38048815D01*
X1895506Y37969463D01*
X2005820Y37910498D01*
X2125518Y37874188D01*
X2250000Y37861928D01*
X3964250Y37865000D01*
X4123000Y38023750D01*
X4123000Y39873000D01*
X4377000Y39873000D01*
X4377000Y38023750D01*
X4535750Y37865000D01*
X6250000Y37861928D01*
X6374482Y37874188D01*
X6494180Y37910498D01*
X6604494Y37969463D01*
X6701185Y38048815D01*
X6780537Y38145506D01*
X6839502Y38255820D01*
X6875812Y38375518D01*
X6888072Y38500000D01*
X6885000Y39714250D01*
X6726250Y39873000D01*
X4377000Y39873000D01*
X4123000Y39873000D01*
X1773750Y39873000D01*
X1615000Y39714250D01*
X1611928Y38500000D01*
X660000Y38500000D01*
X660000Y41500000D01*
X1611928Y41500000D01*
X1615000Y40285750D01*
X1773750Y40127000D01*
X4123000Y40127000D01*
X4123000Y41976250D01*
X4377000Y41976250D01*
X4377000Y40127000D01*
X6726250Y40127000D01*
X6885000Y40285750D01*
X6888072Y41500000D01*
X6875812Y41624482D01*
X6839502Y41744180D01*
X6780537Y41854494D01*
X6701185Y41951185D01*
X6604494Y42030537D01*
X6494180Y42089502D01*
X6374482Y42125812D01*
X6250000Y42138072D01*
X4535750Y42135000D01*
X4377000Y41976250D01*
X4123000Y41976250D01*
X3964250Y42135000D01*
X2250000Y42138072D01*
X2125518Y42125812D01*
X2005820Y42089502D01*
X1895506Y42030537D01*
X1798815Y41951185D01*
X1719463Y41854494D01*
X1660498Y41744180D01*
X1624188Y41624482D01*
X1611928Y41500000D01*
X660000Y41500000D01*
X660000Y49340000D01*
X69340001Y49340000D01*
X69340000Y660000D01*
G37*
%TD.AperFunction*%
D21*
X43111000Y19031764D02*
X43111001Y11443670D01*
X43106700Y11400000D01*
X43123864Y11225726D01*
X43174698Y11058148D01*
X43182927Y11042753D01*
X43257248Y10903709D01*
X43368342Y10768341D01*
X43402259Y10740506D01*
X52040506Y2102258D01*
X52068341Y2068341D01*
X52203709Y1957247D01*
X52358149Y1874697D01*
X52452758Y1845998D01*
X52525725Y1823864D01*
X52542325Y1822229D01*
X52656333Y1811000D01*
X52656340Y1811000D01*
X52700000Y1806700D01*
X52743660Y1811000D01*
X56509250Y1811000D01*
X56511595Y1806613D01*
X56622038Y1672038D01*
X56756613Y1561595D01*
X56910149Y1479528D01*
X57076745Y1428992D01*
X57249999Y1411928D01*
X57900001Y1411928D01*
X58073255Y1428992D01*
X58239851Y1479528D01*
X58393387Y1561595D01*
X58527962Y1672038D01*
X58600000Y1759816D01*
X58672038Y1672038D01*
X58806613Y1561595D01*
X58960149Y1479528D01*
X59126745Y1428992D01*
X59299999Y1411928D01*
X59950001Y1411928D01*
X60123255Y1428992D01*
X60289851Y1479528D01*
X60443387Y1561595D01*
X60577962Y1672038D01*
X60688405Y1806613D01*
X60717476Y1861000D01*
X63059675Y1861000D01*
X63216223Y1568119D01*
X63483023Y1243023D01*
X63808119Y976223D01*
X64179018Y777974D01*
X64567925Y660000D01*
X44627000Y660000D01*
X44627000Y8800000D01*
X44624560Y8824776D01*
X44617333Y8848601D01*
X44605597Y8870557D01*
X44589803Y8889802D01*
X44570558Y8905597D01*
X44548601Y8917333D01*
X44524777Y8924560D01*
X44500000Y8927000D01*
X43462406Y8927001D01*
X43350000Y8938072D01*
X41850000Y8938072D01*
X41737616Y8927004D01*
X40209206Y8927006D01*
X40060000Y8941701D01*
X39910798Y8927006D01*
X36676715Y8927010D01*
X36664492Y15436000D01*
X39869546Y15436000D01*
X39922038Y15372038D01*
X40056613Y15261595D01*
X40210149Y15179528D01*
X40376745Y15128992D01*
X40549999Y15111928D01*
X41450001Y15111928D01*
X41623255Y15128992D01*
X41789851Y15179528D01*
X41943387Y15261595D01*
X42077962Y15372038D01*
X42188405Y15506613D01*
X42270472Y15660149D01*
X42321008Y15826745D01*
X42338072Y15999999D01*
X42338072Y16650001D01*
X42321008Y16823255D01*
X42270472Y16989851D01*
X42188405Y17143387D01*
X42077962Y17277962D01*
X42071406Y17283342D01*
X42151185Y17348815D01*
X42230537Y17445506D01*
X42289502Y17555820D01*
X42325812Y17675518D01*
X42338072Y17800000D01*
X42335000Y18089250D01*
X42176250Y18248000D01*
X41127000Y18248000D01*
X41127000Y18228000D01*
X40873000Y18228000D01*
X40873000Y18248000D01*
X39823750Y18248000D01*
X39665000Y18089250D01*
X39661928Y17800000D01*
X39674188Y17675518D01*
X39710498Y17555820D01*
X39769463Y17445506D01*
X39848815Y17348815D01*
X39928594Y17283342D01*
X39922038Y17277962D01*
X39869546Y17214000D01*
X36661153Y17214000D01*
X36657893Y18950000D01*
X39661928Y18950000D01*
X39665000Y18660750D01*
X39823750Y18502000D01*
X40873000Y18502000D01*
X40873000Y19426250D01*
X41127000Y19426250D01*
X41127000Y18502000D01*
X42176250Y18502000D01*
X42335000Y18660750D01*
X42338072Y18950000D01*
X42325812Y19074482D01*
X42289502Y19194180D01*
X42230537Y19304494D01*
X42151185Y19401185D01*
X42054494Y19480537D01*
X41944180Y19539502D01*
X41824482Y19575812D01*
X41700000Y19588072D01*
X41285750Y19585000D01*
X41127000Y19426250D01*
X40873000Y19426250D01*
X40714250Y19585000D01*
X40300000Y19588072D01*
X40175518Y19575812D01*
X40055820Y19539502D01*
X39945506Y19480537D01*
X39848815Y19401185D01*
X39769463Y19304494D01*
X39710498Y19194180D01*
X39674188Y19074482D01*
X39661928Y18950000D01*
X36657893Y18950000D01*
X36654905Y20541000D01*
X41601765Y20541000D01*
X43111000Y19031764D01*
%TA.AperFunction,Conductor*%
D22*
G36*
X43111000Y19031764D02*
G01*
X43111001Y11443670D01*
X43106700Y11400000D01*
X43123864Y11225726D01*
X43174698Y11058148D01*
X43182927Y11042753D01*
X43257248Y10903709D01*
X43368342Y10768341D01*
X43402259Y10740506D01*
X52040506Y2102258D01*
X52068341Y2068341D01*
X52203709Y1957247D01*
X52358149Y1874697D01*
X52452758Y1845998D01*
X52525725Y1823864D01*
X52542325Y1822229D01*
X52656333Y1811000D01*
X52656340Y1811000D01*
X52700000Y1806700D01*
X52743660Y1811000D01*
X56509250Y1811000D01*
X56511595Y1806613D01*
X56622038Y1672038D01*
X56756613Y1561595D01*
X56910149Y1479528D01*
X57076745Y1428992D01*
X57249999Y1411928D01*
X57900001Y1411928D01*
X58073255Y1428992D01*
X58239851Y1479528D01*
X58393387Y1561595D01*
X58527962Y1672038D01*
X58600000Y1759816D01*
X58672038Y1672038D01*
X58806613Y1561595D01*
X58960149Y1479528D01*
X59126745Y1428992D01*
X59299999Y1411928D01*
X59950001Y1411928D01*
X60123255Y1428992D01*
X60289851Y1479528D01*
X60443387Y1561595D01*
X60577962Y1672038D01*
X60688405Y1806613D01*
X60717476Y1861000D01*
X63059675Y1861000D01*
X63216223Y1568119D01*
X63483023Y1243023D01*
X63808119Y976223D01*
X64179018Y777974D01*
X64567925Y660000D01*
X44627000Y660000D01*
X44627000Y8800000D01*
X44624560Y8824776D01*
X44617333Y8848601D01*
X44605597Y8870557D01*
X44589803Y8889802D01*
X44570558Y8905597D01*
X44548601Y8917333D01*
X44524777Y8924560D01*
X44500000Y8927000D01*
X43462406Y8927001D01*
X43350000Y8938072D01*
X41850000Y8938072D01*
X41737616Y8927004D01*
X40209206Y8927006D01*
X40060000Y8941701D01*
X39910798Y8927006D01*
X36676715Y8927010D01*
X36664492Y15436000D01*
X39869546Y15436000D01*
X39922038Y15372038D01*
X40056613Y15261595D01*
X40210149Y15179528D01*
X40376745Y15128992D01*
X40549999Y15111928D01*
X41450001Y15111928D01*
X41623255Y15128992D01*
X41789851Y15179528D01*
X41943387Y15261595D01*
X42077962Y15372038D01*
X42188405Y15506613D01*
X42270472Y15660149D01*
X42321008Y15826745D01*
X42338072Y15999999D01*
X42338072Y16650001D01*
X42321008Y16823255D01*
X42270472Y16989851D01*
X42188405Y17143387D01*
X42077962Y17277962D01*
X42071406Y17283342D01*
X42151185Y17348815D01*
X42230537Y17445506D01*
X42289502Y17555820D01*
X42325812Y17675518D01*
X42338072Y17800000D01*
X42335000Y18089250D01*
X42176250Y18248000D01*
X41127000Y18248000D01*
X41127000Y18228000D01*
X40873000Y18228000D01*
X40873000Y18248000D01*
X39823750Y18248000D01*
X39665000Y18089250D01*
X39661928Y17800000D01*
X39674188Y17675518D01*
X39710498Y17555820D01*
X39769463Y17445506D01*
X39848815Y17348815D01*
X39928594Y17283342D01*
X39922038Y17277962D01*
X39869546Y17214000D01*
X36661153Y17214000D01*
X36657893Y18950000D01*
X39661928Y18950000D01*
X39665000Y18660750D01*
X39823750Y18502000D01*
X40873000Y18502000D01*
X40873000Y19426250D01*
X41127000Y19426250D01*
X41127000Y18502000D01*
X42176250Y18502000D01*
X42335000Y18660750D01*
X42338072Y18950000D01*
X42325812Y19074482D01*
X42289502Y19194180D01*
X42230537Y19304494D01*
X42151185Y19401185D01*
X42054494Y19480537D01*
X41944180Y19539502D01*
X41824482Y19575812D01*
X41700000Y19588072D01*
X41285750Y19585000D01*
X41127000Y19426250D01*
X40873000Y19426250D01*
X40714250Y19585000D01*
X40300000Y19588072D01*
X40175518Y19575812D01*
X40055820Y19539502D01*
X39945506Y19480537D01*
X39848815Y19401185D01*
X39769463Y19304494D01*
X39710498Y19194180D01*
X39674188Y19074482D01*
X39661928Y18950000D01*
X36657893Y18950000D01*
X36654905Y20541000D01*
X41601765Y20541000D01*
X43111000Y19031764D01*
G37*
%TD.AperFunction*%
%TD*%
M02*
