%TF.GenerationSoftware,KiCad,Pcbnew,5.99.0+really5.1.10+dfsg1-1*%
%TF.CreationDate,2021-11-04T11:29:56+11:00*%
%TF.ProjectId,buffer,62756666-6572-42e6-9b69-6361645f7063,rev?*%
%TF.SameCoordinates,PX2faf080PY5f5e100*%
%TF.FileFunction,OtherDrawing,Comment*%
%FSLAX46Y46*%
G04 Gerber Fmt 4.6, Leading zero omitted, Abs format (unit mm)*
G04 Created by KiCad (PCBNEW 5.99.0+really5.1.10+dfsg1-1) date 2021-11-04 11:29:56*
%MOMM*%
%LPD*%
G01*
G04 APERTURE LIST*
%ADD10C,0.300000*%
G04 APERTURE END LIST*
D10*
X9764285Y13621429D02*
X10764285Y12121429D01*
X10764285Y13621429D02*
X9764285Y12121429D01*
X11621428Y13621429D02*
X11907142Y13621429D01*
X12050000Y13550000D01*
X12192857Y13407143D01*
X12264285Y13121429D01*
X12264285Y12621429D01*
X12192857Y12335715D01*
X12050000Y12192858D01*
X11907142Y12121429D01*
X11621428Y12121429D01*
X11478571Y12192858D01*
X11335714Y12335715D01*
X11264285Y12621429D01*
X11264285Y13121429D01*
X11335714Y13407143D01*
X11478571Y13550000D01*
X11621428Y13621429D01*
X12907142Y12121429D02*
X12907142Y13621429D01*
X13478571Y13621429D01*
X13621428Y13550000D01*
X13692857Y13478572D01*
X13764285Y13335715D01*
X13764285Y13121429D01*
X13692857Y12978572D01*
X13621428Y12907143D01*
X13478571Y12835715D01*
X12907142Y12835715D01*
X9835714Y3621429D02*
X10835714Y2121429D01*
X10835714Y3621429D02*
X9835714Y2121429D01*
X11692857Y3621429D02*
X11978571Y3621429D01*
X12121428Y3550000D01*
X12264285Y3407143D01*
X12335714Y3121429D01*
X12335714Y2621429D01*
X12264285Y2335715D01*
X12121428Y2192858D01*
X11978571Y2121429D01*
X11692857Y2121429D01*
X11550000Y2192858D01*
X11407142Y2335715D01*
X11335714Y2621429D01*
X11335714Y3121429D01*
X11407142Y3407143D01*
X11550000Y3550000D01*
X11692857Y3621429D01*
X12978571Y2907143D02*
X13478571Y2907143D01*
X13692857Y2121429D02*
X12978571Y2121429D01*
X12978571Y3621429D01*
X13692857Y3621429D01*
X9764285Y8621429D02*
X10764285Y7121429D01*
X10764285Y8621429D02*
X9764285Y7121429D01*
X11621428Y8621429D02*
X11907142Y8621429D01*
X12050000Y8550000D01*
X12192857Y8407143D01*
X12264285Y8121429D01*
X12264285Y7621429D01*
X12192857Y7335715D01*
X12050000Y7192858D01*
X11907142Y7121429D01*
X11621428Y7121429D01*
X11478571Y7192858D01*
X11335714Y7335715D01*
X11264285Y7621429D01*
X11264285Y8121429D01*
X11335714Y8407143D01*
X11478571Y8550000D01*
X11621428Y8621429D01*
X12907142Y7121429D02*
X12907142Y8621429D01*
X13264285Y8621429D01*
X13478571Y8550000D01*
X13621428Y8407143D01*
X13692857Y8264286D01*
X13764285Y7978572D01*
X13764285Y7764286D01*
X13692857Y7478572D01*
X13621428Y7335715D01*
X13478571Y7192858D01*
X13264285Y7121429D01*
X12907142Y7121429D01*
X9764285Y25621429D02*
X10764285Y25621429D01*
X9764285Y24121429D01*
X10764285Y24121429D01*
X11621428Y25621429D02*
X11907142Y25621429D01*
X12050000Y25550000D01*
X12192857Y25407143D01*
X12264285Y25121429D01*
X12264285Y24621429D01*
X12192857Y24335715D01*
X12050000Y24192858D01*
X11907142Y24121429D01*
X11621428Y24121429D01*
X11478571Y24192858D01*
X11335714Y24335715D01*
X11264285Y24621429D01*
X11264285Y25121429D01*
X11335714Y25407143D01*
X11478571Y25550000D01*
X11621428Y25621429D01*
X12907142Y24121429D02*
X12907142Y25621429D01*
X13478571Y25621429D01*
X13621428Y25550000D01*
X13692857Y25478572D01*
X13764285Y25335715D01*
X13764285Y25121429D01*
X13692857Y24978572D01*
X13621428Y24907143D01*
X13478571Y24835715D01*
X12907142Y24835715D01*
X9764285Y30621429D02*
X10764285Y30621429D01*
X9764285Y29121429D01*
X10764285Y29121429D01*
X11621428Y30621429D02*
X11907142Y30621429D01*
X12050000Y30550000D01*
X12192857Y30407143D01*
X12264285Y30121429D01*
X12264285Y29621429D01*
X12192857Y29335715D01*
X12050000Y29192858D01*
X11907142Y29121429D01*
X11621428Y29121429D01*
X11478571Y29192858D01*
X11335714Y29335715D01*
X11264285Y29621429D01*
X11264285Y30121429D01*
X11335714Y30407143D01*
X11478571Y30550000D01*
X11621428Y30621429D01*
X12907142Y29121429D02*
X12907142Y30621429D01*
X13264285Y30621429D01*
X13478571Y30550000D01*
X13621428Y30407143D01*
X13692857Y30264286D01*
X13764285Y29978572D01*
X13764285Y29764286D01*
X13692857Y29478572D01*
X13621428Y29335715D01*
X13478571Y29192858D01*
X13264285Y29121429D01*
X12907142Y29121429D01*
X9835714Y35621429D02*
X10835714Y35621429D01*
X9835714Y34121429D01*
X10835714Y34121429D01*
X11692857Y35621429D02*
X11978571Y35621429D01*
X12121428Y35550000D01*
X12264285Y35407143D01*
X12335714Y35121429D01*
X12335714Y34621429D01*
X12264285Y34335715D01*
X12121428Y34192858D01*
X11978571Y34121429D01*
X11692857Y34121429D01*
X11550000Y34192858D01*
X11407142Y34335715D01*
X11335714Y34621429D01*
X11335714Y35121429D01*
X11407142Y35407143D01*
X11550000Y35550000D01*
X11692857Y35621429D01*
X12978571Y34907143D02*
X13478571Y34907143D01*
X13692857Y34121429D02*
X12978571Y34121429D01*
X12978571Y35621429D01*
X13692857Y35621429D01*
X56792857Y25621429D02*
X57792857Y25621429D01*
X56792857Y24121429D01*
X57792857Y24121429D01*
X58364285Y24121429D02*
X58364285Y25621429D01*
X59078571Y24121429D02*
X59078571Y25621429D01*
X59650000Y25621429D01*
X59792857Y25550000D01*
X59864285Y25478572D01*
X59935714Y25335715D01*
X59935714Y25121429D01*
X59864285Y24978572D01*
X59792857Y24907143D01*
X59650000Y24835715D01*
X59078571Y24835715D01*
X56792857Y30621429D02*
X57792857Y30621429D01*
X56792857Y29121429D01*
X57792857Y29121429D01*
X58364285Y29121429D02*
X58364285Y30621429D01*
X59078571Y29121429D02*
X59078571Y30621429D01*
X59435714Y30621429D01*
X59650000Y30550000D01*
X59792857Y30407143D01*
X59864285Y30264286D01*
X59935714Y29978572D01*
X59935714Y29764286D01*
X59864285Y29478572D01*
X59792857Y29335715D01*
X59650000Y29192858D01*
X59435714Y29121429D01*
X59078571Y29121429D01*
X56864285Y35621429D02*
X57864285Y35621429D01*
X56864285Y34121429D01*
X57864285Y34121429D01*
X58435714Y34121429D02*
X58435714Y35621429D01*
X59150000Y34907143D02*
X59650000Y34907143D01*
X59864285Y34121429D02*
X59150000Y34121429D01*
X59150000Y35621429D01*
X59864285Y35621429D01*
X56792857Y13621429D02*
X57792857Y12121429D01*
X57792857Y13621429D02*
X56792857Y12121429D01*
X58364285Y12121429D02*
X58364285Y13621429D01*
X59078571Y12121429D02*
X59078571Y13621429D01*
X59650000Y13621429D01*
X59792857Y13550000D01*
X59864285Y13478572D01*
X59935714Y13335715D01*
X59935714Y13121429D01*
X59864285Y12978572D01*
X59792857Y12907143D01*
X59650000Y12835715D01*
X59078571Y12835715D01*
X56792857Y8621429D02*
X57792857Y7121429D01*
X57792857Y8621429D02*
X56792857Y7121429D01*
X58364285Y7121429D02*
X58364285Y8621429D01*
X59078571Y7121429D02*
X59078571Y8621429D01*
X59435714Y8621429D01*
X59650000Y8550000D01*
X59792857Y8407143D01*
X59864285Y8264286D01*
X59935714Y7978572D01*
X59935714Y7764286D01*
X59864285Y7478572D01*
X59792857Y7335715D01*
X59650000Y7192858D01*
X59435714Y7121429D01*
X59078571Y7121429D01*
X56864285Y3621429D02*
X57864285Y2121429D01*
X57864285Y3621429D02*
X56864285Y2121429D01*
X58435714Y2121429D02*
X58435714Y3621429D01*
X59150000Y2907143D02*
X59650000Y2907143D01*
X59864285Y2121429D02*
X59150000Y2121429D01*
X59150000Y3621429D01*
X59864285Y3621429D01*
M02*
