%TF.GenerationSoftware,KiCad,Pcbnew,5.99.0+really5.1.10+dfsg1-1*%
%TF.CreationDate,2021-08-18T19:38:37+10:00*%
%TF.ProjectId,lcd,6c63642e-6b69-4636-9164-5f7063625858,rev?*%
%TF.SameCoordinates,Original*%
%TF.FileFunction,Soldermask,Bot*%
%TF.FilePolarity,Negative*%
%FSLAX46Y46*%
G04 Gerber Fmt 4.6, Leading zero omitted, Abs format (unit mm)*
G04 Created by KiCad (PCBNEW 5.99.0+really5.1.10+dfsg1-1) date 2021-08-18 19:38:37*
%MOMM*%
%LPD*%
G01*
G04 APERTURE LIST*
%ADD10O,1.600000X1.600000*%
%ADD11R,1.600000X1.600000*%
%ADD12C,6.400000*%
%ADD13R,1.727200X1.727200*%
%ADD14O,1.727200X1.727200*%
G04 APERTURE END LIST*
D10*
%TO.C,A1*%
X120900000Y-35560000D03*
X118360000Y-35560000D03*
D11*
X111760000Y-83820000D03*
D10*
X81280000Y-35560000D03*
X109220000Y-83820000D03*
X83820000Y-35560000D03*
X106680000Y-83820000D03*
X86360000Y-35560000D03*
X104140000Y-83820000D03*
X88900000Y-35560000D03*
X101600000Y-83820000D03*
X91440000Y-35560000D03*
X99060000Y-83820000D03*
X93980000Y-35560000D03*
X96520000Y-83820000D03*
X98040000Y-35560000D03*
X93980000Y-83820000D03*
X100580000Y-35560000D03*
X88900000Y-83820000D03*
X103120000Y-35560000D03*
X86360000Y-83820000D03*
X105660000Y-35560000D03*
X83820000Y-83820000D03*
X108200000Y-35560000D03*
X81280000Y-83820000D03*
X110740000Y-35560000D03*
X78740000Y-83820000D03*
X113280000Y-35560000D03*
X76200000Y-83820000D03*
X115820000Y-35560000D03*
X76200000Y-35560000D03*
X78740000Y-35560000D03*
%TD*%
D12*
%TO.C,REF\u002A\u002A*%
X145000000Y-82500000D03*
%TD*%
%TO.C,REF\u002A\u002A*%
X145000000Y-35000000D03*
%TD*%
%TO.C,REF\u002A\u002A*%
X65000000Y-82500000D03*
%TD*%
%TO.C,REF\u002A\u002A*%
X65000000Y-35000000D03*
%TD*%
D13*
%TO.C,J1*%
X76700000Y-50700000D03*
D14*
X79240000Y-50700000D03*
X76700000Y-53240000D03*
X79240000Y-53240000D03*
X76700000Y-55780000D03*
X79240000Y-55780000D03*
X76700000Y-58320000D03*
X79240000Y-58320000D03*
X76700000Y-60860000D03*
X79240000Y-60860000D03*
X76700000Y-63400000D03*
X79240000Y-63400000D03*
X76700000Y-65940000D03*
X79240000Y-65940000D03*
X76700000Y-68480000D03*
X79240000Y-68480000D03*
%TD*%
M02*
