%TF.GenerationSoftware,KiCad,Pcbnew,5.99.0+really5.1.10+dfsg1-1*%
%TF.CreationDate,2021-08-18T19:38:37+10:00*%
%TF.ProjectId,lcd,6c63642e-6b69-4636-9164-5f7063625858,rev?*%
%TF.SameCoordinates,Original*%
%TF.FileFunction,Copper,L1,Top*%
%TF.FilePolarity,Positive*%
%FSLAX46Y46*%
G04 Gerber Fmt 4.6, Leading zero omitted, Abs format (unit mm)*
G04 Created by KiCad (PCBNEW 5.99.0+really5.1.10+dfsg1-1) date 2021-08-18 19:38:37*
%MOMM*%
%LPD*%
G01*
G04 APERTURE LIST*
%TA.AperFunction,ComponentPad*%
%ADD10O,1.600000X1.600000*%
%TD*%
%TA.AperFunction,ComponentPad*%
%ADD11R,1.600000X1.600000*%
%TD*%
%TA.AperFunction,ComponentPad*%
%ADD12C,6.400000*%
%TD*%
%TA.AperFunction,ComponentPad*%
%ADD13R,1.727200X1.727200*%
%TD*%
%TA.AperFunction,ComponentPad*%
%ADD14O,1.727200X1.727200*%
%TD*%
%TA.AperFunction,Conductor*%
%ADD15C,0.304800*%
%TD*%
%TA.AperFunction,Conductor*%
%ADD16C,0.254000*%
%TD*%
%TA.AperFunction,Conductor*%
%ADD17C,0.050000*%
%TD*%
G04 APERTURE END LIST*
D10*
%TO.P,A1,32*%
%TO.N,Net-(A1-Pad32)*%
X120900000Y-35560000D03*
%TO.P,A1,31*%
%TO.N,Net-(A1-Pad31)*%
X118360000Y-35560000D03*
D11*
%TO.P,A1,1*%
%TO.N,Net-(A1-Pad1)*%
X111760000Y-83820000D03*
D10*
%TO.P,A1,17*%
%TO.N,D2*%
X81280000Y-35560000D03*
%TO.P,A1,2*%
%TO.N,Net-(A1-Pad2)*%
X109220000Y-83820000D03*
%TO.P,A1,18*%
%TO.N,D3*%
X83820000Y-35560000D03*
%TO.P,A1,3*%
%TO.N,Net-(A1-Pad3)*%
X106680000Y-83820000D03*
%TO.P,A1,19*%
%TO.N,D4*%
X86360000Y-35560000D03*
%TO.P,A1,4*%
%TO.N,3V3*%
X104140000Y-83820000D03*
%TO.P,A1,20*%
%TO.N,D5*%
X88900000Y-35560000D03*
%TO.P,A1,5*%
%TO.N,5V*%
X101600000Y-83820000D03*
%TO.P,A1,21*%
%TO.N,D6*%
X91440000Y-35560000D03*
%TO.P,A1,6*%
%TO.N,GND*%
X99060000Y-83820000D03*
%TO.P,A1,22*%
%TO.N,D7*%
X93980000Y-35560000D03*
%TO.P,A1,7*%
%TO.N,GND*%
X96520000Y-83820000D03*
%TO.P,A1,23*%
%TO.N,D0*%
X98040000Y-35560000D03*
%TO.P,A1,8*%
%TO.N,Net-(A1-Pad8)*%
X93980000Y-83820000D03*
%TO.P,A1,24*%
%TO.N,D1*%
X100580000Y-35560000D03*
%TO.P,A1,9*%
%TO.N,RD*%
X88900000Y-83820000D03*
%TO.P,A1,25*%
%TO.N,Net-(A1-Pad25)*%
X103120000Y-35560000D03*
%TO.P,A1,10*%
%TO.N,WR*%
X86360000Y-83820000D03*
%TO.P,A1,26*%
%TO.N,Net-(A1-Pad26)*%
X105660000Y-35560000D03*
%TO.P,A1,11*%
%TO.N,RS*%
X83820000Y-83820000D03*
%TO.P,A1,27*%
%TO.N,Net-(A1-Pad27)*%
X108200000Y-35560000D03*
%TO.P,A1,12*%
%TO.N,CS*%
X81280000Y-83820000D03*
%TO.P,A1,28*%
%TO.N,Net-(A1-Pad28)*%
X110740000Y-35560000D03*
%TO.P,A1,13*%
%TO.N,RST*%
X78740000Y-83820000D03*
%TO.P,A1,29*%
%TO.N,GND*%
X113280000Y-35560000D03*
%TO.P,A1,14*%
%TO.N,Net-(A1-Pad14)*%
X76200000Y-83820000D03*
%TO.P,A1,30*%
%TO.N,Net-(A1-Pad30)*%
X115820000Y-35560000D03*
%TO.P,A1,15*%
%TO.N,Net-(A1-Pad15)*%
X76200000Y-35560000D03*
%TO.P,A1,16*%
%TO.N,Net-(A1-Pad16)*%
X78740000Y-35560000D03*
%TD*%
D12*
%TO.P,REF\u002A\u002A,1*%
%TO.N,GND*%
X145000000Y-82500000D03*
%TD*%
%TO.P,REF\u002A\u002A,1*%
%TO.N,GND*%
X145000000Y-35000000D03*
%TD*%
%TO.P,REF\u002A\u002A,1*%
%TO.N,GND*%
X65000000Y-82500000D03*
%TD*%
%TO.P,REF\u002A\u002A,1*%
%TO.N,GND*%
X65000000Y-35000000D03*
%TD*%
D13*
%TO.P,J1,1*%
%TO.N,D0*%
X76700000Y-50700000D03*
D14*
%TO.P,J1,2*%
%TO.N,D1*%
X79240000Y-50700000D03*
%TO.P,J1,3*%
%TO.N,D2*%
X76700000Y-53240000D03*
%TO.P,J1,4*%
%TO.N,D3*%
X79240000Y-53240000D03*
%TO.P,J1,5*%
%TO.N,D4*%
X76700000Y-55780000D03*
%TO.P,J1,6*%
%TO.N,D5*%
X79240000Y-55780000D03*
%TO.P,J1,7*%
%TO.N,D6*%
X76700000Y-58320000D03*
%TO.P,J1,8*%
%TO.N,D7*%
X79240000Y-58320000D03*
%TO.P,J1,9*%
%TO.N,RD*%
X76700000Y-60860000D03*
%TO.P,J1,10*%
%TO.N,WR*%
X79240000Y-60860000D03*
%TO.P,J1,11*%
%TO.N,RS*%
X76700000Y-63400000D03*
%TO.P,J1,12*%
%TO.N,CS*%
X79240000Y-63400000D03*
%TO.P,J1,13*%
%TO.N,RST*%
X76700000Y-65940000D03*
%TO.P,J1,14*%
%TO.N,GND*%
X79240000Y-65940000D03*
%TO.P,J1,15*%
X76700000Y-68480000D03*
%TO.P,J1,16*%
%TO.N,5V*%
X79240000Y-68480000D03*
%TD*%
D15*
%TO.N,D2*%
X81250000Y-39850000D02*
X81250000Y-35450000D01*
X74500000Y-46600000D02*
X81250000Y-39850000D01*
X74500000Y-52150000D02*
X74500000Y-46600000D01*
X75590000Y-53240000D02*
X74500000Y-52150000D01*
X81250000Y-35450000D02*
X81250000Y-35400000D01*
X76700000Y-53240000D02*
X75590000Y-53240000D01*
%TO.N,D3*%
X83800000Y-35500000D02*
X83800000Y-35450000D01*
X83800000Y-38600000D02*
X83800000Y-35500000D01*
X75200000Y-47200000D02*
X83800000Y-38600000D01*
X75200000Y-51770995D02*
X75200000Y-47200000D01*
X75429005Y-52000000D02*
X75200000Y-51770995D01*
X78400000Y-52000000D02*
X75429005Y-52000000D01*
X79240000Y-52840000D02*
X78400000Y-52000000D01*
X79240000Y-53240000D02*
X79240000Y-52840000D01*
%TO.N,D4*%
X76700000Y-55780000D02*
X75380000Y-55780000D01*
X75380000Y-55780000D02*
X73850000Y-54250000D01*
X73850000Y-54250000D02*
X73850000Y-46000000D01*
X73850000Y-46000000D02*
X80000000Y-39850000D01*
X80000000Y-39850000D02*
X80000000Y-34650000D01*
X80000000Y-34650000D02*
X80750000Y-33900000D01*
X80750000Y-33900000D02*
X85850000Y-33900000D01*
X85850000Y-33900000D02*
X86350000Y-34400000D01*
X86350000Y-34400000D02*
X86350000Y-35600000D01*
X86350000Y-35600000D02*
X86350000Y-35650000D01*
%TO.N,D5*%
X88950000Y-34150000D02*
X88950000Y-35650000D01*
X87950000Y-33150000D02*
X88950000Y-34150000D01*
X78950000Y-33150000D02*
X87950000Y-33150000D01*
X77500000Y-40550000D02*
X77500000Y-34600000D01*
X73200000Y-44850000D02*
X77500000Y-40550000D01*
X73200000Y-54950000D02*
X73200000Y-44850000D01*
X75300000Y-57050000D02*
X73200000Y-54950000D01*
X88950000Y-35650000D02*
X88950000Y-35600000D01*
X78050000Y-57050000D02*
X75300000Y-57050000D01*
X77500000Y-34600000D02*
X78950000Y-33150000D01*
X79240000Y-55860000D02*
X78050000Y-57050000D01*
X79240000Y-55780000D02*
X79240000Y-55860000D01*
%TO.N,5V*%
X101100000Y-85550000D02*
X101600000Y-85050000D01*
X86050000Y-85550000D02*
X101100000Y-85550000D01*
X85100000Y-84600000D02*
X86050000Y-85550000D01*
X85100000Y-71900000D02*
X85100000Y-84600000D01*
X101600000Y-85050000D02*
X101600000Y-83600000D01*
X81680000Y-68480000D02*
X85100000Y-71900000D01*
X79240000Y-68480000D02*
X81680000Y-68480000D01*
%TO.N,D6*%
X91450000Y-34200000D02*
X91450000Y-35900000D01*
X89600000Y-32350000D02*
X91450000Y-34200000D01*
X77050000Y-32350000D02*
X89600000Y-32350000D01*
X74500000Y-34900000D02*
X77050000Y-32350000D01*
X74500000Y-41850000D02*
X74500000Y-34900000D01*
X72450000Y-43900000D02*
X74500000Y-41850000D01*
X72450000Y-55900000D02*
X72450000Y-43900000D01*
X74870000Y-58320000D02*
X72450000Y-55900000D01*
X76700000Y-58320000D02*
X74870000Y-58320000D01*
%TO.N,D7*%
X93950000Y-35500000D02*
X94000000Y-35550000D01*
X93950000Y-34050000D02*
X93950000Y-35500000D01*
X91500000Y-31600000D02*
X93950000Y-34050000D01*
X73800000Y-34300000D02*
X76500000Y-31600000D01*
X73800000Y-41300000D02*
X73800000Y-34300000D01*
X71800000Y-43300000D02*
X73800000Y-41300000D01*
X76500000Y-31600000D02*
X91500000Y-31600000D01*
X71800000Y-56500000D02*
X71800000Y-43300000D01*
X74900000Y-59600000D02*
X71800000Y-56500000D01*
X77550000Y-59600000D02*
X74900000Y-59600000D01*
X78830000Y-58320000D02*
X77550000Y-59600000D01*
X79240000Y-58320000D02*
X78830000Y-58320000D01*
%TO.N,D0*%
X94500000Y-46650000D02*
X98050000Y-43100000D01*
X78400000Y-46650000D02*
X94500000Y-46650000D01*
X76700000Y-48350000D02*
X78400000Y-46650000D01*
X98050000Y-43100000D02*
X98050000Y-35500000D01*
X76700000Y-50700000D02*
X76700000Y-48350000D01*
%TO.N,D1*%
X79240000Y-50700000D02*
X95850000Y-50700000D01*
X95850000Y-50700000D02*
X100600000Y-45950000D01*
X100600000Y-45950000D02*
X100600000Y-35500000D01*
%TO.N,RD*%
X76700000Y-60860000D02*
X77390000Y-60860000D01*
X77390000Y-60860000D02*
X78650000Y-59600000D01*
X78650000Y-59600000D02*
X80700000Y-59600000D01*
X80700000Y-59600000D02*
X88850000Y-67750000D01*
X88850000Y-67750000D02*
X88850000Y-83950000D01*
%TO.N,WR*%
X79240000Y-60860000D02*
X79860000Y-60860000D01*
X79860000Y-60860000D02*
X86300000Y-67300000D01*
X86300000Y-67300000D02*
X86300000Y-83900000D01*
%TO.N,RS*%
X76700000Y-63400000D02*
X75850000Y-63400000D01*
X75850000Y-63400000D02*
X74100000Y-65150000D01*
X74100000Y-65150000D02*
X74100000Y-84300000D01*
X74100000Y-84300000D02*
X75400000Y-85600000D01*
X75400000Y-85600000D02*
X83300000Y-85600000D01*
X83300000Y-85600000D02*
X83900000Y-85000000D01*
X83900000Y-85000000D02*
X83900000Y-83900000D01*
%TO.N,CS*%
X79240000Y-63400000D02*
X78950000Y-63400000D01*
X78950000Y-63400000D02*
X77950000Y-64400000D01*
X77950000Y-64400000D02*
X77950000Y-79100000D01*
X77950000Y-79100000D02*
X81250000Y-82400000D01*
X81250000Y-82400000D02*
X81250000Y-83900000D01*
%TO.N,RST*%
X76700000Y-65940000D02*
X75310000Y-65940000D01*
X75310000Y-65940000D02*
X74850000Y-66400000D01*
X74850000Y-66400000D02*
X74850000Y-80800000D01*
X74850000Y-80800000D02*
X75850000Y-81800000D01*
X75850000Y-81800000D02*
X78050000Y-81800000D01*
X78050000Y-81800000D02*
X78750000Y-82500000D01*
X78750000Y-82500000D02*
X78750000Y-83850000D01*
%TD*%
D16*
%TO.N,GND*%
X149340001Y-86840000D02*
X60660000Y-86840000D01*
X60660000Y-85200881D01*
X62478724Y-85200881D01*
X62838912Y-85690548D01*
X63502882Y-86050849D01*
X64224385Y-86274694D01*
X64975695Y-86353480D01*
X65727938Y-86284178D01*
X66452208Y-86069452D01*
X67120670Y-85717555D01*
X67161088Y-85690548D01*
X67521276Y-85200881D01*
X65000000Y-82679605D01*
X62478724Y-85200881D01*
X60660000Y-85200881D01*
X60660000Y-82475695D01*
X61146520Y-82475695D01*
X61215822Y-83227938D01*
X61430548Y-83952208D01*
X61782445Y-84620670D01*
X61809452Y-84661088D01*
X62299119Y-85021276D01*
X64820395Y-82500000D01*
X65179605Y-82500000D01*
X67700881Y-85021276D01*
X68190548Y-84661088D01*
X68550849Y-83997118D01*
X68774694Y-83275615D01*
X68853480Y-82524305D01*
X68784178Y-81772062D01*
X68569452Y-81047792D01*
X68217555Y-80379330D01*
X68190548Y-80338912D01*
X67700881Y-79978724D01*
X65179605Y-82500000D01*
X64820395Y-82500000D01*
X62299119Y-79978724D01*
X61809452Y-80338912D01*
X61449151Y-81002882D01*
X61225306Y-81724385D01*
X61146520Y-82475695D01*
X60660000Y-82475695D01*
X60660000Y-79799119D01*
X62478724Y-79799119D01*
X65000000Y-82320395D01*
X67521276Y-79799119D01*
X67161088Y-79309452D01*
X66497118Y-78949151D01*
X65775615Y-78725306D01*
X65024305Y-78646520D01*
X64272062Y-78715822D01*
X63547792Y-78930548D01*
X62879330Y-79282445D01*
X62838912Y-79309452D01*
X62478724Y-79799119D01*
X60660000Y-79799119D01*
X60660000Y-43300000D01*
X71008792Y-43300000D01*
X71012601Y-43338673D01*
X71012600Y-56461337D01*
X71008792Y-56500000D01*
X71012600Y-56538663D01*
X71012600Y-56538672D01*
X71023994Y-56654356D01*
X71069018Y-56802782D01*
X71142134Y-56939571D01*
X71240531Y-57059469D01*
X71270578Y-57084128D01*
X74315877Y-60129428D01*
X74340531Y-60159469D01*
X74460428Y-60257866D01*
X74597217Y-60330982D01*
X74745643Y-60376006D01*
X74861327Y-60387400D01*
X74861336Y-60387400D01*
X74899999Y-60391208D01*
X74938662Y-60387400D01*
X75273684Y-60387400D01*
X75258990Y-60422875D01*
X75201400Y-60712401D01*
X75201400Y-61007599D01*
X75258990Y-61297125D01*
X75371958Y-61569853D01*
X75535961Y-61815302D01*
X75744698Y-62024039D01*
X75903281Y-62130000D01*
X75744698Y-62235961D01*
X75535961Y-62444698D01*
X75371958Y-62690147D01*
X75319522Y-62816739D01*
X75290531Y-62840531D01*
X75265881Y-62870567D01*
X73570577Y-64565873D01*
X73540531Y-64590531D01*
X73442134Y-64710429D01*
X73369018Y-64847218D01*
X73323994Y-64995644D01*
X73312600Y-65111328D01*
X73312600Y-65111337D01*
X73308792Y-65150000D01*
X73312600Y-65188663D01*
X73312601Y-84261327D01*
X73308792Y-84300000D01*
X73323995Y-84454357D01*
X73369018Y-84602782D01*
X73416284Y-84691209D01*
X73442135Y-84739572D01*
X73540532Y-84859469D01*
X73570573Y-84884123D01*
X74815881Y-86129433D01*
X74840531Y-86159469D01*
X74870567Y-86184119D01*
X74870570Y-86184122D01*
X74960427Y-86257865D01*
X74960428Y-86257866D01*
X75097217Y-86330982D01*
X75245643Y-86376006D01*
X75361327Y-86387400D01*
X75361335Y-86387400D01*
X75400000Y-86391208D01*
X75438665Y-86387400D01*
X83261337Y-86387400D01*
X83300000Y-86391208D01*
X83338663Y-86387400D01*
X83338673Y-86387400D01*
X83454357Y-86376006D01*
X83602783Y-86330982D01*
X83739572Y-86257866D01*
X83859469Y-86159469D01*
X83884127Y-86129423D01*
X84429434Y-85584118D01*
X84459469Y-85559469D01*
X84557866Y-85439572D01*
X84630982Y-85302783D01*
X84644539Y-85258090D01*
X85465877Y-86079428D01*
X85490531Y-86109469D01*
X85520570Y-86134121D01*
X85610427Y-86207866D01*
X85703970Y-86257866D01*
X85747217Y-86280982D01*
X85895643Y-86326006D01*
X86011327Y-86337400D01*
X86011337Y-86337400D01*
X86050000Y-86341208D01*
X86088663Y-86337400D01*
X101061337Y-86337400D01*
X101100000Y-86341208D01*
X101138663Y-86337400D01*
X101138673Y-86337400D01*
X101254357Y-86326006D01*
X101402783Y-86280982D01*
X101539572Y-86207866D01*
X101659469Y-86109469D01*
X101684128Y-86079422D01*
X102129423Y-85634127D01*
X102159469Y-85609469D01*
X102228058Y-85525893D01*
X102257866Y-85489573D01*
X102330982Y-85352783D01*
X102376006Y-85204358D01*
X102379267Y-85171246D01*
X102387400Y-85088673D01*
X102387400Y-85088666D01*
X102391208Y-85050000D01*
X102388176Y-85019217D01*
X102514759Y-84934637D01*
X102714637Y-84734759D01*
X102870000Y-84502241D01*
X103025363Y-84734759D01*
X103225241Y-84934637D01*
X103460273Y-85091680D01*
X103721426Y-85199853D01*
X103998665Y-85255000D01*
X104281335Y-85255000D01*
X104558574Y-85199853D01*
X104819727Y-85091680D01*
X105054759Y-84934637D01*
X105254637Y-84734759D01*
X105410000Y-84502241D01*
X105565363Y-84734759D01*
X105765241Y-84934637D01*
X106000273Y-85091680D01*
X106261426Y-85199853D01*
X106538665Y-85255000D01*
X106821335Y-85255000D01*
X107098574Y-85199853D01*
X107359727Y-85091680D01*
X107594759Y-84934637D01*
X107794637Y-84734759D01*
X107950000Y-84502241D01*
X108105363Y-84734759D01*
X108305241Y-84934637D01*
X108540273Y-85091680D01*
X108801426Y-85199853D01*
X109078665Y-85255000D01*
X109361335Y-85255000D01*
X109638574Y-85199853D01*
X109899727Y-85091680D01*
X110134759Y-84934637D01*
X110333357Y-84736039D01*
X110334188Y-84744482D01*
X110370498Y-84864180D01*
X110429463Y-84974494D01*
X110508815Y-85071185D01*
X110605506Y-85150537D01*
X110715820Y-85209502D01*
X110835518Y-85245812D01*
X110960000Y-85258072D01*
X112560000Y-85258072D01*
X112684482Y-85245812D01*
X112804180Y-85209502D01*
X112820308Y-85200881D01*
X142478724Y-85200881D01*
X142838912Y-85690548D01*
X143502882Y-86050849D01*
X144224385Y-86274694D01*
X144975695Y-86353480D01*
X145727938Y-86284178D01*
X146452208Y-86069452D01*
X147120670Y-85717555D01*
X147161088Y-85690548D01*
X147521276Y-85200881D01*
X145000000Y-82679605D01*
X142478724Y-85200881D01*
X112820308Y-85200881D01*
X112914494Y-85150537D01*
X113011185Y-85071185D01*
X113090537Y-84974494D01*
X113149502Y-84864180D01*
X113185812Y-84744482D01*
X113198072Y-84620000D01*
X113198072Y-83020000D01*
X113185812Y-82895518D01*
X113149502Y-82775820D01*
X113090537Y-82665506D01*
X113011185Y-82568815D01*
X112914494Y-82489463D01*
X112888737Y-82475695D01*
X141146520Y-82475695D01*
X141215822Y-83227938D01*
X141430548Y-83952208D01*
X141782445Y-84620670D01*
X141809452Y-84661088D01*
X142299119Y-85021276D01*
X144820395Y-82500000D01*
X145179605Y-82500000D01*
X147700881Y-85021276D01*
X148190548Y-84661088D01*
X148550849Y-83997118D01*
X148774694Y-83275615D01*
X148853480Y-82524305D01*
X148784178Y-81772062D01*
X148569452Y-81047792D01*
X148217555Y-80379330D01*
X148190548Y-80338912D01*
X147700881Y-79978724D01*
X145179605Y-82500000D01*
X144820395Y-82500000D01*
X142299119Y-79978724D01*
X141809452Y-80338912D01*
X141449151Y-81002882D01*
X141225306Y-81724385D01*
X141146520Y-82475695D01*
X112888737Y-82475695D01*
X112804180Y-82430498D01*
X112684482Y-82394188D01*
X112560000Y-82381928D01*
X110960000Y-82381928D01*
X110835518Y-82394188D01*
X110715820Y-82430498D01*
X110605506Y-82489463D01*
X110508815Y-82568815D01*
X110429463Y-82665506D01*
X110370498Y-82775820D01*
X110334188Y-82895518D01*
X110333357Y-82903961D01*
X110134759Y-82705363D01*
X109899727Y-82548320D01*
X109638574Y-82440147D01*
X109361335Y-82385000D01*
X109078665Y-82385000D01*
X108801426Y-82440147D01*
X108540273Y-82548320D01*
X108305241Y-82705363D01*
X108105363Y-82905241D01*
X107950000Y-83137759D01*
X107794637Y-82905241D01*
X107594759Y-82705363D01*
X107359727Y-82548320D01*
X107098574Y-82440147D01*
X106821335Y-82385000D01*
X106538665Y-82385000D01*
X106261426Y-82440147D01*
X106000273Y-82548320D01*
X105765241Y-82705363D01*
X105565363Y-82905241D01*
X105410000Y-83137759D01*
X105254637Y-82905241D01*
X105054759Y-82705363D01*
X104819727Y-82548320D01*
X104558574Y-82440147D01*
X104281335Y-82385000D01*
X103998665Y-82385000D01*
X103721426Y-82440147D01*
X103460273Y-82548320D01*
X103225241Y-82705363D01*
X103025363Y-82905241D01*
X102870000Y-83137759D01*
X102714637Y-82905241D01*
X102514759Y-82705363D01*
X102279727Y-82548320D01*
X102018574Y-82440147D01*
X101741335Y-82385000D01*
X101458665Y-82385000D01*
X101181426Y-82440147D01*
X100920273Y-82548320D01*
X100685241Y-82705363D01*
X100485363Y-82905241D01*
X100328320Y-83140273D01*
X100323933Y-83150865D01*
X100212385Y-82964869D01*
X100023414Y-82756481D01*
X99797420Y-82588963D01*
X99543087Y-82468754D01*
X99409039Y-82428096D01*
X99187000Y-82550085D01*
X99187000Y-83693000D01*
X99207000Y-83693000D01*
X99207000Y-83947000D01*
X99187000Y-83947000D01*
X99187000Y-83967000D01*
X98933000Y-83967000D01*
X98933000Y-83947000D01*
X96647000Y-83947000D01*
X96647000Y-83967000D01*
X96393000Y-83967000D01*
X96393000Y-83947000D01*
X96373000Y-83947000D01*
X96373000Y-83693000D01*
X96393000Y-83693000D01*
X96393000Y-82550085D01*
X96647000Y-82550085D01*
X96647000Y-83693000D01*
X98933000Y-83693000D01*
X98933000Y-82550085D01*
X98710961Y-82428096D01*
X98576913Y-82468754D01*
X98322580Y-82588963D01*
X98096586Y-82756481D01*
X97907615Y-82964869D01*
X97790000Y-83160982D01*
X97672385Y-82964869D01*
X97483414Y-82756481D01*
X97257420Y-82588963D01*
X97003087Y-82468754D01*
X96869039Y-82428096D01*
X96647000Y-82550085D01*
X96393000Y-82550085D01*
X96170961Y-82428096D01*
X96036913Y-82468754D01*
X95782580Y-82588963D01*
X95556586Y-82756481D01*
X95367615Y-82964869D01*
X95256067Y-83150865D01*
X95251680Y-83140273D01*
X95094637Y-82905241D01*
X94894759Y-82705363D01*
X94659727Y-82548320D01*
X94398574Y-82440147D01*
X94121335Y-82385000D01*
X93838665Y-82385000D01*
X93561426Y-82440147D01*
X93300273Y-82548320D01*
X93065241Y-82705363D01*
X92865363Y-82905241D01*
X92708320Y-83140273D01*
X92600147Y-83401426D01*
X92545000Y-83678665D01*
X92545000Y-83961335D01*
X92600147Y-84238574D01*
X92708320Y-84499727D01*
X92865363Y-84734759D01*
X92893204Y-84762600D01*
X89986796Y-84762600D01*
X90014637Y-84734759D01*
X90171680Y-84499727D01*
X90279853Y-84238574D01*
X90335000Y-83961335D01*
X90335000Y-83678665D01*
X90279853Y-83401426D01*
X90171680Y-83140273D01*
X90014637Y-82905241D01*
X89814759Y-82705363D01*
X89637400Y-82586856D01*
X89637400Y-79799119D01*
X142478724Y-79799119D01*
X145000000Y-82320395D01*
X147521276Y-79799119D01*
X147161088Y-79309452D01*
X146497118Y-78949151D01*
X145775615Y-78725306D01*
X145024305Y-78646520D01*
X144272062Y-78715822D01*
X143547792Y-78930548D01*
X142879330Y-79282445D01*
X142838912Y-79309452D01*
X142478724Y-79799119D01*
X89637400Y-79799119D01*
X89637400Y-67788665D01*
X89641208Y-67750000D01*
X89637400Y-67711335D01*
X89637400Y-67711327D01*
X89626006Y-67595643D01*
X89580982Y-67447217D01*
X89507866Y-67310428D01*
X89467570Y-67261327D01*
X89434122Y-67220570D01*
X89434119Y-67220567D01*
X89409469Y-67190531D01*
X89379434Y-67165882D01*
X81284128Y-59070578D01*
X81259469Y-59040531D01*
X81139572Y-58942134D01*
X81002783Y-58869018D01*
X80854357Y-58823994D01*
X80738673Y-58812600D01*
X80738663Y-58812600D01*
X80700000Y-58808792D01*
X80661337Y-58812600D01*
X80658031Y-58812600D01*
X80681010Y-58757125D01*
X80738600Y-58467599D01*
X80738600Y-58172401D01*
X80681010Y-57882875D01*
X80568042Y-57610147D01*
X80404039Y-57364698D01*
X80195302Y-57155961D01*
X80036719Y-57050000D01*
X80195302Y-56944039D01*
X80404039Y-56735302D01*
X80568042Y-56489853D01*
X80681010Y-56217125D01*
X80738600Y-55927599D01*
X80738600Y-55632401D01*
X80681010Y-55342875D01*
X80568042Y-55070147D01*
X80404039Y-54824698D01*
X80195302Y-54615961D01*
X80036719Y-54510000D01*
X80195302Y-54404039D01*
X80404039Y-54195302D01*
X80568042Y-53949853D01*
X80681010Y-53677125D01*
X80738600Y-53387599D01*
X80738600Y-53092401D01*
X80681010Y-52802875D01*
X80568042Y-52530147D01*
X80404039Y-52284698D01*
X80195302Y-52075961D01*
X80036719Y-51970000D01*
X80195302Y-51864039D01*
X80404039Y-51655302D01*
X80516227Y-51487400D01*
X95811337Y-51487400D01*
X95850000Y-51491208D01*
X95888663Y-51487400D01*
X95888673Y-51487400D01*
X96004357Y-51476006D01*
X96152783Y-51430982D01*
X96289572Y-51357866D01*
X96409469Y-51259469D01*
X96434128Y-51229422D01*
X101129434Y-46534118D01*
X101159469Y-46509469D01*
X101192667Y-46469018D01*
X101257865Y-46389573D01*
X101257866Y-46389572D01*
X101330982Y-46252783D01*
X101376006Y-46104357D01*
X101387400Y-45988673D01*
X101387400Y-45988664D01*
X101391208Y-45950001D01*
X101387400Y-45911338D01*
X101387400Y-37700881D01*
X142478724Y-37700881D01*
X142838912Y-38190548D01*
X143502882Y-38550849D01*
X144224385Y-38774694D01*
X144975695Y-38853480D01*
X145727938Y-38784178D01*
X146452208Y-38569452D01*
X147120670Y-38217555D01*
X147161088Y-38190548D01*
X147521276Y-37700881D01*
X145000000Y-35179605D01*
X142478724Y-37700881D01*
X101387400Y-37700881D01*
X101387400Y-36746372D01*
X101494759Y-36674637D01*
X101694637Y-36474759D01*
X101850000Y-36242241D01*
X102005363Y-36474759D01*
X102205241Y-36674637D01*
X102440273Y-36831680D01*
X102701426Y-36939853D01*
X102978665Y-36995000D01*
X103261335Y-36995000D01*
X103538574Y-36939853D01*
X103799727Y-36831680D01*
X104034759Y-36674637D01*
X104234637Y-36474759D01*
X104390000Y-36242241D01*
X104545363Y-36474759D01*
X104745241Y-36674637D01*
X104980273Y-36831680D01*
X105241426Y-36939853D01*
X105518665Y-36995000D01*
X105801335Y-36995000D01*
X106078574Y-36939853D01*
X106339727Y-36831680D01*
X106574759Y-36674637D01*
X106774637Y-36474759D01*
X106930000Y-36242241D01*
X107085363Y-36474759D01*
X107285241Y-36674637D01*
X107520273Y-36831680D01*
X107781426Y-36939853D01*
X108058665Y-36995000D01*
X108341335Y-36995000D01*
X108618574Y-36939853D01*
X108879727Y-36831680D01*
X109114759Y-36674637D01*
X109314637Y-36474759D01*
X109470000Y-36242241D01*
X109625363Y-36474759D01*
X109825241Y-36674637D01*
X110060273Y-36831680D01*
X110321426Y-36939853D01*
X110598665Y-36995000D01*
X110881335Y-36995000D01*
X111158574Y-36939853D01*
X111419727Y-36831680D01*
X111654759Y-36674637D01*
X111854637Y-36474759D01*
X112011680Y-36239727D01*
X112016067Y-36229135D01*
X112127615Y-36415131D01*
X112316586Y-36623519D01*
X112542580Y-36791037D01*
X112796913Y-36911246D01*
X112930961Y-36951904D01*
X113153000Y-36829915D01*
X113153000Y-35687000D01*
X113133000Y-35687000D01*
X113133000Y-35433000D01*
X113153000Y-35433000D01*
X113153000Y-34290085D01*
X113407000Y-34290085D01*
X113407000Y-35433000D01*
X113427000Y-35433000D01*
X113427000Y-35687000D01*
X113407000Y-35687000D01*
X113407000Y-36829915D01*
X113629039Y-36951904D01*
X113763087Y-36911246D01*
X114017420Y-36791037D01*
X114243414Y-36623519D01*
X114432385Y-36415131D01*
X114543933Y-36229135D01*
X114548320Y-36239727D01*
X114705363Y-36474759D01*
X114905241Y-36674637D01*
X115140273Y-36831680D01*
X115401426Y-36939853D01*
X115678665Y-36995000D01*
X115961335Y-36995000D01*
X116238574Y-36939853D01*
X116499727Y-36831680D01*
X116734759Y-36674637D01*
X116934637Y-36474759D01*
X117090000Y-36242241D01*
X117245363Y-36474759D01*
X117445241Y-36674637D01*
X117680273Y-36831680D01*
X117941426Y-36939853D01*
X118218665Y-36995000D01*
X118501335Y-36995000D01*
X118778574Y-36939853D01*
X119039727Y-36831680D01*
X119274759Y-36674637D01*
X119474637Y-36474759D01*
X119630000Y-36242241D01*
X119785363Y-36474759D01*
X119985241Y-36674637D01*
X120220273Y-36831680D01*
X120481426Y-36939853D01*
X120758665Y-36995000D01*
X121041335Y-36995000D01*
X121318574Y-36939853D01*
X121579727Y-36831680D01*
X121814759Y-36674637D01*
X122014637Y-36474759D01*
X122171680Y-36239727D01*
X122279853Y-35978574D01*
X122335000Y-35701335D01*
X122335000Y-35418665D01*
X122279853Y-35141426D01*
X122211206Y-34975695D01*
X141146520Y-34975695D01*
X141215822Y-35727938D01*
X141430548Y-36452208D01*
X141782445Y-37120670D01*
X141809452Y-37161088D01*
X142299119Y-37521276D01*
X144820395Y-35000000D01*
X145179605Y-35000000D01*
X147700881Y-37521276D01*
X148190548Y-37161088D01*
X148550849Y-36497118D01*
X148774694Y-35775615D01*
X148853480Y-35024305D01*
X148784178Y-34272062D01*
X148569452Y-33547792D01*
X148217555Y-32879330D01*
X148190548Y-32838912D01*
X147700881Y-32478724D01*
X145179605Y-35000000D01*
X144820395Y-35000000D01*
X142299119Y-32478724D01*
X141809452Y-32838912D01*
X141449151Y-33502882D01*
X141225306Y-34224385D01*
X141146520Y-34975695D01*
X122211206Y-34975695D01*
X122171680Y-34880273D01*
X122014637Y-34645241D01*
X121814759Y-34445363D01*
X121579727Y-34288320D01*
X121318574Y-34180147D01*
X121041335Y-34125000D01*
X120758665Y-34125000D01*
X120481426Y-34180147D01*
X120220273Y-34288320D01*
X119985241Y-34445363D01*
X119785363Y-34645241D01*
X119630000Y-34877759D01*
X119474637Y-34645241D01*
X119274759Y-34445363D01*
X119039727Y-34288320D01*
X118778574Y-34180147D01*
X118501335Y-34125000D01*
X118218665Y-34125000D01*
X117941426Y-34180147D01*
X117680273Y-34288320D01*
X117445241Y-34445363D01*
X117245363Y-34645241D01*
X117090000Y-34877759D01*
X116934637Y-34645241D01*
X116734759Y-34445363D01*
X116499727Y-34288320D01*
X116238574Y-34180147D01*
X115961335Y-34125000D01*
X115678665Y-34125000D01*
X115401426Y-34180147D01*
X115140273Y-34288320D01*
X114905241Y-34445363D01*
X114705363Y-34645241D01*
X114548320Y-34880273D01*
X114543933Y-34890865D01*
X114432385Y-34704869D01*
X114243414Y-34496481D01*
X114017420Y-34328963D01*
X113763087Y-34208754D01*
X113629039Y-34168096D01*
X113407000Y-34290085D01*
X113153000Y-34290085D01*
X112930961Y-34168096D01*
X112796913Y-34208754D01*
X112542580Y-34328963D01*
X112316586Y-34496481D01*
X112127615Y-34704869D01*
X112016067Y-34890865D01*
X112011680Y-34880273D01*
X111854637Y-34645241D01*
X111654759Y-34445363D01*
X111419727Y-34288320D01*
X111158574Y-34180147D01*
X110881335Y-34125000D01*
X110598665Y-34125000D01*
X110321426Y-34180147D01*
X110060273Y-34288320D01*
X109825241Y-34445363D01*
X109625363Y-34645241D01*
X109470000Y-34877759D01*
X109314637Y-34645241D01*
X109114759Y-34445363D01*
X108879727Y-34288320D01*
X108618574Y-34180147D01*
X108341335Y-34125000D01*
X108058665Y-34125000D01*
X107781426Y-34180147D01*
X107520273Y-34288320D01*
X107285241Y-34445363D01*
X107085363Y-34645241D01*
X106930000Y-34877759D01*
X106774637Y-34645241D01*
X106574759Y-34445363D01*
X106339727Y-34288320D01*
X106078574Y-34180147D01*
X105801335Y-34125000D01*
X105518665Y-34125000D01*
X105241426Y-34180147D01*
X104980273Y-34288320D01*
X104745241Y-34445363D01*
X104545363Y-34645241D01*
X104390000Y-34877759D01*
X104234637Y-34645241D01*
X104034759Y-34445363D01*
X103799727Y-34288320D01*
X103538574Y-34180147D01*
X103261335Y-34125000D01*
X102978665Y-34125000D01*
X102701426Y-34180147D01*
X102440273Y-34288320D01*
X102205241Y-34445363D01*
X102005363Y-34645241D01*
X101850000Y-34877759D01*
X101694637Y-34645241D01*
X101494759Y-34445363D01*
X101259727Y-34288320D01*
X100998574Y-34180147D01*
X100721335Y-34125000D01*
X100438665Y-34125000D01*
X100161426Y-34180147D01*
X99900273Y-34288320D01*
X99665241Y-34445363D01*
X99465363Y-34645241D01*
X99310000Y-34877759D01*
X99154637Y-34645241D01*
X98954759Y-34445363D01*
X98719727Y-34288320D01*
X98458574Y-34180147D01*
X98181335Y-34125000D01*
X97898665Y-34125000D01*
X97621426Y-34180147D01*
X97360273Y-34288320D01*
X97125241Y-34445363D01*
X96925363Y-34645241D01*
X96768320Y-34880273D01*
X96660147Y-35141426D01*
X96605000Y-35418665D01*
X96605000Y-35701335D01*
X96660147Y-35978574D01*
X96768320Y-36239727D01*
X96925363Y-36474759D01*
X97125241Y-36674637D01*
X97262601Y-36766418D01*
X97262600Y-42773848D01*
X94173850Y-45862600D01*
X78438662Y-45862600D01*
X78399999Y-45858792D01*
X78361336Y-45862600D01*
X78361327Y-45862600D01*
X78245643Y-45873994D01*
X78097217Y-45919018D01*
X77960428Y-45992134D01*
X77840531Y-46090531D01*
X77815878Y-46120571D01*
X76170573Y-47765877D01*
X76140532Y-47790531D01*
X76115879Y-47820571D01*
X76042135Y-47910428D01*
X75987400Y-48012828D01*
X75987400Y-47526150D01*
X84329434Y-39184118D01*
X84359469Y-39159469D01*
X84384119Y-39129433D01*
X84384122Y-39129430D01*
X84457866Y-39039572D01*
X84530982Y-38902783D01*
X84576006Y-38754357D01*
X84576006Y-38754356D01*
X84587400Y-38638673D01*
X84587400Y-38638665D01*
X84591208Y-38600000D01*
X84587400Y-38561335D01*
X84587400Y-36773099D01*
X84734759Y-36674637D01*
X84934637Y-36474759D01*
X85090000Y-36242241D01*
X85245363Y-36474759D01*
X85445241Y-36674637D01*
X85680273Y-36831680D01*
X85941426Y-36939853D01*
X86218665Y-36995000D01*
X86501335Y-36995000D01*
X86778574Y-36939853D01*
X87039727Y-36831680D01*
X87274759Y-36674637D01*
X87474637Y-36474759D01*
X87630000Y-36242241D01*
X87785363Y-36474759D01*
X87985241Y-36674637D01*
X88220273Y-36831680D01*
X88481426Y-36939853D01*
X88758665Y-36995000D01*
X89041335Y-36995000D01*
X89318574Y-36939853D01*
X89579727Y-36831680D01*
X89814759Y-36674637D01*
X90014637Y-36474759D01*
X90170000Y-36242241D01*
X90325363Y-36474759D01*
X90525241Y-36674637D01*
X90760273Y-36831680D01*
X91021426Y-36939853D01*
X91298665Y-36995000D01*
X91581335Y-36995000D01*
X91858574Y-36939853D01*
X92119727Y-36831680D01*
X92354759Y-36674637D01*
X92554637Y-36474759D01*
X92710000Y-36242241D01*
X92865363Y-36474759D01*
X93065241Y-36674637D01*
X93300273Y-36831680D01*
X93561426Y-36939853D01*
X93838665Y-36995000D01*
X94121335Y-36995000D01*
X94398574Y-36939853D01*
X94659727Y-36831680D01*
X94894759Y-36674637D01*
X95094637Y-36474759D01*
X95251680Y-36239727D01*
X95359853Y-35978574D01*
X95415000Y-35701335D01*
X95415000Y-35418665D01*
X95359853Y-35141426D01*
X95251680Y-34880273D01*
X95094637Y-34645241D01*
X94894759Y-34445363D01*
X94737400Y-34340219D01*
X94737400Y-34088662D01*
X94741208Y-34049999D01*
X94737400Y-34011336D01*
X94737400Y-34011327D01*
X94726006Y-33895643D01*
X94680982Y-33747217D01*
X94607866Y-33610428D01*
X94551819Y-33542134D01*
X94534121Y-33520569D01*
X94534119Y-33520567D01*
X94509469Y-33490531D01*
X94479434Y-33465882D01*
X93312671Y-32299119D01*
X142478724Y-32299119D01*
X145000000Y-34820395D01*
X147521276Y-32299119D01*
X147161088Y-31809452D01*
X146497118Y-31449151D01*
X145775615Y-31225306D01*
X145024305Y-31146520D01*
X144272062Y-31215822D01*
X143547792Y-31430548D01*
X142879330Y-31782445D01*
X142838912Y-31809452D01*
X142478724Y-32299119D01*
X93312671Y-32299119D01*
X92084128Y-31070578D01*
X92059469Y-31040531D01*
X91939572Y-30942134D01*
X91802783Y-30869018D01*
X91654357Y-30823994D01*
X91538673Y-30812600D01*
X91538663Y-30812600D01*
X91500000Y-30808792D01*
X91461337Y-30812600D01*
X76538665Y-30812600D01*
X76500000Y-30808792D01*
X76461335Y-30812600D01*
X76461327Y-30812600D01*
X76345643Y-30823994D01*
X76197217Y-30869018D01*
X76060428Y-30942134D01*
X75970570Y-31015878D01*
X75970567Y-31015881D01*
X75940531Y-31040531D01*
X75915881Y-31070567D01*
X73270573Y-33715877D01*
X73240532Y-33740531D01*
X73172036Y-33823994D01*
X73142135Y-33860428D01*
X73069018Y-33997218D01*
X73023995Y-34145643D01*
X73008792Y-34300000D01*
X73012601Y-34338673D01*
X73012600Y-40973848D01*
X71270573Y-42715877D01*
X71240532Y-42740531D01*
X71215879Y-42770571D01*
X71142135Y-42860428D01*
X71069018Y-42997218D01*
X71023995Y-43145643D01*
X71008792Y-43300000D01*
X60660000Y-43300000D01*
X60660000Y-37700881D01*
X62478724Y-37700881D01*
X62838912Y-38190548D01*
X63502882Y-38550849D01*
X64224385Y-38774694D01*
X64975695Y-38853480D01*
X65727938Y-38784178D01*
X66452208Y-38569452D01*
X67120670Y-38217555D01*
X67161088Y-38190548D01*
X67521276Y-37700881D01*
X65000000Y-35179605D01*
X62478724Y-37700881D01*
X60660000Y-37700881D01*
X60660000Y-34975695D01*
X61146520Y-34975695D01*
X61215822Y-35727938D01*
X61430548Y-36452208D01*
X61782445Y-37120670D01*
X61809452Y-37161088D01*
X62299119Y-37521276D01*
X64820395Y-35000000D01*
X65179605Y-35000000D01*
X67700881Y-37521276D01*
X68190548Y-37161088D01*
X68550849Y-36497118D01*
X68774694Y-35775615D01*
X68853480Y-35024305D01*
X68784178Y-34272062D01*
X68569452Y-33547792D01*
X68217555Y-32879330D01*
X68190548Y-32838912D01*
X67700881Y-32478724D01*
X65179605Y-35000000D01*
X64820395Y-35000000D01*
X62299119Y-32478724D01*
X61809452Y-32838912D01*
X61449151Y-33502882D01*
X61225306Y-34224385D01*
X61146520Y-34975695D01*
X60660000Y-34975695D01*
X60660000Y-32299119D01*
X62478724Y-32299119D01*
X65000000Y-34820395D01*
X67521276Y-32299119D01*
X67161088Y-31809452D01*
X66497118Y-31449151D01*
X65775615Y-31225306D01*
X65024305Y-31146520D01*
X64272062Y-31215822D01*
X63547792Y-31430548D01*
X62879330Y-31782445D01*
X62838912Y-31809452D01*
X62478724Y-32299119D01*
X60660000Y-32299119D01*
X60660000Y-30660000D01*
X149340000Y-30660000D01*
X149340001Y-86840000D01*
%TA.AperFunction,Conductor*%
D17*
G36*
X149340001Y-86840000D02*
G01*
X60660000Y-86840000D01*
X60660000Y-85200881D01*
X62478724Y-85200881D01*
X62838912Y-85690548D01*
X63502882Y-86050849D01*
X64224385Y-86274694D01*
X64975695Y-86353480D01*
X65727938Y-86284178D01*
X66452208Y-86069452D01*
X67120670Y-85717555D01*
X67161088Y-85690548D01*
X67521276Y-85200881D01*
X65000000Y-82679605D01*
X62478724Y-85200881D01*
X60660000Y-85200881D01*
X60660000Y-82475695D01*
X61146520Y-82475695D01*
X61215822Y-83227938D01*
X61430548Y-83952208D01*
X61782445Y-84620670D01*
X61809452Y-84661088D01*
X62299119Y-85021276D01*
X64820395Y-82500000D01*
X65179605Y-82500000D01*
X67700881Y-85021276D01*
X68190548Y-84661088D01*
X68550849Y-83997118D01*
X68774694Y-83275615D01*
X68853480Y-82524305D01*
X68784178Y-81772062D01*
X68569452Y-81047792D01*
X68217555Y-80379330D01*
X68190548Y-80338912D01*
X67700881Y-79978724D01*
X65179605Y-82500000D01*
X64820395Y-82500000D01*
X62299119Y-79978724D01*
X61809452Y-80338912D01*
X61449151Y-81002882D01*
X61225306Y-81724385D01*
X61146520Y-82475695D01*
X60660000Y-82475695D01*
X60660000Y-79799119D01*
X62478724Y-79799119D01*
X65000000Y-82320395D01*
X67521276Y-79799119D01*
X67161088Y-79309452D01*
X66497118Y-78949151D01*
X65775615Y-78725306D01*
X65024305Y-78646520D01*
X64272062Y-78715822D01*
X63547792Y-78930548D01*
X62879330Y-79282445D01*
X62838912Y-79309452D01*
X62478724Y-79799119D01*
X60660000Y-79799119D01*
X60660000Y-43300000D01*
X71008792Y-43300000D01*
X71012601Y-43338673D01*
X71012600Y-56461337D01*
X71008792Y-56500000D01*
X71012600Y-56538663D01*
X71012600Y-56538672D01*
X71023994Y-56654356D01*
X71069018Y-56802782D01*
X71142134Y-56939571D01*
X71240531Y-57059469D01*
X71270578Y-57084128D01*
X74315877Y-60129428D01*
X74340531Y-60159469D01*
X74460428Y-60257866D01*
X74597217Y-60330982D01*
X74745643Y-60376006D01*
X74861327Y-60387400D01*
X74861336Y-60387400D01*
X74899999Y-60391208D01*
X74938662Y-60387400D01*
X75273684Y-60387400D01*
X75258990Y-60422875D01*
X75201400Y-60712401D01*
X75201400Y-61007599D01*
X75258990Y-61297125D01*
X75371958Y-61569853D01*
X75535961Y-61815302D01*
X75744698Y-62024039D01*
X75903281Y-62130000D01*
X75744698Y-62235961D01*
X75535961Y-62444698D01*
X75371958Y-62690147D01*
X75319522Y-62816739D01*
X75290531Y-62840531D01*
X75265881Y-62870567D01*
X73570577Y-64565873D01*
X73540531Y-64590531D01*
X73442134Y-64710429D01*
X73369018Y-64847218D01*
X73323994Y-64995644D01*
X73312600Y-65111328D01*
X73312600Y-65111337D01*
X73308792Y-65150000D01*
X73312600Y-65188663D01*
X73312601Y-84261327D01*
X73308792Y-84300000D01*
X73323995Y-84454357D01*
X73369018Y-84602782D01*
X73416284Y-84691209D01*
X73442135Y-84739572D01*
X73540532Y-84859469D01*
X73570573Y-84884123D01*
X74815881Y-86129433D01*
X74840531Y-86159469D01*
X74870567Y-86184119D01*
X74870570Y-86184122D01*
X74960427Y-86257865D01*
X74960428Y-86257866D01*
X75097217Y-86330982D01*
X75245643Y-86376006D01*
X75361327Y-86387400D01*
X75361335Y-86387400D01*
X75400000Y-86391208D01*
X75438665Y-86387400D01*
X83261337Y-86387400D01*
X83300000Y-86391208D01*
X83338663Y-86387400D01*
X83338673Y-86387400D01*
X83454357Y-86376006D01*
X83602783Y-86330982D01*
X83739572Y-86257866D01*
X83859469Y-86159469D01*
X83884127Y-86129423D01*
X84429434Y-85584118D01*
X84459469Y-85559469D01*
X84557866Y-85439572D01*
X84630982Y-85302783D01*
X84644539Y-85258090D01*
X85465877Y-86079428D01*
X85490531Y-86109469D01*
X85520570Y-86134121D01*
X85610427Y-86207866D01*
X85703970Y-86257866D01*
X85747217Y-86280982D01*
X85895643Y-86326006D01*
X86011327Y-86337400D01*
X86011337Y-86337400D01*
X86050000Y-86341208D01*
X86088663Y-86337400D01*
X101061337Y-86337400D01*
X101100000Y-86341208D01*
X101138663Y-86337400D01*
X101138673Y-86337400D01*
X101254357Y-86326006D01*
X101402783Y-86280982D01*
X101539572Y-86207866D01*
X101659469Y-86109469D01*
X101684128Y-86079422D01*
X102129423Y-85634127D01*
X102159469Y-85609469D01*
X102228058Y-85525893D01*
X102257866Y-85489573D01*
X102330982Y-85352783D01*
X102376006Y-85204358D01*
X102379267Y-85171246D01*
X102387400Y-85088673D01*
X102387400Y-85088666D01*
X102391208Y-85050000D01*
X102388176Y-85019217D01*
X102514759Y-84934637D01*
X102714637Y-84734759D01*
X102870000Y-84502241D01*
X103025363Y-84734759D01*
X103225241Y-84934637D01*
X103460273Y-85091680D01*
X103721426Y-85199853D01*
X103998665Y-85255000D01*
X104281335Y-85255000D01*
X104558574Y-85199853D01*
X104819727Y-85091680D01*
X105054759Y-84934637D01*
X105254637Y-84734759D01*
X105410000Y-84502241D01*
X105565363Y-84734759D01*
X105765241Y-84934637D01*
X106000273Y-85091680D01*
X106261426Y-85199853D01*
X106538665Y-85255000D01*
X106821335Y-85255000D01*
X107098574Y-85199853D01*
X107359727Y-85091680D01*
X107594759Y-84934637D01*
X107794637Y-84734759D01*
X107950000Y-84502241D01*
X108105363Y-84734759D01*
X108305241Y-84934637D01*
X108540273Y-85091680D01*
X108801426Y-85199853D01*
X109078665Y-85255000D01*
X109361335Y-85255000D01*
X109638574Y-85199853D01*
X109899727Y-85091680D01*
X110134759Y-84934637D01*
X110333357Y-84736039D01*
X110334188Y-84744482D01*
X110370498Y-84864180D01*
X110429463Y-84974494D01*
X110508815Y-85071185D01*
X110605506Y-85150537D01*
X110715820Y-85209502D01*
X110835518Y-85245812D01*
X110960000Y-85258072D01*
X112560000Y-85258072D01*
X112684482Y-85245812D01*
X112804180Y-85209502D01*
X112820308Y-85200881D01*
X142478724Y-85200881D01*
X142838912Y-85690548D01*
X143502882Y-86050849D01*
X144224385Y-86274694D01*
X144975695Y-86353480D01*
X145727938Y-86284178D01*
X146452208Y-86069452D01*
X147120670Y-85717555D01*
X147161088Y-85690548D01*
X147521276Y-85200881D01*
X145000000Y-82679605D01*
X142478724Y-85200881D01*
X112820308Y-85200881D01*
X112914494Y-85150537D01*
X113011185Y-85071185D01*
X113090537Y-84974494D01*
X113149502Y-84864180D01*
X113185812Y-84744482D01*
X113198072Y-84620000D01*
X113198072Y-83020000D01*
X113185812Y-82895518D01*
X113149502Y-82775820D01*
X113090537Y-82665506D01*
X113011185Y-82568815D01*
X112914494Y-82489463D01*
X112888737Y-82475695D01*
X141146520Y-82475695D01*
X141215822Y-83227938D01*
X141430548Y-83952208D01*
X141782445Y-84620670D01*
X141809452Y-84661088D01*
X142299119Y-85021276D01*
X144820395Y-82500000D01*
X145179605Y-82500000D01*
X147700881Y-85021276D01*
X148190548Y-84661088D01*
X148550849Y-83997118D01*
X148774694Y-83275615D01*
X148853480Y-82524305D01*
X148784178Y-81772062D01*
X148569452Y-81047792D01*
X148217555Y-80379330D01*
X148190548Y-80338912D01*
X147700881Y-79978724D01*
X145179605Y-82500000D01*
X144820395Y-82500000D01*
X142299119Y-79978724D01*
X141809452Y-80338912D01*
X141449151Y-81002882D01*
X141225306Y-81724385D01*
X141146520Y-82475695D01*
X112888737Y-82475695D01*
X112804180Y-82430498D01*
X112684482Y-82394188D01*
X112560000Y-82381928D01*
X110960000Y-82381928D01*
X110835518Y-82394188D01*
X110715820Y-82430498D01*
X110605506Y-82489463D01*
X110508815Y-82568815D01*
X110429463Y-82665506D01*
X110370498Y-82775820D01*
X110334188Y-82895518D01*
X110333357Y-82903961D01*
X110134759Y-82705363D01*
X109899727Y-82548320D01*
X109638574Y-82440147D01*
X109361335Y-82385000D01*
X109078665Y-82385000D01*
X108801426Y-82440147D01*
X108540273Y-82548320D01*
X108305241Y-82705363D01*
X108105363Y-82905241D01*
X107950000Y-83137759D01*
X107794637Y-82905241D01*
X107594759Y-82705363D01*
X107359727Y-82548320D01*
X107098574Y-82440147D01*
X106821335Y-82385000D01*
X106538665Y-82385000D01*
X106261426Y-82440147D01*
X106000273Y-82548320D01*
X105765241Y-82705363D01*
X105565363Y-82905241D01*
X105410000Y-83137759D01*
X105254637Y-82905241D01*
X105054759Y-82705363D01*
X104819727Y-82548320D01*
X104558574Y-82440147D01*
X104281335Y-82385000D01*
X103998665Y-82385000D01*
X103721426Y-82440147D01*
X103460273Y-82548320D01*
X103225241Y-82705363D01*
X103025363Y-82905241D01*
X102870000Y-83137759D01*
X102714637Y-82905241D01*
X102514759Y-82705363D01*
X102279727Y-82548320D01*
X102018574Y-82440147D01*
X101741335Y-82385000D01*
X101458665Y-82385000D01*
X101181426Y-82440147D01*
X100920273Y-82548320D01*
X100685241Y-82705363D01*
X100485363Y-82905241D01*
X100328320Y-83140273D01*
X100323933Y-83150865D01*
X100212385Y-82964869D01*
X100023414Y-82756481D01*
X99797420Y-82588963D01*
X99543087Y-82468754D01*
X99409039Y-82428096D01*
X99187000Y-82550085D01*
X99187000Y-83693000D01*
X99207000Y-83693000D01*
X99207000Y-83947000D01*
X99187000Y-83947000D01*
X99187000Y-83967000D01*
X98933000Y-83967000D01*
X98933000Y-83947000D01*
X96647000Y-83947000D01*
X96647000Y-83967000D01*
X96393000Y-83967000D01*
X96393000Y-83947000D01*
X96373000Y-83947000D01*
X96373000Y-83693000D01*
X96393000Y-83693000D01*
X96393000Y-82550085D01*
X96647000Y-82550085D01*
X96647000Y-83693000D01*
X98933000Y-83693000D01*
X98933000Y-82550085D01*
X98710961Y-82428096D01*
X98576913Y-82468754D01*
X98322580Y-82588963D01*
X98096586Y-82756481D01*
X97907615Y-82964869D01*
X97790000Y-83160982D01*
X97672385Y-82964869D01*
X97483414Y-82756481D01*
X97257420Y-82588963D01*
X97003087Y-82468754D01*
X96869039Y-82428096D01*
X96647000Y-82550085D01*
X96393000Y-82550085D01*
X96170961Y-82428096D01*
X96036913Y-82468754D01*
X95782580Y-82588963D01*
X95556586Y-82756481D01*
X95367615Y-82964869D01*
X95256067Y-83150865D01*
X95251680Y-83140273D01*
X95094637Y-82905241D01*
X94894759Y-82705363D01*
X94659727Y-82548320D01*
X94398574Y-82440147D01*
X94121335Y-82385000D01*
X93838665Y-82385000D01*
X93561426Y-82440147D01*
X93300273Y-82548320D01*
X93065241Y-82705363D01*
X92865363Y-82905241D01*
X92708320Y-83140273D01*
X92600147Y-83401426D01*
X92545000Y-83678665D01*
X92545000Y-83961335D01*
X92600147Y-84238574D01*
X92708320Y-84499727D01*
X92865363Y-84734759D01*
X92893204Y-84762600D01*
X89986796Y-84762600D01*
X90014637Y-84734759D01*
X90171680Y-84499727D01*
X90279853Y-84238574D01*
X90335000Y-83961335D01*
X90335000Y-83678665D01*
X90279853Y-83401426D01*
X90171680Y-83140273D01*
X90014637Y-82905241D01*
X89814759Y-82705363D01*
X89637400Y-82586856D01*
X89637400Y-79799119D01*
X142478724Y-79799119D01*
X145000000Y-82320395D01*
X147521276Y-79799119D01*
X147161088Y-79309452D01*
X146497118Y-78949151D01*
X145775615Y-78725306D01*
X145024305Y-78646520D01*
X144272062Y-78715822D01*
X143547792Y-78930548D01*
X142879330Y-79282445D01*
X142838912Y-79309452D01*
X142478724Y-79799119D01*
X89637400Y-79799119D01*
X89637400Y-67788665D01*
X89641208Y-67750000D01*
X89637400Y-67711335D01*
X89637400Y-67711327D01*
X89626006Y-67595643D01*
X89580982Y-67447217D01*
X89507866Y-67310428D01*
X89467570Y-67261327D01*
X89434122Y-67220570D01*
X89434119Y-67220567D01*
X89409469Y-67190531D01*
X89379434Y-67165882D01*
X81284128Y-59070578D01*
X81259469Y-59040531D01*
X81139572Y-58942134D01*
X81002783Y-58869018D01*
X80854357Y-58823994D01*
X80738673Y-58812600D01*
X80738663Y-58812600D01*
X80700000Y-58808792D01*
X80661337Y-58812600D01*
X80658031Y-58812600D01*
X80681010Y-58757125D01*
X80738600Y-58467599D01*
X80738600Y-58172401D01*
X80681010Y-57882875D01*
X80568042Y-57610147D01*
X80404039Y-57364698D01*
X80195302Y-57155961D01*
X80036719Y-57050000D01*
X80195302Y-56944039D01*
X80404039Y-56735302D01*
X80568042Y-56489853D01*
X80681010Y-56217125D01*
X80738600Y-55927599D01*
X80738600Y-55632401D01*
X80681010Y-55342875D01*
X80568042Y-55070147D01*
X80404039Y-54824698D01*
X80195302Y-54615961D01*
X80036719Y-54510000D01*
X80195302Y-54404039D01*
X80404039Y-54195302D01*
X80568042Y-53949853D01*
X80681010Y-53677125D01*
X80738600Y-53387599D01*
X80738600Y-53092401D01*
X80681010Y-52802875D01*
X80568042Y-52530147D01*
X80404039Y-52284698D01*
X80195302Y-52075961D01*
X80036719Y-51970000D01*
X80195302Y-51864039D01*
X80404039Y-51655302D01*
X80516227Y-51487400D01*
X95811337Y-51487400D01*
X95850000Y-51491208D01*
X95888663Y-51487400D01*
X95888673Y-51487400D01*
X96004357Y-51476006D01*
X96152783Y-51430982D01*
X96289572Y-51357866D01*
X96409469Y-51259469D01*
X96434128Y-51229422D01*
X101129434Y-46534118D01*
X101159469Y-46509469D01*
X101192667Y-46469018D01*
X101257865Y-46389573D01*
X101257866Y-46389572D01*
X101330982Y-46252783D01*
X101376006Y-46104357D01*
X101387400Y-45988673D01*
X101387400Y-45988664D01*
X101391208Y-45950001D01*
X101387400Y-45911338D01*
X101387400Y-37700881D01*
X142478724Y-37700881D01*
X142838912Y-38190548D01*
X143502882Y-38550849D01*
X144224385Y-38774694D01*
X144975695Y-38853480D01*
X145727938Y-38784178D01*
X146452208Y-38569452D01*
X147120670Y-38217555D01*
X147161088Y-38190548D01*
X147521276Y-37700881D01*
X145000000Y-35179605D01*
X142478724Y-37700881D01*
X101387400Y-37700881D01*
X101387400Y-36746372D01*
X101494759Y-36674637D01*
X101694637Y-36474759D01*
X101850000Y-36242241D01*
X102005363Y-36474759D01*
X102205241Y-36674637D01*
X102440273Y-36831680D01*
X102701426Y-36939853D01*
X102978665Y-36995000D01*
X103261335Y-36995000D01*
X103538574Y-36939853D01*
X103799727Y-36831680D01*
X104034759Y-36674637D01*
X104234637Y-36474759D01*
X104390000Y-36242241D01*
X104545363Y-36474759D01*
X104745241Y-36674637D01*
X104980273Y-36831680D01*
X105241426Y-36939853D01*
X105518665Y-36995000D01*
X105801335Y-36995000D01*
X106078574Y-36939853D01*
X106339727Y-36831680D01*
X106574759Y-36674637D01*
X106774637Y-36474759D01*
X106930000Y-36242241D01*
X107085363Y-36474759D01*
X107285241Y-36674637D01*
X107520273Y-36831680D01*
X107781426Y-36939853D01*
X108058665Y-36995000D01*
X108341335Y-36995000D01*
X108618574Y-36939853D01*
X108879727Y-36831680D01*
X109114759Y-36674637D01*
X109314637Y-36474759D01*
X109470000Y-36242241D01*
X109625363Y-36474759D01*
X109825241Y-36674637D01*
X110060273Y-36831680D01*
X110321426Y-36939853D01*
X110598665Y-36995000D01*
X110881335Y-36995000D01*
X111158574Y-36939853D01*
X111419727Y-36831680D01*
X111654759Y-36674637D01*
X111854637Y-36474759D01*
X112011680Y-36239727D01*
X112016067Y-36229135D01*
X112127615Y-36415131D01*
X112316586Y-36623519D01*
X112542580Y-36791037D01*
X112796913Y-36911246D01*
X112930961Y-36951904D01*
X113153000Y-36829915D01*
X113153000Y-35687000D01*
X113133000Y-35687000D01*
X113133000Y-35433000D01*
X113153000Y-35433000D01*
X113153000Y-34290085D01*
X113407000Y-34290085D01*
X113407000Y-35433000D01*
X113427000Y-35433000D01*
X113427000Y-35687000D01*
X113407000Y-35687000D01*
X113407000Y-36829915D01*
X113629039Y-36951904D01*
X113763087Y-36911246D01*
X114017420Y-36791037D01*
X114243414Y-36623519D01*
X114432385Y-36415131D01*
X114543933Y-36229135D01*
X114548320Y-36239727D01*
X114705363Y-36474759D01*
X114905241Y-36674637D01*
X115140273Y-36831680D01*
X115401426Y-36939853D01*
X115678665Y-36995000D01*
X115961335Y-36995000D01*
X116238574Y-36939853D01*
X116499727Y-36831680D01*
X116734759Y-36674637D01*
X116934637Y-36474759D01*
X117090000Y-36242241D01*
X117245363Y-36474759D01*
X117445241Y-36674637D01*
X117680273Y-36831680D01*
X117941426Y-36939853D01*
X118218665Y-36995000D01*
X118501335Y-36995000D01*
X118778574Y-36939853D01*
X119039727Y-36831680D01*
X119274759Y-36674637D01*
X119474637Y-36474759D01*
X119630000Y-36242241D01*
X119785363Y-36474759D01*
X119985241Y-36674637D01*
X120220273Y-36831680D01*
X120481426Y-36939853D01*
X120758665Y-36995000D01*
X121041335Y-36995000D01*
X121318574Y-36939853D01*
X121579727Y-36831680D01*
X121814759Y-36674637D01*
X122014637Y-36474759D01*
X122171680Y-36239727D01*
X122279853Y-35978574D01*
X122335000Y-35701335D01*
X122335000Y-35418665D01*
X122279853Y-35141426D01*
X122211206Y-34975695D01*
X141146520Y-34975695D01*
X141215822Y-35727938D01*
X141430548Y-36452208D01*
X141782445Y-37120670D01*
X141809452Y-37161088D01*
X142299119Y-37521276D01*
X144820395Y-35000000D01*
X145179605Y-35000000D01*
X147700881Y-37521276D01*
X148190548Y-37161088D01*
X148550849Y-36497118D01*
X148774694Y-35775615D01*
X148853480Y-35024305D01*
X148784178Y-34272062D01*
X148569452Y-33547792D01*
X148217555Y-32879330D01*
X148190548Y-32838912D01*
X147700881Y-32478724D01*
X145179605Y-35000000D01*
X144820395Y-35000000D01*
X142299119Y-32478724D01*
X141809452Y-32838912D01*
X141449151Y-33502882D01*
X141225306Y-34224385D01*
X141146520Y-34975695D01*
X122211206Y-34975695D01*
X122171680Y-34880273D01*
X122014637Y-34645241D01*
X121814759Y-34445363D01*
X121579727Y-34288320D01*
X121318574Y-34180147D01*
X121041335Y-34125000D01*
X120758665Y-34125000D01*
X120481426Y-34180147D01*
X120220273Y-34288320D01*
X119985241Y-34445363D01*
X119785363Y-34645241D01*
X119630000Y-34877759D01*
X119474637Y-34645241D01*
X119274759Y-34445363D01*
X119039727Y-34288320D01*
X118778574Y-34180147D01*
X118501335Y-34125000D01*
X118218665Y-34125000D01*
X117941426Y-34180147D01*
X117680273Y-34288320D01*
X117445241Y-34445363D01*
X117245363Y-34645241D01*
X117090000Y-34877759D01*
X116934637Y-34645241D01*
X116734759Y-34445363D01*
X116499727Y-34288320D01*
X116238574Y-34180147D01*
X115961335Y-34125000D01*
X115678665Y-34125000D01*
X115401426Y-34180147D01*
X115140273Y-34288320D01*
X114905241Y-34445363D01*
X114705363Y-34645241D01*
X114548320Y-34880273D01*
X114543933Y-34890865D01*
X114432385Y-34704869D01*
X114243414Y-34496481D01*
X114017420Y-34328963D01*
X113763087Y-34208754D01*
X113629039Y-34168096D01*
X113407000Y-34290085D01*
X113153000Y-34290085D01*
X112930961Y-34168096D01*
X112796913Y-34208754D01*
X112542580Y-34328963D01*
X112316586Y-34496481D01*
X112127615Y-34704869D01*
X112016067Y-34890865D01*
X112011680Y-34880273D01*
X111854637Y-34645241D01*
X111654759Y-34445363D01*
X111419727Y-34288320D01*
X111158574Y-34180147D01*
X110881335Y-34125000D01*
X110598665Y-34125000D01*
X110321426Y-34180147D01*
X110060273Y-34288320D01*
X109825241Y-34445363D01*
X109625363Y-34645241D01*
X109470000Y-34877759D01*
X109314637Y-34645241D01*
X109114759Y-34445363D01*
X108879727Y-34288320D01*
X108618574Y-34180147D01*
X108341335Y-34125000D01*
X108058665Y-34125000D01*
X107781426Y-34180147D01*
X107520273Y-34288320D01*
X107285241Y-34445363D01*
X107085363Y-34645241D01*
X106930000Y-34877759D01*
X106774637Y-34645241D01*
X106574759Y-34445363D01*
X106339727Y-34288320D01*
X106078574Y-34180147D01*
X105801335Y-34125000D01*
X105518665Y-34125000D01*
X105241426Y-34180147D01*
X104980273Y-34288320D01*
X104745241Y-34445363D01*
X104545363Y-34645241D01*
X104390000Y-34877759D01*
X104234637Y-34645241D01*
X104034759Y-34445363D01*
X103799727Y-34288320D01*
X103538574Y-34180147D01*
X103261335Y-34125000D01*
X102978665Y-34125000D01*
X102701426Y-34180147D01*
X102440273Y-34288320D01*
X102205241Y-34445363D01*
X102005363Y-34645241D01*
X101850000Y-34877759D01*
X101694637Y-34645241D01*
X101494759Y-34445363D01*
X101259727Y-34288320D01*
X100998574Y-34180147D01*
X100721335Y-34125000D01*
X100438665Y-34125000D01*
X100161426Y-34180147D01*
X99900273Y-34288320D01*
X99665241Y-34445363D01*
X99465363Y-34645241D01*
X99310000Y-34877759D01*
X99154637Y-34645241D01*
X98954759Y-34445363D01*
X98719727Y-34288320D01*
X98458574Y-34180147D01*
X98181335Y-34125000D01*
X97898665Y-34125000D01*
X97621426Y-34180147D01*
X97360273Y-34288320D01*
X97125241Y-34445363D01*
X96925363Y-34645241D01*
X96768320Y-34880273D01*
X96660147Y-35141426D01*
X96605000Y-35418665D01*
X96605000Y-35701335D01*
X96660147Y-35978574D01*
X96768320Y-36239727D01*
X96925363Y-36474759D01*
X97125241Y-36674637D01*
X97262601Y-36766418D01*
X97262600Y-42773848D01*
X94173850Y-45862600D01*
X78438662Y-45862600D01*
X78399999Y-45858792D01*
X78361336Y-45862600D01*
X78361327Y-45862600D01*
X78245643Y-45873994D01*
X78097217Y-45919018D01*
X77960428Y-45992134D01*
X77840531Y-46090531D01*
X77815878Y-46120571D01*
X76170573Y-47765877D01*
X76140532Y-47790531D01*
X76115879Y-47820571D01*
X76042135Y-47910428D01*
X75987400Y-48012828D01*
X75987400Y-47526150D01*
X84329434Y-39184118D01*
X84359469Y-39159469D01*
X84384119Y-39129433D01*
X84384122Y-39129430D01*
X84457866Y-39039572D01*
X84530982Y-38902783D01*
X84576006Y-38754357D01*
X84576006Y-38754356D01*
X84587400Y-38638673D01*
X84587400Y-38638665D01*
X84591208Y-38600000D01*
X84587400Y-38561335D01*
X84587400Y-36773099D01*
X84734759Y-36674637D01*
X84934637Y-36474759D01*
X85090000Y-36242241D01*
X85245363Y-36474759D01*
X85445241Y-36674637D01*
X85680273Y-36831680D01*
X85941426Y-36939853D01*
X86218665Y-36995000D01*
X86501335Y-36995000D01*
X86778574Y-36939853D01*
X87039727Y-36831680D01*
X87274759Y-36674637D01*
X87474637Y-36474759D01*
X87630000Y-36242241D01*
X87785363Y-36474759D01*
X87985241Y-36674637D01*
X88220273Y-36831680D01*
X88481426Y-36939853D01*
X88758665Y-36995000D01*
X89041335Y-36995000D01*
X89318574Y-36939853D01*
X89579727Y-36831680D01*
X89814759Y-36674637D01*
X90014637Y-36474759D01*
X90170000Y-36242241D01*
X90325363Y-36474759D01*
X90525241Y-36674637D01*
X90760273Y-36831680D01*
X91021426Y-36939853D01*
X91298665Y-36995000D01*
X91581335Y-36995000D01*
X91858574Y-36939853D01*
X92119727Y-36831680D01*
X92354759Y-36674637D01*
X92554637Y-36474759D01*
X92710000Y-36242241D01*
X92865363Y-36474759D01*
X93065241Y-36674637D01*
X93300273Y-36831680D01*
X93561426Y-36939853D01*
X93838665Y-36995000D01*
X94121335Y-36995000D01*
X94398574Y-36939853D01*
X94659727Y-36831680D01*
X94894759Y-36674637D01*
X95094637Y-36474759D01*
X95251680Y-36239727D01*
X95359853Y-35978574D01*
X95415000Y-35701335D01*
X95415000Y-35418665D01*
X95359853Y-35141426D01*
X95251680Y-34880273D01*
X95094637Y-34645241D01*
X94894759Y-34445363D01*
X94737400Y-34340219D01*
X94737400Y-34088662D01*
X94741208Y-34049999D01*
X94737400Y-34011336D01*
X94737400Y-34011327D01*
X94726006Y-33895643D01*
X94680982Y-33747217D01*
X94607866Y-33610428D01*
X94551819Y-33542134D01*
X94534121Y-33520569D01*
X94534119Y-33520567D01*
X94509469Y-33490531D01*
X94479434Y-33465882D01*
X93312671Y-32299119D01*
X142478724Y-32299119D01*
X145000000Y-34820395D01*
X147521276Y-32299119D01*
X147161088Y-31809452D01*
X146497118Y-31449151D01*
X145775615Y-31225306D01*
X145024305Y-31146520D01*
X144272062Y-31215822D01*
X143547792Y-31430548D01*
X142879330Y-31782445D01*
X142838912Y-31809452D01*
X142478724Y-32299119D01*
X93312671Y-32299119D01*
X92084128Y-31070578D01*
X92059469Y-31040531D01*
X91939572Y-30942134D01*
X91802783Y-30869018D01*
X91654357Y-30823994D01*
X91538673Y-30812600D01*
X91538663Y-30812600D01*
X91500000Y-30808792D01*
X91461337Y-30812600D01*
X76538665Y-30812600D01*
X76500000Y-30808792D01*
X76461335Y-30812600D01*
X76461327Y-30812600D01*
X76345643Y-30823994D01*
X76197217Y-30869018D01*
X76060428Y-30942134D01*
X75970570Y-31015878D01*
X75970567Y-31015881D01*
X75940531Y-31040531D01*
X75915881Y-31070567D01*
X73270573Y-33715877D01*
X73240532Y-33740531D01*
X73172036Y-33823994D01*
X73142135Y-33860428D01*
X73069018Y-33997218D01*
X73023995Y-34145643D01*
X73008792Y-34300000D01*
X73012601Y-34338673D01*
X73012600Y-40973848D01*
X71270573Y-42715877D01*
X71240532Y-42740531D01*
X71215879Y-42770571D01*
X71142135Y-42860428D01*
X71069018Y-42997218D01*
X71023995Y-43145643D01*
X71008792Y-43300000D01*
X60660000Y-43300000D01*
X60660000Y-37700881D01*
X62478724Y-37700881D01*
X62838912Y-38190548D01*
X63502882Y-38550849D01*
X64224385Y-38774694D01*
X64975695Y-38853480D01*
X65727938Y-38784178D01*
X66452208Y-38569452D01*
X67120670Y-38217555D01*
X67161088Y-38190548D01*
X67521276Y-37700881D01*
X65000000Y-35179605D01*
X62478724Y-37700881D01*
X60660000Y-37700881D01*
X60660000Y-34975695D01*
X61146520Y-34975695D01*
X61215822Y-35727938D01*
X61430548Y-36452208D01*
X61782445Y-37120670D01*
X61809452Y-37161088D01*
X62299119Y-37521276D01*
X64820395Y-35000000D01*
X65179605Y-35000000D01*
X67700881Y-37521276D01*
X68190548Y-37161088D01*
X68550849Y-36497118D01*
X68774694Y-35775615D01*
X68853480Y-35024305D01*
X68784178Y-34272062D01*
X68569452Y-33547792D01*
X68217555Y-32879330D01*
X68190548Y-32838912D01*
X67700881Y-32478724D01*
X65179605Y-35000000D01*
X64820395Y-35000000D01*
X62299119Y-32478724D01*
X61809452Y-32838912D01*
X61449151Y-33502882D01*
X61225306Y-34224385D01*
X61146520Y-34975695D01*
X60660000Y-34975695D01*
X60660000Y-32299119D01*
X62478724Y-32299119D01*
X65000000Y-34820395D01*
X67521276Y-32299119D01*
X67161088Y-31809452D01*
X66497118Y-31449151D01*
X65775615Y-31225306D01*
X65024305Y-31146520D01*
X64272062Y-31215822D01*
X63547792Y-31430548D01*
X62879330Y-31782445D01*
X62838912Y-31809452D01*
X62478724Y-32299119D01*
X60660000Y-32299119D01*
X60660000Y-30660000D01*
X149340000Y-30660000D01*
X149340001Y-86840000D01*
G37*
%TD.AperFunction*%
D16*
X76827000Y-68353000D02*
X76847000Y-68353000D01*
X76847000Y-68607000D01*
X76827000Y-68607000D01*
X76827000Y-69814464D01*
X77059027Y-69934963D01*
X77162600Y-69898314D01*
X77162601Y-79061327D01*
X77158792Y-79100000D01*
X77173995Y-79254357D01*
X77219018Y-79402782D01*
X77219019Y-79402783D01*
X77292135Y-79539572D01*
X77390532Y-79659469D01*
X77420573Y-79684123D01*
X80411142Y-82674693D01*
X80365241Y-82705363D01*
X80165363Y-82905241D01*
X80010000Y-83137759D01*
X79854637Y-82905241D01*
X79654759Y-82705363D01*
X79537400Y-82626946D01*
X79537400Y-82538662D01*
X79541208Y-82499999D01*
X79537400Y-82461336D01*
X79537400Y-82461327D01*
X79526006Y-82345643D01*
X79480982Y-82197217D01*
X79407866Y-82060428D01*
X79309469Y-81940531D01*
X79279434Y-81915882D01*
X78634127Y-81270577D01*
X78609469Y-81240531D01*
X78489572Y-81142134D01*
X78352783Y-81069018D01*
X78204357Y-81023994D01*
X78088673Y-81012600D01*
X78088663Y-81012600D01*
X78050000Y-81008792D01*
X78011337Y-81012600D01*
X76176152Y-81012600D01*
X75637400Y-80473850D01*
X75637400Y-69530121D01*
X75811512Y-69686817D01*
X76064022Y-69836964D01*
X76340973Y-69934963D01*
X76573000Y-69814464D01*
X76573000Y-68607000D01*
X76553000Y-68607000D01*
X76553000Y-68353000D01*
X76573000Y-68353000D01*
X76573000Y-68333000D01*
X76827000Y-68333000D01*
X76827000Y-68353000D01*
%TA.AperFunction,Conductor*%
D17*
G36*
X76827000Y-68353000D02*
G01*
X76847000Y-68353000D01*
X76847000Y-68607000D01*
X76827000Y-68607000D01*
X76827000Y-69814464D01*
X77059027Y-69934963D01*
X77162600Y-69898314D01*
X77162601Y-79061327D01*
X77158792Y-79100000D01*
X77173995Y-79254357D01*
X77219018Y-79402782D01*
X77219019Y-79402783D01*
X77292135Y-79539572D01*
X77390532Y-79659469D01*
X77420573Y-79684123D01*
X80411142Y-82674693D01*
X80365241Y-82705363D01*
X80165363Y-82905241D01*
X80010000Y-83137759D01*
X79854637Y-82905241D01*
X79654759Y-82705363D01*
X79537400Y-82626946D01*
X79537400Y-82538662D01*
X79541208Y-82499999D01*
X79537400Y-82461336D01*
X79537400Y-82461327D01*
X79526006Y-82345643D01*
X79480982Y-82197217D01*
X79407866Y-82060428D01*
X79309469Y-81940531D01*
X79279434Y-81915882D01*
X78634127Y-81270577D01*
X78609469Y-81240531D01*
X78489572Y-81142134D01*
X78352783Y-81069018D01*
X78204357Y-81023994D01*
X78088673Y-81012600D01*
X78088663Y-81012600D01*
X78050000Y-81008792D01*
X78011337Y-81012600D01*
X76176152Y-81012600D01*
X75637400Y-80473850D01*
X75637400Y-69530121D01*
X75811512Y-69686817D01*
X76064022Y-69836964D01*
X76340973Y-69934963D01*
X76573000Y-69814464D01*
X76573000Y-68607000D01*
X76553000Y-68607000D01*
X76553000Y-68353000D01*
X76573000Y-68353000D01*
X76573000Y-68333000D01*
X76827000Y-68333000D01*
X76827000Y-68353000D01*
G37*
%TD.AperFunction*%
D16*
X85512600Y-67626152D02*
X85512600Y-71199048D01*
X82264128Y-67950578D01*
X82239469Y-67920531D01*
X82119572Y-67822134D01*
X81982783Y-67749018D01*
X81834357Y-67703994D01*
X81718673Y-67692600D01*
X81718663Y-67692600D01*
X81680000Y-67688792D01*
X81641337Y-67692600D01*
X80516227Y-67692600D01*
X80404039Y-67524698D01*
X80195302Y-67315961D01*
X80029897Y-67205441D01*
X80128488Y-67146817D01*
X80346854Y-66950293D01*
X80522684Y-66714944D01*
X80649222Y-66449814D01*
X80694958Y-66299026D01*
X80573817Y-66067000D01*
X79367000Y-66067000D01*
X79367000Y-66087000D01*
X79113000Y-66087000D01*
X79113000Y-66067000D01*
X79093000Y-66067000D01*
X79093000Y-65813000D01*
X79113000Y-65813000D01*
X79113000Y-65793000D01*
X79367000Y-65793000D01*
X79367000Y-65813000D01*
X80573817Y-65813000D01*
X80694958Y-65580974D01*
X80649222Y-65430186D01*
X80522684Y-65165056D01*
X80346854Y-64929707D01*
X80128488Y-64733183D01*
X80029897Y-64674559D01*
X80195302Y-64564039D01*
X80404039Y-64355302D01*
X80568042Y-64109853D01*
X80681010Y-63837125D01*
X80738600Y-63547599D01*
X80738600Y-63252401D01*
X80681010Y-62962875D01*
X80568042Y-62690147D01*
X80550816Y-62664366D01*
X85512600Y-67626152D01*
%TA.AperFunction,Conductor*%
D17*
G36*
X85512600Y-67626152D02*
G01*
X85512600Y-71199048D01*
X82264128Y-67950578D01*
X82239469Y-67920531D01*
X82119572Y-67822134D01*
X81982783Y-67749018D01*
X81834357Y-67703994D01*
X81718673Y-67692600D01*
X81718663Y-67692600D01*
X81680000Y-67688792D01*
X81641337Y-67692600D01*
X80516227Y-67692600D01*
X80404039Y-67524698D01*
X80195302Y-67315961D01*
X80029897Y-67205441D01*
X80128488Y-67146817D01*
X80346854Y-66950293D01*
X80522684Y-66714944D01*
X80649222Y-66449814D01*
X80694958Y-66299026D01*
X80573817Y-66067000D01*
X79367000Y-66067000D01*
X79367000Y-66087000D01*
X79113000Y-66087000D01*
X79113000Y-66067000D01*
X79093000Y-66067000D01*
X79093000Y-65813000D01*
X79113000Y-65813000D01*
X79113000Y-65793000D01*
X79367000Y-65793000D01*
X79367000Y-65813000D01*
X80573817Y-65813000D01*
X80694958Y-65580974D01*
X80649222Y-65430186D01*
X80522684Y-65165056D01*
X80346854Y-64929707D01*
X80128488Y-64733183D01*
X80029897Y-64674559D01*
X80195302Y-64564039D01*
X80404039Y-64355302D01*
X80568042Y-64109853D01*
X80681010Y-63837125D01*
X80738600Y-63547599D01*
X80738600Y-63252401D01*
X80681010Y-62962875D01*
X80568042Y-62690147D01*
X80550816Y-62664366D01*
X85512600Y-67626152D01*
G37*
%TD.AperFunction*%
%TD*%
M02*
