M48
METRIC,TZ
T1C0.800
T2C1.016
T3C3.200
%
G90
G05
T1
X76200Y-35560
X76200Y-83820
X78740Y-35560
X78740Y-83820
X81280Y-35560
X81280Y-83820
X83820Y-35560
X83820Y-83820
X86360Y-35560
X86360Y-83820
X88900Y-35560
X88900Y-83820
X91440Y-35560
X93980Y-35560
X93980Y-83820
X96520Y-83820
X98040Y-35560
X99060Y-83820
X100580Y-35560
X101600Y-83820
X103120Y-35560
X104140Y-83820
X105660Y-35560
X106680Y-83820
X108200Y-35560
X109220Y-83820
X110740Y-35560
X111760Y-83820
X113280Y-35560
X115820Y-35560
X118360Y-35560
X120900Y-35560
T2
X76700Y-50700
X76700Y-53240
X76700Y-55780
X76700Y-58320
X76700Y-60860
X76700Y-63400
X76700Y-65940
X76700Y-68480
X79240Y-50700
X79240Y-53240
X79240Y-55780
X79240Y-58320
X79240Y-60860
X79240Y-63400
X79240Y-65940
X79240Y-68480
T3
X65000Y-35000
X65000Y-82500
X145000Y-35000
X145000Y-82500
T0
M30
