%TF.GenerationSoftware,KiCad,Pcbnew,5.99.0+really5.1.10+dfsg1-1*%
%TF.CreationDate,2022-01-03T15:11:42+11:00*%
%TF.ProjectId,els,656c732e-6b69-4636-9164-5f7063625858,v0.1*%
%TF.SameCoordinates,PX3938700PY8a48640*%
%TF.FileFunction,Legend,Top*%
%TF.FilePolarity,Positive*%
%FSLAX46Y46*%
G04 Gerber Fmt 4.6, Leading zero omitted, Abs format (unit mm)*
G04 Created by KiCad (PCBNEW 5.99.0+really5.1.10+dfsg1-1) date 2022-01-03 15:11:42*
%MOMM*%
%LPD*%
G01*
G04 APERTURE LIST*
%ADD10C,0.150000*%
%ADD11C,0.120000*%
%ADD12C,0.127000*%
%ADD13C,0.200000*%
%ADD14C,0.125000*%
G04 APERTURE END LIST*
D10*
X37028095Y108289000D02*
X36932857Y108336620D01*
X36790000Y108336620D01*
X36647142Y108289000D01*
X36551904Y108193762D01*
X36504285Y108098524D01*
X36456666Y107908048D01*
X36456666Y107765191D01*
X36504285Y107574715D01*
X36551904Y107479477D01*
X36647142Y107384239D01*
X36790000Y107336620D01*
X36885238Y107336620D01*
X37028095Y107384239D01*
X37075714Y107431858D01*
X37075714Y107765191D01*
X36885238Y107765191D01*
X37504285Y107336620D02*
X37504285Y108336620D01*
X38075714Y107336620D01*
X38075714Y108336620D01*
X38551904Y107336620D02*
X38551904Y108336620D01*
X38790000Y108336620D01*
X38932857Y108289000D01*
X39028095Y108193762D01*
X39075714Y108098524D01*
X39123333Y107908048D01*
X39123333Y107765191D01*
X39075714Y107574715D01*
X39028095Y107479477D01*
X38932857Y107384239D01*
X38790000Y107336620D01*
X38551904Y107336620D01*
X41584285Y107717572D02*
X42346190Y107717572D01*
X41965238Y107336620D02*
X41965238Y108098524D01*
X43298571Y108336620D02*
X42822380Y108336620D01*
X42774761Y107860429D01*
X42822380Y107908048D01*
X42917619Y107955667D01*
X43155714Y107955667D01*
X43250952Y107908048D01*
X43298571Y107860429D01*
X43346190Y107765191D01*
X43346190Y107527096D01*
X43298571Y107431858D01*
X43250952Y107384239D01*
X43155714Y107336620D01*
X42917619Y107336620D01*
X42822380Y107384239D01*
X42774761Y107431858D01*
X43631904Y108336620D02*
X43965238Y107336620D01*
X44298571Y108336620D01*
X117038095Y720000D02*
X116942857Y767620D01*
X116800000Y767620D01*
X116657142Y720000D01*
X116561904Y624762D01*
X116514285Y529524D01*
X116466666Y339048D01*
X116466666Y196191D01*
X116514285Y5715D01*
X116561904Y-89523D01*
X116657142Y-184761D01*
X116800000Y-232380D01*
X116895238Y-232380D01*
X117038095Y-184761D01*
X117085714Y-137142D01*
X117085714Y196191D01*
X116895238Y196191D01*
X117514285Y-232380D02*
X117514285Y767620D01*
X118085714Y-232380D01*
X118085714Y767620D01*
X118561904Y-232380D02*
X118561904Y767620D01*
X118800000Y767620D01*
X118942857Y720000D01*
X119038095Y624762D01*
X119085714Y529524D01*
X119133333Y339048D01*
X119133333Y196191D01*
X119085714Y5715D01*
X119038095Y-89523D01*
X118942857Y-184761D01*
X118800000Y-232380D01*
X118561904Y-232380D01*
X122118095Y720000D02*
X122022857Y767620D01*
X121880000Y767620D01*
X121737142Y720000D01*
X121641904Y624762D01*
X121594285Y529524D01*
X121546666Y339048D01*
X121546666Y196191D01*
X121594285Y5715D01*
X121641904Y-89523D01*
X121737142Y-184761D01*
X121880000Y-232380D01*
X121975238Y-232380D01*
X122118095Y-184761D01*
X122165714Y-137142D01*
X122165714Y196191D01*
X121975238Y196191D01*
X122594285Y-232380D02*
X122594285Y767620D01*
X123165714Y-232380D01*
X123165714Y767620D01*
X123641904Y-232380D02*
X123641904Y767620D01*
X123880000Y767620D01*
X124022857Y720000D01*
X124118095Y624762D01*
X124165714Y529524D01*
X124213333Y339048D01*
X124213333Y196191D01*
X124165714Y5715D01*
X124118095Y-89523D01*
X124022857Y-184761D01*
X123880000Y-232380D01*
X123641904Y-232380D01*
X96591095Y720000D02*
X96495857Y767620D01*
X96353000Y767620D01*
X96210142Y720000D01*
X96114904Y624762D01*
X96067285Y529524D01*
X96019666Y339048D01*
X96019666Y196191D01*
X96067285Y5715D01*
X96114904Y-89523D01*
X96210142Y-184761D01*
X96353000Y-232380D01*
X96448238Y-232380D01*
X96591095Y-184761D01*
X96638714Y-137142D01*
X96638714Y196191D01*
X96448238Y196191D01*
X97067285Y-232380D02*
X97067285Y767620D01*
X97638714Y-232380D01*
X97638714Y767620D01*
X98114904Y-232380D02*
X98114904Y767620D01*
X98353000Y767620D01*
X98495857Y720000D01*
X98591095Y624762D01*
X98638714Y529524D01*
X98686333Y339048D01*
X98686333Y196191D01*
X98638714Y5715D01*
X98591095Y-89523D01*
X98495857Y-184761D01*
X98353000Y-232380D01*
X98114904Y-232380D01*
X101671095Y720000D02*
X101575857Y767620D01*
X101433000Y767620D01*
X101290142Y720000D01*
X101194904Y624762D01*
X101147285Y529524D01*
X101099666Y339048D01*
X101099666Y196191D01*
X101147285Y5715D01*
X101194904Y-89523D01*
X101290142Y-184761D01*
X101433000Y-232380D01*
X101528238Y-232380D01*
X101671095Y-184761D01*
X101718714Y-137142D01*
X101718714Y196191D01*
X101528238Y196191D01*
X102147285Y-232380D02*
X102147285Y767620D01*
X102718714Y-232380D01*
X102718714Y767620D01*
X103194904Y-232380D02*
X103194904Y767620D01*
X103433000Y767620D01*
X103575857Y720000D01*
X103671095Y624762D01*
X103718714Y529524D01*
X103766333Y339048D01*
X103766333Y196191D01*
X103718714Y5715D01*
X103671095Y-89523D01*
X103575857Y-184761D01*
X103433000Y-232380D01*
X103194904Y-232380D01*
X128412380Y46440953D02*
X127412380Y46440953D01*
X128412380Y47012381D01*
X127412380Y47012381D01*
X127412380Y47488572D02*
X128221904Y47488572D01*
X128317142Y47536191D01*
X128364761Y47583810D01*
X128412380Y47679048D01*
X128412380Y47869524D01*
X128364761Y47964762D01*
X128317142Y48012381D01*
X128221904Y48060000D01*
X127412380Y48060000D01*
X128317142Y49107620D02*
X128364761Y49060000D01*
X128412380Y48917143D01*
X128412380Y48821905D01*
X128364761Y48679048D01*
X128269523Y48583810D01*
X128174285Y48536191D01*
X127983809Y48488572D01*
X127840952Y48488572D01*
X127650476Y48536191D01*
X127555238Y48583810D01*
X127460000Y48679048D01*
X127412380Y48821905D01*
X127412380Y48917143D01*
X127460000Y49060000D01*
X127507619Y49107620D01*
X128412380Y50012381D02*
X128412380Y49536191D01*
X127412380Y49536191D01*
X127888571Y50345715D02*
X127888571Y50679048D01*
X128412380Y50821905D02*
X128412380Y50345715D01*
X127412380Y50345715D01*
X127412380Y50821905D01*
X127412380Y51440953D02*
X127412380Y51631429D01*
X127460000Y51726667D01*
X127555238Y51821905D01*
X127745714Y51869524D01*
X128079047Y51869524D01*
X128269523Y51821905D01*
X128364761Y51726667D01*
X128412380Y51631429D01*
X128412380Y51440953D01*
X128364761Y51345715D01*
X128269523Y51250477D01*
X128079047Y51202858D01*
X127745714Y51202858D01*
X127555238Y51250477D01*
X127460000Y51345715D01*
X127412380Y51440953D01*
X127412380Y53060000D02*
X128221904Y53060000D01*
X128317142Y53107620D01*
X128364761Y53155239D01*
X128412380Y53250477D01*
X128412380Y53440953D01*
X128364761Y53536191D01*
X128317142Y53583810D01*
X128221904Y53631429D01*
X127412380Y53631429D01*
X128364761Y54060000D02*
X128412380Y54202858D01*
X128412380Y54440953D01*
X128364761Y54536191D01*
X128317142Y54583810D01*
X128221904Y54631429D01*
X128126666Y54631429D01*
X128031428Y54583810D01*
X127983809Y54536191D01*
X127936190Y54440953D01*
X127888571Y54250477D01*
X127840952Y54155239D01*
X127793333Y54107620D01*
X127698095Y54060000D01*
X127602857Y54060000D01*
X127507619Y54107620D01*
X127460000Y54155239D01*
X127412380Y54250477D01*
X127412380Y54488572D01*
X127460000Y54631429D01*
X127888571Y55393334D02*
X127936190Y55536191D01*
X127983809Y55583810D01*
X128079047Y55631429D01*
X128221904Y55631429D01*
X128317142Y55583810D01*
X128364761Y55536191D01*
X128412380Y55440953D01*
X128412380Y55060000D01*
X127412380Y55060000D01*
X127412380Y55393334D01*
X127460000Y55488572D01*
X127507619Y55536191D01*
X127602857Y55583810D01*
X127698095Y55583810D01*
X127793333Y55536191D01*
X127840952Y55488572D01*
X127888571Y55393334D01*
X127888571Y55060000D01*
X128412380Y56821905D02*
X127412380Y56821905D01*
X128412380Y57298096D02*
X127412380Y57298096D01*
X128412380Y57869524D01*
X127412380Y57869524D01*
X128412380Y58345715D02*
X127412380Y58345715D01*
X127412380Y58726667D01*
X127460000Y58821905D01*
X127507619Y58869524D01*
X127602857Y58917143D01*
X127745714Y58917143D01*
X127840952Y58869524D01*
X127888571Y58821905D01*
X127936190Y58726667D01*
X127936190Y58345715D01*
X127412380Y59345715D02*
X128221904Y59345715D01*
X128317142Y59393334D01*
X128364761Y59440953D01*
X128412380Y59536191D01*
X128412380Y59726667D01*
X128364761Y59821905D01*
X128317142Y59869524D01*
X128221904Y59917143D01*
X127412380Y59917143D01*
X127412380Y60250477D02*
X127412380Y60821905D01*
X128412380Y60536191D02*
X127412380Y60536191D01*
X135723095Y11578572D02*
X136485000Y11578572D01*
X136104047Y11197620D02*
X136104047Y11959524D01*
X136865952Y12197620D02*
X137485000Y12197620D01*
X137151666Y11816667D01*
X137294523Y11816667D01*
X137389761Y11769048D01*
X137437380Y11721429D01*
X137485000Y11626191D01*
X137485000Y11388096D01*
X137437380Y11292858D01*
X137389761Y11245239D01*
X137294523Y11197620D01*
X137008809Y11197620D01*
X136913571Y11245239D01*
X136865952Y11292858D01*
X137770714Y12197620D02*
X138104047Y11197620D01*
X138437380Y12197620D01*
X138675476Y12197620D02*
X139294523Y12197620D01*
X138961190Y11816667D01*
X139104047Y11816667D01*
X139199285Y11769048D01*
X139246904Y11721429D01*
X139294523Y11626191D01*
X139294523Y11388096D01*
X139246904Y11292858D01*
X139199285Y11245239D01*
X139104047Y11197620D01*
X138818333Y11197620D01*
X138723095Y11245239D01*
X138675476Y11292858D01*
X135818285Y6498572D02*
X136580190Y6498572D01*
X136199238Y6117620D02*
X136199238Y6879524D01*
X137532571Y7117620D02*
X137056380Y7117620D01*
X137008761Y6641429D01*
X137056380Y6689048D01*
X137151619Y6736667D01*
X137389714Y6736667D01*
X137484952Y6689048D01*
X137532571Y6641429D01*
X137580190Y6546191D01*
X137580190Y6308096D01*
X137532571Y6212858D01*
X137484952Y6165239D01*
X137389714Y6117620D01*
X137151619Y6117620D01*
X137056380Y6165239D01*
X137008761Y6212858D01*
X137865904Y7117620D02*
X138199238Y6117620D01*
X138532571Y7117620D01*
X111577095Y720000D02*
X111481857Y767620D01*
X111339000Y767620D01*
X111196142Y720000D01*
X111100904Y624762D01*
X111053285Y529524D01*
X111005666Y339048D01*
X111005666Y196191D01*
X111053285Y5715D01*
X111100904Y-89523D01*
X111196142Y-184761D01*
X111339000Y-232380D01*
X111434238Y-232380D01*
X111577095Y-184761D01*
X111624714Y-137142D01*
X111624714Y196191D01*
X111434238Y196191D01*
X112053285Y-232380D02*
X112053285Y767620D01*
X112624714Y-232380D01*
X112624714Y767620D01*
X113100904Y-232380D02*
X113100904Y767620D01*
X113339000Y767620D01*
X113481857Y720000D01*
X113577095Y624762D01*
X113624714Y529524D01*
X113672333Y339048D01*
X113672333Y196191D01*
X113624714Y5715D01*
X113577095Y-89523D01*
X113481857Y-184761D01*
X113339000Y-232380D01*
X113100904Y-232380D01*
X106497095Y720000D02*
X106401857Y767620D01*
X106259000Y767620D01*
X106116142Y720000D01*
X106020904Y624762D01*
X105973285Y529524D01*
X105925666Y339048D01*
X105925666Y196191D01*
X105973285Y5715D01*
X106020904Y-89523D01*
X106116142Y-184761D01*
X106259000Y-232380D01*
X106354238Y-232380D01*
X106497095Y-184761D01*
X106544714Y-137142D01*
X106544714Y196191D01*
X106354238Y196191D01*
X106973285Y-232380D02*
X106973285Y767620D01*
X107544714Y-232380D01*
X107544714Y767620D01*
X108020904Y-232380D02*
X108020904Y767620D01*
X108259000Y767620D01*
X108401857Y720000D01*
X108497095Y624762D01*
X108544714Y529524D01*
X108592333Y339048D01*
X108592333Y196191D01*
X108544714Y5715D01*
X108497095Y-89523D01*
X108401857Y-184761D01*
X108259000Y-232380D01*
X108020904Y-232380D01*
X23193095Y107336620D02*
X23193095Y108336620D01*
X23574047Y108336620D01*
X23669285Y108289000D01*
X23716904Y108241381D01*
X23764523Y108146143D01*
X23764523Y108003286D01*
X23716904Y107908048D01*
X23669285Y107860429D01*
X23574047Y107812810D01*
X23193095Y107812810D01*
X24193095Y107336620D02*
X24193095Y108336620D01*
X24193095Y107860429D02*
X24764523Y107860429D01*
X24764523Y107336620D02*
X24764523Y108336620D01*
X25764523Y107336620D02*
X25193095Y107336620D01*
X25478809Y107336620D02*
X25478809Y108336620D01*
X25383571Y108193762D01*
X25288333Y108098524D01*
X25193095Y108050905D01*
X18113095Y107336620D02*
X18113095Y108336620D01*
X18494047Y108336620D01*
X18589285Y108289000D01*
X18636904Y108241381D01*
X18684523Y108146143D01*
X18684523Y108003286D01*
X18636904Y107908048D01*
X18589285Y107860429D01*
X18494047Y107812810D01*
X18113095Y107812810D01*
X19113095Y107336620D02*
X19113095Y108336620D01*
X19113095Y107860429D02*
X19684523Y107860429D01*
X19684523Y107336620D02*
X19684523Y108336620D01*
X20351190Y108336620D02*
X20446428Y108336620D01*
X20541666Y108289000D01*
X20589285Y108241381D01*
X20636904Y108146143D01*
X20684523Y107955667D01*
X20684523Y107717572D01*
X20636904Y107527096D01*
X20589285Y107431858D01*
X20541666Y107384239D01*
X20446428Y107336620D01*
X20351190Y107336620D01*
X20255952Y107384239D01*
X20208333Y107431858D01*
X20160714Y107527096D01*
X20113095Y107717572D01*
X20113095Y107955667D01*
X20160714Y108146143D01*
X20208333Y108241381D01*
X20255952Y108289000D01*
X20351190Y108336620D01*
X1285380Y93469905D02*
X285380Y93469905D01*
X285380Y93850858D01*
X333000Y93946096D01*
X380619Y93993715D01*
X475857Y94041334D01*
X618714Y94041334D01*
X713952Y93993715D01*
X761571Y93946096D01*
X809190Y93850858D01*
X809190Y93469905D01*
X1285380Y94469905D02*
X285380Y94469905D01*
X285380Y94708000D01*
X333000Y94850858D01*
X428238Y94946096D01*
X523476Y94993715D01*
X713952Y95041334D01*
X856809Y95041334D01*
X1047285Y94993715D01*
X1142523Y94946096D01*
X1237761Y94850858D01*
X1285380Y94708000D01*
X1285380Y94469905D01*
X380619Y95422286D02*
X333000Y95469905D01*
X285380Y95565143D01*
X285380Y95803239D01*
X333000Y95898477D01*
X380619Y95946096D01*
X475857Y95993715D01*
X571095Y95993715D01*
X713952Y95946096D01*
X1285380Y95374667D01*
X1285380Y95993715D01*
X1285380Y88389905D02*
X285380Y88389905D01*
X285380Y88770858D01*
X333000Y88866096D01*
X380619Y88913715D01*
X475857Y88961334D01*
X618714Y88961334D01*
X713952Y88913715D01*
X761571Y88866096D01*
X809190Y88770858D01*
X809190Y88389905D01*
X1190142Y89961334D02*
X1237761Y89913715D01*
X1285380Y89770858D01*
X1285380Y89675620D01*
X1237761Y89532762D01*
X1142523Y89437524D01*
X1047285Y89389905D01*
X856809Y89342286D01*
X713952Y89342286D01*
X523476Y89389905D01*
X428238Y89437524D01*
X333000Y89532762D01*
X285380Y89675620D01*
X285380Y89770858D01*
X333000Y89913715D01*
X380619Y89961334D01*
X285380Y90580381D02*
X285380Y90675620D01*
X333000Y90770858D01*
X380619Y90818477D01*
X475857Y90866096D01*
X666333Y90913715D01*
X904428Y90913715D01*
X1094904Y90866096D01*
X1190142Y90818477D01*
X1237761Y90770858D01*
X1285380Y90675620D01*
X1285380Y90580381D01*
X1237761Y90485143D01*
X1190142Y90437524D01*
X1094904Y90389905D01*
X904428Y90342286D01*
X666333Y90342286D01*
X475857Y90389905D01*
X380619Y90437524D01*
X333000Y90485143D01*
X285380Y90580381D01*
X86081904Y-232380D02*
X86081904Y767620D01*
X86462857Y767620D01*
X86558095Y720000D01*
X86605714Y672381D01*
X86653333Y577143D01*
X86653333Y434286D01*
X86605714Y339048D01*
X86558095Y291429D01*
X86462857Y243810D01*
X86081904Y243810D01*
X87653333Y-137142D02*
X87605714Y-184761D01*
X87462857Y-232380D01*
X87367619Y-232380D01*
X87224761Y-184761D01*
X87129523Y-89523D01*
X87081904Y5715D01*
X87034285Y196191D01*
X87034285Y339048D01*
X87081904Y529524D01*
X87129523Y624762D01*
X87224761Y720000D01*
X87367619Y767620D01*
X87462857Y767620D01*
X87605714Y720000D01*
X87653333Y672381D01*
X88224761Y339048D02*
X88129523Y386667D01*
X88081904Y434286D01*
X88034285Y529524D01*
X88034285Y577143D01*
X88081904Y672381D01*
X88129523Y720000D01*
X88224761Y767620D01*
X88415238Y767620D01*
X88510476Y720000D01*
X88558095Y672381D01*
X88605714Y577143D01*
X88605714Y529524D01*
X88558095Y434286D01*
X88510476Y386667D01*
X88415238Y339048D01*
X88224761Y339048D01*
X88129523Y291429D01*
X88081904Y243810D01*
X88034285Y148572D01*
X88034285Y-41904D01*
X88081904Y-137142D01*
X88129523Y-184761D01*
X88224761Y-232380D01*
X88415238Y-232380D01*
X88510476Y-184761D01*
X88558095Y-137142D01*
X88605714Y-41904D01*
X88605714Y148572D01*
X88558095Y243810D01*
X88510476Y291429D01*
X88415238Y339048D01*
X91161904Y-232380D02*
X91161904Y767620D01*
X91542857Y767620D01*
X91638095Y720000D01*
X91685714Y672381D01*
X91733333Y577143D01*
X91733333Y434286D01*
X91685714Y339048D01*
X91638095Y291429D01*
X91542857Y243810D01*
X91161904Y243810D01*
X92733333Y-137142D02*
X92685714Y-184761D01*
X92542857Y-232380D01*
X92447619Y-232380D01*
X92304761Y-184761D01*
X92209523Y-89523D01*
X92161904Y5715D01*
X92114285Y196191D01*
X92114285Y339048D01*
X92161904Y529524D01*
X92209523Y624762D01*
X92304761Y720000D01*
X92447619Y767620D01*
X92542857Y767620D01*
X92685714Y720000D01*
X92733333Y672381D01*
X93685714Y-232380D02*
X93114285Y-232380D01*
X93400000Y-232380D02*
X93400000Y767620D01*
X93304761Y624762D01*
X93209523Y529524D01*
X93114285Y481905D01*
X75445714Y-232380D02*
X75445714Y767620D01*
X75826666Y767620D01*
X75921904Y720000D01*
X75969523Y672381D01*
X76017142Y577143D01*
X76017142Y434286D01*
X75969523Y339048D01*
X75921904Y291429D01*
X75826666Y243810D01*
X75445714Y243810D01*
X77017142Y-137142D02*
X76969523Y-184761D01*
X76826666Y-232380D01*
X76731428Y-232380D01*
X76588571Y-184761D01*
X76493333Y-89523D01*
X76445714Y5715D01*
X76398095Y196191D01*
X76398095Y339048D01*
X76445714Y529524D01*
X76493333Y624762D01*
X76588571Y720000D01*
X76731428Y767620D01*
X76826666Y767620D01*
X76969523Y720000D01*
X77017142Y672381D01*
X77969523Y-232380D02*
X77398095Y-232380D01*
X77683809Y-232380D02*
X77683809Y767620D01*
X77588571Y624762D01*
X77493333Y529524D01*
X77398095Y481905D01*
X78588571Y767620D02*
X78683809Y767620D01*
X78779047Y720000D01*
X78826666Y672381D01*
X78874285Y577143D01*
X78921904Y386667D01*
X78921904Y148572D01*
X78874285Y-41904D01*
X78826666Y-137142D01*
X78779047Y-184761D01*
X78683809Y-232380D01*
X78588571Y-232380D01*
X78493333Y-184761D01*
X78445714Y-137142D01*
X78398095Y-41904D01*
X78350476Y148572D01*
X78350476Y386667D01*
X78398095Y577143D01*
X78445714Y672381D01*
X78493333Y720000D01*
X78588571Y767620D01*
X70365714Y-232380D02*
X70365714Y767620D01*
X70746666Y767620D01*
X70841904Y720000D01*
X70889523Y672381D01*
X70937142Y577143D01*
X70937142Y434286D01*
X70889523Y339048D01*
X70841904Y291429D01*
X70746666Y243810D01*
X70365714Y243810D01*
X71937142Y-137142D02*
X71889523Y-184761D01*
X71746666Y-232380D01*
X71651428Y-232380D01*
X71508571Y-184761D01*
X71413333Y-89523D01*
X71365714Y5715D01*
X71318095Y196191D01*
X71318095Y339048D01*
X71365714Y529524D01*
X71413333Y624762D01*
X71508571Y720000D01*
X71651428Y767620D01*
X71746666Y767620D01*
X71889523Y720000D01*
X71937142Y672381D01*
X72889523Y-232380D02*
X72318095Y-232380D01*
X72603809Y-232380D02*
X72603809Y767620D01*
X72508571Y624762D01*
X72413333Y529524D01*
X72318095Y481905D01*
X73841904Y-232380D02*
X73270476Y-232380D01*
X73556190Y-232380D02*
X73556190Y767620D01*
X73460952Y624762D01*
X73365714Y529524D01*
X73270476Y481905D01*
X65833333Y-232380D02*
X65833333Y767620D01*
X66214285Y767620D01*
X66309523Y720000D01*
X66357142Y672381D01*
X66404761Y577143D01*
X66404761Y434286D01*
X66357142Y339048D01*
X66309523Y291429D01*
X66214285Y243810D01*
X65833333Y243810D01*
X66785714Y53334D02*
X67261904Y53334D01*
X66690476Y-232380D02*
X67023809Y767620D01*
X67357142Y-232380D01*
X67833333Y339048D02*
X67738095Y386667D01*
X67690476Y434286D01*
X67642857Y529524D01*
X67642857Y577143D01*
X67690476Y672381D01*
X67738095Y720000D01*
X67833333Y767620D01*
X68023809Y767620D01*
X68119047Y720000D01*
X68166666Y672381D01*
X68214285Y577143D01*
X68214285Y529524D01*
X68166666Y434286D01*
X68119047Y386667D01*
X68023809Y339048D01*
X67833333Y339048D01*
X67738095Y291429D01*
X67690476Y243810D01*
X67642857Y148572D01*
X67642857Y-41904D01*
X67690476Y-137142D01*
X67738095Y-184761D01*
X67833333Y-232380D01*
X68023809Y-232380D01*
X68119047Y-184761D01*
X68166666Y-137142D01*
X68214285Y-41904D01*
X68214285Y148572D01*
X68166666Y243810D01*
X68119047Y291429D01*
X68023809Y339048D01*
X81001904Y-232380D02*
X81001904Y767620D01*
X81382857Y767620D01*
X81478095Y720000D01*
X81525714Y672381D01*
X81573333Y577143D01*
X81573333Y434286D01*
X81525714Y339048D01*
X81478095Y291429D01*
X81382857Y243810D01*
X81001904Y243810D01*
X82573333Y-137142D02*
X82525714Y-184761D01*
X82382857Y-232380D01*
X82287619Y-232380D01*
X82144761Y-184761D01*
X82049523Y-89523D01*
X82001904Y5715D01*
X81954285Y196191D01*
X81954285Y339048D01*
X82001904Y529524D01*
X82049523Y624762D01*
X82144761Y720000D01*
X82287619Y767620D01*
X82382857Y767620D01*
X82525714Y720000D01*
X82573333Y672381D01*
X83049523Y-232380D02*
X83240000Y-232380D01*
X83335238Y-184761D01*
X83382857Y-137142D01*
X83478095Y5715D01*
X83525714Y196191D01*
X83525714Y577143D01*
X83478095Y672381D01*
X83430476Y720000D01*
X83335238Y767620D01*
X83144761Y767620D01*
X83049523Y720000D01*
X83001904Y672381D01*
X82954285Y577143D01*
X82954285Y339048D01*
X83001904Y243810D01*
X83049523Y196191D01*
X83144761Y148572D01*
X83335238Y148572D01*
X83430476Y196191D01*
X83478095Y243810D01*
X83525714Y339048D01*
X60277142Y-232380D02*
X60277142Y767620D01*
X60658095Y767620D01*
X60753333Y720000D01*
X60800952Y672381D01*
X60848571Y577143D01*
X60848571Y434286D01*
X60800952Y339048D01*
X60753333Y291429D01*
X60658095Y243810D01*
X60277142Y243810D01*
X61229523Y53334D02*
X61705714Y53334D01*
X61134285Y-232380D02*
X61467619Y767620D01*
X61800952Y-232380D01*
X62658095Y-232380D02*
X62086666Y-232380D01*
X62372380Y-232380D02*
X62372380Y767620D01*
X62277142Y624762D01*
X62181904Y529524D01*
X62086666Y481905D01*
X63039047Y672381D02*
X63086666Y720000D01*
X63181904Y767620D01*
X63420000Y767620D01*
X63515238Y720000D01*
X63562857Y672381D01*
X63610476Y577143D01*
X63610476Y481905D01*
X63562857Y339048D01*
X62991428Y-232380D01*
X63610476Y-232380D01*
X55197142Y-232380D02*
X55197142Y767620D01*
X55578095Y767620D01*
X55673333Y720000D01*
X55720952Y672381D01*
X55768571Y577143D01*
X55768571Y434286D01*
X55720952Y339048D01*
X55673333Y291429D01*
X55578095Y243810D01*
X55197142Y243810D01*
X56149523Y53334D02*
X56625714Y53334D01*
X56054285Y-232380D02*
X56387619Y767620D01*
X56720952Y-232380D01*
X57578095Y-232380D02*
X57006666Y-232380D01*
X57292380Y-232380D02*
X57292380Y767620D01*
X57197142Y624762D01*
X57101904Y529524D01*
X57006666Y481905D01*
X58530476Y-232380D02*
X57959047Y-232380D01*
X58244761Y-232380D02*
X58244761Y767620D01*
X58149523Y624762D01*
X58054285Y529524D01*
X57959047Y481905D01*
X50117142Y-232380D02*
X50117142Y767620D01*
X50498095Y767620D01*
X50593333Y720000D01*
X50640952Y672381D01*
X50688571Y577143D01*
X50688571Y434286D01*
X50640952Y339048D01*
X50593333Y291429D01*
X50498095Y243810D01*
X50117142Y243810D01*
X51069523Y53334D02*
X51545714Y53334D01*
X50974285Y-232380D02*
X51307619Y767620D01*
X51640952Y-232380D01*
X52498095Y-232380D02*
X51926666Y-232380D01*
X52212380Y-232380D02*
X52212380Y767620D01*
X52117142Y624762D01*
X52021904Y529524D01*
X51926666Y481905D01*
X52831428Y767620D02*
X53450476Y767620D01*
X53117142Y386667D01*
X53260000Y386667D01*
X53355238Y339048D01*
X53402857Y291429D01*
X53450476Y196191D01*
X53450476Y-41904D01*
X53402857Y-137142D01*
X53355238Y-184761D01*
X53260000Y-232380D01*
X52974285Y-232380D01*
X52879047Y-184761D01*
X52831428Y-137142D01*
X45037142Y-232380D02*
X45037142Y767620D01*
X45418095Y767620D01*
X45513333Y720000D01*
X45560952Y672381D01*
X45608571Y577143D01*
X45608571Y434286D01*
X45560952Y339048D01*
X45513333Y291429D01*
X45418095Y243810D01*
X45037142Y243810D01*
X45989523Y53334D02*
X46465714Y53334D01*
X45894285Y-232380D02*
X46227619Y767620D01*
X46560952Y-232380D01*
X47418095Y-232380D02*
X46846666Y-232380D01*
X47132380Y-232380D02*
X47132380Y767620D01*
X47037142Y624762D01*
X46941904Y529524D01*
X46846666Y481905D01*
X48275238Y434286D02*
X48275238Y-232380D01*
X48037142Y815239D02*
X47799047Y100953D01*
X48418095Y100953D01*
X39957142Y-232380D02*
X39957142Y767620D01*
X40338095Y767620D01*
X40433333Y720000D01*
X40480952Y672381D01*
X40528571Y577143D01*
X40528571Y434286D01*
X40480952Y339048D01*
X40433333Y291429D01*
X40338095Y243810D01*
X39957142Y243810D01*
X40909523Y53334D02*
X41385714Y53334D01*
X40814285Y-232380D02*
X41147619Y767620D01*
X41480952Y-232380D01*
X42338095Y-232380D02*
X41766666Y-232380D01*
X42052380Y-232380D02*
X42052380Y767620D01*
X41957142Y624762D01*
X41861904Y529524D01*
X41766666Y481905D01*
X43242857Y767620D02*
X42766666Y767620D01*
X42719047Y291429D01*
X42766666Y339048D01*
X42861904Y386667D01*
X43100000Y386667D01*
X43195238Y339048D01*
X43242857Y291429D01*
X43290476Y196191D01*
X43290476Y-41904D01*
X43242857Y-137142D01*
X43195238Y-184761D01*
X43100000Y-232380D01*
X42861904Y-232380D01*
X42766666Y-184761D01*
X42719047Y-137142D01*
X35281904Y-232380D02*
X35281904Y767620D01*
X35662857Y767620D01*
X35758095Y720000D01*
X35805714Y672381D01*
X35853333Y577143D01*
X35853333Y434286D01*
X35805714Y339048D01*
X35758095Y291429D01*
X35662857Y243810D01*
X35281904Y243810D01*
X36615238Y291429D02*
X36758095Y243810D01*
X36805714Y196191D01*
X36853333Y100953D01*
X36853333Y-41904D01*
X36805714Y-137142D01*
X36758095Y-184761D01*
X36662857Y-232380D01*
X36281904Y-232380D01*
X36281904Y767620D01*
X36615238Y767620D01*
X36710476Y720000D01*
X36758095Y672381D01*
X36805714Y577143D01*
X36805714Y481905D01*
X36758095Y386667D01*
X36710476Y339048D01*
X36615238Y291429D01*
X36281904Y291429D01*
X37234285Y672381D02*
X37281904Y720000D01*
X37377142Y767620D01*
X37615238Y767620D01*
X37710476Y720000D01*
X37758095Y672381D01*
X37805714Y577143D01*
X37805714Y481905D01*
X37758095Y339048D01*
X37186666Y-232380D01*
X37805714Y-232380D01*
X30201904Y-232380D02*
X30201904Y767620D01*
X30582857Y767620D01*
X30678095Y720000D01*
X30725714Y672381D01*
X30773333Y577143D01*
X30773333Y434286D01*
X30725714Y339048D01*
X30678095Y291429D01*
X30582857Y243810D01*
X30201904Y243810D01*
X31535238Y291429D02*
X31678095Y243810D01*
X31725714Y196191D01*
X31773333Y100953D01*
X31773333Y-41904D01*
X31725714Y-137142D01*
X31678095Y-184761D01*
X31582857Y-232380D01*
X31201904Y-232380D01*
X31201904Y767620D01*
X31535238Y767620D01*
X31630476Y720000D01*
X31678095Y672381D01*
X31725714Y577143D01*
X31725714Y481905D01*
X31678095Y386667D01*
X31630476Y339048D01*
X31535238Y291429D01*
X31201904Y291429D01*
X32725714Y-232380D02*
X32154285Y-232380D01*
X32440000Y-232380D02*
X32440000Y767620D01*
X32344761Y624762D01*
X32249523Y529524D01*
X32154285Y481905D01*
X25121904Y-232380D02*
X25121904Y767620D01*
X25502857Y767620D01*
X25598095Y720000D01*
X25645714Y672381D01*
X25693333Y577143D01*
X25693333Y434286D01*
X25645714Y339048D01*
X25598095Y291429D01*
X25502857Y243810D01*
X25121904Y243810D01*
X26455238Y291429D02*
X26598095Y243810D01*
X26645714Y196191D01*
X26693333Y100953D01*
X26693333Y-41904D01*
X26645714Y-137142D01*
X26598095Y-184761D01*
X26502857Y-232380D01*
X26121904Y-232380D01*
X26121904Y767620D01*
X26455238Y767620D01*
X26550476Y720000D01*
X26598095Y672381D01*
X26645714Y577143D01*
X26645714Y481905D01*
X26598095Y386667D01*
X26550476Y339048D01*
X26455238Y291429D01*
X26121904Y291429D01*
X27598095Y767620D02*
X27121904Y767620D01*
X27074285Y291429D01*
X27121904Y339048D01*
X27217142Y386667D01*
X27455238Y386667D01*
X27550476Y339048D01*
X27598095Y291429D01*
X27645714Y196191D01*
X27645714Y-41904D01*
X27598095Y-137142D01*
X27550476Y-184761D01*
X27455238Y-232380D01*
X27217142Y-232380D01*
X27121904Y-184761D01*
X27074285Y-137142D01*
X19565714Y-232380D02*
X19565714Y767620D01*
X19946666Y767620D01*
X20041904Y720000D01*
X20089523Y672381D01*
X20137142Y577143D01*
X20137142Y434286D01*
X20089523Y339048D01*
X20041904Y291429D01*
X19946666Y243810D01*
X19565714Y243810D01*
X20899047Y291429D02*
X21041904Y243810D01*
X21089523Y196191D01*
X21137142Y100953D01*
X21137142Y-41904D01*
X21089523Y-137142D01*
X21041904Y-184761D01*
X20946666Y-232380D01*
X20565714Y-232380D01*
X20565714Y767620D01*
X20899047Y767620D01*
X20994285Y720000D01*
X21041904Y672381D01*
X21089523Y577143D01*
X21089523Y481905D01*
X21041904Y386667D01*
X20994285Y339048D01*
X20899047Y291429D01*
X20565714Y291429D01*
X22089523Y-232380D02*
X21518095Y-232380D01*
X21803809Y-232380D02*
X21803809Y767620D01*
X21708571Y624762D01*
X21613333Y529524D01*
X21518095Y481905D01*
X22470476Y672381D02*
X22518095Y720000D01*
X22613333Y767620D01*
X22851428Y767620D01*
X22946666Y720000D01*
X22994285Y672381D01*
X23041904Y577143D01*
X23041904Y481905D01*
X22994285Y339048D01*
X22422857Y-232380D01*
X23041904Y-232380D01*
X15438095Y720000D02*
X15342857Y767620D01*
X15200000Y767620D01*
X15057142Y720000D01*
X14961904Y624762D01*
X14914285Y529524D01*
X14866666Y339048D01*
X14866666Y196191D01*
X14914285Y5715D01*
X14961904Y-89523D01*
X15057142Y-184761D01*
X15200000Y-232380D01*
X15295238Y-232380D01*
X15438095Y-184761D01*
X15485714Y-137142D01*
X15485714Y196191D01*
X15295238Y196191D01*
X15914285Y-232380D02*
X15914285Y767620D01*
X16485714Y-232380D01*
X16485714Y767620D01*
X16961904Y-232380D02*
X16961904Y767620D01*
X17200000Y767620D01*
X17342857Y720000D01*
X17438095Y624762D01*
X17485714Y529524D01*
X17533333Y339048D01*
X17533333Y196191D01*
X17485714Y5715D01*
X17438095Y-89523D01*
X17342857Y-184761D01*
X17200000Y-232380D01*
X16961904Y-232380D01*
X-420905Y6498572D02*
X341000Y6498572D01*
X-39953Y6117620D02*
X-39953Y6879524D01*
X721952Y7117620D02*
X1341000Y7117620D01*
X1007666Y6736667D01*
X1150523Y6736667D01*
X1245761Y6689048D01*
X1293380Y6641429D01*
X1341000Y6546191D01*
X1341000Y6308096D01*
X1293380Y6212858D01*
X1245761Y6165239D01*
X1150523Y6117620D01*
X864809Y6117620D01*
X769571Y6165239D01*
X721952Y6212858D01*
X1626714Y7117620D02*
X1960047Y6117620D01*
X2293380Y7117620D01*
X2531476Y7117620D02*
X3150523Y7117620D01*
X2817190Y6736667D01*
X2960047Y6736667D01*
X3055285Y6689048D01*
X3102904Y6641429D01*
X3150523Y6546191D01*
X3150523Y6308096D01*
X3102904Y6212858D01*
X3055285Y6165239D01*
X2960047Y6117620D01*
X2674333Y6117620D01*
X2579095Y6165239D01*
X2531476Y6212858D01*
X-325715Y11578572D02*
X436190Y11578572D01*
X55238Y11197620D02*
X55238Y11959524D01*
X1388571Y12197620D02*
X912380Y12197620D01*
X864761Y11721429D01*
X912380Y11769048D01*
X1007619Y11816667D01*
X1245714Y11816667D01*
X1340952Y11769048D01*
X1388571Y11721429D01*
X1436190Y11626191D01*
X1436190Y11388096D01*
X1388571Y11292858D01*
X1340952Y11245239D01*
X1245714Y11197620D01*
X1007619Y11197620D01*
X912380Y11245239D01*
X864761Y11292858D01*
X1721904Y12197620D02*
X2055238Y11197620D01*
X2388571Y12197620D01*
X28988571Y61997620D02*
X28988571Y62997620D01*
X29560000Y61997620D01*
X29560000Y62997620D01*
X30036190Y62997620D02*
X30036190Y62188096D01*
X30083809Y62092858D01*
X30131428Y62045239D01*
X30226666Y61997620D01*
X30417142Y61997620D01*
X30512380Y62045239D01*
X30560000Y62092858D01*
X30607619Y62188096D01*
X30607619Y62997620D01*
X31655238Y62092858D02*
X31607619Y62045239D01*
X31464761Y61997620D01*
X31369523Y61997620D01*
X31226666Y62045239D01*
X31131428Y62140477D01*
X31083809Y62235715D01*
X31036190Y62426191D01*
X31036190Y62569048D01*
X31083809Y62759524D01*
X31131428Y62854762D01*
X31226666Y62950000D01*
X31369523Y62997620D01*
X31464761Y62997620D01*
X31607619Y62950000D01*
X31655238Y62902381D01*
X32560000Y61997620D02*
X32083809Y61997620D01*
X32083809Y62997620D01*
X32893333Y62521429D02*
X33226666Y62521429D01*
X33369523Y61997620D02*
X32893333Y61997620D01*
X32893333Y62997620D01*
X33369523Y62997620D01*
X33988571Y62997620D02*
X34179047Y62997620D01*
X34274285Y62950000D01*
X34369523Y62854762D01*
X34417142Y62664286D01*
X34417142Y62330953D01*
X34369523Y62140477D01*
X34274285Y62045239D01*
X34179047Y61997620D01*
X33988571Y61997620D01*
X33893333Y62045239D01*
X33798095Y62140477D01*
X33750476Y62330953D01*
X33750476Y62664286D01*
X33798095Y62854762D01*
X33893333Y62950000D01*
X33988571Y62997620D01*
X35274285Y62997620D02*
X35083809Y62997620D01*
X34988571Y62950000D01*
X34940952Y62902381D01*
X34845714Y62759524D01*
X34798095Y62569048D01*
X34798095Y62188096D01*
X34845714Y62092858D01*
X34893333Y62045239D01*
X34988571Y61997620D01*
X35179047Y61997620D01*
X35274285Y62045239D01*
X35321904Y62092858D01*
X35369523Y62188096D01*
X35369523Y62426191D01*
X35321904Y62521429D01*
X35274285Y62569048D01*
X35179047Y62616667D01*
X34988571Y62616667D01*
X34893333Y62569048D01*
X34845714Y62521429D01*
X34798095Y62426191D01*
X36226666Y62664286D02*
X36226666Y61997620D01*
X35988571Y63045239D02*
X35750476Y62330953D01*
X36369523Y62330953D01*
X37464761Y62045239D02*
X37607619Y61997620D01*
X37845714Y61997620D01*
X37940952Y62045239D01*
X37988571Y62092858D01*
X38036190Y62188096D01*
X38036190Y62283334D01*
X37988571Y62378572D01*
X37940952Y62426191D01*
X37845714Y62473810D01*
X37655238Y62521429D01*
X37560000Y62569048D01*
X37512380Y62616667D01*
X37464761Y62711905D01*
X37464761Y62807143D01*
X37512380Y62902381D01*
X37560000Y62950000D01*
X37655238Y62997620D01*
X37893333Y62997620D01*
X38036190Y62950000D01*
X38321904Y62997620D02*
X38893333Y62997620D01*
X38607619Y61997620D02*
X38607619Y62997620D01*
X39226666Y61997620D02*
X39226666Y62997620D01*
X39560000Y62283334D01*
X39893333Y62997620D01*
X39893333Y61997620D01*
X40274285Y62997620D02*
X40893333Y62997620D01*
X40560000Y62616667D01*
X40702857Y62616667D01*
X40798095Y62569048D01*
X40845714Y62521429D01*
X40893333Y62426191D01*
X40893333Y62188096D01*
X40845714Y62092858D01*
X40798095Y62045239D01*
X40702857Y61997620D01*
X40417142Y61997620D01*
X40321904Y62045239D01*
X40274285Y62092858D01*
X41274285Y62902381D02*
X41321904Y62950000D01*
X41417142Y62997620D01*
X41655238Y62997620D01*
X41750476Y62950000D01*
X41798095Y62902381D01*
X41845714Y62807143D01*
X41845714Y62711905D01*
X41798095Y62569048D01*
X41226666Y61997620D01*
X41845714Y61997620D01*
X42607619Y62521429D02*
X42274285Y62521429D01*
X42274285Y61997620D02*
X42274285Y62997620D01*
X42750476Y62997620D01*
X43560000Y62664286D02*
X43560000Y61997620D01*
X43321904Y63045239D02*
X43083809Y62330953D01*
X43702857Y62330953D01*
X44512380Y62664286D02*
X44512380Y61997620D01*
X44274285Y63045239D02*
X44036190Y62330953D01*
X44655238Y62330953D01*
X45464761Y62997620D02*
X45274285Y62997620D01*
X45179047Y62950000D01*
X45131428Y62902381D01*
X45036190Y62759524D01*
X44988571Y62569048D01*
X44988571Y62188096D01*
X45036190Y62092858D01*
X45083809Y62045239D01*
X45179047Y61997620D01*
X45369523Y61997620D01*
X45464761Y62045239D01*
X45512380Y62092858D01*
X45560000Y62188096D01*
X45560000Y62426191D01*
X45512380Y62521429D01*
X45464761Y62569048D01*
X45369523Y62616667D01*
X45179047Y62616667D01*
X45083809Y62569048D01*
X45036190Y62521429D01*
X44988571Y62426191D01*
X46560000Y61997620D02*
X46226666Y62473810D01*
X45988571Y61997620D02*
X45988571Y62997620D01*
X46369523Y62997620D01*
X46464761Y62950000D01*
X46512380Y62902381D01*
X46560000Y62807143D01*
X46560000Y62664286D01*
X46512380Y62569048D01*
X46464761Y62521429D01*
X46369523Y62473810D01*
X45988571Y62473810D01*
X46988571Y62521429D02*
X47321904Y62521429D01*
X47464761Y61997620D02*
X46988571Y61997620D01*
X46988571Y62997620D01*
X47464761Y62997620D01*
X47750476Y62997620D02*
X48321904Y62997620D01*
X48036190Y61997620D02*
X48036190Y62997620D01*
X49083809Y62997620D02*
X48893333Y62997620D01*
X48798095Y62950000D01*
X48750476Y62902381D01*
X48655238Y62759524D01*
X48607619Y62569048D01*
X48607619Y62188096D01*
X48655238Y62092858D01*
X48702857Y62045239D01*
X48798095Y61997620D01*
X48988571Y61997620D01*
X49083809Y62045239D01*
X49131428Y62092858D01*
X49179047Y62188096D01*
X49179047Y62426191D01*
X49131428Y62521429D01*
X49083809Y62569048D01*
X48988571Y62616667D01*
X48798095Y62616667D01*
X48702857Y62569048D01*
X48655238Y62521429D01*
X48607619Y62426191D01*
X97884761Y101804286D02*
X97932380Y101947143D01*
X97932380Y102185239D01*
X97884761Y102280477D01*
X97837142Y102328096D01*
X97741904Y102375715D01*
X97646666Y102375715D01*
X97551428Y102328096D01*
X97503809Y102280477D01*
X97456190Y102185239D01*
X97408571Y101994762D01*
X97360952Y101899524D01*
X97313333Y101851905D01*
X97218095Y101804286D01*
X97122857Y101804286D01*
X97027619Y101851905D01*
X96980000Y101899524D01*
X96932380Y101994762D01*
X96932380Y102232858D01*
X96980000Y102375715D01*
X97837142Y103375715D02*
X97884761Y103328096D01*
X97932380Y103185239D01*
X97932380Y103090000D01*
X97884761Y102947143D01*
X97789523Y102851905D01*
X97694285Y102804286D01*
X97503809Y102756667D01*
X97360952Y102756667D01*
X97170476Y102804286D01*
X97075238Y102851905D01*
X96980000Y102947143D01*
X96932380Y103090000D01*
X96932380Y103185239D01*
X96980000Y103328096D01*
X97027619Y103375715D01*
X97932380Y103804286D02*
X96932380Y103804286D01*
X97932380Y104375715D02*
X97360952Y103947143D01*
X96932380Y104375715D02*
X97503809Y103804286D01*
X100424761Y101875715D02*
X100472380Y102018572D01*
X100472380Y102256667D01*
X100424761Y102351905D01*
X100377142Y102399524D01*
X100281904Y102447143D01*
X100186666Y102447143D01*
X100091428Y102399524D01*
X100043809Y102351905D01*
X99996190Y102256667D01*
X99948571Y102066191D01*
X99900952Y101970953D01*
X99853333Y101923334D01*
X99758095Y101875715D01*
X99662857Y101875715D01*
X99567619Y101923334D01*
X99520000Y101970953D01*
X99472380Y102066191D01*
X99472380Y102304286D01*
X99520000Y102447143D01*
X100472380Y102875715D02*
X99472380Y102875715D01*
X99472380Y103113810D01*
X99520000Y103256667D01*
X99615238Y103351905D01*
X99710476Y103399524D01*
X99900952Y103447143D01*
X100043809Y103447143D01*
X100234285Y103399524D01*
X100329523Y103351905D01*
X100424761Y103256667D01*
X100472380Y103113810D01*
X100472380Y102875715D01*
X100186666Y103828096D02*
X100186666Y104304286D01*
X100472380Y103732858D02*
X99472380Y104066191D01*
X100472380Y104399524D01*
X92471428Y101804286D02*
X92471428Y102566191D01*
X92852380Y102185239D02*
X92090476Y102185239D01*
X91852380Y103518572D02*
X91852380Y103042381D01*
X92328571Y102994762D01*
X92280952Y103042381D01*
X92233333Y103137620D01*
X92233333Y103375715D01*
X92280952Y103470953D01*
X92328571Y103518572D01*
X92423809Y103566191D01*
X92661904Y103566191D01*
X92757142Y103518572D01*
X92804761Y103470953D01*
X92852380Y103375715D01*
X92852380Y103137620D01*
X92804761Y103042381D01*
X92757142Y102994762D01*
X91852380Y103851905D02*
X92852380Y104185239D01*
X91852380Y104518572D01*
X94440000Y102328096D02*
X94392380Y102232858D01*
X94392380Y102090000D01*
X94440000Y101947143D01*
X94535238Y101851905D01*
X94630476Y101804286D01*
X94820952Y101756667D01*
X94963809Y101756667D01*
X95154285Y101804286D01*
X95249523Y101851905D01*
X95344761Y101947143D01*
X95392380Y102090000D01*
X95392380Y102185239D01*
X95344761Y102328096D01*
X95297142Y102375715D01*
X94963809Y102375715D01*
X94963809Y102185239D01*
X95392380Y102804286D02*
X94392380Y102804286D01*
X95392380Y103375715D01*
X94392380Y103375715D01*
X95392380Y103851905D02*
X94392380Y103851905D01*
X94392380Y104090000D01*
X94440000Y104232858D01*
X94535238Y104328096D01*
X94630476Y104375715D01*
X94820952Y104423334D01*
X94963809Y104423334D01*
X95154285Y104375715D01*
X95249523Y104328096D01*
X95344761Y104232858D01*
X95392380Y104090000D01*
X95392380Y103851905D01*
X77930000Y102328096D02*
X77882380Y102232858D01*
X77882380Y102090000D01*
X77930000Y101947143D01*
X78025238Y101851905D01*
X78120476Y101804286D01*
X78310952Y101756667D01*
X78453809Y101756667D01*
X78644285Y101804286D01*
X78739523Y101851905D01*
X78834761Y101947143D01*
X78882380Y102090000D01*
X78882380Y102185239D01*
X78834761Y102328096D01*
X78787142Y102375715D01*
X78453809Y102375715D01*
X78453809Y102185239D01*
X78882380Y102804286D02*
X77882380Y102804286D01*
X78882380Y103375715D01*
X77882380Y103375715D01*
X78882380Y103851905D02*
X77882380Y103851905D01*
X77882380Y104090000D01*
X77930000Y104232858D01*
X78025238Y104328096D01*
X78120476Y104375715D01*
X78310952Y104423334D01*
X78453809Y104423334D01*
X78644285Y104375715D01*
X78739523Y104328096D01*
X78834761Y104232858D01*
X78882380Y104090000D01*
X78882380Y103851905D01*
X75961428Y101804286D02*
X75961428Y102566191D01*
X76342380Y102185239D02*
X75580476Y102185239D01*
X75342380Y103518572D02*
X75342380Y103042381D01*
X75818571Y102994762D01*
X75770952Y103042381D01*
X75723333Y103137620D01*
X75723333Y103375715D01*
X75770952Y103470953D01*
X75818571Y103518572D01*
X75913809Y103566191D01*
X76151904Y103566191D01*
X76247142Y103518572D01*
X76294761Y103470953D01*
X76342380Y103375715D01*
X76342380Y103137620D01*
X76294761Y103042381D01*
X76247142Y102994762D01*
X75342380Y103851905D02*
X76342380Y104185239D01*
X75342380Y104518572D01*
X81136666Y102851905D02*
X81136666Y103328096D01*
X81422380Y102756667D02*
X80422380Y103090000D01*
X81422380Y103423334D01*
X83438571Y103161429D02*
X83486190Y103304286D01*
X83533809Y103351905D01*
X83629047Y103399524D01*
X83771904Y103399524D01*
X83867142Y103351905D01*
X83914761Y103304286D01*
X83962380Y103209048D01*
X83962380Y102828096D01*
X82962380Y102828096D01*
X82962380Y103161429D01*
X83010000Y103256667D01*
X83057619Y103304286D01*
X83152857Y103351905D01*
X83248095Y103351905D01*
X83343333Y103304286D01*
X83390952Y103256667D01*
X83438571Y103161429D01*
X83438571Y102828096D01*
X586928Y60616429D02*
X729785Y60568810D01*
X777404Y60521191D01*
X825023Y60425953D01*
X825023Y60283096D01*
X777404Y60187858D01*
X729785Y60140239D01*
X634547Y60092620D01*
X253595Y60092620D01*
X253595Y61092620D01*
X586928Y61092620D01*
X682166Y61045000D01*
X729785Y60997381D01*
X777404Y60902143D01*
X777404Y60806905D01*
X729785Y60711667D01*
X682166Y60664048D01*
X586928Y60616429D01*
X253595Y60616429D01*
X277404Y57838334D02*
X753595Y57838334D01*
X182166Y57552620D02*
X515500Y58552620D01*
X848833Y57552620D01*
X-770215Y52853572D02*
X-8310Y52853572D01*
X-389262Y52472620D02*
X-389262Y53234524D01*
X944071Y53472620D02*
X467880Y53472620D01*
X420261Y52996429D01*
X467880Y53044048D01*
X563119Y53091667D01*
X801214Y53091667D01*
X896452Y53044048D01*
X944071Y52996429D01*
X991690Y52901191D01*
X991690Y52663096D01*
X944071Y52567858D01*
X896452Y52520239D01*
X801214Y52472620D01*
X563119Y52472620D01*
X467880Y52520239D01*
X420261Y52567858D01*
X1277404Y53472620D02*
X1610738Y52472620D01*
X1944071Y53472620D01*
X-246405Y55965000D02*
X-341643Y56012620D01*
X-484500Y56012620D01*
X-627358Y55965000D01*
X-722596Y55869762D01*
X-770215Y55774524D01*
X-817834Y55584048D01*
X-817834Y55441191D01*
X-770215Y55250715D01*
X-722596Y55155477D01*
X-627358Y55060239D01*
X-484500Y55012620D01*
X-389262Y55012620D01*
X-246405Y55060239D01*
X-198786Y55107858D01*
X-198786Y55441191D01*
X-389262Y55441191D01*
X229785Y55012620D02*
X229785Y56012620D01*
X801214Y55012620D01*
X801214Y56012620D01*
X1277404Y55012620D02*
X1277404Y56012620D01*
X1515500Y56012620D01*
X1658357Y55965000D01*
X1753595Y55869762D01*
X1801214Y55774524D01*
X1848833Y55584048D01*
X1848833Y55441191D01*
X1801214Y55250715D01*
X1753595Y55155477D01*
X1658357Y55060239D01*
X1515500Y55012620D01*
X1277404Y55012620D01*
X198095Y38820000D02*
X102857Y38867620D01*
X-40000Y38867620D01*
X-182858Y38820000D01*
X-278096Y38724762D01*
X-325715Y38629524D01*
X-373334Y38439048D01*
X-373334Y38296191D01*
X-325715Y38105715D01*
X-278096Y38010477D01*
X-182858Y37915239D01*
X-40000Y37867620D01*
X55238Y37867620D01*
X198095Y37915239D01*
X245714Y37962858D01*
X245714Y38296191D01*
X55238Y38296191D01*
X674285Y37867620D02*
X674285Y38867620D01*
X1245714Y37867620D01*
X1245714Y38867620D01*
X1721904Y37867620D02*
X1721904Y38867620D01*
X1960000Y38867620D01*
X2102857Y38820000D01*
X2198095Y38724762D01*
X2245714Y38629524D01*
X2293333Y38439048D01*
X2293333Y38296191D01*
X2245714Y38105715D01*
X2198095Y38010477D01*
X2102857Y37915239D01*
X1960000Y37867620D01*
X1721904Y37867620D01*
X-230477Y30247620D02*
X-230477Y31247620D01*
X150476Y31247620D01*
X245714Y31200000D01*
X293333Y31152381D01*
X340952Y31057143D01*
X340952Y30914286D01*
X293333Y30819048D01*
X245714Y30771429D01*
X150476Y30723810D01*
X-230477Y30723810D01*
X769523Y31247620D02*
X769523Y30438096D01*
X817142Y30342858D01*
X864761Y30295239D01*
X960000Y30247620D01*
X1150476Y30247620D01*
X1245714Y30295239D01*
X1293333Y30342858D01*
X1340952Y30438096D01*
X1340952Y31247620D01*
X2293333Y30247620D02*
X1817142Y30247620D01*
X1817142Y31247620D01*
X-40000Y32787620D02*
X-40000Y33787620D01*
X198095Y33787620D01*
X340952Y33740000D01*
X436190Y33644762D01*
X483809Y33549524D01*
X531428Y33359048D01*
X531428Y33216191D01*
X483809Y33025715D01*
X436190Y32930477D01*
X340952Y32835239D01*
X198095Y32787620D01*
X-40000Y32787620D01*
X960000Y32787620D02*
X960000Y33787620D01*
X2007619Y32787620D02*
X1674285Y33263810D01*
X1436190Y32787620D02*
X1436190Y33787620D01*
X1817142Y33787620D01*
X1912380Y33740000D01*
X1960000Y33692381D01*
X2007619Y33597143D01*
X2007619Y33454286D01*
X1960000Y33359048D01*
X1912380Y33311429D01*
X1817142Y33263810D01*
X1436190Y33263810D01*
X-206667Y35851429D02*
X126666Y35851429D01*
X269523Y35327620D02*
X-206667Y35327620D01*
X-206667Y36327620D01*
X269523Y36327620D01*
X698095Y35327620D02*
X698095Y36327620D01*
X1269523Y35327620D01*
X1269523Y36327620D01*
X1698095Y35613334D02*
X2174285Y35613334D01*
X1602857Y35327620D02*
X1936190Y36327620D01*
X2269523Y35327620D01*
X-230477Y74697620D02*
X-230477Y75697620D01*
X150476Y75697620D01*
X245714Y75650000D01*
X293333Y75602381D01*
X340952Y75507143D01*
X340952Y75364286D01*
X293333Y75269048D01*
X245714Y75221429D01*
X150476Y75173810D01*
X-230477Y75173810D01*
X769523Y75697620D02*
X769523Y74888096D01*
X817142Y74792858D01*
X864761Y74745239D01*
X960000Y74697620D01*
X1150476Y74697620D01*
X1245714Y74745239D01*
X1293333Y74792858D01*
X1340952Y74888096D01*
X1340952Y75697620D01*
X2293333Y74697620D02*
X1817142Y74697620D01*
X1817142Y75697620D01*
X-40000Y77237620D02*
X-40000Y78237620D01*
X198095Y78237620D01*
X340952Y78190000D01*
X436190Y78094762D01*
X483809Y77999524D01*
X531428Y77809048D01*
X531428Y77666191D01*
X483809Y77475715D01*
X436190Y77380477D01*
X340952Y77285239D01*
X198095Y77237620D01*
X-40000Y77237620D01*
X960000Y77237620D02*
X960000Y78237620D01*
X2007619Y77237620D02*
X1674285Y77713810D01*
X1436190Y77237620D02*
X1436190Y78237620D01*
X1817142Y78237620D01*
X1912380Y78190000D01*
X1960000Y78142381D01*
X2007619Y78047143D01*
X2007619Y77904286D01*
X1960000Y77809048D01*
X1912380Y77761429D01*
X1817142Y77713810D01*
X1436190Y77713810D01*
X-206667Y80301429D02*
X126666Y80301429D01*
X269523Y79777620D02*
X-206667Y79777620D01*
X-206667Y80777620D01*
X269523Y80777620D01*
X698095Y79777620D02*
X698095Y80777620D01*
X1269523Y79777620D01*
X1269523Y80777620D01*
X1698095Y80063334D02*
X2174285Y80063334D01*
X1602857Y79777620D02*
X1936190Y80777620D01*
X2269523Y79777620D01*
X198095Y83270000D02*
X102857Y83317620D01*
X-40000Y83317620D01*
X-182858Y83270000D01*
X-278096Y83174762D01*
X-325715Y83079524D01*
X-373334Y82889048D01*
X-373334Y82746191D01*
X-325715Y82555715D01*
X-278096Y82460477D01*
X-182858Y82365239D01*
X-40000Y82317620D01*
X55238Y82317620D01*
X198095Y82365239D01*
X245714Y82412858D01*
X245714Y82746191D01*
X55238Y82746191D01*
X674285Y82317620D02*
X674285Y83317620D01*
X1245714Y82317620D01*
X1245714Y83317620D01*
X1721904Y82317620D02*
X1721904Y83317620D01*
X1960000Y83317620D01*
X2102857Y83270000D01*
X2198095Y83174762D01*
X2245714Y83079524D01*
X2293333Y82889048D01*
X2293333Y82746191D01*
X2245714Y82555715D01*
X2198095Y82460477D01*
X2102857Y82365239D01*
X1960000Y82317620D01*
X1721904Y82317620D01*
D11*
%TO.C,R6*%
X76090000Y68788748D02*
X76090000Y69311252D01*
X77510000Y68788748D02*
X77510000Y69311252D01*
%TO.C,R1*%
X87310000Y69311252D02*
X87310000Y68788748D01*
X85890000Y69311252D02*
X85890000Y68788748D01*
%TO.C,J20*%
X105100000Y11650000D02*
X94940000Y11650000D01*
X105100000Y4030000D02*
X105100000Y11650000D01*
X94940000Y4030000D02*
X105100000Y4030000D01*
X94940000Y11650000D02*
X94940000Y4030000D01*
X94940000Y10380000D02*
X105100000Y10380000D01*
X104973000Y10380000D02*
X115133000Y10380000D01*
X104973000Y11650000D02*
X104973000Y4030000D01*
X104973000Y4030000D02*
X115133000Y4030000D01*
X115133000Y4030000D02*
X115133000Y11650000D01*
X115133000Y11650000D02*
X104973000Y11650000D01*
%TO.C,J22*%
X45156000Y99280000D02*
X34996000Y99280000D01*
X45156000Y98010000D02*
X45156000Y105630000D01*
X45156000Y105630000D02*
X34996000Y105630000D01*
X34996000Y105630000D02*
X34996000Y98010000D01*
X34996000Y98010000D02*
X45156000Y98010000D01*
D12*
%TO.C,U1*%
X25210000Y91300000D02*
X102710000Y91300000D01*
X104210000Y89800000D02*
X104210000Y22800000D01*
X102710000Y21300000D02*
X25210000Y21300000D01*
X23710000Y22800000D02*
X23710000Y43300000D01*
X23710000Y43300000D02*
X21710000Y45300000D01*
X21710000Y45300000D02*
X21710000Y78300000D01*
X21710000Y78300000D02*
X23710000Y80300000D01*
X23710000Y80300000D02*
X23710000Y89800000D01*
X73740000Y28320000D02*
X25480000Y28320000D01*
X25480000Y28320000D02*
X25480000Y23320000D01*
X25480000Y23320000D02*
X73740000Y23320000D01*
X73740000Y23320000D02*
X73740000Y28320000D01*
X73740000Y89280000D02*
X25480000Y89280000D01*
X25480000Y89280000D02*
X25480000Y84280000D01*
X25480000Y84280000D02*
X73740000Y84280000D01*
X73740000Y84280000D02*
X73740000Y89280000D01*
D13*
X72570000Y89800000D02*
G75*
G03*
X72570000Y89800000I-100000J0D01*
G01*
X72570000Y28840000D02*
G75*
G03*
X72570000Y28840000I-100000J0D01*
G01*
D12*
X23710000Y89800000D02*
G75*
G02*
X25210000Y91300000I1500000J0D01*
G01*
X25210000Y21300000D02*
G75*
G02*
X23710000Y22800000I0J1500000D01*
G01*
X104210000Y22800000D02*
G75*
G02*
X102710000Y21300000I-1500000J0D01*
G01*
X102710000Y91300000D02*
G75*
G02*
X104210000Y89800000I0J-1500000D01*
G01*
D11*
%TO.C,J21*%
X13025000Y4030000D02*
X13025000Y14190000D01*
X5405000Y4030000D02*
X13025000Y4030000D01*
X5405000Y14190000D02*
X5405000Y4030000D01*
X13025000Y14190000D02*
X5405000Y14190000D01*
X11755000Y14190000D02*
X11755000Y4030000D01*
%TO.C,J20*%
X125420000Y11650000D02*
X115260000Y11650000D01*
X125420000Y4030000D02*
X125420000Y11650000D01*
X115260000Y4030000D02*
X125420000Y4030000D01*
X115260000Y11650000D02*
X115260000Y4030000D01*
X115260000Y10380000D02*
X125420000Y10380000D01*
%TO.C,J19*%
X137600000Y45890000D02*
X146140000Y45890000D01*
X146140000Y45890000D02*
X146140000Y60610000D01*
X137600000Y60610000D02*
X146140000Y60610000D01*
X131920000Y45890000D02*
X131920000Y60610000D01*
X131920000Y45890000D02*
X133900000Y45890000D01*
X133900000Y60610000D02*
X131920000Y60610000D01*
X131040000Y49250000D02*
X131540000Y49750000D01*
X131540000Y49750000D02*
X131040000Y50250000D01*
X131040000Y50250000D02*
X131040000Y49250000D01*
%TO.C,Y1*%
X92923000Y42005000D02*
X92923000Y48405000D01*
X97973000Y42005000D02*
X97973000Y48405000D01*
X97973000Y48405000D02*
G75*
G03*
X92923000Y48405000I-2525000J0D01*
G01*
X97973000Y42005000D02*
G75*
G02*
X92923000Y42005000I-2525000J0D01*
G01*
D10*
%TO.C,U4*%
X107305000Y49995000D02*
X107305000Y49420000D01*
X113055000Y49995000D02*
X113055000Y49345000D01*
X113055000Y39345000D02*
X113055000Y39995000D01*
X107305000Y39345000D02*
X107305000Y39995000D01*
X107305000Y49995000D02*
X113055000Y49995000D01*
X107305000Y39345000D02*
X113055000Y39345000D01*
X107305000Y49420000D02*
X105705000Y49420000D01*
%TO.C,U3*%
X108105000Y65302500D02*
X108105000Y65277500D01*
X112255000Y65302500D02*
X112255000Y65197500D01*
X112255000Y55152500D02*
X112255000Y55257500D01*
X108105000Y55152500D02*
X108105000Y55257500D01*
X108105000Y65302500D02*
X112255000Y65302500D01*
X108105000Y55152500D02*
X112255000Y55152500D01*
X108105000Y65277500D02*
X106730000Y65277500D01*
%TO.C,U2*%
X75680000Y65655000D02*
X75680000Y65000000D01*
X81180000Y65655000D02*
X81180000Y64905000D01*
X81180000Y59245000D02*
X81180000Y59995000D01*
X75680000Y59245000D02*
X75680000Y59995000D01*
X75680000Y65655000D02*
X81180000Y65655000D01*
X75680000Y59245000D02*
X81180000Y59245000D01*
X75680000Y65000000D02*
X73930000Y65000000D01*
D11*
%TO.C,R5*%
X119526000Y41121252D02*
X119526000Y40598748D01*
X118106000Y41121252D02*
X118106000Y40598748D01*
%TO.C,R4*%
X117240000Y41121252D02*
X117240000Y40598748D01*
X115820000Y41121252D02*
X115820000Y40598748D01*
%TO.C,R3*%
X100580000Y48218748D02*
X100580000Y48741252D01*
X102000000Y48218748D02*
X102000000Y48741252D01*
%TO.C,R2*%
X103524000Y37946252D02*
X103524000Y37423748D01*
X102104000Y37946252D02*
X102104000Y37423748D01*
%TO.C,J18*%
X133160000Y36210000D02*
X128900000Y36210000D01*
X128900000Y36210000D02*
X128900000Y23890000D01*
X128900000Y23890000D02*
X133160000Y23890000D01*
X137260000Y36210000D02*
X145620000Y36210000D01*
X145620000Y36210000D02*
X145620000Y23890000D01*
X145620000Y23890000D02*
X137260000Y23890000D01*
X128680000Y31300000D02*
X128180000Y31800000D01*
X128180000Y31800000D02*
X128180000Y30800000D01*
X128180000Y30800000D02*
X128680000Y31300000D01*
%TO.C,J17*%
X4710000Y81500000D02*
X7370000Y81500000D01*
X4710000Y81500000D02*
X4710000Y73820000D01*
X4710000Y73820000D02*
X7370000Y73820000D01*
X7370000Y81500000D02*
X7370000Y73820000D01*
X7370000Y84100000D02*
X7370000Y82770000D01*
X6040000Y84100000D02*
X7370000Y84100000D01*
%TO.C,J16*%
X4710000Y37050000D02*
X7370000Y37050000D01*
X4710000Y37050000D02*
X4710000Y29370000D01*
X4710000Y29370000D02*
X7370000Y29370000D01*
X7370000Y37050000D02*
X7370000Y29370000D01*
X7370000Y39650000D02*
X7370000Y38320000D01*
X6040000Y39650000D02*
X7370000Y39650000D01*
%TO.C,J15*%
X7370000Y54322000D02*
X4710000Y54322000D01*
X7370000Y54322000D02*
X7370000Y62002000D01*
X7370000Y62002000D02*
X4710000Y62002000D01*
X4710000Y54322000D02*
X4710000Y62002000D01*
X4710000Y51722000D02*
X4710000Y53052000D01*
X6040000Y51722000D02*
X4710000Y51722000D01*
%TO.C,J14*%
X77160000Y96680000D02*
X77160000Y99340000D01*
X77160000Y96680000D02*
X84840000Y96680000D01*
X84840000Y96680000D02*
X84840000Y99340000D01*
X77160000Y99340000D02*
X84840000Y99340000D01*
X74560000Y99340000D02*
X75890000Y99340000D01*
X74560000Y98010000D02*
X74560000Y99340000D01*
%TO.C,J13*%
X93670000Y96680000D02*
X93670000Y99340000D01*
X93670000Y96680000D02*
X101350000Y96680000D01*
X101350000Y96680000D02*
X101350000Y99340000D01*
X93670000Y99340000D02*
X101350000Y99340000D01*
X91070000Y99340000D02*
X92400000Y99340000D01*
X91070000Y98010000D02*
X91070000Y99340000D01*
%TO.C,J12*%
X134715000Y68530000D02*
X134715000Y97010000D01*
X134715000Y97010000D02*
X144065000Y97010000D01*
X144065000Y97010000D02*
X144065000Y68530000D01*
X144065000Y68530000D02*
X134715000Y68530000D01*
X144315000Y68280000D02*
X144315000Y70820000D01*
X144315000Y68280000D02*
X141775000Y68280000D01*
%TO.C,J11*%
X127325000Y4030000D02*
X127325000Y14190000D01*
X126055000Y4030000D02*
X133675000Y4030000D01*
X133675000Y4030000D02*
X133675000Y14190000D01*
X133675000Y14190000D02*
X126055000Y14190000D01*
X126055000Y14190000D02*
X126055000Y4030000D01*
%TO.C,J10*%
X13660000Y10380000D02*
X23820000Y10380000D01*
X13660000Y11650000D02*
X13660000Y4030000D01*
X13660000Y4030000D02*
X23820000Y4030000D01*
X23820000Y4030000D02*
X23820000Y11650000D01*
X23820000Y11650000D02*
X13660000Y11650000D01*
%TO.C,J9*%
X23820000Y10380000D02*
X33980000Y10380000D01*
X23820000Y11650000D02*
X23820000Y4030000D01*
X23820000Y4030000D02*
X33980000Y4030000D01*
X33980000Y4030000D02*
X33980000Y11650000D01*
X33980000Y11650000D02*
X23820000Y11650000D01*
%TO.C,J8*%
X33980000Y10380000D02*
X44140000Y10380000D01*
X33980000Y11650000D02*
X33980000Y4030000D01*
X33980000Y4030000D02*
X44140000Y4030000D01*
X44140000Y4030000D02*
X44140000Y11650000D01*
X44140000Y11650000D02*
X33980000Y11650000D01*
%TO.C,J7*%
X44140000Y10380000D02*
X54300000Y10380000D01*
X44140000Y11650000D02*
X44140000Y4030000D01*
X44140000Y4030000D02*
X54300000Y4030000D01*
X54300000Y4030000D02*
X54300000Y11650000D01*
X54300000Y11650000D02*
X44140000Y11650000D01*
%TO.C,J6*%
X54300000Y10380000D02*
X64460000Y10380000D01*
X54300000Y11650000D02*
X54300000Y4030000D01*
X54300000Y4030000D02*
X64460000Y4030000D01*
X64460000Y4030000D02*
X64460000Y11650000D01*
X64460000Y11650000D02*
X54300000Y11650000D01*
%TO.C,J5*%
X64460000Y10380000D02*
X74620000Y10380000D01*
X64460000Y11650000D02*
X64460000Y4030000D01*
X64460000Y4030000D02*
X74620000Y4030000D01*
X74620000Y4030000D02*
X74620000Y11650000D01*
X74620000Y11650000D02*
X64460000Y11650000D01*
%TO.C,J4*%
X74620000Y10380000D02*
X84780000Y10380000D01*
X74620000Y11650000D02*
X74620000Y4030000D01*
X74620000Y4030000D02*
X84780000Y4030000D01*
X84780000Y4030000D02*
X84780000Y11650000D01*
X84780000Y11650000D02*
X74620000Y11650000D01*
%TO.C,J3*%
X84780000Y10380000D02*
X94940000Y10380000D01*
X84780000Y11650000D02*
X84780000Y4030000D01*
X84780000Y4030000D02*
X94940000Y4030000D01*
X94940000Y4030000D02*
X94940000Y11650000D01*
X94940000Y11650000D02*
X84780000Y11650000D01*
%TO.C,J2*%
X10866000Y97375000D02*
X10866000Y87215000D01*
X12136000Y97375000D02*
X4516000Y97375000D01*
X4516000Y97375000D02*
X4516000Y87215000D01*
X4516000Y87215000D02*
X12136000Y87215000D01*
X12136000Y87215000D02*
X12136000Y97375000D01*
%TO.C,J1*%
X26995000Y99153000D02*
X16835000Y99153000D01*
X26995000Y97883000D02*
X26995000Y105503000D01*
X26995000Y105503000D02*
X16835000Y105503000D01*
X16835000Y105503000D02*
X16835000Y97883000D01*
X16835000Y97883000D02*
X26995000Y97883000D01*
%TO.C,C12*%
X90629252Y47135000D02*
X90106748Y47135000D01*
X90629252Y48555000D02*
X90106748Y48555000D01*
%TO.C,C11*%
X90629252Y42055000D02*
X90106748Y42055000D01*
X90629252Y43475000D02*
X90106748Y43475000D01*
%TO.C,C10*%
X108155252Y34816000D02*
X107632748Y34816000D01*
X108155252Y36236000D02*
X107632748Y36236000D01*
%TO.C,C9*%
X112712748Y36236000D02*
X113235252Y36236000D01*
X112712748Y34816000D02*
X113235252Y34816000D01*
%TO.C,C8*%
X112712748Y38522000D02*
X113235252Y38522000D01*
X112712748Y37102000D02*
X113235252Y37102000D01*
%TO.C,C7*%
X117030748Y45189500D02*
X117553252Y45189500D01*
X117030748Y43769500D02*
X117553252Y43769500D01*
%TO.C,C6*%
X117030748Y47475500D02*
X117553252Y47475500D01*
X117030748Y46055500D02*
X117553252Y46055500D01*
%TO.C,C5*%
X101238000Y37946252D02*
X101238000Y37423748D01*
X99818000Y37946252D02*
X99818000Y37423748D01*
%TO.C,C4*%
X117748000Y63981252D02*
X117748000Y63458748D01*
X116328000Y63981252D02*
X116328000Y63458748D01*
%TO.C,C3*%
X83562000Y68792748D02*
X83562000Y69315252D01*
X84982000Y68792748D02*
X84982000Y69315252D01*
%TO.C,C2*%
X81276000Y68792748D02*
X81276000Y69315252D01*
X82696000Y68792748D02*
X82696000Y69315252D01*
%TO.C,C1*%
X102567252Y60089000D02*
X102044748Y60089000D01*
X102567252Y61509000D02*
X102044748Y61509000D01*
%TO.C,R6*%
D10*
X75602380Y68883334D02*
X75126190Y68550000D01*
X75602380Y68311905D02*
X74602380Y68311905D01*
X74602380Y68692858D01*
X74650000Y68788096D01*
X74697619Y68835715D01*
X74792857Y68883334D01*
X74935714Y68883334D01*
X75030952Y68835715D01*
X75078571Y68788096D01*
X75126190Y68692858D01*
X75126190Y68311905D01*
X74602380Y69740477D02*
X74602380Y69550000D01*
X74650000Y69454762D01*
X74697619Y69407143D01*
X74840476Y69311905D01*
X75030952Y69264286D01*
X75411904Y69264286D01*
X75507142Y69311905D01*
X75554761Y69359524D01*
X75602380Y69454762D01*
X75602380Y69645239D01*
X75554761Y69740477D01*
X75507142Y69788096D01*
X75411904Y69835715D01*
X75173809Y69835715D01*
X75078571Y69788096D01*
X75030952Y69740477D01*
X74983333Y69645239D01*
X74983333Y69454762D01*
X75030952Y69359524D01*
X75078571Y69311905D01*
X75173809Y69264286D01*
%TO.C,R1*%
X88702380Y68883334D02*
X88226190Y68550000D01*
X88702380Y68311905D02*
X87702380Y68311905D01*
X87702380Y68692858D01*
X87750000Y68788096D01*
X87797619Y68835715D01*
X87892857Y68883334D01*
X88035714Y68883334D01*
X88130952Y68835715D01*
X88178571Y68788096D01*
X88226190Y68692858D01*
X88226190Y68311905D01*
X88702380Y69835715D02*
X88702380Y69264286D01*
X88702380Y69550000D02*
X87702380Y69550000D01*
X87845238Y69454762D01*
X87940476Y69359524D01*
X87988095Y69264286D01*
%TO.C,J22*%
X47878571Y92454762D02*
X47878571Y92788096D01*
X48402380Y92930953D02*
X48402380Y92454762D01*
X47402380Y92454762D01*
X47402380Y92930953D01*
X47402380Y93264286D02*
X48402380Y93930953D01*
X47402380Y93930953D02*
X48402380Y93264286D01*
X47402380Y94169048D02*
X47402380Y94740477D01*
X48402380Y94454762D02*
X47402380Y94454762D01*
X48402380Y95835715D02*
X47402380Y95835715D01*
X47402380Y96216667D01*
X47450000Y96311905D01*
X47497619Y96359524D01*
X47592857Y96407143D01*
X47735714Y96407143D01*
X47830952Y96359524D01*
X47878571Y96311905D01*
X47926190Y96216667D01*
X47926190Y95835715D01*
X47402380Y97026191D02*
X47402380Y97216667D01*
X47450000Y97311905D01*
X47545238Y97407143D01*
X47735714Y97454762D01*
X48069047Y97454762D01*
X48259523Y97407143D01*
X48354761Y97311905D01*
X48402380Y97216667D01*
X48402380Y97026191D01*
X48354761Y96930953D01*
X48259523Y96835715D01*
X48069047Y96788096D01*
X47735714Y96788096D01*
X47545238Y96835715D01*
X47450000Y96930953D01*
X47402380Y97026191D01*
X47402380Y97788096D02*
X48402380Y98026191D01*
X47688095Y98216667D01*
X48402380Y98407143D01*
X47402380Y98645239D01*
X47878571Y99026191D02*
X47878571Y99359524D01*
X48402380Y99502381D02*
X48402380Y99026191D01*
X47402380Y99026191D01*
X47402380Y99502381D01*
X48402380Y100502381D02*
X47926190Y100169048D01*
X48402380Y99930953D02*
X47402380Y99930953D01*
X47402380Y100311905D01*
X47450000Y100407143D01*
X47497619Y100454762D01*
X47592857Y100502381D01*
X47735714Y100502381D01*
X47830952Y100454762D01*
X47878571Y100407143D01*
X47926190Y100311905D01*
X47926190Y99930953D01*
X48021428Y101692858D02*
X48021428Y102454762D01*
X48402380Y102073810D02*
X47640476Y102073810D01*
X47402380Y103407143D02*
X47402380Y102930953D01*
X47878571Y102883334D01*
X47830952Y102930953D01*
X47783333Y103026191D01*
X47783333Y103264286D01*
X47830952Y103359524D01*
X47878571Y103407143D01*
X47973809Y103454762D01*
X48211904Y103454762D01*
X48307142Y103407143D01*
X48354761Y103359524D01*
X48402380Y103264286D01*
X48402380Y103026191D01*
X48354761Y102930953D01*
X48307142Y102883334D01*
X47402380Y103740477D02*
X48402380Y104073810D01*
X47402380Y104407143D01*
X47354761Y106216667D02*
X48640476Y105359524D01*
X48402380Y107835715D02*
X48402380Y107264286D01*
X48402380Y107550000D02*
X47402380Y107550000D01*
X47545238Y107454762D01*
X47640476Y107359524D01*
X47688095Y107264286D01*
X48116666Y108216667D02*
X48116666Y108692858D01*
X48402380Y108121429D02*
X47402380Y108454762D01*
X48402380Y108788096D01*
%TO.C,U1*%
X62352380Y55538096D02*
X63161904Y55538096D01*
X63257142Y55585715D01*
X63304761Y55633334D01*
X63352380Y55728572D01*
X63352380Y55919048D01*
X63304761Y56014286D01*
X63257142Y56061905D01*
X63161904Y56109524D01*
X62352380Y56109524D01*
X63352380Y57109524D02*
X63352380Y56538096D01*
X63352380Y56823810D02*
X62352380Y56823810D01*
X62495238Y56728572D01*
X62590476Y56633334D01*
X62638095Y56538096D01*
%TO.C,J19*%
X130142380Y46990477D02*
X130856666Y46990477D01*
X130999523Y46942858D01*
X131094761Y46847620D01*
X131142380Y46704762D01*
X131142380Y46609524D01*
X131142380Y47990477D02*
X131142380Y47419048D01*
X131142380Y47704762D02*
X130142380Y47704762D01*
X130285238Y47609524D01*
X130380476Y47514286D01*
X130428095Y47419048D01*
X131142380Y48466667D02*
X131142380Y48657143D01*
X131094761Y48752381D01*
X131047142Y48800000D01*
X130904285Y48895239D01*
X130713809Y48942858D01*
X130332857Y48942858D01*
X130237619Y48895239D01*
X130190000Y48847620D01*
X130142380Y48752381D01*
X130142380Y48561905D01*
X130190000Y48466667D01*
X130237619Y48419048D01*
X130332857Y48371429D01*
X130570952Y48371429D01*
X130666190Y48419048D01*
X130713809Y48466667D01*
X130761428Y48561905D01*
X130761428Y48752381D01*
X130713809Y48847620D01*
X130666190Y48895239D01*
X130570952Y48942858D01*
%TO.C,Y1*%
X95424190Y44701810D02*
X95900380Y44701810D01*
X94900380Y44368477D02*
X95424190Y44701810D01*
X94900380Y45035143D01*
X95900380Y45892286D02*
X95900380Y45320858D01*
X95900380Y45606572D02*
X94900380Y45606572D01*
X95043238Y45511334D01*
X95138476Y45416096D01*
X95186095Y45320858D01*
%TO.C,U4*%
X109418095Y48773620D02*
X109418095Y47964096D01*
X109465714Y47868858D01*
X109513333Y47821239D01*
X109608571Y47773620D01*
X109799047Y47773620D01*
X109894285Y47821239D01*
X109941904Y47868858D01*
X109989523Y47964096D01*
X109989523Y48773620D01*
X110894285Y48440286D02*
X110894285Y47773620D01*
X110656190Y48821239D02*
X110418095Y48106953D01*
X111037142Y48106953D01*
%TO.C,U3*%
X109418095Y66775120D02*
X109418095Y65965596D01*
X109465714Y65870358D01*
X109513333Y65822739D01*
X109608571Y65775120D01*
X109799047Y65775120D01*
X109894285Y65822739D01*
X109941904Y65870358D01*
X109989523Y65965596D01*
X109989523Y66775120D01*
X110370476Y66775120D02*
X110989523Y66775120D01*
X110656190Y66394167D01*
X110799047Y66394167D01*
X110894285Y66346548D01*
X110941904Y66298929D01*
X110989523Y66203691D01*
X110989523Y65965596D01*
X110941904Y65870358D01*
X110894285Y65822739D01*
X110799047Y65775120D01*
X110513333Y65775120D01*
X110418095Y65822739D01*
X110370476Y65870358D01*
%TO.C,U2*%
X77668095Y67127620D02*
X77668095Y66318096D01*
X77715714Y66222858D01*
X77763333Y66175239D01*
X77858571Y66127620D01*
X78049047Y66127620D01*
X78144285Y66175239D01*
X78191904Y66222858D01*
X78239523Y66318096D01*
X78239523Y67127620D01*
X78668095Y67032381D02*
X78715714Y67080000D01*
X78810952Y67127620D01*
X79049047Y67127620D01*
X79144285Y67080000D01*
X79191904Y67032381D01*
X79239523Y66937143D01*
X79239523Y66841905D01*
X79191904Y66699048D01*
X78620476Y66127620D01*
X79239523Y66127620D01*
%TO.C,R5*%
X119277380Y37783334D02*
X118801190Y37450000D01*
X119277380Y37211905D02*
X118277380Y37211905D01*
X118277380Y37592858D01*
X118325000Y37688096D01*
X118372619Y37735715D01*
X118467857Y37783334D01*
X118610714Y37783334D01*
X118705952Y37735715D01*
X118753571Y37688096D01*
X118801190Y37592858D01*
X118801190Y37211905D01*
X118277380Y38688096D02*
X118277380Y38211905D01*
X118753571Y38164286D01*
X118705952Y38211905D01*
X118658333Y38307143D01*
X118658333Y38545239D01*
X118705952Y38640477D01*
X118753571Y38688096D01*
X118848809Y38735715D01*
X119086904Y38735715D01*
X119182142Y38688096D01*
X119229761Y38640477D01*
X119277380Y38545239D01*
X119277380Y38307143D01*
X119229761Y38211905D01*
X119182142Y38164286D01*
%TO.C,R4*%
X117027380Y37783334D02*
X116551190Y37450000D01*
X117027380Y37211905D02*
X116027380Y37211905D01*
X116027380Y37592858D01*
X116075000Y37688096D01*
X116122619Y37735715D01*
X116217857Y37783334D01*
X116360714Y37783334D01*
X116455952Y37735715D01*
X116503571Y37688096D01*
X116551190Y37592858D01*
X116551190Y37211905D01*
X116360714Y38640477D02*
X117027380Y38640477D01*
X115979761Y38402381D02*
X116694047Y38164286D01*
X116694047Y38783334D01*
%TO.C,R3*%
X100092380Y48313334D02*
X99616190Y47980000D01*
X100092380Y47741905D02*
X99092380Y47741905D01*
X99092380Y48122858D01*
X99140000Y48218096D01*
X99187619Y48265715D01*
X99282857Y48313334D01*
X99425714Y48313334D01*
X99520952Y48265715D01*
X99568571Y48218096D01*
X99616190Y48122858D01*
X99616190Y47741905D01*
X99092380Y48646667D02*
X99092380Y49265715D01*
X99473333Y48932381D01*
X99473333Y49075239D01*
X99520952Y49170477D01*
X99568571Y49218096D01*
X99663809Y49265715D01*
X99901904Y49265715D01*
X99997142Y49218096D01*
X100044761Y49170477D01*
X100092380Y49075239D01*
X100092380Y48789524D01*
X100044761Y48694286D01*
X99997142Y48646667D01*
%TO.C,R2*%
X103329880Y40439334D02*
X102853690Y40106000D01*
X103329880Y39867905D02*
X102329880Y39867905D01*
X102329880Y40248858D01*
X102377500Y40344096D01*
X102425119Y40391715D01*
X102520357Y40439334D01*
X102663214Y40439334D01*
X102758452Y40391715D01*
X102806071Y40344096D01*
X102853690Y40248858D01*
X102853690Y39867905D01*
X102425119Y40820286D02*
X102377500Y40867905D01*
X102329880Y40963143D01*
X102329880Y41201239D01*
X102377500Y41296477D01*
X102425119Y41344096D01*
X102520357Y41391715D01*
X102615595Y41391715D01*
X102758452Y41344096D01*
X103329880Y40772667D01*
X103329880Y41391715D01*
%TO.C,J18*%
X136450476Y39617620D02*
X136450476Y38903334D01*
X136402857Y38760477D01*
X136307619Y38665239D01*
X136164761Y38617620D01*
X136069523Y38617620D01*
X137450476Y38617620D02*
X136879047Y38617620D01*
X137164761Y38617620D02*
X137164761Y39617620D01*
X137069523Y39474762D01*
X136974285Y39379524D01*
X136879047Y39331905D01*
X138021904Y39189048D02*
X137926666Y39236667D01*
X137879047Y39284286D01*
X137831428Y39379524D01*
X137831428Y39427143D01*
X137879047Y39522381D01*
X137926666Y39570000D01*
X138021904Y39617620D01*
X138212380Y39617620D01*
X138307619Y39570000D01*
X138355238Y39522381D01*
X138402857Y39427143D01*
X138402857Y39379524D01*
X138355238Y39284286D01*
X138307619Y39236667D01*
X138212380Y39189048D01*
X138021904Y39189048D01*
X137926666Y39141429D01*
X137879047Y39093810D01*
X137831428Y38998572D01*
X137831428Y38808096D01*
X137879047Y38712858D01*
X137926666Y38665239D01*
X138021904Y38617620D01*
X138212380Y38617620D01*
X138307619Y38665239D01*
X138355238Y38712858D01*
X138402857Y38808096D01*
X138402857Y38998572D01*
X138355238Y39093810D01*
X138307619Y39141429D01*
X138212380Y39189048D01*
%TO.C,J17*%
X5230476Y86087620D02*
X5230476Y85373334D01*
X5182857Y85230477D01*
X5087619Y85135239D01*
X4944761Y85087620D01*
X4849523Y85087620D01*
X6230476Y85087620D02*
X5659047Y85087620D01*
X5944761Y85087620D02*
X5944761Y86087620D01*
X5849523Y85944762D01*
X5754285Y85849524D01*
X5659047Y85801905D01*
X6563809Y86087620D02*
X7230476Y86087620D01*
X6801904Y85087620D01*
X2063809Y70871620D02*
X2730476Y69871620D01*
X2730476Y70871620D02*
X2063809Y69871620D01*
X3825714Y69919239D02*
X3968571Y69871620D01*
X4206666Y69871620D01*
X4301904Y69919239D01*
X4349523Y69966858D01*
X4397142Y70062096D01*
X4397142Y70157334D01*
X4349523Y70252572D01*
X4301904Y70300191D01*
X4206666Y70347810D01*
X4016190Y70395429D01*
X3920952Y70443048D01*
X3873333Y70490667D01*
X3825714Y70585905D01*
X3825714Y70681143D01*
X3873333Y70776381D01*
X3920952Y70824000D01*
X4016190Y70871620D01*
X4254285Y70871620D01*
X4397142Y70824000D01*
X4682857Y70871620D02*
X5254285Y70871620D01*
X4968571Y69871620D02*
X4968571Y70871620D01*
X5587619Y70395429D02*
X5920952Y70395429D01*
X6063809Y69871620D02*
X5587619Y69871620D01*
X5587619Y70871620D01*
X6063809Y70871620D01*
X6492380Y69871620D02*
X6492380Y70871620D01*
X6873333Y70871620D01*
X6968571Y70824000D01*
X7016190Y70776381D01*
X7063809Y70681143D01*
X7063809Y70538286D01*
X7016190Y70443048D01*
X6968571Y70395429D01*
X6873333Y70347810D01*
X6492380Y70347810D01*
X7492380Y69871620D02*
X7492380Y70871620D01*
X7873333Y70871620D01*
X7968571Y70824000D01*
X8016190Y70776381D01*
X8063809Y70681143D01*
X8063809Y70538286D01*
X8016190Y70443048D01*
X7968571Y70395429D01*
X7873333Y70347810D01*
X7492380Y70347810D01*
X8492380Y70395429D02*
X8825714Y70395429D01*
X8968571Y69871620D02*
X8492380Y69871620D01*
X8492380Y70871620D01*
X8968571Y70871620D01*
X9968571Y69871620D02*
X9635238Y70347810D01*
X9397142Y69871620D02*
X9397142Y70871620D01*
X9778095Y70871620D01*
X9873333Y70824000D01*
X9920952Y70776381D01*
X9968571Y70681143D01*
X9968571Y70538286D01*
X9920952Y70443048D01*
X9873333Y70395429D01*
X9778095Y70347810D01*
X9397142Y70347810D01*
%TO.C,J16*%
X5230476Y41637620D02*
X5230476Y40923334D01*
X5182857Y40780477D01*
X5087619Y40685239D01*
X4944761Y40637620D01*
X4849523Y40637620D01*
X6230476Y40637620D02*
X5659047Y40637620D01*
X5944761Y40637620D02*
X5944761Y41637620D01*
X5849523Y41494762D01*
X5754285Y41399524D01*
X5659047Y41351905D01*
X7087619Y41637620D02*
X6897142Y41637620D01*
X6801904Y41590000D01*
X6754285Y41542381D01*
X6659047Y41399524D01*
X6611428Y41209048D01*
X6611428Y40828096D01*
X6659047Y40732858D01*
X6706666Y40685239D01*
X6801904Y40637620D01*
X6992380Y40637620D01*
X7087619Y40685239D01*
X7135238Y40732858D01*
X7182857Y40828096D01*
X7182857Y41066191D01*
X7135238Y41161429D01*
X7087619Y41209048D01*
X6992380Y41256667D01*
X6801904Y41256667D01*
X6706666Y41209048D01*
X6659047Y41161429D01*
X6611428Y41066191D01*
X2063809Y26167620D02*
X2730476Y26167620D01*
X2063809Y25167620D01*
X2730476Y25167620D01*
X3825714Y25215239D02*
X3968571Y25167620D01*
X4206666Y25167620D01*
X4301904Y25215239D01*
X4349523Y25262858D01*
X4397142Y25358096D01*
X4397142Y25453334D01*
X4349523Y25548572D01*
X4301904Y25596191D01*
X4206666Y25643810D01*
X4016190Y25691429D01*
X3920952Y25739048D01*
X3873333Y25786667D01*
X3825714Y25881905D01*
X3825714Y25977143D01*
X3873333Y26072381D01*
X3920952Y26120000D01*
X4016190Y26167620D01*
X4254285Y26167620D01*
X4397142Y26120000D01*
X4682857Y26167620D02*
X5254285Y26167620D01*
X4968571Y25167620D02*
X4968571Y26167620D01*
X5587619Y25691429D02*
X5920952Y25691429D01*
X6063809Y25167620D02*
X5587619Y25167620D01*
X5587619Y26167620D01*
X6063809Y26167620D01*
X6492380Y25167620D02*
X6492380Y26167620D01*
X6873333Y26167620D01*
X6968571Y26120000D01*
X7016190Y26072381D01*
X7063809Y25977143D01*
X7063809Y25834286D01*
X7016190Y25739048D01*
X6968571Y25691429D01*
X6873333Y25643810D01*
X6492380Y25643810D01*
X7492380Y25167620D02*
X7492380Y26167620D01*
X7873333Y26167620D01*
X7968571Y26120000D01*
X8016190Y26072381D01*
X8063809Y25977143D01*
X8063809Y25834286D01*
X8016190Y25739048D01*
X7968571Y25691429D01*
X7873333Y25643810D01*
X7492380Y25643810D01*
X8492380Y25691429D02*
X8825714Y25691429D01*
X8968571Y25167620D02*
X8492380Y25167620D01*
X8492380Y26167620D01*
X8968571Y26167620D01*
X9968571Y25167620D02*
X9635238Y25643810D01*
X9397142Y25167620D02*
X9397142Y26167620D01*
X9778095Y26167620D01*
X9873333Y26120000D01*
X9920952Y26072381D01*
X9968571Y25977143D01*
X9968571Y25834286D01*
X9920952Y25739048D01*
X9873333Y25691429D01*
X9778095Y25643810D01*
X9397142Y25643810D01*
%TO.C,J15*%
X5230476Y64267620D02*
X5230476Y63553334D01*
X5182857Y63410477D01*
X5087619Y63315239D01*
X4944761Y63267620D01*
X4849523Y63267620D01*
X6230476Y63267620D02*
X5659047Y63267620D01*
X5944761Y63267620D02*
X5944761Y64267620D01*
X5849523Y64124762D01*
X5754285Y64029524D01*
X5659047Y63981905D01*
X7135238Y64267620D02*
X6659047Y64267620D01*
X6611428Y63791429D01*
X6659047Y63839048D01*
X6754285Y63886667D01*
X6992380Y63886667D01*
X7087619Y63839048D01*
X7135238Y63791429D01*
X7182857Y63696191D01*
X7182857Y63458096D01*
X7135238Y63362858D01*
X7087619Y63315239D01*
X6992380Y63267620D01*
X6754285Y63267620D01*
X6659047Y63315239D01*
X6611428Y63362858D01*
X-698096Y47567239D02*
X-555239Y47519620D01*
X-317143Y47519620D01*
X-221905Y47567239D01*
X-174286Y47614858D01*
X-126667Y47710096D01*
X-126667Y47805334D01*
X-174286Y47900572D01*
X-221905Y47948191D01*
X-317143Y47995810D01*
X-507620Y48043429D01*
X-602858Y48091048D01*
X-650477Y48138667D01*
X-698096Y48233905D01*
X-698096Y48329143D01*
X-650477Y48424381D01*
X-602858Y48472000D01*
X-507620Y48519620D01*
X-269524Y48519620D01*
X-126667Y48472000D01*
X301904Y47519620D02*
X301904Y48519620D01*
X682857Y48519620D01*
X778095Y48472000D01*
X825714Y48424381D01*
X873333Y48329143D01*
X873333Y48186286D01*
X825714Y48091048D01*
X778095Y48043429D01*
X682857Y47995810D01*
X301904Y47995810D01*
X1301904Y47519620D02*
X1301904Y48519620D01*
X1778095Y47519620D02*
X1778095Y48519620D01*
X2349523Y47519620D01*
X2349523Y48519620D01*
X2825714Y47519620D02*
X2825714Y48519620D01*
X3063809Y48519620D01*
X3206666Y48472000D01*
X3301904Y48376762D01*
X3349523Y48281524D01*
X3397142Y48091048D01*
X3397142Y47948191D01*
X3349523Y47757715D01*
X3301904Y47662477D01*
X3206666Y47567239D01*
X3063809Y47519620D01*
X2825714Y47519620D01*
X4301904Y47519620D02*
X3825714Y47519620D01*
X3825714Y48519620D01*
X4635238Y48043429D02*
X4968571Y48043429D01*
X5111428Y47519620D02*
X4635238Y47519620D01*
X4635238Y48519620D01*
X5111428Y48519620D01*
X6301904Y48043429D02*
X6635238Y48043429D01*
X6778095Y47519620D02*
X6301904Y47519620D01*
X6301904Y48519620D01*
X6778095Y48519620D01*
X7206666Y47519620D02*
X7206666Y48519620D01*
X7778095Y47519620D01*
X7778095Y48519620D01*
X8825714Y47614858D02*
X8778095Y47567239D01*
X8635238Y47519620D01*
X8540000Y47519620D01*
X8397142Y47567239D01*
X8301904Y47662477D01*
X8254285Y47757715D01*
X8206666Y47948191D01*
X8206666Y48091048D01*
X8254285Y48281524D01*
X8301904Y48376762D01*
X8397142Y48472000D01*
X8540000Y48519620D01*
X8635238Y48519620D01*
X8778095Y48472000D01*
X8825714Y48424381D01*
X9444761Y48519620D02*
X9635238Y48519620D01*
X9730476Y48472000D01*
X9825714Y48376762D01*
X9873333Y48186286D01*
X9873333Y47852953D01*
X9825714Y47662477D01*
X9730476Y47567239D01*
X9635238Y47519620D01*
X9444761Y47519620D01*
X9349523Y47567239D01*
X9254285Y47662477D01*
X9206666Y47852953D01*
X9206666Y48186286D01*
X9254285Y48376762D01*
X9349523Y48472000D01*
X9444761Y48519620D01*
X10301904Y47519620D02*
X10301904Y48519620D01*
X10540000Y48519620D01*
X10682857Y48472000D01*
X10778095Y48376762D01*
X10825714Y48281524D01*
X10873333Y48091048D01*
X10873333Y47948191D01*
X10825714Y47757715D01*
X10778095Y47662477D01*
X10682857Y47567239D01*
X10540000Y47519620D01*
X10301904Y47519620D01*
X11301904Y48043429D02*
X11635238Y48043429D01*
X11778095Y47519620D02*
X11301904Y47519620D01*
X11301904Y48519620D01*
X11778095Y48519620D01*
X12778095Y47519620D02*
X12444761Y47995810D01*
X12206666Y47519620D02*
X12206666Y48519620D01*
X12587619Y48519620D01*
X12682857Y48472000D01*
X12730476Y48424381D01*
X12778095Y48329143D01*
X12778095Y48186286D01*
X12730476Y48091048D01*
X12682857Y48043429D01*
X12587619Y47995810D01*
X12206666Y47995810D01*
%TO.C,J14*%
X72572380Y97200477D02*
X73286666Y97200477D01*
X73429523Y97152858D01*
X73524761Y97057620D01*
X73572380Y96914762D01*
X73572380Y96819524D01*
X73572380Y98200477D02*
X73572380Y97629048D01*
X73572380Y97914762D02*
X72572380Y97914762D01*
X72715238Y97819524D01*
X72810476Y97724286D01*
X72858095Y97629048D01*
X72905714Y99057620D02*
X73572380Y99057620D01*
X72524761Y98819524D02*
X73239047Y98581429D01*
X73239047Y99200477D01*
X69992380Y93518096D02*
X68992380Y93518096D01*
X69992380Y93994286D02*
X68992380Y93994286D01*
X69992380Y94565715D01*
X68992380Y94565715D01*
X69992380Y95041905D02*
X68992380Y95041905D01*
X68992380Y95422858D01*
X69040000Y95518096D01*
X69087619Y95565715D01*
X69182857Y95613334D01*
X69325714Y95613334D01*
X69420952Y95565715D01*
X69468571Y95518096D01*
X69516190Y95422858D01*
X69516190Y95041905D01*
X68992380Y96041905D02*
X69801904Y96041905D01*
X69897142Y96089524D01*
X69944761Y96137143D01*
X69992380Y96232381D01*
X69992380Y96422858D01*
X69944761Y96518096D01*
X69897142Y96565715D01*
X69801904Y96613334D01*
X68992380Y96613334D01*
X68992380Y96946667D02*
X68992380Y97518096D01*
X69992380Y97232381D02*
X68992380Y97232381D01*
X69468571Y98613334D02*
X69468571Y98946667D01*
X69992380Y99089524D02*
X69992380Y98613334D01*
X68992380Y98613334D01*
X68992380Y99089524D01*
X69992380Y99518096D02*
X68992380Y99518096D01*
X69992380Y100089524D01*
X68992380Y100089524D01*
X69897142Y101137143D02*
X69944761Y101089524D01*
X69992380Y100946667D01*
X69992380Y100851429D01*
X69944761Y100708572D01*
X69849523Y100613334D01*
X69754285Y100565715D01*
X69563809Y100518096D01*
X69420952Y100518096D01*
X69230476Y100565715D01*
X69135238Y100613334D01*
X69040000Y100708572D01*
X68992380Y100851429D01*
X68992380Y100946667D01*
X69040000Y101089524D01*
X69087619Y101137143D01*
X68992380Y101756191D02*
X68992380Y101946667D01*
X69040000Y102041905D01*
X69135238Y102137143D01*
X69325714Y102184762D01*
X69659047Y102184762D01*
X69849523Y102137143D01*
X69944761Y102041905D01*
X69992380Y101946667D01*
X69992380Y101756191D01*
X69944761Y101660953D01*
X69849523Y101565715D01*
X69659047Y101518096D01*
X69325714Y101518096D01*
X69135238Y101565715D01*
X69040000Y101660953D01*
X68992380Y101756191D01*
X69992380Y102613334D02*
X68992380Y102613334D01*
X68992380Y102851429D01*
X69040000Y102994286D01*
X69135238Y103089524D01*
X69230476Y103137143D01*
X69420952Y103184762D01*
X69563809Y103184762D01*
X69754285Y103137143D01*
X69849523Y103089524D01*
X69944761Y102994286D01*
X69992380Y102851429D01*
X69992380Y102613334D01*
X69468571Y103613334D02*
X69468571Y103946667D01*
X69992380Y104089524D02*
X69992380Y103613334D01*
X68992380Y103613334D01*
X68992380Y104089524D01*
X69992380Y105089524D02*
X69516190Y104756191D01*
X69992380Y104518096D02*
X68992380Y104518096D01*
X68992380Y104899048D01*
X69040000Y104994286D01*
X69087619Y105041905D01*
X69182857Y105089524D01*
X69325714Y105089524D01*
X69420952Y105041905D01*
X69468571Y104994286D01*
X69516190Y104899048D01*
X69516190Y104518096D01*
%TO.C,J13*%
X89082380Y97200477D02*
X89796666Y97200477D01*
X89939523Y97152858D01*
X90034761Y97057620D01*
X90082380Y96914762D01*
X90082380Y96819524D01*
X90082380Y98200477D02*
X90082380Y97629048D01*
X90082380Y97914762D02*
X89082380Y97914762D01*
X89225238Y97819524D01*
X89320476Y97724286D01*
X89368095Y97629048D01*
X89082380Y98533810D02*
X89082380Y99152858D01*
X89463333Y98819524D01*
X89463333Y98962381D01*
X89510952Y99057620D01*
X89558571Y99105239D01*
X89653809Y99152858D01*
X89891904Y99152858D01*
X89987142Y99105239D01*
X90034761Y99057620D01*
X90082380Y98962381D01*
X90082380Y98676667D01*
X90034761Y98581429D01*
X89987142Y98533810D01*
X105552380Y95438572D02*
X104552380Y95438572D01*
X105552380Y96010000D02*
X104980952Y95581429D01*
X104552380Y96010000D02*
X105123809Y95438572D01*
X105028571Y96438572D02*
X105028571Y96771905D01*
X105552380Y96914762D02*
X105552380Y96438572D01*
X104552380Y96438572D01*
X104552380Y96914762D01*
X105076190Y97533810D02*
X105552380Y97533810D01*
X104552380Y97200477D02*
X105076190Y97533810D01*
X104552380Y97867143D01*
X105552380Y98200477D02*
X104552380Y98200477D01*
X104552380Y98581429D01*
X104600000Y98676667D01*
X104647619Y98724286D01*
X104742857Y98771905D01*
X104885714Y98771905D01*
X104980952Y98724286D01*
X105028571Y98676667D01*
X105076190Y98581429D01*
X105076190Y98200477D01*
X105266666Y99152858D02*
X105266666Y99629048D01*
X105552380Y99057620D02*
X104552380Y99390953D01*
X105552380Y99724286D01*
X105552380Y100057620D02*
X104552380Y100057620D01*
X104552380Y100295715D01*
X104600000Y100438572D01*
X104695238Y100533810D01*
X104790476Y100581429D01*
X104980952Y100629048D01*
X105123809Y100629048D01*
X105314285Y100581429D01*
X105409523Y100533810D01*
X105504761Y100438572D01*
X105552380Y100295715D01*
X105552380Y100057620D01*
%TO.C,J12*%
X138580476Y67823620D02*
X138580476Y67109334D01*
X138532857Y66966477D01*
X138437619Y66871239D01*
X138294761Y66823620D01*
X138199523Y66823620D01*
X139580476Y66823620D02*
X139009047Y66823620D01*
X139294761Y66823620D02*
X139294761Y67823620D01*
X139199523Y67680762D01*
X139104285Y67585524D01*
X139009047Y67537905D01*
X139961428Y67728381D02*
X140009047Y67776000D01*
X140104285Y67823620D01*
X140342380Y67823620D01*
X140437619Y67776000D01*
X140485238Y67728381D01*
X140532857Y67633143D01*
X140532857Y67537905D01*
X140485238Y67395048D01*
X139913809Y66823620D01*
X140532857Y66823620D01*
X129682380Y80809524D02*
X129682380Y80333334D01*
X128682380Y80333334D01*
X129587142Y81714286D02*
X129634761Y81666667D01*
X129682380Y81523810D01*
X129682380Y81428572D01*
X129634761Y81285715D01*
X129539523Y81190477D01*
X129444285Y81142858D01*
X129253809Y81095239D01*
X129110952Y81095239D01*
X128920476Y81142858D01*
X128825238Y81190477D01*
X128730000Y81285715D01*
X128682380Y81428572D01*
X128682380Y81523810D01*
X128730000Y81666667D01*
X128777619Y81714286D01*
X129682380Y82142858D02*
X128682380Y82142858D01*
X128682380Y82380953D01*
X128730000Y82523810D01*
X128825238Y82619048D01*
X128920476Y82666667D01*
X129110952Y82714286D01*
X129253809Y82714286D01*
X129444285Y82666667D01*
X129539523Y82619048D01*
X129634761Y82523810D01*
X129682380Y82380953D01*
X129682380Y82142858D01*
%TO.C,C12*%
X89725142Y45837858D02*
X89677523Y45790239D01*
X89534666Y45742620D01*
X89439428Y45742620D01*
X89296571Y45790239D01*
X89201333Y45885477D01*
X89153714Y45980715D01*
X89106095Y46171191D01*
X89106095Y46314048D01*
X89153714Y46504524D01*
X89201333Y46599762D01*
X89296571Y46695000D01*
X89439428Y46742620D01*
X89534666Y46742620D01*
X89677523Y46695000D01*
X89725142Y46647381D01*
X90677523Y45742620D02*
X90106095Y45742620D01*
X90391809Y45742620D02*
X90391809Y46742620D01*
X90296571Y46599762D01*
X90201333Y46504524D01*
X90106095Y46456905D01*
X91058476Y46647381D02*
X91106095Y46695000D01*
X91201333Y46742620D01*
X91439428Y46742620D01*
X91534666Y46695000D01*
X91582285Y46647381D01*
X91629904Y46552143D01*
X91629904Y46456905D01*
X91582285Y46314048D01*
X91010857Y45742620D01*
X91629904Y45742620D01*
%TO.C,C11*%
X89725142Y40757858D02*
X89677523Y40710239D01*
X89534666Y40662620D01*
X89439428Y40662620D01*
X89296571Y40710239D01*
X89201333Y40805477D01*
X89153714Y40900715D01*
X89106095Y41091191D01*
X89106095Y41234048D01*
X89153714Y41424524D01*
X89201333Y41519762D01*
X89296571Y41615000D01*
X89439428Y41662620D01*
X89534666Y41662620D01*
X89677523Y41615000D01*
X89725142Y41567381D01*
X90677523Y40662620D02*
X90106095Y40662620D01*
X90391809Y40662620D02*
X90391809Y41662620D01*
X90296571Y41519762D01*
X90201333Y41424524D01*
X90106095Y41376905D01*
X91629904Y40662620D02*
X91058476Y40662620D01*
X91344190Y40662620D02*
X91344190Y41662620D01*
X91248952Y41519762D01*
X91153714Y41424524D01*
X91058476Y41376905D01*
%TO.C,C10*%
X105711142Y34883143D02*
X105758761Y34835524D01*
X105806380Y34692667D01*
X105806380Y34597429D01*
X105758761Y34454572D01*
X105663523Y34359334D01*
X105568285Y34311715D01*
X105377809Y34264096D01*
X105234952Y34264096D01*
X105044476Y34311715D01*
X104949238Y34359334D01*
X104854000Y34454572D01*
X104806380Y34597429D01*
X104806380Y34692667D01*
X104854000Y34835524D01*
X104901619Y34883143D01*
X105806380Y35835524D02*
X105806380Y35264096D01*
X105806380Y35549810D02*
X104806380Y35549810D01*
X104949238Y35454572D01*
X105044476Y35359334D01*
X105092095Y35264096D01*
X104806380Y36454572D02*
X104806380Y36549810D01*
X104854000Y36645048D01*
X104901619Y36692667D01*
X104996857Y36740286D01*
X105187333Y36787905D01*
X105425428Y36787905D01*
X105615904Y36740286D01*
X105711142Y36692667D01*
X105758761Y36645048D01*
X105806380Y36549810D01*
X105806380Y36454572D01*
X105758761Y36359334D01*
X105711142Y36311715D01*
X105615904Y36264096D01*
X105425428Y36216477D01*
X105187333Y36216477D01*
X104996857Y36264096D01*
X104901619Y36311715D01*
X104854000Y36359334D01*
X104806380Y36454572D01*
%TO.C,C9*%
X112783333Y33317858D02*
X112735714Y33270239D01*
X112592857Y33222620D01*
X112497619Y33222620D01*
X112354761Y33270239D01*
X112259523Y33365477D01*
X112211904Y33460715D01*
X112164285Y33651191D01*
X112164285Y33794048D01*
X112211904Y33984524D01*
X112259523Y34079762D01*
X112354761Y34175000D01*
X112497619Y34222620D01*
X112592857Y34222620D01*
X112735714Y34175000D01*
X112783333Y34127381D01*
X113259523Y33222620D02*
X113450000Y33222620D01*
X113545238Y33270239D01*
X113592857Y33317858D01*
X113688095Y33460715D01*
X113735714Y33651191D01*
X113735714Y34032143D01*
X113688095Y34127381D01*
X113640476Y34175000D01*
X113545238Y34222620D01*
X113354761Y34222620D01*
X113259523Y34175000D01*
X113211904Y34127381D01*
X113164285Y34032143D01*
X113164285Y33794048D01*
X113211904Y33698810D01*
X113259523Y33651191D01*
X113354761Y33603572D01*
X113545238Y33603572D01*
X113640476Y33651191D01*
X113688095Y33698810D01*
X113735714Y33794048D01*
%TO.C,C8*%
X110582142Y37608334D02*
X110629761Y37560715D01*
X110677380Y37417858D01*
X110677380Y37322620D01*
X110629761Y37179762D01*
X110534523Y37084524D01*
X110439285Y37036905D01*
X110248809Y36989286D01*
X110105952Y36989286D01*
X109915476Y37036905D01*
X109820238Y37084524D01*
X109725000Y37179762D01*
X109677380Y37322620D01*
X109677380Y37417858D01*
X109725000Y37560715D01*
X109772619Y37608334D01*
X110105952Y38179762D02*
X110058333Y38084524D01*
X110010714Y38036905D01*
X109915476Y37989286D01*
X109867857Y37989286D01*
X109772619Y38036905D01*
X109725000Y38084524D01*
X109677380Y38179762D01*
X109677380Y38370239D01*
X109725000Y38465477D01*
X109772619Y38513096D01*
X109867857Y38560715D01*
X109915476Y38560715D01*
X110010714Y38513096D01*
X110058333Y38465477D01*
X110105952Y38370239D01*
X110105952Y38179762D01*
X110153571Y38084524D01*
X110201190Y38036905D01*
X110296428Y37989286D01*
X110486904Y37989286D01*
X110582142Y38036905D01*
X110629761Y38084524D01*
X110677380Y38179762D01*
X110677380Y38370239D01*
X110629761Y38465477D01*
X110582142Y38513096D01*
X110486904Y38560715D01*
X110296428Y38560715D01*
X110201190Y38513096D01*
X110153571Y38465477D01*
X110105952Y38370239D01*
%TO.C,C7*%
D14*
X119978571Y44391667D02*
X120002380Y44367858D01*
X120026190Y44296429D01*
X120026190Y44248810D01*
X120002380Y44177381D01*
X119954761Y44129762D01*
X119907142Y44105953D01*
X119811904Y44082143D01*
X119740476Y44082143D01*
X119645238Y44105953D01*
X119597619Y44129762D01*
X119550000Y44177381D01*
X119526190Y44248810D01*
X119526190Y44296429D01*
X119550000Y44367858D01*
X119573809Y44391667D01*
X119526190Y44558334D02*
X119526190Y44891667D01*
X120026190Y44677381D01*
%TO.C,C6*%
X119928571Y46666667D02*
X119952380Y46642858D01*
X119976190Y46571429D01*
X119976190Y46523810D01*
X119952380Y46452381D01*
X119904761Y46404762D01*
X119857142Y46380953D01*
X119761904Y46357143D01*
X119690476Y46357143D01*
X119595238Y46380953D01*
X119547619Y46404762D01*
X119500000Y46452381D01*
X119476190Y46523810D01*
X119476190Y46571429D01*
X119500000Y46642858D01*
X119523809Y46666667D01*
X119476190Y47095239D02*
X119476190Y47000000D01*
X119500000Y46952381D01*
X119523809Y46928572D01*
X119595238Y46880953D01*
X119690476Y46857143D01*
X119880952Y46857143D01*
X119928571Y46880953D01*
X119952380Y46904762D01*
X119976190Y46952381D01*
X119976190Y47047620D01*
X119952380Y47095239D01*
X119928571Y47119048D01*
X119880952Y47142858D01*
X119761904Y47142858D01*
X119714285Y47119048D01*
X119690476Y47095239D01*
X119666666Y47047620D01*
X119666666Y46952381D01*
X119690476Y46904762D01*
X119714285Y46880953D01*
X119761904Y46857143D01*
%TO.C,C5*%
D10*
X100948642Y40502834D02*
X100996261Y40455215D01*
X101043880Y40312358D01*
X101043880Y40217120D01*
X100996261Y40074262D01*
X100901023Y39979024D01*
X100805785Y39931405D01*
X100615309Y39883786D01*
X100472452Y39883786D01*
X100281976Y39931405D01*
X100186738Y39979024D01*
X100091500Y40074262D01*
X100043880Y40217120D01*
X100043880Y40312358D01*
X100091500Y40455215D01*
X100139119Y40502834D01*
X100043880Y41407596D02*
X100043880Y40931405D01*
X100520071Y40883786D01*
X100472452Y40931405D01*
X100424833Y41026643D01*
X100424833Y41264739D01*
X100472452Y41359977D01*
X100520071Y41407596D01*
X100615309Y41455215D01*
X100853404Y41455215D01*
X100948642Y41407596D01*
X100996261Y41359977D01*
X101043880Y41264739D01*
X101043880Y41026643D01*
X100996261Y40931405D01*
X100948642Y40883786D01*
%TO.C,C4*%
X119045142Y63553334D02*
X119092761Y63505715D01*
X119140380Y63362858D01*
X119140380Y63267620D01*
X119092761Y63124762D01*
X118997523Y63029524D01*
X118902285Y62981905D01*
X118711809Y62934286D01*
X118568952Y62934286D01*
X118378476Y62981905D01*
X118283238Y63029524D01*
X118188000Y63124762D01*
X118140380Y63267620D01*
X118140380Y63362858D01*
X118188000Y63505715D01*
X118235619Y63553334D01*
X118473714Y64410477D02*
X119140380Y64410477D01*
X118092761Y64172381D02*
X118807047Y63934286D01*
X118807047Y64553334D01*
%TO.C,C3*%
X84105333Y66156858D02*
X84057714Y66109239D01*
X83914857Y66061620D01*
X83819619Y66061620D01*
X83676761Y66109239D01*
X83581523Y66204477D01*
X83533904Y66299715D01*
X83486285Y66490191D01*
X83486285Y66633048D01*
X83533904Y66823524D01*
X83581523Y66918762D01*
X83676761Y67014000D01*
X83819619Y67061620D01*
X83914857Y67061620D01*
X84057714Y67014000D01*
X84105333Y66966381D01*
X84438666Y67061620D02*
X85057714Y67061620D01*
X84724380Y66680667D01*
X84867238Y66680667D01*
X84962476Y66633048D01*
X85010095Y66585429D01*
X85057714Y66490191D01*
X85057714Y66252096D01*
X85010095Y66156858D01*
X84962476Y66109239D01*
X84867238Y66061620D01*
X84581523Y66061620D01*
X84486285Y66109239D01*
X84438666Y66156858D01*
%TO.C,C2*%
X81819333Y66156858D02*
X81771714Y66109239D01*
X81628857Y66061620D01*
X81533619Y66061620D01*
X81390761Y66109239D01*
X81295523Y66204477D01*
X81247904Y66299715D01*
X81200285Y66490191D01*
X81200285Y66633048D01*
X81247904Y66823524D01*
X81295523Y66918762D01*
X81390761Y67014000D01*
X81533619Y67061620D01*
X81628857Y67061620D01*
X81771714Y67014000D01*
X81819333Y66966381D01*
X82200285Y66966381D02*
X82247904Y67014000D01*
X82343142Y67061620D01*
X82581238Y67061620D01*
X82676476Y67014000D01*
X82724095Y66966381D01*
X82771714Y66871143D01*
X82771714Y66775905D01*
X82724095Y66633048D01*
X82152666Y66061620D01*
X82771714Y66061620D01*
%TO.C,C1*%
X102139333Y58791858D02*
X102091714Y58744239D01*
X101948857Y58696620D01*
X101853619Y58696620D01*
X101710761Y58744239D01*
X101615523Y58839477D01*
X101567904Y58934715D01*
X101520285Y59125191D01*
X101520285Y59268048D01*
X101567904Y59458524D01*
X101615523Y59553762D01*
X101710761Y59649000D01*
X101853619Y59696620D01*
X101948857Y59696620D01*
X102091714Y59649000D01*
X102139333Y59601381D01*
X103091714Y58696620D02*
X102520285Y58696620D01*
X102806000Y58696620D02*
X102806000Y59696620D01*
X102710761Y59553762D01*
X102615523Y59458524D01*
X102520285Y59410905D01*
%TD*%
M02*
