%TF.GenerationSoftware,KiCad,Pcbnew,5.99.0+really5.1.10+dfsg1-1*%
%TF.CreationDate,2022-01-03T15:11:42+11:00*%
%TF.ProjectId,els,656c732e-6b69-4636-9164-5f7063625858,v0.1*%
%TF.SameCoordinates,PX3938700PY8a48640*%
%TF.FileFunction,Soldermask,Bot*%
%TF.FilePolarity,Negative*%
%FSLAX46Y46*%
G04 Gerber Fmt 4.6, Leading zero omitted, Abs format (unit mm)*
G04 Created by KiCad (PCBNEW 5.99.0+really5.1.10+dfsg1-1) date 2022-01-03 15:11:42*
%MOMM*%
%LPD*%
G01*
G04 APERTURE LIST*
%ADD10C,3.000000*%
%ADD11R,3.000000X3.000000*%
%ADD12C,1.530000*%
%ADD13C,6.400000*%
%ADD14C,1.524000*%
%ADD15R,1.524000X1.524000*%
%ADD16C,3.500000*%
%ADD17C,1.500000*%
%ADD18C,1.700000*%
%ADD19R,1.700000X1.700000*%
%ADD20O,1.700000X1.700000*%
%ADD21O,1.727200X1.727200*%
%ADD22C,1.727200*%
G04 APERTURE END LIST*
D10*
%TO.C,J20*%
X97480000Y7840000D03*
X102560000Y7840000D03*
%TD*%
%TO.C,J20*%
X112593000Y7840000D03*
X107513000Y7840000D03*
%TD*%
D11*
%TO.C,J22*%
X42616000Y101820000D03*
D10*
X37536000Y101820000D03*
%TD*%
D12*
%TO.C,U1*%
X26750000Y24550000D03*
X29290000Y24550000D03*
X29290000Y27090000D03*
X31830000Y24550000D03*
X31830000Y27090000D03*
X34370000Y24550000D03*
X34370000Y27090000D03*
X36910000Y24550000D03*
X36910000Y27090000D03*
X39450000Y24550000D03*
X39450000Y27090000D03*
X41990000Y24550000D03*
X41990000Y27090000D03*
X44530000Y24550000D03*
X44530000Y27090000D03*
X47070000Y24550000D03*
X47070000Y27090000D03*
X49610000Y24550000D03*
X49610000Y27090000D03*
X52150000Y24550000D03*
X52150000Y27090000D03*
X54690000Y24550000D03*
X54690000Y27090000D03*
X57230000Y24550000D03*
X57230000Y27090000D03*
X59770000Y24550000D03*
X59770000Y27090000D03*
X62310000Y24550000D03*
X62310000Y27090000D03*
X64850000Y24550000D03*
X64850000Y27090000D03*
X67390000Y24550000D03*
X67390000Y27090000D03*
X69930000Y24550000D03*
X69930000Y27090000D03*
X72470000Y24550000D03*
X26750000Y27090000D03*
X72470000Y27090000D03*
X26750000Y85510000D03*
X29290000Y85510000D03*
X29290000Y88050000D03*
X31830000Y85510000D03*
X31830000Y88050000D03*
X34370000Y85510000D03*
X34370000Y88050000D03*
X36910000Y85510000D03*
X36910000Y88050000D03*
X39450000Y85510000D03*
X39450000Y88050000D03*
X41990000Y85510000D03*
X41990000Y88050000D03*
X44530000Y85510000D03*
X44530000Y88050000D03*
X47070000Y85510000D03*
X47070000Y88050000D03*
X49610000Y85510000D03*
X49610000Y88050000D03*
X52150000Y85510000D03*
X52150000Y88050000D03*
X54690000Y85510000D03*
X54690000Y88050000D03*
X57230000Y85510000D03*
X57230000Y88050000D03*
X59770000Y85510000D03*
X59770000Y88050000D03*
X62310000Y85510000D03*
X62310000Y88050000D03*
X64850000Y85510000D03*
X64850000Y88050000D03*
X67390000Y85510000D03*
X67390000Y88050000D03*
X69930000Y85510000D03*
X69930000Y88050000D03*
X72470000Y85510000D03*
X26750000Y88050000D03*
X72470000Y88050000D03*
%TD*%
D13*
%TO.C,REF\u002A\u002A*%
X0Y0D03*
%TD*%
%TO.C,REF\u002A\u002A*%
X140000000Y0D03*
%TD*%
%TO.C,REF\u002A\u002A*%
X140000000Y105000000D03*
%TD*%
%TO.C,REF\u002A\u002A*%
X0Y105000000D03*
%TD*%
D11*
%TO.C,J21*%
X9215000Y11650000D03*
X9215000Y6570000D03*
%TD*%
D10*
%TO.C,J20*%
X117800000Y7840000D03*
X122880000Y7840000D03*
%TD*%
D14*
%TO.C,J19*%
X133040000Y56750000D03*
X133040000Y54250000D03*
X133040000Y52250000D03*
D15*
X133040000Y49750000D03*
D16*
X135750000Y46680000D03*
X135750000Y59820000D03*
%TD*%
D17*
%TO.C,Y1*%
X95448000Y47645000D03*
X95448000Y42765000D03*
%TD*%
D16*
%TO.C,J18*%
X135210000Y24030000D03*
X135210000Y36070000D03*
D18*
X132500000Y31300000D03*
X132500000Y28800000D03*
X130500000Y28800000D03*
D19*
X130500000Y31300000D03*
%TD*%
D20*
%TO.C,J17*%
X6040000Y75150000D03*
X6040000Y77690000D03*
X6040000Y80230000D03*
D18*
X6040000Y82770000D03*
%TD*%
D20*
%TO.C,J16*%
X6040000Y30700000D03*
X6040000Y33240000D03*
X6040000Y35780000D03*
D18*
X6040000Y38320000D03*
%TD*%
D20*
%TO.C,J15*%
X6040000Y60672000D03*
X6040000Y58132000D03*
X6040000Y55592000D03*
D19*
X6040000Y53052000D03*
%TD*%
D20*
%TO.C,J14*%
X83510000Y98010000D03*
X80970000Y98010000D03*
X78430000Y98010000D03*
D19*
X75890000Y98010000D03*
%TD*%
D20*
%TO.C,J13*%
X100020000Y98010000D03*
X97480000Y98010000D03*
X94940000Y98010000D03*
D19*
X92400000Y98010000D03*
%TD*%
D21*
%TO.C,J12*%
X138120000Y91660000D03*
X140660000Y91660000D03*
X138120000Y89120000D03*
X140660000Y89120000D03*
X138120000Y86580000D03*
X140660000Y86580000D03*
X138120000Y84040000D03*
X140660000Y84040000D03*
X138120000Y81500000D03*
X140660000Y81500000D03*
X138120000Y78960000D03*
X140660000Y78960000D03*
X138120000Y76420000D03*
X140660000Y76420000D03*
X138120000Y73880000D03*
D22*
X140660000Y73880000D03*
%TD*%
D11*
%TO.C,J11*%
X129865000Y6570000D03*
X129865000Y11650000D03*
%TD*%
D10*
%TO.C,J10*%
X16200000Y7840000D03*
X21280000Y7840000D03*
%TD*%
%TO.C,J9*%
X26360000Y7840000D03*
X31440000Y7840000D03*
%TD*%
%TO.C,J8*%
X36520000Y7840000D03*
X41600000Y7840000D03*
%TD*%
%TO.C,J7*%
X46680000Y7840000D03*
X51760000Y7840000D03*
%TD*%
%TO.C,J6*%
X56840000Y7840000D03*
X61920000Y7840000D03*
%TD*%
%TO.C,J5*%
X67000000Y7840000D03*
X72080000Y7840000D03*
%TD*%
%TO.C,J4*%
X77160000Y7840000D03*
X82240000Y7840000D03*
%TD*%
%TO.C,J3*%
X87320000Y7840000D03*
X92400000Y7840000D03*
%TD*%
%TO.C,J2*%
X8326000Y94835000D03*
X8326000Y89755000D03*
%TD*%
%TO.C,J1*%
X24455000Y101693000D03*
X19375000Y101693000D03*
%TD*%
M02*
