%TF.GenerationSoftware,KiCad,Pcbnew,5.99.0+really5.1.10+dfsg1-1*%
%TF.CreationDate,2022-01-03T15:11:42+11:00*%
%TF.ProjectId,els,656c732e-6b69-4636-9164-5f7063625858,v0.1*%
%TF.SameCoordinates,PX3938700PY8a48640*%
%TF.FileFunction,Copper,L2,Bot*%
%TF.FilePolarity,Positive*%
%FSLAX46Y46*%
G04 Gerber Fmt 4.6, Leading zero omitted, Abs format (unit mm)*
G04 Created by KiCad (PCBNEW 5.99.0+really5.1.10+dfsg1-1) date 2022-01-03 15:11:42*
%MOMM*%
%LPD*%
G01*
G04 APERTURE LIST*
%TA.AperFunction,ComponentPad*%
%ADD10C,3.000000*%
%TD*%
%TA.AperFunction,ComponentPad*%
%ADD11R,3.000000X3.000000*%
%TD*%
%TA.AperFunction,ComponentPad*%
%ADD12C,1.530000*%
%TD*%
%TA.AperFunction,ComponentPad*%
%ADD13C,6.400000*%
%TD*%
%TA.AperFunction,ComponentPad*%
%ADD14C,1.524000*%
%TD*%
%TA.AperFunction,ComponentPad*%
%ADD15R,1.524000X1.524000*%
%TD*%
%TA.AperFunction,ComponentPad*%
%ADD16C,3.500000*%
%TD*%
%TA.AperFunction,ComponentPad*%
%ADD17C,1.500000*%
%TD*%
%TA.AperFunction,ComponentPad*%
%ADD18C,1.700000*%
%TD*%
%TA.AperFunction,ComponentPad*%
%ADD19R,1.700000X1.700000*%
%TD*%
%TA.AperFunction,ComponentPad*%
%ADD20O,1.700000X1.700000*%
%TD*%
%TA.AperFunction,ComponentPad*%
%ADD21O,1.727200X1.727200*%
%TD*%
%TA.AperFunction,ComponentPad*%
%ADD22C,1.727200*%
%TD*%
%TA.AperFunction,ViaPad*%
%ADD23C,0.762000*%
%TD*%
%TA.AperFunction,Conductor*%
%ADD24C,0.762000*%
%TD*%
%TA.AperFunction,Conductor*%
%ADD25C,0.203200*%
%TD*%
%TA.AperFunction,Conductor*%
%ADD26C,0.254000*%
%TD*%
%TA.AperFunction,Conductor*%
%ADD27C,0.050000*%
%TD*%
G04 APERTURE END LIST*
D10*
%TO.P,J20,2*%
%TO.N,GND*%
X97480000Y7840000D03*
%TO.P,J20,1*%
X102560000Y7840000D03*
%TD*%
%TO.P,J20,1*%
%TO.N,GND*%
X112593000Y7840000D03*
%TO.P,J20,2*%
X107513000Y7840000D03*
%TD*%
D11*
%TO.P,J22,2*%
%TO.N,+5V*%
X42616000Y101820000D03*
D10*
%TO.P,J22,1*%
%TO.N,GND*%
X37536000Y101820000D03*
%TD*%
D12*
%TO.P,U1,CN10_38*%
%TO.N,N/C*%
X26750000Y24550000D03*
%TO.P,U1,CN10_36*%
X29290000Y24550000D03*
%TO.P,U1,CN10_35*%
%TO.N,PA2*%
X29290000Y27090000D03*
%TO.P,U1,CN10_34*%
%TO.N,KP-CLK*%
X31830000Y24550000D03*
%TO.P,U1,CN10_33*%
%TO.N,USART1-RX*%
X31830000Y27090000D03*
%TO.P,U1,CN10_32*%
%TO.N,Net-(U1-PadCN10_32)*%
X34370000Y24550000D03*
%TO.P,U1,CN10_31*%
%TO.N,S-ENC-B*%
X34370000Y27090000D03*
%TO.P,U1,CN10_30*%
%TO.N,Z-ENA*%
X36910000Y24550000D03*
%TO.P,U1,CN10_29*%
%TO.N,PB5*%
X36910000Y27090000D03*
%TO.P,U1,CN10_28*%
%TO.N,Z-DIR*%
X39450000Y24550000D03*
%TO.P,U1,CN10_27*%
%TO.N,S-ENC-A*%
X39450000Y27090000D03*
%TO.P,U1,CN10_26*%
%TO.N,Z-PUL*%
X41990000Y24550000D03*
%TO.P,U1,CN10_25*%
%TO.N,SCL2*%
X41990000Y27090000D03*
%TO.P,U1,CN10_24*%
%TO.N,PB1*%
X44530000Y24550000D03*
%TO.P,U1,CN10_23*%
%TO.N,PA8*%
X44530000Y27090000D03*
%TO.P,U1,CN10_22*%
%TO.N,PB2*%
X47070000Y24550000D03*
%TO.P,U1,CN10_21*%
%TO.N,USART1-TX*%
X47070000Y27090000D03*
%TO.P,U1,CN10_20*%
%TO.N,GND*%
X49610000Y24550000D03*
%TO.P,U1,CN10_19*%
%TO.N,S-ENC-B*%
X49610000Y27090000D03*
%TO.P,U1,CN10_18*%
%TO.N,N/C*%
X52150000Y24550000D03*
%TO.P,U1,CN10_17*%
%TO.N,LCD-WR*%
X52150000Y27090000D03*
%TO.P,U1,CN10_16*%
%TO.N,PB12*%
X54690000Y24550000D03*
%TO.P,U1,CN10_15*%
%TO.N,PA7*%
X54690000Y27090000D03*
%TO.P,U1,CN10_14*%
%TO.N,PA11*%
X57230000Y24550000D03*
%TO.P,U1,CN10_13*%
%TO.N,PA6*%
X57230000Y27090000D03*
%TO.P,U1,CN10_12*%
%TO.N,PA12*%
X59770000Y24550000D03*
%TO.P,U1,CN10_11*%
%TO.N,PA5*%
X59770000Y27090000D03*
%TO.P,U1,CN10_10*%
%TO.N,N/C*%
X62310000Y24550000D03*
%TO.P,U1,CN10_9*%
%TO.N,GND*%
X62310000Y27090000D03*
%TO.P,U1,CN10_8*%
%TO.N,Net-(U1-PadCN10_8)*%
X64850000Y24550000D03*
%TO.P,U1,CN10_7*%
%TO.N,Net-(U1-PadCN10_7)*%
X64850000Y27090000D03*
%TO.P,U1,CN10_6*%
%TO.N,KP-DATA*%
X67390000Y24550000D03*
%TO.P,U1,CN10_5*%
%TO.N,LCD-RST*%
X67390000Y27090000D03*
%TO.P,U1,CN10_4*%
%TO.N,S-ENC-A*%
X69930000Y24550000D03*
%TO.P,U1,CN10_3*%
%TO.N,LCD-CS*%
X69930000Y27090000D03*
%TO.P,U1,CN10_2*%
%TO.N,PC8*%
X72470000Y24550000D03*
%TO.P,U1,CN10_37*%
%TO.N,PA3*%
X26750000Y27090000D03*
%TO.P,U1,CN10_1*%
%TO.N,PC9*%
X72470000Y27090000D03*
%TO.P,U1,CN7_38*%
%TO.N,PC0*%
X26750000Y85510000D03*
%TO.P,U1,CN7_36*%
%TO.N,PC1*%
X29290000Y85510000D03*
%TO.P,U1,CN7_35*%
%TO.N,I-ENC-A*%
X29290000Y88050000D03*
%TO.P,U1,CN7_34*%
%TO.N,LCD-RD*%
X31830000Y85510000D03*
%TO.P,U1,CN7_33*%
%TO.N,Net-(U1-PadCN7_33)*%
X31830000Y88050000D03*
%TO.P,U1,CN7_32*%
%TO.N,PA4*%
X34370000Y85510000D03*
%TO.P,U1,CN7_31*%
%TO.N,PH1*%
X34370000Y88050000D03*
%TO.P,U1,CN7_30*%
%TO.N,PA1*%
X36910000Y85510000D03*
%TO.P,U1,CN7_29*%
%TO.N,PH0*%
X36910000Y88050000D03*
%TO.P,U1,CN7_28*%
%TO.N,PA0*%
X39450000Y85510000D03*
%TO.P,U1,CN7_27*%
%TO.N,X-PUL*%
X39450000Y88050000D03*
%TO.P,U1,CN7_26*%
%TO.N,N/C*%
X41990000Y85510000D03*
%TO.P,U1,CN7_25*%
%TO.N,X-DIR*%
X41990000Y88050000D03*
%TO.P,U1,CN7_24*%
%TO.N,Net-(U1-PadCN7_24)*%
X44530000Y85510000D03*
%TO.P,U1,CN7_23*%
%TO.N,X-ENA*%
X44530000Y88050000D03*
%TO.P,U1,CN7_22*%
%TO.N,GND*%
X47070000Y85510000D03*
%TO.P,U1,CN7_21*%
%TO.N,LCD-RS*%
X47070000Y88050000D03*
%TO.P,U1,CN7_20*%
%TO.N,GND*%
X49610000Y85510000D03*
%TO.P,U1,CN7_19*%
X49610000Y88050000D03*
%TO.P,U1,CN7_18*%
%TO.N,+5V*%
X52150000Y85510000D03*
%TO.P,U1,CN7_17*%
%TO.N,PA15*%
X52150000Y88050000D03*
%TO.P,U1,CN7_16*%
%TO.N,+3V3*%
X54690000Y85510000D03*
%TO.P,U1,CN7_15*%
%TO.N,PA14*%
X54690000Y88050000D03*
%TO.P,U1,CN7_14*%
%TO.N,Net-(U1-PadCN7_14)*%
X57230000Y85510000D03*
%TO.P,U1,CN7_13*%
%TO.N,PA13*%
X57230000Y88050000D03*
%TO.P,U1,CN7_12*%
%TO.N,Net-(U1-PadCN7_12)*%
X59770000Y85510000D03*
%TO.P,U1,CN7_11*%
%TO.N,N/C*%
X59770000Y88050000D03*
%TO.P,U1,CN7_10*%
X62310000Y85510000D03*
%TO.P,U1,CN7_9*%
X62310000Y88050000D03*
%TO.P,U1,CN7_8*%
%TO.N,GND*%
X64850000Y85510000D03*
%TO.P,U1,CN7_7*%
%TO.N,Net-(U1-PadCN7_7)*%
X64850000Y88050000D03*
%TO.P,U1,CN7_6*%
%TO.N,Net-(U1-PadCN7_6)*%
X67390000Y85510000D03*
%TO.P,U1,CN7_5*%
%TO.N,Net-(U1-PadCN7_5)*%
X67390000Y88050000D03*
%TO.P,U1,CN7_4*%
%TO.N,PD2*%
X69930000Y85510000D03*
%TO.P,U1,CN7_3*%
%TO.N,SDA2*%
X69930000Y88050000D03*
%TO.P,U1,CN7_2*%
%TO.N,PC11*%
X72470000Y85510000D03*
%TO.P,U1,CN7_37*%
%TO.N,I-ENC-B*%
X26750000Y88050000D03*
%TO.P,U1,CN7_1*%
%TO.N,PC10*%
X72470000Y88050000D03*
%TD*%
D13*
%TO.P,REF\u002A\u002A,1*%
%TO.N,GND*%
X0Y0D03*
%TD*%
%TO.P,REF\u002A\u002A,1*%
%TO.N,GND*%
X140000000Y0D03*
%TD*%
%TO.P,REF\u002A\u002A,1*%
%TO.N,GND*%
X140000000Y105000000D03*
%TD*%
%TO.P,REF\u002A\u002A,1*%
%TO.N,GND*%
X0Y105000000D03*
%TD*%
D11*
%TO.P,J21,2*%
%TO.N,+5V*%
X9215000Y11650000D03*
%TO.P,J21,1*%
%TO.N,+3V3*%
X9215000Y6570000D03*
%TD*%
D10*
%TO.P,J20,2*%
%TO.N,GND*%
X117800000Y7840000D03*
%TO.P,J20,1*%
X122880000Y7840000D03*
%TD*%
D14*
%TO.P,J19,4*%
%TO.N,GND*%
X133040000Y56750000D03*
%TO.P,J19,3*%
%TO.N,DP1*%
X133040000Y54250000D03*
%TO.P,J19,2*%
%TO.N,DM1*%
X133040000Y52250000D03*
D15*
%TO.P,J19,1*%
%TO.N,+5V*%
X133040000Y49750000D03*
D16*
%TO.P,J19,5*%
%TO.N,GND*%
X135750000Y46680000D03*
X135750000Y59820000D03*
%TD*%
D17*
%TO.P,Y1,2*%
%TO.N,Net-(C12-Pad1)*%
X95448000Y47645000D03*
%TO.P,Y1,1*%
%TO.N,Net-(C11-Pad1)*%
X95448000Y42765000D03*
%TD*%
D16*
%TO.P,J18,5*%
%TO.N,GND*%
X135210000Y24030000D03*
X135210000Y36070000D03*
D18*
%TO.P,J18,4*%
X132500000Y31300000D03*
%TO.P,J18,3*%
%TO.N,DP0*%
X132500000Y28800000D03*
%TO.P,J18,2*%
%TO.N,DM0*%
X130500000Y28800000D03*
D19*
%TO.P,J18,1*%
%TO.N,+5V*%
X130500000Y31300000D03*
%TD*%
D20*
%TO.P,J17,4*%
%TO.N,X-PUL*%
X6040000Y75150000D03*
%TO.P,J17,3*%
%TO.N,X-DIR*%
X6040000Y77690000D03*
%TO.P,J17,2*%
%TO.N,X-ENA*%
X6040000Y80230000D03*
D18*
%TO.P,J17,1*%
%TO.N,GND*%
X6040000Y82770000D03*
%TD*%
D20*
%TO.P,J16,4*%
%TO.N,Z-PUL*%
X6040000Y30700000D03*
%TO.P,J16,3*%
%TO.N,Z-DIR*%
X6040000Y33240000D03*
%TO.P,J16,2*%
%TO.N,Z-ENA*%
X6040000Y35780000D03*
D18*
%TO.P,J16,1*%
%TO.N,GND*%
X6040000Y38320000D03*
%TD*%
D20*
%TO.P,J15,4*%
%TO.N,S-ENC-B*%
X6040000Y60672000D03*
%TO.P,J15,3*%
%TO.N,S-ENC-A*%
X6040000Y58132000D03*
%TO.P,J15,2*%
%TO.N,GND*%
X6040000Y55592000D03*
D19*
%TO.P,J15,1*%
%TO.N,+5V*%
X6040000Y53052000D03*
%TD*%
D20*
%TO.P,J14,4*%
%TO.N,I-ENC-B*%
X83510000Y98010000D03*
%TO.P,J14,3*%
%TO.N,I-ENC-A*%
X80970000Y98010000D03*
%TO.P,J14,2*%
%TO.N,GND*%
X78430000Y98010000D03*
D19*
%TO.P,J14,1*%
%TO.N,+5V*%
X75890000Y98010000D03*
%TD*%
D20*
%TO.P,J13,4*%
%TO.N,KP-DATA*%
X100020000Y98010000D03*
%TO.P,J13,3*%
%TO.N,KP-CLK*%
X97480000Y98010000D03*
%TO.P,J13,2*%
%TO.N,GND*%
X94940000Y98010000D03*
D19*
%TO.P,J13,1*%
%TO.N,+5V*%
X92400000Y98010000D03*
%TD*%
D21*
%TO.P,J12,16*%
%TO.N,+5V*%
X138120000Y91660000D03*
%TO.P,J12,15*%
%TO.N,GND*%
X140660000Y91660000D03*
%TO.P,J12,14*%
X138120000Y89120000D03*
%TO.P,J12,13*%
%TO.N,LCD-RST*%
X140660000Y89120000D03*
%TO.P,J12,12*%
%TO.N,LCD-CS*%
X138120000Y86580000D03*
%TO.P,J12,11*%
%TO.N,LCD-RS*%
X140660000Y86580000D03*
%TO.P,J12,10*%
%TO.N,LCD-WR*%
X138120000Y84040000D03*
%TO.P,J12,9*%
%TO.N,LCD-RD*%
X140660000Y84040000D03*
%TO.P,J12,8*%
%TO.N,PA7*%
X138120000Y81500000D03*
%TO.P,J12,7*%
%TO.N,PA6*%
X140660000Y81500000D03*
%TO.P,J12,6*%
%TO.N,PA5*%
X138120000Y78960000D03*
%TO.P,J12,5*%
%TO.N,PA4*%
X140660000Y78960000D03*
%TO.P,J12,4*%
%TO.N,PA3*%
X138120000Y76420000D03*
%TO.P,J12,3*%
%TO.N,PA2*%
X140660000Y76420000D03*
%TO.P,J12,2*%
%TO.N,PA1*%
X138120000Y73880000D03*
D22*
%TO.P,J12,1*%
%TO.N,PA0*%
X140660000Y73880000D03*
%TD*%
D11*
%TO.P,J11,2*%
%TO.N,+5V*%
X129865000Y6570000D03*
%TO.P,J11,1*%
%TO.N,+3V3*%
X129865000Y11650000D03*
%TD*%
D10*
%TO.P,J10,2*%
%TO.N,GND*%
X16200000Y7840000D03*
%TO.P,J10,1*%
%TO.N,PB12*%
X21280000Y7840000D03*
%TD*%
%TO.P,J9,2*%
%TO.N,PB5*%
X26360000Y7840000D03*
%TO.P,J9,1*%
%TO.N,PB1*%
X31440000Y7840000D03*
%TD*%
%TO.P,J8,2*%
%TO.N,PB2*%
X36520000Y7840000D03*
%TO.P,J8,1*%
%TO.N,PA15*%
X41600000Y7840000D03*
%TD*%
%TO.P,J7,2*%
%TO.N,PA14*%
X46680000Y7840000D03*
%TO.P,J7,1*%
%TO.N,PA13*%
X51760000Y7840000D03*
%TD*%
%TO.P,J6,2*%
%TO.N,PA11*%
X56840000Y7840000D03*
%TO.P,J6,1*%
%TO.N,PA12*%
X61920000Y7840000D03*
%TD*%
%TO.P,J5,2*%
%TO.N,PA8*%
X67000000Y7840000D03*
%TO.P,J5,1*%
%TO.N,PC11*%
X72080000Y7840000D03*
%TD*%
%TO.P,J4,2*%
%TO.N,PC10*%
X77160000Y7840000D03*
%TO.P,J4,1*%
%TO.N,PC9*%
X82240000Y7840000D03*
%TD*%
%TO.P,J3,2*%
%TO.N,PC8*%
X87320000Y7840000D03*
%TO.P,J3,1*%
%TO.N,PC1*%
X92400000Y7840000D03*
%TD*%
%TO.P,J2,2*%
%TO.N,PC0*%
X8326000Y94835000D03*
%TO.P,J2,1*%
%TO.N,PD2*%
X8326000Y89755000D03*
%TD*%
%TO.P,J1,2*%
%TO.N,PH1*%
X24455000Y101693000D03*
%TO.P,J1,1*%
%TO.N,PH0*%
X19375000Y101693000D03*
%TD*%
D23*
%TO.N,GND*%
X71572000Y59402000D03*
X84399000Y78960000D03*
X63698000Y20413000D03*
X120340000Y45686000D03*
%TO.N,+3V3*%
X11247000Y43781000D03*
X28392000Y61561000D03*
X42235000Y73880000D03*
X58745000Y75277000D03*
X30424000Y63593000D03*
%TO.N,+5V*%
X27630000Y75277000D03*
X35885000Y81627000D03*
X44140000Y83024000D03*
X47061000Y83024000D03*
X102687000Y33113000D03*
%TO.N,PH1*%
X28011000Y90263000D03*
%TO.N,PH0*%
X26614000Y82897000D03*
X25217000Y90263000D03*
%TO.N,PD2*%
X66111000Y95216000D03*
X45156000Y95216000D03*
%TO.N,PC1*%
X14295000Y28287000D03*
X24582000Y55846000D03*
%TO.N,PC10*%
X16835000Y25620000D03*
X27122000Y56735000D03*
X69159000Y93819000D03*
X44394000Y93819000D03*
%TO.N,PA8*%
X48331000Y22572000D03*
X50871000Y28287000D03*
X44648000Y31462000D03*
X50871000Y31462000D03*
%TO.N,PC11*%
X16327000Y27525000D03*
X27757000Y55719000D03*
X48331000Y81754000D03*
%TO.N,PA14*%
X30170000Y55592000D03*
X52649000Y82262000D03*
%TO.N,PA13*%
X30424000Y57116000D03*
X51633000Y79468000D03*
%TO.N,PA15*%
X31694000Y55846000D03*
%TO.N,LCD-RST*%
X131643000Y78579000D03*
X82113000Y32478000D03*
%TO.N,LCD-CS*%
X129865000Y78579000D03*
X78938000Y30319000D03*
%TO.N,LCD-WR*%
X101163000Y78452000D03*
X86812000Y62831000D03*
%TO.N,LCD-RD*%
X80589000Y79722000D03*
X44140000Y78452000D03*
%TO.N,KP-DATA*%
X93289000Y80865000D03*
X91130000Y78706000D03*
X85542000Y61815000D03*
X85542000Y38193000D03*
X85542000Y35907000D03*
%TO.N,KP-CLK*%
X78557000Y81246000D03*
X71318000Y79722000D03*
X60015000Y68419000D03*
X57729000Y66133000D03*
X31948000Y31081000D03*
%TO.N,PA7*%
X74620000Y32478000D03*
%TO.N,PA6*%
X74112000Y30954000D03*
%TO.N,PA5*%
X76334500Y32160500D03*
%TO.N,PA4*%
X40965000Y77690000D03*
%TO.N,PA3*%
X76779000Y66514000D03*
%TO.N,PA2*%
X42743000Y63593000D03*
%TO.N,PA1*%
X132913000Y64482000D03*
%TD*%
D24*
%TO.N,GND*%
X64850000Y85510000D02*
X64850000Y83650000D01*
X64850000Y85510000D02*
X64850000Y83523000D01*
X64850000Y83523000D02*
X65095000Y83278000D01*
X65095000Y83278000D02*
X82367000Y83278000D01*
X84399000Y81246000D02*
X84399000Y78960000D01*
X82367000Y83278000D02*
X84399000Y81246000D01*
X49610000Y24550000D02*
X49610000Y21819000D01*
X133040000Y56750000D02*
X133025000Y56750000D01*
X133040000Y56750000D02*
X133055000Y56750000D01*
X78430000Y98010000D02*
X78430000Y101820000D01*
X78430000Y98010000D02*
X78430000Y94835000D01*
X94940000Y98010000D02*
X94940000Y95470000D01*
X94940000Y98010000D02*
X94940000Y102455000D01*
X6040000Y55592000D02*
X1722000Y55592000D01*
X6040000Y38320000D02*
X6040000Y41495000D01*
X6040000Y82770000D02*
X9850000Y82770000D01*
X6040000Y82770000D02*
X3500000Y82770000D01*
X6040000Y82770000D02*
X6040000Y85310000D01*
D25*
%TO.N,+3V3*%
X129865000Y11650000D02*
X127833000Y11650000D01*
X127833000Y11650000D02*
X126563000Y10380000D01*
X126563000Y10380000D02*
X126563000Y3268000D01*
X126563000Y3268000D02*
X124150000Y855000D01*
X124150000Y855000D02*
X11501000Y855000D01*
X11501000Y855000D02*
X9215000Y3141000D01*
X9215000Y3141000D02*
X9215000Y6697000D01*
X7310000Y6570000D02*
X9215000Y6570000D01*
X6167000Y7713000D02*
X7310000Y6570000D01*
X6167000Y14571000D02*
X6167000Y7713000D01*
X11247000Y19651000D02*
X6167000Y14571000D01*
X11247000Y43781000D02*
X11247000Y19651000D01*
X57348000Y73880000D02*
X58745000Y75277000D01*
X42235000Y73880000D02*
X57348000Y73880000D01*
X28392000Y61561000D02*
X30424000Y63593000D01*
%TO.N,+5V*%
X6040000Y53052000D02*
X10866000Y53052000D01*
X10866000Y53052000D02*
X12263000Y51655000D01*
X12263000Y51655000D02*
X12263000Y18127000D01*
X12263000Y18127000D02*
X9342000Y15206000D01*
X9342000Y15206000D02*
X9342000Y11523000D01*
X27630000Y75277000D02*
X27630000Y78071000D01*
X31186000Y81627000D02*
X35885000Y81627000D01*
X27630000Y78071000D02*
X31186000Y81627000D01*
X44140000Y83024000D02*
X47061000Y83024000D01*
X130500000Y31335000D02*
X130500000Y31208000D01*
X104465000Y31335000D02*
X130500000Y31335000D01*
X102687000Y33113000D02*
X104465000Y31335000D01*
%TO.N,PH1*%
X24455000Y101312000D02*
X24455000Y101693000D01*
X28011000Y97756000D02*
X24455000Y101312000D01*
X28011000Y90263000D02*
X28011000Y97756000D01*
%TO.N,PH0*%
X26614000Y82897000D02*
X34996000Y82897000D01*
X34996000Y82897000D02*
X35504000Y83405000D01*
X35504000Y83405000D02*
X35631000Y83532000D01*
X35631000Y83532000D02*
X35631000Y86580000D01*
X35631000Y86580000D02*
X36901000Y87850000D01*
X19629000Y101693000D02*
X19375000Y101693000D01*
X25217000Y96105000D02*
X19629000Y101693000D01*
X25217000Y90263000D02*
X25217000Y96105000D01*
%TO.N,PC0*%
X8326000Y94835000D02*
X22042000Y94835000D01*
X22042000Y94835000D02*
X24328000Y92549000D01*
X24328000Y92549000D02*
X24328000Y86326000D01*
X24328000Y86326000D02*
X25090000Y85564000D01*
X25090000Y85564000D02*
X26741000Y85564000D01*
X26741000Y85564000D02*
X26741000Y85437000D01*
%TO.N,PD2*%
X45156000Y95216000D02*
X66111000Y95216000D01*
%TO.N,PC1*%
X14295000Y45559000D02*
X24582000Y55846000D01*
X14295000Y28287000D02*
X14295000Y45559000D01*
%TO.N,PC10*%
X16835000Y25620000D02*
X15311000Y27144000D01*
X15311000Y44924000D02*
X27122000Y56735000D01*
X15311000Y27144000D02*
X15311000Y44924000D01*
X44394000Y93819000D02*
X69159000Y93819000D01*
%TO.N,PA8*%
X44648000Y31462000D02*
X44521000Y31335000D01*
X44521000Y31335000D02*
X44521000Y27144000D01*
X44521000Y27144000D02*
X44521000Y27017000D01*
X49474000Y12793000D02*
X48331000Y13936000D01*
X64968000Y12793000D02*
X49474000Y12793000D01*
X48331000Y13936000D02*
X48331000Y22572000D01*
X67000000Y10761000D02*
X64968000Y12793000D01*
X67000000Y7840000D02*
X67000000Y10761000D01*
X50871000Y28287000D02*
X50871000Y31462000D01*
%TO.N,PC11*%
X16327000Y44289000D02*
X27757000Y55719000D01*
X16327000Y27525000D02*
X16327000Y44289000D01*
X48331000Y81754000D02*
X48331000Y89882000D01*
X48331000Y89882000D02*
X48712000Y90263000D01*
X48712000Y90263000D02*
X70556000Y90263000D01*
X70556000Y90263000D02*
X71191000Y89628000D01*
X71191000Y89628000D02*
X71191000Y86707000D01*
X71191000Y86707000D02*
X72461000Y85437000D01*
%TO.N,PA14*%
X46680000Y7840000D02*
X46680000Y7713000D01*
X18867000Y44289000D02*
X30170000Y55592000D01*
X20391000Y2887000D02*
X18867000Y4411000D01*
X18867000Y4411000D02*
X18867000Y44289000D01*
X44140000Y2887000D02*
X20391000Y2887000D01*
X46680000Y5427000D02*
X44140000Y2887000D01*
X46680000Y7840000D02*
X46680000Y5427000D01*
X53411000Y86834000D02*
X54681000Y88104000D01*
X53411000Y83786000D02*
X53411000Y86834000D01*
X52649000Y83024000D02*
X53411000Y83786000D01*
X52649000Y82262000D02*
X52649000Y83024000D01*
%TO.N,PA13*%
X51760000Y7840000D02*
X51760000Y5300000D01*
X51760000Y5300000D02*
X48839000Y2379000D01*
X48839000Y2379000D02*
X20264000Y2379000D01*
X20264000Y2379000D02*
X18359000Y4284000D01*
X18359000Y45051000D02*
X30424000Y57116000D01*
X18359000Y4284000D02*
X18359000Y45051000D01*
X51633000Y79468000D02*
X51633000Y80484000D01*
X51633000Y80484000D02*
X51633000Y80611000D01*
X51633000Y80611000D02*
X52141000Y81119000D01*
X52141000Y81119000D02*
X55570000Y81119000D01*
X55570000Y81119000D02*
X55951000Y81500000D01*
X55951000Y81500000D02*
X55951000Y86834000D01*
X55951000Y86834000D02*
X57094000Y87977000D01*
%TO.N,PB1*%
X31440000Y7840000D02*
X31440000Y19651000D01*
X31440000Y19651000D02*
X33091000Y21302000D01*
X33091000Y21302000D02*
X43632000Y21302000D01*
X43632000Y21302000D02*
X44521000Y22191000D01*
X44521000Y22191000D02*
X44521000Y24477000D01*
%TO.N,PA15*%
X19375000Y43527000D02*
X31694000Y55846000D01*
X19375000Y4538000D02*
X19375000Y43527000D01*
X39568000Y3395000D02*
X20518000Y3395000D01*
X41600000Y5427000D02*
X39568000Y3395000D01*
X20518000Y3395000D02*
X19375000Y4538000D01*
X41600000Y7840000D02*
X41600000Y5427000D01*
%TO.N,PB5*%
X26360000Y7840000D02*
X26360000Y21048000D01*
X26360000Y21048000D02*
X27630000Y22318000D01*
X27630000Y22318000D02*
X34742000Y22318000D01*
X34742000Y22318000D02*
X35631000Y23207000D01*
X35631000Y23207000D02*
X35631000Y25874000D01*
X35631000Y25874000D02*
X36901000Y27144000D01*
%TO.N,PB2*%
X36520000Y7840000D02*
X36520000Y18762000D01*
X36520000Y18762000D02*
X37917000Y20159000D01*
X37917000Y20159000D02*
X45283000Y20159000D01*
X45283000Y20159000D02*
X47061000Y21937000D01*
X47061000Y21937000D02*
X47061000Y24604000D01*
%TO.N,LCD-RST*%
X140660000Y89120000D02*
X141295000Y89120000D01*
X141295000Y89120000D02*
X142819000Y87596000D01*
X142819000Y87596000D02*
X142819000Y80992000D01*
X142819000Y80992000D02*
X142057000Y80230000D01*
X142057000Y80230000D02*
X132659000Y80230000D01*
X131643000Y79214000D02*
X131643000Y78579000D01*
X132659000Y80230000D02*
X131643000Y79214000D01*
X67381000Y28160000D02*
X67381000Y27144000D01*
X68371590Y29150590D02*
X67381000Y28160000D01*
X75737590Y29150590D02*
X68371590Y29150590D01*
X78049000Y31462000D02*
X75737590Y29150590D01*
X81097000Y31462000D02*
X78049000Y31462000D01*
X82113000Y32478000D02*
X81097000Y31462000D01*
%TO.N,LCD-CS*%
X138120000Y86580000D02*
X138120000Y86707000D01*
X138120000Y86707000D02*
X139263000Y87850000D01*
X139263000Y87850000D02*
X141422000Y87850000D01*
X141422000Y87850000D02*
X142184000Y87088000D01*
X142184000Y87088000D02*
X142184000Y83532000D01*
X142184000Y83532000D02*
X141422000Y82770000D01*
X141422000Y82770000D02*
X130881000Y82770000D01*
X129865000Y81754000D02*
X129865000Y78579000D01*
X130881000Y82770000D02*
X129865000Y81754000D01*
X69921000Y27906000D02*
X69921000Y27017000D01*
X70683000Y28668000D02*
X69921000Y27906000D01*
X77287000Y28668000D02*
X70683000Y28668000D01*
X69921000Y27017000D02*
X69921000Y26890000D01*
X78938000Y30319000D02*
X77287000Y28668000D01*
%TO.N,LCD-RS*%
X140660000Y86453000D02*
X139517000Y85310000D01*
X139517000Y85310000D02*
X106370000Y85310000D01*
X106370000Y85310000D02*
X100274000Y91406000D01*
X100274000Y91406000D02*
X48077000Y91406000D01*
X48077000Y91406000D02*
X47061000Y90390000D01*
X47061000Y90390000D02*
X47061000Y87977000D01*
%TO.N,LCD-WR*%
X106751000Y84040000D02*
X101163000Y78452000D01*
X138120000Y84040000D02*
X106751000Y84040000D01*
X86812000Y62831000D02*
X86812000Y38320000D01*
X86812000Y38320000D02*
X81986000Y33494000D01*
X81986000Y33494000D02*
X55951000Y33494000D01*
X55951000Y33494000D02*
X52141000Y29684000D01*
X52141000Y29684000D02*
X52141000Y27144000D01*
%TO.N,LCD-RD*%
X79446000Y78579000D02*
X80589000Y79722000D01*
X44267000Y78579000D02*
X79446000Y78579000D01*
X44140000Y78452000D02*
X44267000Y78579000D01*
%TO.N,KP-DATA*%
X91130000Y78706000D02*
X93289000Y80865000D01*
X85542000Y61815000D02*
X85542000Y38193000D01*
X85542000Y35907000D02*
X85542000Y25874000D01*
X85542000Y25874000D02*
X82113000Y22445000D01*
X82113000Y22445000D02*
X68270000Y22445000D01*
X68270000Y22445000D02*
X67381000Y23334000D01*
X67381000Y23334000D02*
X67381000Y24477000D01*
%TO.N,KP-CLK*%
X72842000Y81246000D02*
X71318000Y79722000D01*
X78557000Y81246000D02*
X72842000Y81246000D01*
X60015000Y68419000D02*
X57729000Y66133000D01*
X31948000Y31081000D02*
X31948000Y29684000D01*
X31948000Y29684000D02*
X33091000Y28541000D01*
X33091000Y28541000D02*
X33091000Y25747000D01*
X33091000Y25747000D02*
X31821000Y24477000D01*
%TO.N,I-ENC-B*%
X83510000Y98010000D02*
X83510000Y94327000D01*
X83510000Y94327000D02*
X81351000Y92168000D01*
X81351000Y92168000D02*
X32075000Y92168000D01*
X32075000Y92168000D02*
X30551000Y90644000D01*
X30551000Y90644000D02*
X30551000Y87596000D01*
X30551000Y87596000D02*
X29789000Y86834000D01*
X29789000Y86834000D02*
X27884000Y86834000D01*
X27884000Y86834000D02*
X26741000Y87977000D01*
%TO.N,I-ENC-A*%
X29281000Y88104000D02*
X29154000Y87977000D01*
X31948000Y92930000D02*
X29281000Y90263000D01*
X80081000Y92930000D02*
X31948000Y92930000D01*
X80970000Y93819000D02*
X80081000Y92930000D01*
X29281000Y90263000D02*
X29281000Y88104000D01*
X80970000Y98010000D02*
X80970000Y93819000D01*
%TO.N,S-ENC-B*%
X6040000Y60672000D02*
X31186000Y60672000D01*
X31186000Y60672000D02*
X49601000Y42257000D01*
X49601000Y42257000D02*
X49601000Y27017000D01*
%TO.N,S-ENC-A*%
X6040000Y58132000D02*
X31694000Y58132000D01*
X31694000Y58132000D02*
X39441000Y50385000D01*
X39441000Y50385000D02*
X39441000Y27144000D01*
X39450000Y27090000D02*
X39450000Y26119000D01*
X39450000Y26119000D02*
X39695000Y25874000D01*
X39695000Y25874000D02*
X69540000Y25874000D01*
X69540000Y25874000D02*
X69921000Y25493000D01*
X69921000Y25493000D02*
X69921000Y24477000D01*
%TO.N,PA7*%
X74620000Y32478000D02*
X73477000Y31335000D01*
X73477000Y31335000D02*
X56586000Y31335000D01*
X56586000Y31335000D02*
X54681000Y29430000D01*
X54681000Y29430000D02*
X54681000Y27271000D01*
X54681000Y27271000D02*
X54808000Y27144000D01*
%TO.N,PA6*%
X57230000Y27788000D02*
X57230000Y27090000D01*
X59888000Y30446000D02*
X57230000Y27788000D01*
X73604000Y30446000D02*
X59888000Y30446000D01*
X74112000Y30954000D02*
X73604000Y30446000D01*
%TO.N,PA5*%
X59761000Y28160000D02*
X59761000Y27271000D01*
X59761000Y27271000D02*
X59888000Y27144000D01*
X61285000Y29684000D02*
X59761000Y28160000D01*
X73858000Y29684000D02*
X61285000Y29684000D01*
X76334500Y32160500D02*
X73858000Y29684000D01*
%TO.N,PA4*%
X140660000Y78960000D02*
X140660000Y78579000D01*
X140660000Y78579000D02*
X139771000Y77690000D01*
X139771000Y77690000D02*
X40965000Y77690000D01*
%TO.N,PA3*%
X138120000Y76420000D02*
X138247000Y76293000D01*
X136723000Y76420000D02*
X138120000Y76420000D01*
X135961000Y75658000D02*
X136723000Y76420000D01*
X135961000Y71086000D02*
X135961000Y75658000D01*
X131389000Y66514000D02*
X135961000Y71086000D01*
X76779000Y66514000D02*
X131389000Y66514000D01*
%TO.N,PA2*%
X140660000Y76420000D02*
X140660000Y75912000D01*
X141930000Y76420000D02*
X140660000Y76420000D01*
X142565000Y75785000D02*
X141930000Y76420000D01*
X138628000Y63593000D02*
X142565000Y67530000D01*
X142565000Y67530000D02*
X142565000Y75785000D01*
X42743000Y63593000D02*
X138628000Y63593000D01*
%TO.N,PA1*%
X36910000Y85510000D02*
X36910000Y69934000D01*
X42362000Y64482000D02*
X132913000Y64482000D01*
X36910000Y69934000D02*
X42362000Y64482000D01*
%TO.N,PA0*%
X140660000Y73880000D02*
X140660000Y69181000D01*
X140660000Y69181000D02*
X136850000Y65371000D01*
X136850000Y65371000D02*
X45029000Y65371000D01*
X45029000Y65371000D02*
X39441000Y70959000D01*
X39441000Y70959000D02*
X39441000Y85437000D01*
%TD*%
D26*
%TO.N,GND*%
X142802545Y109249091D02*
X143153208Y109143220D01*
X143476625Y108971256D01*
X143760484Y108739746D01*
X143993965Y108457514D01*
X144168183Y108135305D01*
X144276502Y107785386D01*
X144318000Y107390557D01*
X144318001Y-2414711D01*
X144279091Y-2811545D01*
X144173220Y-3162206D01*
X144001257Y-3485623D01*
X143769748Y-3769482D01*
X143487514Y-4002965D01*
X143165304Y-4177184D01*
X142815385Y-4285502D01*
X142420557Y-4327000D01*
X-2436721Y-4327000D01*
X-2833545Y-4288091D01*
X-3184206Y-4182220D01*
X-3507623Y-4010257D01*
X-3791482Y-3778748D01*
X-4024965Y-3496514D01*
X-4199184Y-3174304D01*
X-4307502Y-2824385D01*
X-4320482Y-2700881D01*
X-2521276Y-2700881D01*
X-2161088Y-3190548D01*
X-1497118Y-3550849D01*
X-775615Y-3774694D01*
X-24305Y-3853480D01*
X727938Y-3784178D01*
X1452208Y-3569452D01*
X2120670Y-3217555D01*
X2161088Y-3190548D01*
X2521276Y-2700881D01*
X137478724Y-2700881D01*
X137838912Y-3190548D01*
X138502882Y-3550849D01*
X139224385Y-3774694D01*
X139975695Y-3853480D01*
X140727938Y-3784178D01*
X141452208Y-3569452D01*
X142120670Y-3217555D01*
X142161088Y-3190548D01*
X142521276Y-2700881D01*
X140000000Y-179605D01*
X137478724Y-2700881D01*
X2521276Y-2700881D01*
X0Y-179605D01*
X-2521276Y-2700881D01*
X-4320482Y-2700881D01*
X-4349000Y-2429557D01*
X-4349000Y24305D01*
X-3853480Y24305D01*
X-3784178Y-727938D01*
X-3569452Y-1452208D01*
X-3217555Y-2120670D01*
X-3190548Y-2161088D01*
X-2700881Y-2521276D01*
X-179605Y0D01*
X179605Y0D01*
X2700881Y-2521276D01*
X3190548Y-2161088D01*
X3550849Y-1497118D01*
X3774694Y-775615D01*
X3853480Y-24305D01*
X3849002Y24305D01*
X136146520Y24305D01*
X136215822Y-727938D01*
X136430548Y-1452208D01*
X136782445Y-2120670D01*
X136809452Y-2161088D01*
X137299119Y-2521276D01*
X139820395Y0D01*
X140179605Y0D01*
X142700881Y-2521276D01*
X143190548Y-2161088D01*
X143550849Y-1497118D01*
X143774694Y-775615D01*
X143853480Y-24305D01*
X143784178Y727938D01*
X143569452Y1452208D01*
X143217555Y2120670D01*
X143190548Y2161088D01*
X142700881Y2521276D01*
X140179605Y0D01*
X139820395Y0D01*
X137299119Y2521276D01*
X136809452Y2161088D01*
X136449151Y1497118D01*
X136225306Y775615D01*
X136146520Y24305D01*
X3849002Y24305D01*
X3784178Y727938D01*
X3569452Y1452208D01*
X3217555Y2120670D01*
X3190548Y2161088D01*
X2700881Y2521276D01*
X179605Y0D01*
X-179605Y0D01*
X-2700881Y2521276D01*
X-3190548Y2161088D01*
X-3550849Y1497118D01*
X-3774694Y775615D01*
X-3853480Y24305D01*
X-4349000Y24305D01*
X-4349000Y2700881D01*
X-2521276Y2700881D01*
X0Y179605D01*
X2521276Y2700881D01*
X2161088Y3190548D01*
X1497118Y3550849D01*
X775615Y3774694D01*
X24305Y3853480D01*
X-727938Y3784178D01*
X-1452208Y3569452D01*
X-2120670Y3217555D01*
X-2161088Y3190548D01*
X-2521276Y2700881D01*
X-4349000Y2700881D01*
X-4349000Y62450000D01*
X4008000Y62450000D01*
X4008000Y51020000D01*
X4010440Y50995224D01*
X4017667Y50971399D01*
X4029403Y50949443D01*
X4045197Y50930197D01*
X4064443Y50914403D01*
X4086399Y50902667D01*
X4110224Y50895440D01*
X4135000Y50893000D01*
X7183000Y50893000D01*
X7183000Y40352000D01*
X4135000Y40352000D01*
X4110224Y40349560D01*
X4086399Y40342333D01*
X4064443Y40330597D01*
X4045197Y40314803D01*
X4029403Y40295557D01*
X4017667Y40273601D01*
X4010440Y40249776D01*
X4008000Y40225000D01*
X4008000Y28795000D01*
X4010440Y28770224D01*
X4017667Y28746399D01*
X4029403Y28724443D01*
X4045197Y28705197D01*
X4064443Y28689403D01*
X4086399Y28677667D01*
X4110224Y28670440D01*
X4135000Y28668000D01*
X7183000Y28668000D01*
X7183000Y16628709D01*
X5671732Y15117441D01*
X5643625Y15094374D01*
X5551576Y14982212D01*
X5483178Y14854248D01*
X5441058Y14715398D01*
X5431645Y14619822D01*
X5426836Y14571000D01*
X5430400Y14534817D01*
X5430401Y7749193D01*
X5426836Y7713000D01*
X5432018Y7660395D01*
X5441059Y7568601D01*
X5483179Y7429751D01*
X5551577Y7301787D01*
X5643626Y7189625D01*
X5671732Y7166559D01*
X6548000Y6290290D01*
X6548000Y4030000D01*
X6550440Y4005224D01*
X6557667Y3981399D01*
X6569403Y3959443D01*
X6585197Y3940197D01*
X6604443Y3924403D01*
X6626399Y3912667D01*
X6650224Y3905440D01*
X6675000Y3903000D01*
X8478400Y3903000D01*
X8478400Y3177183D01*
X8474836Y3141000D01*
X8478400Y3104817D01*
X8478400Y3104815D01*
X8489058Y2996602D01*
X8531178Y2857752D01*
X8592727Y2742602D01*
X8599576Y2729788D01*
X8661088Y2654836D01*
X8691625Y2617626D01*
X8719732Y2594559D01*
X10954559Y359731D01*
X10977625Y331625D01*
X11089787Y239576D01*
X11217751Y171178D01*
X11356601Y129058D01*
X11464814Y118400D01*
X11464823Y118400D01*
X11500999Y114837D01*
X11537175Y118400D01*
X124113817Y118400D01*
X124150000Y114836D01*
X124186183Y118400D01*
X124186186Y118400D01*
X124294399Y129058D01*
X124433249Y171178D01*
X124561213Y239576D01*
X124673375Y331625D01*
X124696446Y359737D01*
X127037590Y2700881D01*
X137478724Y2700881D01*
X140000000Y179605D01*
X142521276Y2700881D01*
X142161088Y3190548D01*
X141497118Y3550849D01*
X140775615Y3774694D01*
X140024305Y3853480D01*
X139272062Y3784178D01*
X138547792Y3569452D01*
X137879330Y3217555D01*
X137838912Y3190548D01*
X137478724Y2700881D01*
X127037590Y2700881D01*
X127058263Y2721554D01*
X127086375Y2744625D01*
X127178424Y2856787D01*
X127246822Y2984751D01*
X127288942Y3123601D01*
X127299600Y3231814D01*
X127299600Y3231823D01*
X127303163Y3267999D01*
X127299600Y3304175D01*
X127299600Y8070000D01*
X127726928Y8070000D01*
X127726928Y5070000D01*
X127739188Y4945518D01*
X127775498Y4825820D01*
X127834463Y4715506D01*
X127913815Y4618815D01*
X128010506Y4539463D01*
X128120820Y4480498D01*
X128240518Y4444188D01*
X128365000Y4431928D01*
X131365000Y4431928D01*
X131489482Y4444188D01*
X131609180Y4480498D01*
X131719494Y4539463D01*
X131816185Y4618815D01*
X131895537Y4715506D01*
X131954502Y4825820D01*
X131990812Y4945518D01*
X132003072Y5070000D01*
X132003072Y8070000D01*
X131990812Y8194482D01*
X131954502Y8314180D01*
X131895537Y8424494D01*
X131816185Y8521185D01*
X131719494Y8600537D01*
X131609180Y8659502D01*
X131489482Y8695812D01*
X131365000Y8708072D01*
X128365000Y8708072D01*
X128240518Y8695812D01*
X128120820Y8659502D01*
X128010506Y8600537D01*
X127913815Y8521185D01*
X127834463Y8424494D01*
X127775498Y8314180D01*
X127739188Y8194482D01*
X127726928Y8070000D01*
X127299600Y8070000D01*
X127299600Y10074891D01*
X127726928Y10502218D01*
X127726928Y10150000D01*
X127739188Y10025518D01*
X127775498Y9905820D01*
X127834463Y9795506D01*
X127913815Y9698815D01*
X128010506Y9619463D01*
X128120820Y9560498D01*
X128240518Y9524188D01*
X128365000Y9511928D01*
X131365000Y9511928D01*
X131489482Y9524188D01*
X131609180Y9560498D01*
X131719494Y9619463D01*
X131816185Y9698815D01*
X131895537Y9795506D01*
X131954502Y9905820D01*
X131990812Y10025518D01*
X132003072Y10150000D01*
X132003072Y13150000D01*
X131990812Y13274482D01*
X131954502Y13394180D01*
X131895537Y13504494D01*
X131816185Y13601185D01*
X131719494Y13680537D01*
X131609180Y13739502D01*
X131489482Y13775812D01*
X131365000Y13788072D01*
X128365000Y13788072D01*
X128240518Y13775812D01*
X128120820Y13739502D01*
X128010506Y13680537D01*
X127913815Y13601185D01*
X127834463Y13504494D01*
X127775498Y13394180D01*
X127739188Y13274482D01*
X127726928Y13150000D01*
X127726928Y12379717D01*
X127688601Y12375942D01*
X127549751Y12333822D01*
X127421787Y12265424D01*
X127309625Y12173375D01*
X127286559Y12145269D01*
X126067732Y10926441D01*
X126039625Y10903374D01*
X125947576Y10791212D01*
X125879178Y10663248D01*
X125837058Y10524398D01*
X125826400Y10416186D01*
X125822836Y10380000D01*
X125826400Y10343817D01*
X125826401Y3573110D01*
X123844891Y1591600D01*
X11806110Y1591600D01*
X9951600Y3446109D01*
X9951600Y3903000D01*
X11755000Y3903000D01*
X11779776Y3905440D01*
X11803601Y3912667D01*
X11825557Y3924403D01*
X11844803Y3940197D01*
X11860597Y3959443D01*
X11872333Y3981399D01*
X11879560Y4005224D01*
X11882000Y4030000D01*
X11882000Y7713000D01*
X14065089Y7713000D01*
X14104666Y7379549D01*
X14234757Y6979617D01*
X14392786Y6683962D01*
X14708347Y6527952D01*
X15893395Y7713000D01*
X16280890Y7713000D01*
X16214143Y7646252D01*
X16200000Y7660395D01*
X14887952Y6348347D01*
X15043962Y6032786D01*
X15418745Y5841980D01*
X15823551Y5727956D01*
X16242824Y5695098D01*
X16660451Y5744666D01*
X17060383Y5874757D01*
X17356038Y6032786D01*
X17512047Y6348345D01*
X17622400Y6237992D01*
X17622400Y4320183D01*
X17618836Y4284000D01*
X17622400Y4247817D01*
X17622400Y4247815D01*
X17633058Y4139602D01*
X17675178Y4000752D01*
X17739099Y3881164D01*
X17743576Y3872788D01*
X17805088Y3797836D01*
X17835625Y3760626D01*
X17863732Y3737559D01*
X19717559Y1883731D01*
X19740625Y1855625D01*
X19852787Y1763576D01*
X19980751Y1695178D01*
X20119598Y1653059D01*
X20119601Y1653058D01*
X20264000Y1638836D01*
X20300186Y1642400D01*
X48802817Y1642400D01*
X48839000Y1638836D01*
X48875183Y1642400D01*
X48875186Y1642400D01*
X48983399Y1653058D01*
X49122249Y1695178D01*
X49250213Y1763576D01*
X49362375Y1855625D01*
X49385446Y1883737D01*
X52255269Y4753559D01*
X52283375Y4776625D01*
X52327542Y4830442D01*
X52375424Y4888787D01*
X52383355Y4903625D01*
X52443822Y5016751D01*
X52485942Y5155601D01*
X52496600Y5263814D01*
X52500164Y5300000D01*
X52496600Y5336186D01*
X52496600Y5834203D01*
X52771302Y5947988D01*
X53120983Y6181637D01*
X53418363Y6479017D01*
X53652012Y6828698D01*
X53812953Y7217244D01*
X53895000Y7629721D01*
X53895000Y8050279D01*
X54705000Y8050279D01*
X54705000Y7629721D01*
X54787047Y7217244D01*
X54947988Y6828698D01*
X55181637Y6479017D01*
X55479017Y6181637D01*
X55828698Y5947988D01*
X56217244Y5787047D01*
X56629721Y5705000D01*
X57050279Y5705000D01*
X57462756Y5787047D01*
X57851302Y5947988D01*
X58200983Y6181637D01*
X58498363Y6479017D01*
X58732012Y6828698D01*
X58892953Y7217244D01*
X58975000Y7629721D01*
X58975000Y8050279D01*
X59785000Y8050279D01*
X59785000Y7629721D01*
X59867047Y7217244D01*
X60027988Y6828698D01*
X60261637Y6479017D01*
X60559017Y6181637D01*
X60908698Y5947988D01*
X61297244Y5787047D01*
X61709721Y5705000D01*
X62130279Y5705000D01*
X62542756Y5787047D01*
X62931302Y5947988D01*
X63280983Y6181637D01*
X63578363Y6479017D01*
X63812012Y6828698D01*
X63972953Y7217244D01*
X64055000Y7629721D01*
X64055000Y8050279D01*
X63972953Y8462756D01*
X63812012Y8851302D01*
X63578363Y9200983D01*
X63280983Y9498363D01*
X62931302Y9732012D01*
X62542756Y9892953D01*
X62130279Y9975000D01*
X61709721Y9975000D01*
X61297244Y9892953D01*
X60908698Y9732012D01*
X60559017Y9498363D01*
X60261637Y9200983D01*
X60027988Y8851302D01*
X59867047Y8462756D01*
X59785000Y8050279D01*
X58975000Y8050279D01*
X58892953Y8462756D01*
X58732012Y8851302D01*
X58498363Y9200983D01*
X58200983Y9498363D01*
X57851302Y9732012D01*
X57462756Y9892953D01*
X57050279Y9975000D01*
X56629721Y9975000D01*
X56217244Y9892953D01*
X55828698Y9732012D01*
X55479017Y9498363D01*
X55181637Y9200983D01*
X54947988Y8851302D01*
X54787047Y8462756D01*
X54705000Y8050279D01*
X53895000Y8050279D01*
X53812953Y8462756D01*
X53652012Y8851302D01*
X53418363Y9200983D01*
X53120983Y9498363D01*
X52771302Y9732012D01*
X52382756Y9892953D01*
X51970279Y9975000D01*
X51549721Y9975000D01*
X51137244Y9892953D01*
X50748698Y9732012D01*
X50399017Y9498363D01*
X50101637Y9200983D01*
X49867988Y8851302D01*
X49707047Y8462756D01*
X49625000Y8050279D01*
X49625000Y7629721D01*
X49707047Y7217244D01*
X49867988Y6828698D01*
X50101637Y6479017D01*
X50399017Y6181637D01*
X50748698Y5947988D01*
X51023401Y5834202D01*
X51023401Y5605111D01*
X48533891Y3115600D01*
X45410309Y3115600D01*
X47175263Y4880554D01*
X47203375Y4903625D01*
X47295424Y5015787D01*
X47363822Y5143751D01*
X47405942Y5282601D01*
X47416600Y5390814D01*
X47416600Y5390823D01*
X47420163Y5426999D01*
X47416600Y5463175D01*
X47416600Y5834203D01*
X47691302Y5947988D01*
X48040983Y6181637D01*
X48338363Y6479017D01*
X48572012Y6828698D01*
X48732953Y7217244D01*
X48815000Y7629721D01*
X48815000Y8050279D01*
X48732953Y8462756D01*
X48572012Y8851302D01*
X48338363Y9200983D01*
X48040983Y9498363D01*
X47691302Y9732012D01*
X47302756Y9892953D01*
X46890279Y9975000D01*
X46469721Y9975000D01*
X46057244Y9892953D01*
X45668698Y9732012D01*
X45319017Y9498363D01*
X45021637Y9200983D01*
X44787988Y8851302D01*
X44627047Y8462756D01*
X44545000Y8050279D01*
X44545000Y7629721D01*
X44627047Y7217244D01*
X44787988Y6828698D01*
X45021637Y6479017D01*
X45319017Y6181637D01*
X45668698Y5947988D01*
X45943401Y5834202D01*
X45943401Y5732110D01*
X43834891Y3623600D01*
X40838309Y3623600D01*
X42095269Y4880559D01*
X42123375Y4903625D01*
X42167542Y4957442D01*
X42215424Y5015787D01*
X42244401Y5070000D01*
X42283822Y5143751D01*
X42325942Y5282601D01*
X42336600Y5390814D01*
X42340164Y5427000D01*
X42336600Y5463186D01*
X42336600Y5834203D01*
X42611302Y5947988D01*
X42960983Y6181637D01*
X43258363Y6479017D01*
X43492012Y6828698D01*
X43652953Y7217244D01*
X43735000Y7629721D01*
X43735000Y8050279D01*
X43652953Y8462756D01*
X43492012Y8851302D01*
X43258363Y9200983D01*
X42960983Y9498363D01*
X42611302Y9732012D01*
X42222756Y9892953D01*
X41810279Y9975000D01*
X41389721Y9975000D01*
X40977244Y9892953D01*
X40588698Y9732012D01*
X40239017Y9498363D01*
X39941637Y9200983D01*
X39707988Y8851302D01*
X39547047Y8462756D01*
X39465000Y8050279D01*
X39465000Y7629721D01*
X39547047Y7217244D01*
X39707988Y6828698D01*
X39941637Y6479017D01*
X40239017Y6181637D01*
X40588698Y5947988D01*
X40863401Y5834202D01*
X40863401Y5732111D01*
X39262891Y4131600D01*
X20823110Y4131600D01*
X20111600Y4843109D01*
X20111600Y6052957D01*
X20268698Y5947988D01*
X20657244Y5787047D01*
X21069721Y5705000D01*
X21490279Y5705000D01*
X21902756Y5787047D01*
X22291302Y5947988D01*
X22640983Y6181637D01*
X22938363Y6479017D01*
X23172012Y6828698D01*
X23332953Y7217244D01*
X23415000Y7629721D01*
X23415000Y8050279D01*
X23332953Y8462756D01*
X23172012Y8851302D01*
X22938363Y9200983D01*
X22640983Y9498363D01*
X22291302Y9732012D01*
X21902756Y9892953D01*
X21490279Y9975000D01*
X21069721Y9975000D01*
X20657244Y9892953D01*
X20268698Y9732012D01*
X20137000Y9644014D01*
X20137000Y43247291D01*
X31719710Y54830000D01*
X31794067Y54830000D01*
X31990356Y54869044D01*
X32175256Y54945632D01*
X32341662Y55056821D01*
X32483179Y55198338D01*
X32594368Y55364744D01*
X32670956Y55549644D01*
X32710000Y55745933D01*
X32710000Y55946067D01*
X32678162Y56106129D01*
X38704400Y50079891D01*
X38704401Y28922000D01*
X33722573Y28922000D01*
X33706424Y28952213D01*
X33662125Y29006191D01*
X33637442Y29036268D01*
X33637437Y29036273D01*
X33614374Y29064375D01*
X33586273Y29087437D01*
X32684600Y29989109D01*
X32684600Y30380759D01*
X32737179Y30433338D01*
X32848368Y30599744D01*
X32924956Y30784644D01*
X32964000Y30980933D01*
X32964000Y31181067D01*
X32924956Y31377356D01*
X32848368Y31562256D01*
X32737179Y31728662D01*
X32595662Y31870179D01*
X32429256Y31981368D01*
X32244356Y32057956D01*
X32048067Y32097000D01*
X31847933Y32097000D01*
X31651644Y32057956D01*
X31466744Y31981368D01*
X31300338Y31870179D01*
X31158821Y31728662D01*
X31047632Y31562256D01*
X30971044Y31377356D01*
X30932000Y31181067D01*
X30932000Y30980933D01*
X30971044Y30784644D01*
X31047632Y30599744D01*
X31158821Y30433338D01*
X31211401Y30380758D01*
X31211401Y29720193D01*
X31207836Y29684000D01*
X31218632Y29574399D01*
X31222059Y29539601D01*
X31264179Y29400751D01*
X31273010Y29384229D01*
X31332576Y29272788D01*
X31380460Y29214442D01*
X31424626Y29160625D01*
X31452732Y29137559D01*
X31668291Y28922000D01*
X25090000Y28922000D01*
X25065224Y28919560D01*
X25041399Y28912333D01*
X25019443Y28900597D01*
X25000197Y28884803D01*
X24984403Y28865557D01*
X24972667Y28843601D01*
X24965440Y28819776D01*
X24963000Y28795000D01*
X24963000Y22445000D01*
X24965440Y22420224D01*
X24972667Y22396399D01*
X24984403Y22374443D01*
X25000197Y22355197D01*
X25019443Y22339403D01*
X25041399Y22327667D01*
X25065224Y22320440D01*
X25090000Y22318000D01*
X26588290Y22318000D01*
X25864732Y21594441D01*
X25836626Y21571375D01*
X25813560Y21543269D01*
X25813558Y21543267D01*
X25744576Y21459212D01*
X25676178Y21331247D01*
X25634059Y21192398D01*
X25619836Y21048000D01*
X25623401Y21011807D01*
X25623400Y9845797D01*
X25348698Y9732012D01*
X24999017Y9498363D01*
X24701637Y9200983D01*
X24467988Y8851302D01*
X24307047Y8462756D01*
X24225000Y8050279D01*
X24225000Y7629721D01*
X24307047Y7217244D01*
X24467988Y6828698D01*
X24701637Y6479017D01*
X24999017Y6181637D01*
X25348698Y5947988D01*
X25737244Y5787047D01*
X26149721Y5705000D01*
X26570279Y5705000D01*
X26982756Y5787047D01*
X27371302Y5947988D01*
X27720983Y6181637D01*
X28018363Y6479017D01*
X28252012Y6828698D01*
X28412953Y7217244D01*
X28495000Y7629721D01*
X28495000Y8050279D01*
X28412953Y8462756D01*
X28252012Y8851302D01*
X28018363Y9200983D01*
X27720983Y9498363D01*
X27371302Y9732012D01*
X27096600Y9845797D01*
X27096600Y20742891D01*
X27935110Y21581400D01*
X32328690Y21581400D01*
X30944733Y20197442D01*
X30916626Y20174375D01*
X30893560Y20146269D01*
X30893558Y20146267D01*
X30824576Y20062212D01*
X30756178Y19934247D01*
X30714059Y19795398D01*
X30699836Y19651000D01*
X30703401Y19614807D01*
X30703400Y9845797D01*
X30428698Y9732012D01*
X30079017Y9498363D01*
X29781637Y9200983D01*
X29547988Y8851302D01*
X29387047Y8462756D01*
X29305000Y8050279D01*
X29305000Y7629721D01*
X29387047Y7217244D01*
X29547988Y6828698D01*
X29781637Y6479017D01*
X30079017Y6181637D01*
X30428698Y5947988D01*
X30817244Y5787047D01*
X31229721Y5705000D01*
X31650279Y5705000D01*
X32062756Y5787047D01*
X32451302Y5947988D01*
X32800983Y6181637D01*
X33098363Y6479017D01*
X33332012Y6828698D01*
X33492953Y7217244D01*
X33575000Y7629721D01*
X33575000Y8050279D01*
X33492953Y8462756D01*
X33332012Y8851302D01*
X33098363Y9200983D01*
X32800983Y9498363D01*
X32451302Y9732012D01*
X32176600Y9845797D01*
X32176600Y19345891D01*
X33396110Y20565400D01*
X37281691Y20565400D01*
X36024732Y19308441D01*
X35996626Y19285375D01*
X35973560Y19257269D01*
X35973558Y19257267D01*
X35904576Y19173212D01*
X35836178Y19045247D01*
X35812496Y18967178D01*
X35799720Y18925059D01*
X35794059Y18906398D01*
X35779836Y18762000D01*
X35783401Y18725807D01*
X35783400Y9845797D01*
X35508698Y9732012D01*
X35159017Y9498363D01*
X34861637Y9200983D01*
X34627988Y8851302D01*
X34467047Y8462756D01*
X34385000Y8050279D01*
X34385000Y7629721D01*
X34467047Y7217244D01*
X34627988Y6828698D01*
X34861637Y6479017D01*
X35159017Y6181637D01*
X35508698Y5947988D01*
X35897244Y5787047D01*
X36309721Y5705000D01*
X36730279Y5705000D01*
X37142756Y5787047D01*
X37531302Y5947988D01*
X37880983Y6181637D01*
X38178363Y6479017D01*
X38412012Y6828698D01*
X38572953Y7217244D01*
X38655000Y7629721D01*
X38655000Y8050279D01*
X38572953Y8462756D01*
X38412012Y8851302D01*
X38178363Y9200983D01*
X37880983Y9498363D01*
X37531302Y9732012D01*
X37256600Y9845797D01*
X37256600Y18456891D01*
X38222109Y19422400D01*
X45246817Y19422400D01*
X45283000Y19418836D01*
X45319183Y19422400D01*
X45319186Y19422400D01*
X45427399Y19433058D01*
X45566249Y19475178D01*
X45694213Y19543576D01*
X45806375Y19635625D01*
X45829445Y19663736D01*
X47556273Y21390563D01*
X47584374Y21413625D01*
X47594401Y21425843D01*
X47594400Y13972183D01*
X47590836Y13936000D01*
X47594400Y13899817D01*
X47594400Y13899815D01*
X47605058Y13791602D01*
X47647178Y13652752D01*
X47647179Y13652751D01*
X47715576Y13524788D01*
X47720375Y13518941D01*
X47807625Y13412626D01*
X47835732Y13389559D01*
X48927557Y12297733D01*
X48950625Y12269625D01*
X49062787Y12177576D01*
X49190751Y12109178D01*
X49329601Y12067058D01*
X49437814Y12056400D01*
X49437823Y12056400D01*
X49473999Y12052837D01*
X49510175Y12056400D01*
X64662891Y12056400D01*
X66263401Y10455889D01*
X66263401Y9845798D01*
X65988698Y9732012D01*
X65639017Y9498363D01*
X65341637Y9200983D01*
X65107988Y8851302D01*
X64947047Y8462756D01*
X64865000Y8050279D01*
X64865000Y7629721D01*
X64947047Y7217244D01*
X65107988Y6828698D01*
X65341637Y6479017D01*
X65639017Y6181637D01*
X65988698Y5947988D01*
X66377244Y5787047D01*
X66789721Y5705000D01*
X67210279Y5705000D01*
X67622756Y5787047D01*
X68011302Y5947988D01*
X68360983Y6181637D01*
X68658363Y6479017D01*
X68892012Y6828698D01*
X69052953Y7217244D01*
X69135000Y7629721D01*
X69135000Y8050279D01*
X69945000Y8050279D01*
X69945000Y7629721D01*
X70027047Y7217244D01*
X70187988Y6828698D01*
X70421637Y6479017D01*
X70719017Y6181637D01*
X71068698Y5947988D01*
X71457244Y5787047D01*
X71869721Y5705000D01*
X72290279Y5705000D01*
X72702756Y5787047D01*
X73091302Y5947988D01*
X73440983Y6181637D01*
X73738363Y6479017D01*
X73972012Y6828698D01*
X74132953Y7217244D01*
X74215000Y7629721D01*
X74215000Y8050279D01*
X75025000Y8050279D01*
X75025000Y7629721D01*
X75107047Y7217244D01*
X75267988Y6828698D01*
X75501637Y6479017D01*
X75799017Y6181637D01*
X76148698Y5947988D01*
X76537244Y5787047D01*
X76949721Y5705000D01*
X77370279Y5705000D01*
X77782756Y5787047D01*
X78171302Y5947988D01*
X78520983Y6181637D01*
X78818363Y6479017D01*
X79052012Y6828698D01*
X79212953Y7217244D01*
X79295000Y7629721D01*
X79295000Y8050279D01*
X80105000Y8050279D01*
X80105000Y7629721D01*
X80187047Y7217244D01*
X80347988Y6828698D01*
X80581637Y6479017D01*
X80879017Y6181637D01*
X81228698Y5947988D01*
X81617244Y5787047D01*
X82029721Y5705000D01*
X82450279Y5705000D01*
X82862756Y5787047D01*
X83251302Y5947988D01*
X83600983Y6181637D01*
X83898363Y6479017D01*
X84132012Y6828698D01*
X84292953Y7217244D01*
X84375000Y7629721D01*
X84375000Y8050279D01*
X85185000Y8050279D01*
X85185000Y7629721D01*
X85267047Y7217244D01*
X85427988Y6828698D01*
X85661637Y6479017D01*
X85959017Y6181637D01*
X86308698Y5947988D01*
X86697244Y5787047D01*
X87109721Y5705000D01*
X87530279Y5705000D01*
X87942756Y5787047D01*
X88331302Y5947988D01*
X88680983Y6181637D01*
X88978363Y6479017D01*
X89212012Y6828698D01*
X89372953Y7217244D01*
X89455000Y7629721D01*
X89455000Y8050279D01*
X90265000Y8050279D01*
X90265000Y7629721D01*
X90347047Y7217244D01*
X90507988Y6828698D01*
X90741637Y6479017D01*
X91039017Y6181637D01*
X91388698Y5947988D01*
X91777244Y5787047D01*
X92189721Y5705000D01*
X92610279Y5705000D01*
X93022756Y5787047D01*
X93411302Y5947988D01*
X93760983Y6181637D01*
X93927693Y6348347D01*
X96167952Y6348347D01*
X96323962Y6032786D01*
X96698745Y5841980D01*
X97103551Y5727956D01*
X97522824Y5695098D01*
X97940451Y5744666D01*
X98340383Y5874757D01*
X98636038Y6032786D01*
X98792048Y6348347D01*
X101247952Y6348347D01*
X101403962Y6032786D01*
X101778745Y5841980D01*
X102183551Y5727956D01*
X102602824Y5695098D01*
X103020451Y5744666D01*
X103420383Y5874757D01*
X103716038Y6032786D01*
X103872048Y6348347D01*
X106200952Y6348347D01*
X106356962Y6032786D01*
X106731745Y5841980D01*
X107136551Y5727956D01*
X107555824Y5695098D01*
X107973451Y5744666D01*
X108373383Y5874757D01*
X108669038Y6032786D01*
X108825048Y6348347D01*
X111280952Y6348347D01*
X111436962Y6032786D01*
X111811745Y5841980D01*
X112216551Y5727956D01*
X112635824Y5695098D01*
X113053451Y5744666D01*
X113453383Y5874757D01*
X113749038Y6032786D01*
X113905048Y6348347D01*
X116487952Y6348347D01*
X116643962Y6032786D01*
X117018745Y5841980D01*
X117423551Y5727956D01*
X117842824Y5695098D01*
X118260451Y5744666D01*
X118660383Y5874757D01*
X118956038Y6032786D01*
X119112048Y6348347D01*
X121567952Y6348347D01*
X121723962Y6032786D01*
X122098745Y5841980D01*
X122503551Y5727956D01*
X122922824Y5695098D01*
X123340451Y5744666D01*
X123740383Y5874757D01*
X124036038Y6032786D01*
X124192048Y6348347D01*
X122880000Y7660395D01*
X121567952Y6348347D01*
X119112048Y6348347D01*
X117800000Y7660395D01*
X116487952Y6348347D01*
X113905048Y6348347D01*
X112593000Y7660395D01*
X111280952Y6348347D01*
X108825048Y6348347D01*
X107513000Y7660395D01*
X106200952Y6348347D01*
X103872048Y6348347D01*
X102560000Y7660395D01*
X101247952Y6348347D01*
X98792048Y6348347D01*
X97480000Y7660395D01*
X96167952Y6348347D01*
X93927693Y6348347D01*
X94058363Y6479017D01*
X94292012Y6828698D01*
X94452953Y7217244D01*
X94535000Y7629721D01*
X94535000Y7797176D01*
X95335098Y7797176D01*
X95384666Y7379549D01*
X95514757Y6979617D01*
X95672786Y6683962D01*
X95988347Y6527952D01*
X97300395Y7840000D01*
X97659605Y7840000D01*
X98971653Y6527952D01*
X99287214Y6683962D01*
X99478020Y7058745D01*
X99592044Y7463551D01*
X99618189Y7797176D01*
X100415098Y7797176D01*
X100464666Y7379549D01*
X100594757Y6979617D01*
X100752786Y6683962D01*
X101068347Y6527952D01*
X102380395Y7840000D01*
X102739605Y7840000D01*
X104051653Y6527952D01*
X104367214Y6683962D01*
X104558020Y7058745D01*
X104672044Y7463551D01*
X104698189Y7797176D01*
X105368098Y7797176D01*
X105417666Y7379549D01*
X105547757Y6979617D01*
X105705786Y6683962D01*
X106021347Y6527952D01*
X107333395Y7840000D01*
X107692605Y7840000D01*
X109004653Y6527952D01*
X109320214Y6683962D01*
X109511020Y7058745D01*
X109625044Y7463551D01*
X109651189Y7797176D01*
X110448098Y7797176D01*
X110497666Y7379549D01*
X110627757Y6979617D01*
X110785786Y6683962D01*
X111101347Y6527952D01*
X112413395Y7840000D01*
X112772605Y7840000D01*
X114084653Y6527952D01*
X114400214Y6683962D01*
X114591020Y7058745D01*
X114705044Y7463551D01*
X114731189Y7797176D01*
X115655098Y7797176D01*
X115704666Y7379549D01*
X115834757Y6979617D01*
X115992786Y6683962D01*
X116308347Y6527952D01*
X117620395Y7840000D01*
X117979605Y7840000D01*
X119291653Y6527952D01*
X119607214Y6683962D01*
X119798020Y7058745D01*
X119912044Y7463551D01*
X119938189Y7797176D01*
X120735098Y7797176D01*
X120784666Y7379549D01*
X120914757Y6979617D01*
X121072786Y6683962D01*
X121388347Y6527952D01*
X122700395Y7840000D01*
X123059605Y7840000D01*
X124371653Y6527952D01*
X124687214Y6683962D01*
X124878020Y7058745D01*
X124992044Y7463551D01*
X125024902Y7882824D01*
X124975334Y8300451D01*
X124845243Y8700383D01*
X124687214Y8996038D01*
X124371653Y9152048D01*
X123059605Y7840000D01*
X122700395Y7840000D01*
X121388347Y9152048D01*
X121072786Y8996038D01*
X120881980Y8621255D01*
X120767956Y8216449D01*
X120735098Y7797176D01*
X119938189Y7797176D01*
X119944902Y7882824D01*
X119895334Y8300451D01*
X119765243Y8700383D01*
X119607214Y8996038D01*
X119291653Y9152048D01*
X117979605Y7840000D01*
X117620395Y7840000D01*
X116308347Y9152048D01*
X115992786Y8996038D01*
X115801980Y8621255D01*
X115687956Y8216449D01*
X115655098Y7797176D01*
X114731189Y7797176D01*
X114737902Y7882824D01*
X114688334Y8300451D01*
X114558243Y8700383D01*
X114400214Y8996038D01*
X114084653Y9152048D01*
X112772605Y7840000D01*
X112413395Y7840000D01*
X111101347Y9152048D01*
X110785786Y8996038D01*
X110594980Y8621255D01*
X110480956Y8216449D01*
X110448098Y7797176D01*
X109651189Y7797176D01*
X109657902Y7882824D01*
X109608334Y8300451D01*
X109478243Y8700383D01*
X109320214Y8996038D01*
X109004653Y9152048D01*
X107692605Y7840000D01*
X107333395Y7840000D01*
X106021347Y9152048D01*
X105705786Y8996038D01*
X105514980Y8621255D01*
X105400956Y8216449D01*
X105368098Y7797176D01*
X104698189Y7797176D01*
X104704902Y7882824D01*
X104655334Y8300451D01*
X104525243Y8700383D01*
X104367214Y8996038D01*
X104051653Y9152048D01*
X102739605Y7840000D01*
X102380395Y7840000D01*
X101068347Y9152048D01*
X100752786Y8996038D01*
X100561980Y8621255D01*
X100447956Y8216449D01*
X100415098Y7797176D01*
X99618189Y7797176D01*
X99624902Y7882824D01*
X99575334Y8300451D01*
X99445243Y8700383D01*
X99287214Y8996038D01*
X98971653Y9152048D01*
X97659605Y7840000D01*
X97300395Y7840000D01*
X95988347Y9152048D01*
X95672786Y8996038D01*
X95481980Y8621255D01*
X95367956Y8216449D01*
X95335098Y7797176D01*
X94535000Y7797176D01*
X94535000Y8050279D01*
X94452953Y8462756D01*
X94292012Y8851302D01*
X94058363Y9200983D01*
X93927693Y9331653D01*
X96167952Y9331653D01*
X97480000Y8019605D01*
X98792048Y9331653D01*
X101247952Y9331653D01*
X102560000Y8019605D01*
X103872048Y9331653D01*
X106200952Y9331653D01*
X107513000Y8019605D01*
X108825048Y9331653D01*
X111280952Y9331653D01*
X112593000Y8019605D01*
X113905048Y9331653D01*
X116487952Y9331653D01*
X117800000Y8019605D01*
X119112048Y9331653D01*
X121567952Y9331653D01*
X122880000Y8019605D01*
X124192048Y9331653D01*
X124036038Y9647214D01*
X123661255Y9838020D01*
X123256449Y9952044D01*
X122837176Y9984902D01*
X122419549Y9935334D01*
X122019617Y9805243D01*
X121723962Y9647214D01*
X121567952Y9331653D01*
X119112048Y9331653D01*
X118956038Y9647214D01*
X118581255Y9838020D01*
X118176449Y9952044D01*
X117757176Y9984902D01*
X117339549Y9935334D01*
X116939617Y9805243D01*
X116643962Y9647214D01*
X116487952Y9331653D01*
X113905048Y9331653D01*
X113749038Y9647214D01*
X113374255Y9838020D01*
X112969449Y9952044D01*
X112550176Y9984902D01*
X112132549Y9935334D01*
X111732617Y9805243D01*
X111436962Y9647214D01*
X111280952Y9331653D01*
X108825048Y9331653D01*
X108669038Y9647214D01*
X108294255Y9838020D01*
X107889449Y9952044D01*
X107470176Y9984902D01*
X107052549Y9935334D01*
X106652617Y9805243D01*
X106356962Y9647214D01*
X106200952Y9331653D01*
X103872048Y9331653D01*
X103716038Y9647214D01*
X103341255Y9838020D01*
X102936449Y9952044D01*
X102517176Y9984902D01*
X102099549Y9935334D01*
X101699617Y9805243D01*
X101403962Y9647214D01*
X101247952Y9331653D01*
X98792048Y9331653D01*
X98636038Y9647214D01*
X98261255Y9838020D01*
X97856449Y9952044D01*
X97437176Y9984902D01*
X97019549Y9935334D01*
X96619617Y9805243D01*
X96323962Y9647214D01*
X96167952Y9331653D01*
X93927693Y9331653D01*
X93760983Y9498363D01*
X93411302Y9732012D01*
X93022756Y9892953D01*
X92610279Y9975000D01*
X92189721Y9975000D01*
X91777244Y9892953D01*
X91388698Y9732012D01*
X91039017Y9498363D01*
X90741637Y9200983D01*
X90507988Y8851302D01*
X90347047Y8462756D01*
X90265000Y8050279D01*
X89455000Y8050279D01*
X89372953Y8462756D01*
X89212012Y8851302D01*
X88978363Y9200983D01*
X88680983Y9498363D01*
X88331302Y9732012D01*
X87942756Y9892953D01*
X87530279Y9975000D01*
X87109721Y9975000D01*
X86697244Y9892953D01*
X86308698Y9732012D01*
X85959017Y9498363D01*
X85661637Y9200983D01*
X85427988Y8851302D01*
X85267047Y8462756D01*
X85185000Y8050279D01*
X84375000Y8050279D01*
X84292953Y8462756D01*
X84132012Y8851302D01*
X83898363Y9200983D01*
X83600983Y9498363D01*
X83251302Y9732012D01*
X82862756Y9892953D01*
X82450279Y9975000D01*
X82029721Y9975000D01*
X81617244Y9892953D01*
X81228698Y9732012D01*
X80879017Y9498363D01*
X80581637Y9200983D01*
X80347988Y8851302D01*
X80187047Y8462756D01*
X80105000Y8050279D01*
X79295000Y8050279D01*
X79212953Y8462756D01*
X79052012Y8851302D01*
X78818363Y9200983D01*
X78520983Y9498363D01*
X78171302Y9732012D01*
X77782756Y9892953D01*
X77370279Y9975000D01*
X76949721Y9975000D01*
X76537244Y9892953D01*
X76148698Y9732012D01*
X75799017Y9498363D01*
X75501637Y9200983D01*
X75267988Y8851302D01*
X75107047Y8462756D01*
X75025000Y8050279D01*
X74215000Y8050279D01*
X74132953Y8462756D01*
X73972012Y8851302D01*
X73738363Y9200983D01*
X73440983Y9498363D01*
X73091302Y9732012D01*
X72702756Y9892953D01*
X72290279Y9975000D01*
X71869721Y9975000D01*
X71457244Y9892953D01*
X71068698Y9732012D01*
X70719017Y9498363D01*
X70421637Y9200983D01*
X70187988Y8851302D01*
X70027047Y8462756D01*
X69945000Y8050279D01*
X69135000Y8050279D01*
X69052953Y8462756D01*
X68892012Y8851302D01*
X68658363Y9200983D01*
X68360983Y9498363D01*
X68011302Y9732012D01*
X67736600Y9845797D01*
X67736600Y10724814D01*
X67740164Y10761000D01*
X67725942Y10905399D01*
X67698633Y10995424D01*
X67683822Y11044249D01*
X67615424Y11172213D01*
X67523375Y11284375D01*
X67495269Y11307441D01*
X65514445Y13288264D01*
X65491375Y13316375D01*
X65379213Y13408424D01*
X65251249Y13476822D01*
X65112399Y13518942D01*
X65004186Y13529600D01*
X65004183Y13529600D01*
X64968000Y13533164D01*
X64931817Y13529600D01*
X49779110Y13529600D01*
X49067600Y14241109D01*
X49067600Y21871759D01*
X49120179Y21924338D01*
X49231368Y22090744D01*
X49307956Y22275644D01*
X49347000Y22471933D01*
X49347000Y22672067D01*
X49307956Y22868356D01*
X49231368Y23053256D01*
X49209258Y23086346D01*
X64666798Y23159013D01*
X64712112Y23150000D01*
X64987888Y23150000D01*
X65042071Y23160778D01*
X66661492Y23168391D01*
X66697178Y23050752D01*
X66761099Y22931164D01*
X66765576Y22922788D01*
X66820214Y22856212D01*
X66857625Y22810626D01*
X66885732Y22787559D01*
X67723559Y21949731D01*
X67746625Y21921625D01*
X67858787Y21829576D01*
X67986751Y21761178D01*
X68083524Y21731822D01*
X68125601Y21719058D01*
X68270000Y21704836D01*
X68306186Y21708400D01*
X82076817Y21708400D01*
X82113000Y21704836D01*
X82149183Y21708400D01*
X82149186Y21708400D01*
X82257399Y21719058D01*
X82396249Y21761178D01*
X82524213Y21829576D01*
X82636375Y21921625D01*
X82659446Y21949737D01*
X83070100Y22360391D01*
X133719997Y22360391D01*
X133906073Y22019234D01*
X134323409Y21803487D01*
X134774815Y21673304D01*
X135242946Y21633687D01*
X135709811Y21686158D01*
X136157468Y21828703D01*
X136513927Y22019234D01*
X136700003Y22360391D01*
X135210000Y23850395D01*
X133719997Y22360391D01*
X83070100Y22360391D01*
X84706763Y23997054D01*
X132813687Y23997054D01*
X132866158Y23530189D01*
X133008703Y23082532D01*
X133199234Y22726073D01*
X133540391Y22539997D01*
X135030395Y24030000D01*
X135389605Y24030000D01*
X136879609Y22539997D01*
X137220766Y22726073D01*
X137436513Y23143409D01*
X137566696Y23594815D01*
X137606313Y24062946D01*
X137553842Y24529811D01*
X137411297Y24977468D01*
X137220766Y25333927D01*
X136879609Y25520003D01*
X135389605Y24030000D01*
X135030395Y24030000D01*
X133540391Y25520003D01*
X133199234Y25333927D01*
X132983487Y24916591D01*
X132853304Y24465185D01*
X132813687Y23997054D01*
X84706763Y23997054D01*
X86037269Y25327559D01*
X86065375Y25350625D01*
X86157424Y25462787D01*
X86225822Y25590751D01*
X86258843Y25699609D01*
X133719997Y25699609D01*
X135210000Y24209605D01*
X136700003Y25699609D01*
X136513927Y26040766D01*
X136096591Y26256513D01*
X135645185Y26386696D01*
X135177054Y26426313D01*
X134710189Y26373842D01*
X134262532Y26231297D01*
X133906073Y26040766D01*
X133719997Y25699609D01*
X86258843Y25699609D01*
X86267942Y25729601D01*
X86278600Y25837814D01*
X86278600Y25837823D01*
X86282163Y25873999D01*
X86278600Y25910175D01*
X86278600Y33213067D01*
X101671000Y33213067D01*
X101671000Y33012933D01*
X101710044Y32816644D01*
X101786632Y32631744D01*
X101897821Y32465338D01*
X102039338Y32323821D01*
X102205744Y32212632D01*
X102390644Y32136044D01*
X102586933Y32097000D01*
X102661291Y32097000D01*
X103918558Y30839732D01*
X103941625Y30811625D01*
X104053787Y30719576D01*
X104181751Y30651178D01*
X104320598Y30609059D01*
X104320601Y30609058D01*
X104465000Y30594836D01*
X104501186Y30598400D01*
X129011928Y30598400D01*
X129011928Y30450000D01*
X129024188Y30325518D01*
X129060498Y30205820D01*
X129119463Y30095506D01*
X129198815Y29998815D01*
X129295506Y29919463D01*
X129405820Y29860498D01*
X129447690Y29847797D01*
X129346525Y29746632D01*
X129184010Y29503411D01*
X129072068Y29233158D01*
X129015000Y28946260D01*
X129015000Y28653740D01*
X129072068Y28366842D01*
X129184010Y28096589D01*
X129346525Y27853368D01*
X129553368Y27646525D01*
X129796589Y27484010D01*
X130066842Y27372068D01*
X130353740Y27315000D01*
X130646260Y27315000D01*
X130933158Y27372068D01*
X131203411Y27484010D01*
X131446632Y27646525D01*
X131500000Y27699893D01*
X131553368Y27646525D01*
X131796589Y27484010D01*
X132066842Y27372068D01*
X132353740Y27315000D01*
X132646260Y27315000D01*
X132933158Y27372068D01*
X133203411Y27484010D01*
X133446632Y27646525D01*
X133653475Y27853368D01*
X133815990Y28096589D01*
X133927932Y28366842D01*
X133985000Y28653740D01*
X133985000Y28946260D01*
X133927932Y29233158D01*
X133815990Y29503411D01*
X133653475Y29746632D01*
X133446632Y29953475D01*
X133283590Y30062416D01*
X133348792Y30271603D01*
X132500000Y31120395D01*
X132485858Y31106252D01*
X132306253Y31285857D01*
X132320395Y31300000D01*
X132679605Y31300000D01*
X133528397Y30451208D01*
X133777472Y30528843D01*
X133903371Y30792883D01*
X133975339Y31076411D01*
X133990611Y31368531D01*
X133948599Y31658019D01*
X133850919Y31933747D01*
X133777472Y32071157D01*
X133528397Y32148792D01*
X132679605Y31300000D01*
X132320395Y31300000D01*
X132306253Y31314142D01*
X132485858Y31493747D01*
X132500000Y31479605D01*
X133348792Y32328397D01*
X133271157Y32577472D01*
X133007117Y32703371D01*
X132723589Y32775339D01*
X132431469Y32790611D01*
X132141981Y32748599D01*
X131866253Y32650919D01*
X131790150Y32610241D01*
X131704494Y32680537D01*
X131594180Y32739502D01*
X131474482Y32775812D01*
X131350000Y32788072D01*
X129650000Y32788072D01*
X129525518Y32775812D01*
X129405820Y32739502D01*
X129295506Y32680537D01*
X129198815Y32601185D01*
X129119463Y32504494D01*
X129060498Y32394180D01*
X129024188Y32274482D01*
X129011928Y32150000D01*
X129011928Y32071600D01*
X104770110Y32071600D01*
X103703000Y33138709D01*
X103703000Y33213067D01*
X103663956Y33409356D01*
X103587368Y33594256D01*
X103476179Y33760662D01*
X103334662Y33902179D01*
X103168256Y34013368D01*
X102983356Y34089956D01*
X102787067Y34129000D01*
X102586933Y34129000D01*
X102390644Y34089956D01*
X102205744Y34013368D01*
X102039338Y33902179D01*
X101897821Y33760662D01*
X101786632Y33594256D01*
X101710044Y33409356D01*
X101671000Y33213067D01*
X86278600Y33213067D01*
X86278600Y34400391D01*
X133719997Y34400391D01*
X133906073Y34059234D01*
X134323409Y33843487D01*
X134774815Y33713304D01*
X135242946Y33673687D01*
X135709811Y33726158D01*
X136157468Y33868703D01*
X136513927Y34059234D01*
X136700003Y34400391D01*
X135210000Y35890395D01*
X133719997Y34400391D01*
X86278600Y34400391D01*
X86278600Y35206759D01*
X86331179Y35259338D01*
X86442368Y35425744D01*
X86518956Y35610644D01*
X86558000Y35806933D01*
X86558000Y36007067D01*
X86552036Y36037054D01*
X132813687Y36037054D01*
X132866158Y35570189D01*
X133008703Y35122532D01*
X133199234Y34766073D01*
X133540391Y34579997D01*
X135030395Y36070000D01*
X135389605Y36070000D01*
X136879609Y34579997D01*
X137220766Y34766073D01*
X137436513Y35183409D01*
X137566696Y35634815D01*
X137606313Y36102946D01*
X137553842Y36569811D01*
X137411297Y37017468D01*
X137220766Y37373927D01*
X136879609Y37560003D01*
X135389605Y36070000D01*
X135030395Y36070000D01*
X133540391Y37560003D01*
X133199234Y37373927D01*
X132983487Y36956591D01*
X132853304Y36505185D01*
X132813687Y36037054D01*
X86552036Y36037054D01*
X86518956Y36203356D01*
X86442368Y36388256D01*
X86331179Y36554662D01*
X86209775Y36676066D01*
X87273318Y37739609D01*
X133719997Y37739609D01*
X135210000Y36249605D01*
X136700003Y37739609D01*
X136513927Y38080766D01*
X136096591Y38296513D01*
X135645185Y38426696D01*
X135177054Y38466313D01*
X134710189Y38413842D01*
X134262532Y38271297D01*
X133906073Y38080766D01*
X133719997Y37739609D01*
X87273318Y37739609D01*
X87307269Y37773559D01*
X87335375Y37796625D01*
X87417459Y37896644D01*
X87427424Y37908787D01*
X87427939Y37909751D01*
X87495822Y38036751D01*
X87537942Y38175601D01*
X87548600Y38283814D01*
X87552164Y38320000D01*
X87548600Y38356186D01*
X87548600Y42901411D01*
X94063000Y42901411D01*
X94063000Y42628589D01*
X94116225Y42361011D01*
X94220629Y42108957D01*
X94372201Y41882114D01*
X94565114Y41689201D01*
X94791957Y41537629D01*
X95044011Y41433225D01*
X95311589Y41380000D01*
X95584411Y41380000D01*
X95851989Y41433225D01*
X96104043Y41537629D01*
X96330886Y41689201D01*
X96523799Y41882114D01*
X96675371Y42108957D01*
X96779775Y42361011D01*
X96833000Y42628589D01*
X96833000Y42901411D01*
X96779775Y43168989D01*
X96675371Y43421043D01*
X96523799Y43647886D01*
X96330886Y43840799D01*
X96104043Y43992371D01*
X95851989Y44096775D01*
X95584411Y44150000D01*
X95311589Y44150000D01*
X95044011Y44096775D01*
X94791957Y43992371D01*
X94565114Y43840799D01*
X94372201Y43647886D01*
X94220629Y43421043D01*
X94116225Y43168989D01*
X94063000Y42901411D01*
X87548600Y42901411D01*
X87548600Y45010391D01*
X134259997Y45010391D01*
X134446073Y44669234D01*
X134863409Y44453487D01*
X135314815Y44323304D01*
X135782946Y44283687D01*
X136249811Y44336158D01*
X136697468Y44478703D01*
X137053927Y44669234D01*
X137240003Y45010391D01*
X135750000Y46500395D01*
X134259997Y45010391D01*
X87548600Y45010391D01*
X87548600Y47781411D01*
X94063000Y47781411D01*
X94063000Y47508589D01*
X94116225Y47241011D01*
X94220629Y46988957D01*
X94372201Y46762114D01*
X94565114Y46569201D01*
X94791957Y46417629D01*
X95044011Y46313225D01*
X95311589Y46260000D01*
X95584411Y46260000D01*
X95851989Y46313225D01*
X96104043Y46417629D01*
X96330886Y46569201D01*
X96523799Y46762114D01*
X96675371Y46988957D01*
X96779775Y47241011D01*
X96833000Y47508589D01*
X96833000Y47781411D01*
X96779775Y48048989D01*
X96675371Y48301043D01*
X96523799Y48527886D01*
X96330886Y48720799D01*
X96104043Y48872371D01*
X95851989Y48976775D01*
X95584411Y49030000D01*
X95311589Y49030000D01*
X95044011Y48976775D01*
X94791957Y48872371D01*
X94565114Y48720799D01*
X94372201Y48527886D01*
X94220629Y48301043D01*
X94116225Y48048989D01*
X94063000Y47781411D01*
X87548600Y47781411D01*
X87548600Y55465000D01*
X131008000Y55465000D01*
X131008000Y46575000D01*
X131010440Y46550224D01*
X131017667Y46526399D01*
X131029403Y46504443D01*
X131045197Y46485197D01*
X131064443Y46469403D01*
X131086399Y46457667D01*
X131110224Y46450440D01*
X131135000Y46448000D01*
X133376059Y46448000D01*
X133406158Y46180189D01*
X133548703Y45732532D01*
X133739234Y45376073D01*
X134080391Y45189997D01*
X135570395Y46680000D01*
X135929605Y46680000D01*
X137419609Y45189997D01*
X137760766Y45376073D01*
X137976513Y45793409D01*
X138106696Y46244815D01*
X138146313Y46712946D01*
X138093842Y47179811D01*
X137951297Y47627468D01*
X137760766Y47983927D01*
X137419609Y48170003D01*
X135929605Y46680000D01*
X135570395Y46680000D01*
X135556253Y46694142D01*
X135735858Y46873747D01*
X135750000Y46859605D01*
X137240003Y48349609D01*
X137053927Y48690766D01*
X136636591Y48906513D01*
X136185185Y49036696D01*
X135717054Y49076313D01*
X135250189Y49023842D01*
X135072000Y48967102D01*
X135072000Y55465000D01*
X135069560Y55489776D01*
X135062333Y55513601D01*
X135050597Y55535557D01*
X135034803Y55554803D01*
X135015557Y55570597D01*
X134993601Y55582333D01*
X134969776Y55589560D01*
X134945000Y55592000D01*
X133772275Y55592000D01*
X133825960Y55784435D01*
X133040000Y56570395D01*
X132254040Y55784435D01*
X132307725Y55592000D01*
X131135000Y55592000D01*
X131110224Y55589560D01*
X131086399Y55582333D01*
X131064443Y55570597D01*
X131045197Y55554803D01*
X131029403Y55535557D01*
X131017667Y55513601D01*
X131010440Y55489776D01*
X131008000Y55465000D01*
X87548600Y55465000D01*
X87548600Y56677983D01*
X131638090Y56677983D01*
X131679078Y56405867D01*
X131772364Y56146977D01*
X131834344Y56031020D01*
X132074435Y55964040D01*
X132860395Y56750000D01*
X133219605Y56750000D01*
X134005565Y55964040D01*
X134245656Y56031020D01*
X134362756Y56280048D01*
X134429023Y56547135D01*
X134441910Y56822017D01*
X134400922Y57094133D01*
X134307636Y57353023D01*
X134245656Y57468980D01*
X134005565Y57535960D01*
X133219605Y56750000D01*
X132860395Y56750000D01*
X132074435Y57535960D01*
X131834344Y57468980D01*
X131717244Y57219952D01*
X131650977Y56952865D01*
X131638090Y56677983D01*
X87548600Y56677983D01*
X87548600Y57715565D01*
X132254040Y57715565D01*
X133040000Y56929605D01*
X133825960Y57715565D01*
X133758980Y57955656D01*
X133509952Y58072756D01*
X133242865Y58139023D01*
X133000384Y58150391D01*
X134259997Y58150391D01*
X134446073Y57809234D01*
X134863409Y57593487D01*
X135314815Y57463304D01*
X135782946Y57423687D01*
X136249811Y57476158D01*
X136697468Y57618703D01*
X137053927Y57809234D01*
X137240003Y58150391D01*
X135750000Y59640395D01*
X134259997Y58150391D01*
X133000384Y58150391D01*
X132967983Y58151910D01*
X132695867Y58110922D01*
X132436977Y58017636D01*
X132321020Y57955656D01*
X132254040Y57715565D01*
X87548600Y57715565D01*
X87548600Y59787054D01*
X133353687Y59787054D01*
X133406158Y59320189D01*
X133548703Y58872532D01*
X133739234Y58516073D01*
X134080391Y58329997D01*
X135570395Y59820000D01*
X135929605Y59820000D01*
X137419609Y58329997D01*
X137760766Y58516073D01*
X137976513Y58933409D01*
X138106696Y59384815D01*
X138146313Y59852946D01*
X138093842Y60319811D01*
X137951297Y60767468D01*
X137760766Y61123927D01*
X137419609Y61310003D01*
X135929605Y59820000D01*
X135570395Y59820000D01*
X134080391Y61310003D01*
X133739234Y61123927D01*
X133523487Y60706591D01*
X133393304Y60255185D01*
X133353687Y59787054D01*
X87548600Y59787054D01*
X87548600Y61489609D01*
X134259997Y61489609D01*
X135750000Y59999605D01*
X137240003Y61489609D01*
X137053927Y61830766D01*
X136636591Y62046513D01*
X136185185Y62176696D01*
X135717054Y62216313D01*
X135250189Y62163842D01*
X134802532Y62021297D01*
X134446073Y61830766D01*
X134259997Y61489609D01*
X87548600Y61489609D01*
X87548600Y62130759D01*
X87601179Y62183338D01*
X87712368Y62349744D01*
X87788956Y62534644D01*
X87828000Y62730933D01*
X87828000Y62856400D01*
X138591817Y62856400D01*
X138628000Y62852836D01*
X138664183Y62856400D01*
X138664186Y62856400D01*
X138772399Y62867058D01*
X138911249Y62909178D01*
X139039213Y62977576D01*
X139151375Y63069625D01*
X139174446Y63097737D01*
X143060273Y66983563D01*
X143088374Y67006625D01*
X143111437Y67034727D01*
X143111442Y67034732D01*
X143180424Y67118787D01*
X143222669Y67197822D01*
X143248822Y67246751D01*
X143290942Y67385601D01*
X143301600Y67493814D01*
X143301600Y67493815D01*
X143305164Y67530000D01*
X143301600Y67566186D01*
X143301600Y75709572D01*
X143305597Y75714443D01*
X143317333Y75736399D01*
X143324560Y75760224D01*
X143327000Y75785000D01*
X143327000Y80230000D01*
X143324560Y80254776D01*
X143317333Y80278601D01*
X143305597Y80300557D01*
X143289803Y80319803D01*
X143270557Y80335597D01*
X143248601Y80347333D01*
X143224776Y80354560D01*
X143223405Y80354695D01*
X143314269Y80445559D01*
X143342375Y80468625D01*
X143424459Y80568644D01*
X143434424Y80580787D01*
X143456649Y80622368D01*
X143502822Y80708751D01*
X143544942Y80847601D01*
X143555600Y80955814D01*
X143559164Y80992000D01*
X143555600Y81028186D01*
X143555600Y87559825D01*
X143559163Y87596001D01*
X143555600Y87632177D01*
X143555600Y87632186D01*
X143544942Y87740399D01*
X143502822Y87879249D01*
X143434424Y88007213D01*
X143342374Y88119375D01*
X143314267Y88142442D01*
X142151024Y89305685D01*
X142101010Y89557125D01*
X141988042Y89829853D01*
X141824039Y90075302D01*
X141615302Y90284039D01*
X141449897Y90394559D01*
X141548488Y90453183D01*
X141766854Y90649707D01*
X141942684Y90885056D01*
X142069222Y91150186D01*
X142114958Y91300974D01*
X141993817Y91533000D01*
X140787000Y91533000D01*
X140787000Y91513000D01*
X140533000Y91513000D01*
X140533000Y91533000D01*
X140513000Y91533000D01*
X140513000Y91787000D01*
X140533000Y91787000D01*
X140533000Y92994464D01*
X140787000Y92994464D01*
X140787000Y91787000D01*
X141993817Y91787000D01*
X142114958Y92019026D01*
X142069222Y92169814D01*
X141942684Y92434944D01*
X141766854Y92670293D01*
X141548488Y92866817D01*
X141295978Y93016964D01*
X141019027Y93114963D01*
X140787000Y92994464D01*
X140533000Y92994464D01*
X140300973Y93114963D01*
X140024022Y93016964D01*
X139771512Y92866817D01*
X139553146Y92670293D01*
X139391692Y92454187D01*
X139284039Y92615302D01*
X139075302Y92824039D01*
X138829853Y92988042D01*
X138557125Y93101010D01*
X138267599Y93158600D01*
X137972401Y93158600D01*
X137682875Y93101010D01*
X137410147Y92988042D01*
X137164698Y92824039D01*
X136955961Y92615302D01*
X136791958Y92369853D01*
X136678990Y92097125D01*
X136621400Y91807599D01*
X136621400Y91512401D01*
X136678990Y91222875D01*
X136791958Y90950147D01*
X136955961Y90704698D01*
X137164698Y90495961D01*
X137330103Y90385441D01*
X137231512Y90326817D01*
X137013146Y90130293D01*
X136837316Y89894944D01*
X136710778Y89629814D01*
X136665042Y89479026D01*
X136786183Y89247000D01*
X137993000Y89247000D01*
X137993000Y89267000D01*
X138247000Y89267000D01*
X138247000Y89247000D01*
X138267000Y89247000D01*
X138267000Y88993000D01*
X138247000Y88993000D01*
X138247000Y88973000D01*
X137993000Y88973000D01*
X137993000Y88993000D01*
X136786183Y88993000D01*
X136665042Y88760974D01*
X136710778Y88610186D01*
X136837316Y88345056D01*
X137013146Y88109707D01*
X137231512Y87913183D01*
X137330103Y87854559D01*
X137164698Y87744039D01*
X136955961Y87535302D01*
X136791958Y87289853D01*
X136678990Y87017125D01*
X136621400Y86727599D01*
X136621400Y86432401D01*
X136678990Y86142875D01*
X136718869Y86046600D01*
X106675110Y86046600D01*
X100820446Y91901263D01*
X100797375Y91929375D01*
X100685213Y92021424D01*
X100557249Y92089822D01*
X100418399Y92131942D01*
X100310186Y92142600D01*
X100310183Y92142600D01*
X100274000Y92146164D01*
X100237817Y92142600D01*
X82367309Y92142600D01*
X84005269Y93780559D01*
X84033375Y93803625D01*
X84125424Y93915787D01*
X84193822Y94043751D01*
X84235942Y94182601D01*
X84246600Y94290814D01*
X84246600Y94290823D01*
X84250163Y94326999D01*
X84246600Y94363175D01*
X84246600Y95978000D01*
X85415000Y95978000D01*
X85439776Y95980440D01*
X85463601Y95987667D01*
X85485557Y95999403D01*
X85504803Y96015197D01*
X85520597Y96034443D01*
X85532333Y96056399D01*
X85539560Y96080224D01*
X85542000Y96105000D01*
X85542000Y101185000D01*
X90368000Y101185000D01*
X90368000Y96105000D01*
X90370440Y96080224D01*
X90377667Y96056399D01*
X90389403Y96034443D01*
X90405197Y96015197D01*
X90424443Y95999403D01*
X90446399Y95987667D01*
X90470224Y95980440D01*
X90495000Y95978000D01*
X101925000Y95978000D01*
X101949776Y95980440D01*
X101973601Y95987667D01*
X101995557Y95999403D01*
X102014803Y96015197D01*
X102030597Y96034443D01*
X102042333Y96056399D01*
X102049560Y96080224D01*
X102052000Y96105000D01*
X102052000Y101185000D01*
X102049560Y101209776D01*
X102042333Y101233601D01*
X102030597Y101255557D01*
X102014803Y101274803D01*
X101995557Y101290597D01*
X101973601Y101302333D01*
X101949776Y101309560D01*
X101925000Y101312000D01*
X90495000Y101312000D01*
X90470224Y101309560D01*
X90446399Y101302333D01*
X90424443Y101290597D01*
X90405197Y101274803D01*
X90389403Y101255557D01*
X90377667Y101233601D01*
X90370440Y101209776D01*
X90368000Y101185000D01*
X85542000Y101185000D01*
X85539560Y101209776D01*
X85532333Y101233601D01*
X85520597Y101255557D01*
X85504803Y101274803D01*
X85485557Y101290597D01*
X85463601Y101302333D01*
X85439776Y101309560D01*
X85415000Y101312000D01*
X73985000Y101312000D01*
X73960224Y101309560D01*
X73936399Y101302333D01*
X73914443Y101290597D01*
X73895197Y101274803D01*
X73879403Y101255557D01*
X73867667Y101233601D01*
X73860440Y101209776D01*
X73858000Y101185000D01*
X73858000Y96105000D01*
X73860440Y96080224D01*
X73867667Y96056399D01*
X73879403Y96034443D01*
X73895197Y96015197D01*
X73914443Y95999403D01*
X73936399Y95987667D01*
X73960224Y95980440D01*
X73985000Y95978000D01*
X80233400Y95978000D01*
X80233401Y94124111D01*
X79775891Y93666600D01*
X70164590Y93666600D01*
X70175000Y93718933D01*
X70175000Y93919067D01*
X70135956Y94115356D01*
X70059368Y94300256D01*
X69948179Y94466662D01*
X69806662Y94608179D01*
X69640256Y94719368D01*
X69455356Y94795956D01*
X69259067Y94835000D01*
X69058933Y94835000D01*
X68862644Y94795956D01*
X68677744Y94719368D01*
X68511338Y94608179D01*
X68458759Y94555600D01*
X66887441Y94555600D01*
X66900179Y94568338D01*
X67011368Y94734744D01*
X67087956Y94919644D01*
X67127000Y95115933D01*
X67127000Y95316067D01*
X67087956Y95512356D01*
X67011368Y95697256D01*
X66900179Y95863662D01*
X66758662Y96005179D01*
X66592256Y96116368D01*
X66407356Y96192956D01*
X66211067Y96232000D01*
X66010933Y96232000D01*
X65814644Y96192956D01*
X65629744Y96116368D01*
X65463338Y96005179D01*
X65410759Y95952600D01*
X45856241Y95952600D01*
X45803662Y96005179D01*
X45637256Y96116368D01*
X45452356Y96192956D01*
X45256067Y96232000D01*
X45055933Y96232000D01*
X44859644Y96192956D01*
X44674744Y96116368D01*
X44508338Y96005179D01*
X44366821Y95863662D01*
X44255632Y95697256D01*
X44179044Y95512356D01*
X44140000Y95316067D01*
X44140000Y95115933D01*
X44179044Y94919644D01*
X44220181Y94820330D01*
X44097644Y94795956D01*
X43912744Y94719368D01*
X43746338Y94608179D01*
X43604821Y94466662D01*
X43493632Y94300256D01*
X43417044Y94115356D01*
X43378000Y93919067D01*
X43378000Y93718933D01*
X43388410Y93666600D01*
X35960428Y93666600D01*
X35955557Y93670597D01*
X35933601Y93682333D01*
X35909776Y93689560D01*
X35885000Y93692000D01*
X29027000Y93692000D01*
X29027000Y100328347D01*
X36223952Y100328347D01*
X36379962Y100012786D01*
X36754745Y99821980D01*
X37159551Y99707956D01*
X37578824Y99675098D01*
X37996451Y99724666D01*
X38396383Y99854757D01*
X38692038Y100012786D01*
X38848048Y100328347D01*
X37536000Y101640395D01*
X36223952Y100328347D01*
X29027000Y100328347D01*
X29027000Y101185000D01*
X29024560Y101209776D01*
X29017333Y101233601D01*
X29005597Y101255557D01*
X28989803Y101274803D01*
X28970557Y101290597D01*
X28948601Y101302333D01*
X28924776Y101309560D01*
X28900000Y101312000D01*
X27122000Y101312000D01*
X27122000Y101777176D01*
X35391098Y101777176D01*
X35440666Y101359549D01*
X35570757Y100959617D01*
X35728786Y100663962D01*
X36044347Y100507952D01*
X37356395Y101820000D01*
X37715605Y101820000D01*
X39027653Y100507952D01*
X39343214Y100663962D01*
X39534020Y101038745D01*
X39648044Y101443551D01*
X39680902Y101862824D01*
X39631334Y102280451D01*
X39501243Y102680383D01*
X39343214Y102976038D01*
X39027653Y103132048D01*
X37715605Y101820000D01*
X37356395Y101820000D01*
X36044347Y103132048D01*
X35728786Y102976038D01*
X35537980Y102601255D01*
X35423956Y102196449D01*
X35391098Y101777176D01*
X27122000Y101777176D01*
X27122000Y103311653D01*
X36223952Y103311653D01*
X37536000Y101999605D01*
X38848048Y103311653D01*
X38692038Y103627214D01*
X38317255Y103818020D01*
X37912449Y103932044D01*
X37493176Y103964902D01*
X37075549Y103915334D01*
X36675617Y103785243D01*
X36379962Y103627214D01*
X36223952Y103311653D01*
X27122000Y103311653D01*
X27122000Y104360000D01*
X40203000Y104360000D01*
X40203000Y99280000D01*
X40205440Y99255224D01*
X40212667Y99231399D01*
X40224403Y99209443D01*
X40240197Y99190197D01*
X40259443Y99174403D01*
X40281399Y99162667D01*
X40305224Y99155440D01*
X40330000Y99153000D01*
X45410000Y99153000D01*
X45434776Y99155440D01*
X45458601Y99162667D01*
X45480557Y99174403D01*
X45499803Y99190197D01*
X45515597Y99209443D01*
X45527333Y99231399D01*
X45534560Y99255224D01*
X45537000Y99280000D01*
X45537000Y102299119D01*
X137478724Y102299119D01*
X137838912Y101809452D01*
X138502882Y101449151D01*
X139224385Y101225306D01*
X139975695Y101146520D01*
X140727938Y101215822D01*
X141452208Y101430548D01*
X142120670Y101782445D01*
X142161088Y101809452D01*
X142521276Y102299119D01*
X140000000Y104820395D01*
X137478724Y102299119D01*
X45537000Y102299119D01*
X45537000Y104360000D01*
X45534560Y104384776D01*
X45527333Y104408601D01*
X45515597Y104430557D01*
X45499803Y104449803D01*
X45480557Y104465597D01*
X45458601Y104477333D01*
X45434776Y104484560D01*
X45410000Y104487000D01*
X40330000Y104487000D01*
X40305224Y104484560D01*
X40281399Y104477333D01*
X40259443Y104465597D01*
X40240197Y104449803D01*
X40224403Y104430557D01*
X40212667Y104408601D01*
X40205440Y104384776D01*
X40203000Y104360000D01*
X27122000Y104360000D01*
X27119560Y104384776D01*
X27112333Y104408601D01*
X27100597Y104430557D01*
X27084803Y104449803D01*
X27065557Y104465597D01*
X27043601Y104477333D01*
X27019776Y104484560D01*
X26995000Y104487000D01*
X16835000Y104487000D01*
X16810224Y104484560D01*
X16786399Y104477333D01*
X16764443Y104465597D01*
X16745197Y104449803D01*
X16729403Y104430557D01*
X16717667Y104408601D01*
X16710440Y104384776D01*
X16708000Y104360000D01*
X16708000Y99280000D01*
X16710440Y99255224D01*
X16717667Y99231399D01*
X16729403Y99209443D01*
X16745197Y99190197D01*
X16764443Y99174403D01*
X16786399Y99162667D01*
X16810224Y99155440D01*
X16835000Y99153000D01*
X21127291Y99153000D01*
X21153000Y99127291D01*
X21153000Y95571600D01*
X11247000Y95571600D01*
X11247000Y97375000D01*
X11244560Y97399776D01*
X11237333Y97423601D01*
X11225597Y97445557D01*
X11209803Y97464803D01*
X11190557Y97480597D01*
X11168601Y97492333D01*
X11144776Y97499560D01*
X11120000Y97502000D01*
X6040000Y97502000D01*
X6015224Y97499560D01*
X5991399Y97492333D01*
X5969443Y97480597D01*
X5950197Y97464803D01*
X5934403Y97445557D01*
X5922667Y97423601D01*
X5915440Y97399776D01*
X5913000Y97375000D01*
X5913000Y87215000D01*
X5915440Y87190224D01*
X5922667Y87166399D01*
X5934403Y87144443D01*
X5950197Y87125197D01*
X5969443Y87109403D01*
X5991399Y87097667D01*
X6015224Y87090440D01*
X6040000Y87088000D01*
X11120000Y87088000D01*
X11144776Y87090440D01*
X11168601Y87097667D01*
X11190557Y87109403D01*
X11209803Y87125197D01*
X11225597Y87144443D01*
X11237333Y87166399D01*
X11244560Y87190224D01*
X11247000Y87215000D01*
X11247000Y94098400D01*
X21204572Y94098400D01*
X21209443Y94094403D01*
X21231399Y94082667D01*
X21255224Y94075440D01*
X21280000Y94073000D01*
X21762291Y94073000D01*
X23591400Y92243890D01*
X23591401Y86362193D01*
X23587836Y86326000D01*
X23596707Y86235942D01*
X23602059Y86181601D01*
X23619100Y86125424D01*
X23641245Y86052424D01*
X23644179Y86042751D01*
X23649093Y86033558D01*
X23693000Y85951413D01*
X23693000Y80230000D01*
X23695440Y80205224D01*
X23702667Y80181399D01*
X23714403Y80159443D01*
X23730197Y80140197D01*
X23749443Y80124403D01*
X23771399Y80112667D01*
X23795224Y80105440D01*
X23820000Y80103000D01*
X28620291Y80103000D01*
X27134732Y78617441D01*
X27106626Y78594375D01*
X27083560Y78566269D01*
X27083558Y78566267D01*
X27014576Y78482212D01*
X26946178Y78354247D01*
X26904059Y78215398D01*
X26889836Y78071000D01*
X26893401Y78034807D01*
X26893400Y75977241D01*
X26840821Y75924662D01*
X26729632Y75758256D01*
X26653044Y75573356D01*
X26614000Y75377067D01*
X26614000Y75176933D01*
X26653044Y74980644D01*
X26729632Y74795744D01*
X26840821Y74629338D01*
X26982338Y74487821D01*
X27148744Y74376632D01*
X27333644Y74300044D01*
X27529933Y74261000D01*
X27730067Y74261000D01*
X27926356Y74300044D01*
X28111256Y74376632D01*
X28277662Y74487821D01*
X28419179Y74629338D01*
X28530368Y74795744D01*
X28606956Y74980644D01*
X28646000Y75176933D01*
X28646000Y75377067D01*
X28606956Y75573356D01*
X28530368Y75758256D01*
X28419179Y75924662D01*
X28366600Y75977241D01*
X28366600Y77765891D01*
X30703709Y80103000D01*
X35885000Y80103000D01*
X35909776Y80105440D01*
X35933601Y80112667D01*
X35955557Y80124403D01*
X35974803Y80140197D01*
X35990597Y80159443D01*
X36002333Y80181399D01*
X36009560Y80205224D01*
X36012000Y80230000D01*
X36012000Y80616357D01*
X36173400Y80648462D01*
X36173401Y69970193D01*
X36169836Y69934000D01*
X36184059Y69789602D01*
X36226178Y69650753D01*
X36294576Y69522788D01*
X36342619Y69464248D01*
X36386626Y69410625D01*
X36414732Y69387559D01*
X41809067Y63993224D01*
X41766044Y63889356D01*
X41727000Y63693067D01*
X41727000Y63492933D01*
X41766044Y63296644D01*
X41842632Y63111744D01*
X41953821Y62945338D01*
X42095338Y62803821D01*
X42261744Y62692632D01*
X42446644Y62616044D01*
X42642933Y62577000D01*
X42843067Y62577000D01*
X43039356Y62616044D01*
X43224256Y62692632D01*
X43390662Y62803821D01*
X43443241Y62856400D01*
X85796000Y62856400D01*
X85796000Y62800381D01*
X85642067Y62831000D01*
X85441933Y62831000D01*
X85245644Y62791956D01*
X85060744Y62715368D01*
X84894338Y62604179D01*
X84752821Y62462662D01*
X84641632Y62296256D01*
X84565044Y62111356D01*
X84526000Y61915067D01*
X84526000Y61714933D01*
X84565044Y61518644D01*
X84641632Y61333744D01*
X84752821Y61167338D01*
X84805400Y61114759D01*
X84805401Y38893242D01*
X84752821Y38840662D01*
X84641632Y38674256D01*
X84565044Y38489356D01*
X84526000Y38293067D01*
X84526000Y38092933D01*
X84565044Y37896644D01*
X84641632Y37711744D01*
X84752821Y37545338D01*
X84874225Y37423934D01*
X81680891Y34230600D01*
X55987186Y34230600D01*
X55951000Y34234164D01*
X55914814Y34230600D01*
X55806601Y34219942D01*
X55667751Y34177822D01*
X55539787Y34109424D01*
X55427625Y34017375D01*
X55404559Y33989269D01*
X51645733Y30230442D01*
X51617625Y30207374D01*
X51607600Y30195159D01*
X51607600Y30761759D01*
X51660179Y30814338D01*
X51771368Y30980744D01*
X51847956Y31165644D01*
X51887000Y31361933D01*
X51887000Y31562067D01*
X51847956Y31758356D01*
X51771368Y31943256D01*
X51660179Y32109662D01*
X51518662Y32251179D01*
X51352256Y32362368D01*
X51167356Y32438956D01*
X50971067Y32478000D01*
X50770933Y32478000D01*
X50574644Y32438956D01*
X50389744Y32362368D01*
X50337600Y32327526D01*
X50337600Y42220814D01*
X50341164Y42257000D01*
X50326942Y42401399D01*
X50284822Y42540248D01*
X50284822Y42540249D01*
X50216424Y42668213D01*
X50147442Y42752268D01*
X50147437Y42752273D01*
X50124374Y42780375D01*
X50096274Y42803436D01*
X31732446Y61167263D01*
X31709375Y61195375D01*
X31597213Y61287424D01*
X31469249Y61355822D01*
X31330399Y61397942D01*
X31222186Y61408600D01*
X31222183Y61408600D01*
X31186000Y61412164D01*
X31149817Y61408600D01*
X29397590Y61408600D01*
X29408000Y61460933D01*
X29408000Y61535291D01*
X30449710Y62577000D01*
X30524067Y62577000D01*
X30720356Y62616044D01*
X30905256Y62692632D01*
X31071662Y62803821D01*
X31213179Y62945338D01*
X31324368Y63111744D01*
X31400956Y63296644D01*
X31440000Y63492933D01*
X31440000Y63693067D01*
X31400956Y63889356D01*
X31324368Y64074256D01*
X31213179Y64240662D01*
X31071662Y64382179D01*
X30905256Y64493368D01*
X30720356Y64569956D01*
X30524067Y64609000D01*
X30323933Y64609000D01*
X30127644Y64569956D01*
X29942744Y64493368D01*
X29776338Y64382179D01*
X29634821Y64240662D01*
X29523632Y64074256D01*
X29447044Y63889356D01*
X29408000Y63693067D01*
X29408000Y63618710D01*
X28366291Y62577000D01*
X28291933Y62577000D01*
X28095644Y62537956D01*
X27910744Y62461368D01*
X27744338Y62350179D01*
X27602821Y62208662D01*
X27491632Y62042256D01*
X27415044Y61857356D01*
X27376000Y61661067D01*
X27376000Y61460933D01*
X27386410Y61408600D01*
X8072000Y61408600D01*
X8072000Y62450000D01*
X8069560Y62474776D01*
X8062333Y62498601D01*
X8050597Y62520557D01*
X8034803Y62539803D01*
X8015557Y62555597D01*
X7993601Y62567333D01*
X7969776Y62574560D01*
X7945000Y62577000D01*
X4135000Y62577000D01*
X4110224Y62574560D01*
X4086399Y62567333D01*
X4064443Y62555597D01*
X4045197Y62539803D01*
X4029403Y62520557D01*
X4017667Y62498601D01*
X4010440Y62474776D01*
X4008000Y62450000D01*
X-4349000Y62450000D01*
X-4349000Y84675000D01*
X4008000Y84675000D01*
X4008000Y73245000D01*
X4010440Y73220224D01*
X4017667Y73196399D01*
X4029403Y73174443D01*
X4045197Y73155197D01*
X4064443Y73139403D01*
X4086399Y73127667D01*
X4110224Y73120440D01*
X4135000Y73118000D01*
X7945000Y73118000D01*
X7969776Y73120440D01*
X7993601Y73127667D01*
X8015557Y73139403D01*
X8034803Y73155197D01*
X8050597Y73174443D01*
X8062333Y73196399D01*
X8069560Y73220224D01*
X8072000Y73245000D01*
X8072000Y84675000D01*
X8069560Y84699776D01*
X8062333Y84723601D01*
X8050597Y84745557D01*
X8034803Y84764803D01*
X8015557Y84780597D01*
X7993601Y84792333D01*
X7969776Y84799560D01*
X7945000Y84802000D01*
X4135000Y84802000D01*
X4110224Y84799560D01*
X4086399Y84792333D01*
X4064443Y84780597D01*
X4045197Y84764803D01*
X4029403Y84745557D01*
X4017667Y84723601D01*
X4010440Y84699776D01*
X4008000Y84675000D01*
X-4349000Y84675000D01*
X-4349000Y102299119D01*
X-2521276Y102299119D01*
X-2161088Y101809452D01*
X-1497118Y101449151D01*
X-775615Y101225306D01*
X-24305Y101146520D01*
X727938Y101215822D01*
X1452208Y101430548D01*
X2120670Y101782445D01*
X2161088Y101809452D01*
X2521276Y102299119D01*
X0Y104820395D01*
X-2521276Y102299119D01*
X-4349000Y102299119D01*
X-4349000Y105024305D01*
X-3853480Y105024305D01*
X-3784178Y104272062D01*
X-3569452Y103547792D01*
X-3217555Y102879330D01*
X-3190548Y102838912D01*
X-2700881Y102478724D01*
X-179605Y105000000D01*
X179605Y105000000D01*
X2700881Y102478724D01*
X3190548Y102838912D01*
X3550849Y103502882D01*
X3774694Y104224385D01*
X3853480Y104975695D01*
X3849002Y105024305D01*
X136146520Y105024305D01*
X136215822Y104272062D01*
X136430548Y103547792D01*
X136782445Y102879330D01*
X136809452Y102838912D01*
X137299119Y102478724D01*
X139820395Y105000000D01*
X140179605Y105000000D01*
X142700881Y102478724D01*
X143190548Y102838912D01*
X143550849Y103502882D01*
X143774694Y104224385D01*
X143853480Y104975695D01*
X143784178Y105727938D01*
X143569452Y106452208D01*
X143217555Y107120670D01*
X143190548Y107161088D01*
X142700881Y107521276D01*
X140179605Y105000000D01*
X139820395Y105000000D01*
X137299119Y107521276D01*
X136809452Y107161088D01*
X136449151Y106497118D01*
X136225306Y105775615D01*
X136146520Y105024305D01*
X3849002Y105024305D01*
X3784178Y105727938D01*
X3569452Y106452208D01*
X3217555Y107120670D01*
X3190548Y107161088D01*
X2700881Y107521276D01*
X179605Y105000000D01*
X-179605Y105000000D01*
X-2700881Y107521276D01*
X-3190548Y107161088D01*
X-3550849Y106497118D01*
X-3774694Y105775615D01*
X-3853480Y105024305D01*
X-4349000Y105024305D01*
X-4349000Y107375721D01*
X-4317118Y107700881D01*
X-2521276Y107700881D01*
X0Y105179605D01*
X2521276Y107700881D01*
X137478724Y107700881D01*
X140000000Y105179605D01*
X142521276Y107700881D01*
X142161088Y108190548D01*
X141497118Y108550849D01*
X140775615Y108774694D01*
X140024305Y108853480D01*
X139272062Y108784178D01*
X138547792Y108569452D01*
X137879330Y108217555D01*
X137838912Y108190548D01*
X137478724Y107700881D01*
X2521276Y107700881D01*
X2161088Y108190548D01*
X1497118Y108550849D01*
X775615Y108774694D01*
X24305Y108853480D01*
X-727938Y108784178D01*
X-1452208Y108569452D01*
X-2120670Y108217555D01*
X-2161088Y108190548D01*
X-2521276Y107700881D01*
X-4317118Y107700881D01*
X-4310091Y107772545D01*
X-4204220Y108123208D01*
X-4032256Y108446625D01*
X-3800746Y108730484D01*
X-3518514Y108963965D01*
X-3196305Y109138183D01*
X-2846386Y109246502D01*
X-2451557Y109288000D01*
X142405721Y109288000D01*
X142802545Y109249091D01*
%TA.AperFunction,Conductor*%
D27*
G36*
X142802545Y109249091D02*
G01*
X143153208Y109143220D01*
X143476625Y108971256D01*
X143760484Y108739746D01*
X143993965Y108457514D01*
X144168183Y108135305D01*
X144276502Y107785386D01*
X144318000Y107390557D01*
X144318001Y-2414711D01*
X144279091Y-2811545D01*
X144173220Y-3162206D01*
X144001257Y-3485623D01*
X143769748Y-3769482D01*
X143487514Y-4002965D01*
X143165304Y-4177184D01*
X142815385Y-4285502D01*
X142420557Y-4327000D01*
X-2436721Y-4327000D01*
X-2833545Y-4288091D01*
X-3184206Y-4182220D01*
X-3507623Y-4010257D01*
X-3791482Y-3778748D01*
X-4024965Y-3496514D01*
X-4199184Y-3174304D01*
X-4307502Y-2824385D01*
X-4320482Y-2700881D01*
X-2521276Y-2700881D01*
X-2161088Y-3190548D01*
X-1497118Y-3550849D01*
X-775615Y-3774694D01*
X-24305Y-3853480D01*
X727938Y-3784178D01*
X1452208Y-3569452D01*
X2120670Y-3217555D01*
X2161088Y-3190548D01*
X2521276Y-2700881D01*
X137478724Y-2700881D01*
X137838912Y-3190548D01*
X138502882Y-3550849D01*
X139224385Y-3774694D01*
X139975695Y-3853480D01*
X140727938Y-3784178D01*
X141452208Y-3569452D01*
X142120670Y-3217555D01*
X142161088Y-3190548D01*
X142521276Y-2700881D01*
X140000000Y-179605D01*
X137478724Y-2700881D01*
X2521276Y-2700881D01*
X0Y-179605D01*
X-2521276Y-2700881D01*
X-4320482Y-2700881D01*
X-4349000Y-2429557D01*
X-4349000Y24305D01*
X-3853480Y24305D01*
X-3784178Y-727938D01*
X-3569452Y-1452208D01*
X-3217555Y-2120670D01*
X-3190548Y-2161088D01*
X-2700881Y-2521276D01*
X-179605Y0D01*
X179605Y0D01*
X2700881Y-2521276D01*
X3190548Y-2161088D01*
X3550849Y-1497118D01*
X3774694Y-775615D01*
X3853480Y-24305D01*
X3849002Y24305D01*
X136146520Y24305D01*
X136215822Y-727938D01*
X136430548Y-1452208D01*
X136782445Y-2120670D01*
X136809452Y-2161088D01*
X137299119Y-2521276D01*
X139820395Y0D01*
X140179605Y0D01*
X142700881Y-2521276D01*
X143190548Y-2161088D01*
X143550849Y-1497118D01*
X143774694Y-775615D01*
X143853480Y-24305D01*
X143784178Y727938D01*
X143569452Y1452208D01*
X143217555Y2120670D01*
X143190548Y2161088D01*
X142700881Y2521276D01*
X140179605Y0D01*
X139820395Y0D01*
X137299119Y2521276D01*
X136809452Y2161088D01*
X136449151Y1497118D01*
X136225306Y775615D01*
X136146520Y24305D01*
X3849002Y24305D01*
X3784178Y727938D01*
X3569452Y1452208D01*
X3217555Y2120670D01*
X3190548Y2161088D01*
X2700881Y2521276D01*
X179605Y0D01*
X-179605Y0D01*
X-2700881Y2521276D01*
X-3190548Y2161088D01*
X-3550849Y1497118D01*
X-3774694Y775615D01*
X-3853480Y24305D01*
X-4349000Y24305D01*
X-4349000Y2700881D01*
X-2521276Y2700881D01*
X0Y179605D01*
X2521276Y2700881D01*
X2161088Y3190548D01*
X1497118Y3550849D01*
X775615Y3774694D01*
X24305Y3853480D01*
X-727938Y3784178D01*
X-1452208Y3569452D01*
X-2120670Y3217555D01*
X-2161088Y3190548D01*
X-2521276Y2700881D01*
X-4349000Y2700881D01*
X-4349000Y62450000D01*
X4008000Y62450000D01*
X4008000Y51020000D01*
X4010440Y50995224D01*
X4017667Y50971399D01*
X4029403Y50949443D01*
X4045197Y50930197D01*
X4064443Y50914403D01*
X4086399Y50902667D01*
X4110224Y50895440D01*
X4135000Y50893000D01*
X7183000Y50893000D01*
X7183000Y40352000D01*
X4135000Y40352000D01*
X4110224Y40349560D01*
X4086399Y40342333D01*
X4064443Y40330597D01*
X4045197Y40314803D01*
X4029403Y40295557D01*
X4017667Y40273601D01*
X4010440Y40249776D01*
X4008000Y40225000D01*
X4008000Y28795000D01*
X4010440Y28770224D01*
X4017667Y28746399D01*
X4029403Y28724443D01*
X4045197Y28705197D01*
X4064443Y28689403D01*
X4086399Y28677667D01*
X4110224Y28670440D01*
X4135000Y28668000D01*
X7183000Y28668000D01*
X7183000Y16628709D01*
X5671732Y15117441D01*
X5643625Y15094374D01*
X5551576Y14982212D01*
X5483178Y14854248D01*
X5441058Y14715398D01*
X5431645Y14619822D01*
X5426836Y14571000D01*
X5430400Y14534817D01*
X5430401Y7749193D01*
X5426836Y7713000D01*
X5432018Y7660395D01*
X5441059Y7568601D01*
X5483179Y7429751D01*
X5551577Y7301787D01*
X5643626Y7189625D01*
X5671732Y7166559D01*
X6548000Y6290290D01*
X6548000Y4030000D01*
X6550440Y4005224D01*
X6557667Y3981399D01*
X6569403Y3959443D01*
X6585197Y3940197D01*
X6604443Y3924403D01*
X6626399Y3912667D01*
X6650224Y3905440D01*
X6675000Y3903000D01*
X8478400Y3903000D01*
X8478400Y3177183D01*
X8474836Y3141000D01*
X8478400Y3104817D01*
X8478400Y3104815D01*
X8489058Y2996602D01*
X8531178Y2857752D01*
X8592727Y2742602D01*
X8599576Y2729788D01*
X8661088Y2654836D01*
X8691625Y2617626D01*
X8719732Y2594559D01*
X10954559Y359731D01*
X10977625Y331625D01*
X11089787Y239576D01*
X11217751Y171178D01*
X11356601Y129058D01*
X11464814Y118400D01*
X11464823Y118400D01*
X11500999Y114837D01*
X11537175Y118400D01*
X124113817Y118400D01*
X124150000Y114836D01*
X124186183Y118400D01*
X124186186Y118400D01*
X124294399Y129058D01*
X124433249Y171178D01*
X124561213Y239576D01*
X124673375Y331625D01*
X124696446Y359737D01*
X127037590Y2700881D01*
X137478724Y2700881D01*
X140000000Y179605D01*
X142521276Y2700881D01*
X142161088Y3190548D01*
X141497118Y3550849D01*
X140775615Y3774694D01*
X140024305Y3853480D01*
X139272062Y3784178D01*
X138547792Y3569452D01*
X137879330Y3217555D01*
X137838912Y3190548D01*
X137478724Y2700881D01*
X127037590Y2700881D01*
X127058263Y2721554D01*
X127086375Y2744625D01*
X127178424Y2856787D01*
X127246822Y2984751D01*
X127288942Y3123601D01*
X127299600Y3231814D01*
X127299600Y3231823D01*
X127303163Y3267999D01*
X127299600Y3304175D01*
X127299600Y8070000D01*
X127726928Y8070000D01*
X127726928Y5070000D01*
X127739188Y4945518D01*
X127775498Y4825820D01*
X127834463Y4715506D01*
X127913815Y4618815D01*
X128010506Y4539463D01*
X128120820Y4480498D01*
X128240518Y4444188D01*
X128365000Y4431928D01*
X131365000Y4431928D01*
X131489482Y4444188D01*
X131609180Y4480498D01*
X131719494Y4539463D01*
X131816185Y4618815D01*
X131895537Y4715506D01*
X131954502Y4825820D01*
X131990812Y4945518D01*
X132003072Y5070000D01*
X132003072Y8070000D01*
X131990812Y8194482D01*
X131954502Y8314180D01*
X131895537Y8424494D01*
X131816185Y8521185D01*
X131719494Y8600537D01*
X131609180Y8659502D01*
X131489482Y8695812D01*
X131365000Y8708072D01*
X128365000Y8708072D01*
X128240518Y8695812D01*
X128120820Y8659502D01*
X128010506Y8600537D01*
X127913815Y8521185D01*
X127834463Y8424494D01*
X127775498Y8314180D01*
X127739188Y8194482D01*
X127726928Y8070000D01*
X127299600Y8070000D01*
X127299600Y10074891D01*
X127726928Y10502218D01*
X127726928Y10150000D01*
X127739188Y10025518D01*
X127775498Y9905820D01*
X127834463Y9795506D01*
X127913815Y9698815D01*
X128010506Y9619463D01*
X128120820Y9560498D01*
X128240518Y9524188D01*
X128365000Y9511928D01*
X131365000Y9511928D01*
X131489482Y9524188D01*
X131609180Y9560498D01*
X131719494Y9619463D01*
X131816185Y9698815D01*
X131895537Y9795506D01*
X131954502Y9905820D01*
X131990812Y10025518D01*
X132003072Y10150000D01*
X132003072Y13150000D01*
X131990812Y13274482D01*
X131954502Y13394180D01*
X131895537Y13504494D01*
X131816185Y13601185D01*
X131719494Y13680537D01*
X131609180Y13739502D01*
X131489482Y13775812D01*
X131365000Y13788072D01*
X128365000Y13788072D01*
X128240518Y13775812D01*
X128120820Y13739502D01*
X128010506Y13680537D01*
X127913815Y13601185D01*
X127834463Y13504494D01*
X127775498Y13394180D01*
X127739188Y13274482D01*
X127726928Y13150000D01*
X127726928Y12379717D01*
X127688601Y12375942D01*
X127549751Y12333822D01*
X127421787Y12265424D01*
X127309625Y12173375D01*
X127286559Y12145269D01*
X126067732Y10926441D01*
X126039625Y10903374D01*
X125947576Y10791212D01*
X125879178Y10663248D01*
X125837058Y10524398D01*
X125826400Y10416186D01*
X125822836Y10380000D01*
X125826400Y10343817D01*
X125826401Y3573110D01*
X123844891Y1591600D01*
X11806110Y1591600D01*
X9951600Y3446109D01*
X9951600Y3903000D01*
X11755000Y3903000D01*
X11779776Y3905440D01*
X11803601Y3912667D01*
X11825557Y3924403D01*
X11844803Y3940197D01*
X11860597Y3959443D01*
X11872333Y3981399D01*
X11879560Y4005224D01*
X11882000Y4030000D01*
X11882000Y7713000D01*
X14065089Y7713000D01*
X14104666Y7379549D01*
X14234757Y6979617D01*
X14392786Y6683962D01*
X14708347Y6527952D01*
X15893395Y7713000D01*
X16280890Y7713000D01*
X16214143Y7646252D01*
X16200000Y7660395D01*
X14887952Y6348347D01*
X15043962Y6032786D01*
X15418745Y5841980D01*
X15823551Y5727956D01*
X16242824Y5695098D01*
X16660451Y5744666D01*
X17060383Y5874757D01*
X17356038Y6032786D01*
X17512047Y6348345D01*
X17622400Y6237992D01*
X17622400Y4320183D01*
X17618836Y4284000D01*
X17622400Y4247817D01*
X17622400Y4247815D01*
X17633058Y4139602D01*
X17675178Y4000752D01*
X17739099Y3881164D01*
X17743576Y3872788D01*
X17805088Y3797836D01*
X17835625Y3760626D01*
X17863732Y3737559D01*
X19717559Y1883731D01*
X19740625Y1855625D01*
X19852787Y1763576D01*
X19980751Y1695178D01*
X20119598Y1653059D01*
X20119601Y1653058D01*
X20264000Y1638836D01*
X20300186Y1642400D01*
X48802817Y1642400D01*
X48839000Y1638836D01*
X48875183Y1642400D01*
X48875186Y1642400D01*
X48983399Y1653058D01*
X49122249Y1695178D01*
X49250213Y1763576D01*
X49362375Y1855625D01*
X49385446Y1883737D01*
X52255269Y4753559D01*
X52283375Y4776625D01*
X52327542Y4830442D01*
X52375424Y4888787D01*
X52383355Y4903625D01*
X52443822Y5016751D01*
X52485942Y5155601D01*
X52496600Y5263814D01*
X52500164Y5300000D01*
X52496600Y5336186D01*
X52496600Y5834203D01*
X52771302Y5947988D01*
X53120983Y6181637D01*
X53418363Y6479017D01*
X53652012Y6828698D01*
X53812953Y7217244D01*
X53895000Y7629721D01*
X53895000Y8050279D01*
X54705000Y8050279D01*
X54705000Y7629721D01*
X54787047Y7217244D01*
X54947988Y6828698D01*
X55181637Y6479017D01*
X55479017Y6181637D01*
X55828698Y5947988D01*
X56217244Y5787047D01*
X56629721Y5705000D01*
X57050279Y5705000D01*
X57462756Y5787047D01*
X57851302Y5947988D01*
X58200983Y6181637D01*
X58498363Y6479017D01*
X58732012Y6828698D01*
X58892953Y7217244D01*
X58975000Y7629721D01*
X58975000Y8050279D01*
X59785000Y8050279D01*
X59785000Y7629721D01*
X59867047Y7217244D01*
X60027988Y6828698D01*
X60261637Y6479017D01*
X60559017Y6181637D01*
X60908698Y5947988D01*
X61297244Y5787047D01*
X61709721Y5705000D01*
X62130279Y5705000D01*
X62542756Y5787047D01*
X62931302Y5947988D01*
X63280983Y6181637D01*
X63578363Y6479017D01*
X63812012Y6828698D01*
X63972953Y7217244D01*
X64055000Y7629721D01*
X64055000Y8050279D01*
X63972953Y8462756D01*
X63812012Y8851302D01*
X63578363Y9200983D01*
X63280983Y9498363D01*
X62931302Y9732012D01*
X62542756Y9892953D01*
X62130279Y9975000D01*
X61709721Y9975000D01*
X61297244Y9892953D01*
X60908698Y9732012D01*
X60559017Y9498363D01*
X60261637Y9200983D01*
X60027988Y8851302D01*
X59867047Y8462756D01*
X59785000Y8050279D01*
X58975000Y8050279D01*
X58892953Y8462756D01*
X58732012Y8851302D01*
X58498363Y9200983D01*
X58200983Y9498363D01*
X57851302Y9732012D01*
X57462756Y9892953D01*
X57050279Y9975000D01*
X56629721Y9975000D01*
X56217244Y9892953D01*
X55828698Y9732012D01*
X55479017Y9498363D01*
X55181637Y9200983D01*
X54947988Y8851302D01*
X54787047Y8462756D01*
X54705000Y8050279D01*
X53895000Y8050279D01*
X53812953Y8462756D01*
X53652012Y8851302D01*
X53418363Y9200983D01*
X53120983Y9498363D01*
X52771302Y9732012D01*
X52382756Y9892953D01*
X51970279Y9975000D01*
X51549721Y9975000D01*
X51137244Y9892953D01*
X50748698Y9732012D01*
X50399017Y9498363D01*
X50101637Y9200983D01*
X49867988Y8851302D01*
X49707047Y8462756D01*
X49625000Y8050279D01*
X49625000Y7629721D01*
X49707047Y7217244D01*
X49867988Y6828698D01*
X50101637Y6479017D01*
X50399017Y6181637D01*
X50748698Y5947988D01*
X51023401Y5834202D01*
X51023401Y5605111D01*
X48533891Y3115600D01*
X45410309Y3115600D01*
X47175263Y4880554D01*
X47203375Y4903625D01*
X47295424Y5015787D01*
X47363822Y5143751D01*
X47405942Y5282601D01*
X47416600Y5390814D01*
X47416600Y5390823D01*
X47420163Y5426999D01*
X47416600Y5463175D01*
X47416600Y5834203D01*
X47691302Y5947988D01*
X48040983Y6181637D01*
X48338363Y6479017D01*
X48572012Y6828698D01*
X48732953Y7217244D01*
X48815000Y7629721D01*
X48815000Y8050279D01*
X48732953Y8462756D01*
X48572012Y8851302D01*
X48338363Y9200983D01*
X48040983Y9498363D01*
X47691302Y9732012D01*
X47302756Y9892953D01*
X46890279Y9975000D01*
X46469721Y9975000D01*
X46057244Y9892953D01*
X45668698Y9732012D01*
X45319017Y9498363D01*
X45021637Y9200983D01*
X44787988Y8851302D01*
X44627047Y8462756D01*
X44545000Y8050279D01*
X44545000Y7629721D01*
X44627047Y7217244D01*
X44787988Y6828698D01*
X45021637Y6479017D01*
X45319017Y6181637D01*
X45668698Y5947988D01*
X45943401Y5834202D01*
X45943401Y5732110D01*
X43834891Y3623600D01*
X40838309Y3623600D01*
X42095269Y4880559D01*
X42123375Y4903625D01*
X42167542Y4957442D01*
X42215424Y5015787D01*
X42244401Y5070000D01*
X42283822Y5143751D01*
X42325942Y5282601D01*
X42336600Y5390814D01*
X42340164Y5427000D01*
X42336600Y5463186D01*
X42336600Y5834203D01*
X42611302Y5947988D01*
X42960983Y6181637D01*
X43258363Y6479017D01*
X43492012Y6828698D01*
X43652953Y7217244D01*
X43735000Y7629721D01*
X43735000Y8050279D01*
X43652953Y8462756D01*
X43492012Y8851302D01*
X43258363Y9200983D01*
X42960983Y9498363D01*
X42611302Y9732012D01*
X42222756Y9892953D01*
X41810279Y9975000D01*
X41389721Y9975000D01*
X40977244Y9892953D01*
X40588698Y9732012D01*
X40239017Y9498363D01*
X39941637Y9200983D01*
X39707988Y8851302D01*
X39547047Y8462756D01*
X39465000Y8050279D01*
X39465000Y7629721D01*
X39547047Y7217244D01*
X39707988Y6828698D01*
X39941637Y6479017D01*
X40239017Y6181637D01*
X40588698Y5947988D01*
X40863401Y5834202D01*
X40863401Y5732111D01*
X39262891Y4131600D01*
X20823110Y4131600D01*
X20111600Y4843109D01*
X20111600Y6052957D01*
X20268698Y5947988D01*
X20657244Y5787047D01*
X21069721Y5705000D01*
X21490279Y5705000D01*
X21902756Y5787047D01*
X22291302Y5947988D01*
X22640983Y6181637D01*
X22938363Y6479017D01*
X23172012Y6828698D01*
X23332953Y7217244D01*
X23415000Y7629721D01*
X23415000Y8050279D01*
X23332953Y8462756D01*
X23172012Y8851302D01*
X22938363Y9200983D01*
X22640983Y9498363D01*
X22291302Y9732012D01*
X21902756Y9892953D01*
X21490279Y9975000D01*
X21069721Y9975000D01*
X20657244Y9892953D01*
X20268698Y9732012D01*
X20137000Y9644014D01*
X20137000Y43247291D01*
X31719710Y54830000D01*
X31794067Y54830000D01*
X31990356Y54869044D01*
X32175256Y54945632D01*
X32341662Y55056821D01*
X32483179Y55198338D01*
X32594368Y55364744D01*
X32670956Y55549644D01*
X32710000Y55745933D01*
X32710000Y55946067D01*
X32678162Y56106129D01*
X38704400Y50079891D01*
X38704401Y28922000D01*
X33722573Y28922000D01*
X33706424Y28952213D01*
X33662125Y29006191D01*
X33637442Y29036268D01*
X33637437Y29036273D01*
X33614374Y29064375D01*
X33586273Y29087437D01*
X32684600Y29989109D01*
X32684600Y30380759D01*
X32737179Y30433338D01*
X32848368Y30599744D01*
X32924956Y30784644D01*
X32964000Y30980933D01*
X32964000Y31181067D01*
X32924956Y31377356D01*
X32848368Y31562256D01*
X32737179Y31728662D01*
X32595662Y31870179D01*
X32429256Y31981368D01*
X32244356Y32057956D01*
X32048067Y32097000D01*
X31847933Y32097000D01*
X31651644Y32057956D01*
X31466744Y31981368D01*
X31300338Y31870179D01*
X31158821Y31728662D01*
X31047632Y31562256D01*
X30971044Y31377356D01*
X30932000Y31181067D01*
X30932000Y30980933D01*
X30971044Y30784644D01*
X31047632Y30599744D01*
X31158821Y30433338D01*
X31211401Y30380758D01*
X31211401Y29720193D01*
X31207836Y29684000D01*
X31218632Y29574399D01*
X31222059Y29539601D01*
X31264179Y29400751D01*
X31273010Y29384229D01*
X31332576Y29272788D01*
X31380460Y29214442D01*
X31424626Y29160625D01*
X31452732Y29137559D01*
X31668291Y28922000D01*
X25090000Y28922000D01*
X25065224Y28919560D01*
X25041399Y28912333D01*
X25019443Y28900597D01*
X25000197Y28884803D01*
X24984403Y28865557D01*
X24972667Y28843601D01*
X24965440Y28819776D01*
X24963000Y28795000D01*
X24963000Y22445000D01*
X24965440Y22420224D01*
X24972667Y22396399D01*
X24984403Y22374443D01*
X25000197Y22355197D01*
X25019443Y22339403D01*
X25041399Y22327667D01*
X25065224Y22320440D01*
X25090000Y22318000D01*
X26588290Y22318000D01*
X25864732Y21594441D01*
X25836626Y21571375D01*
X25813560Y21543269D01*
X25813558Y21543267D01*
X25744576Y21459212D01*
X25676178Y21331247D01*
X25634059Y21192398D01*
X25619836Y21048000D01*
X25623401Y21011807D01*
X25623400Y9845797D01*
X25348698Y9732012D01*
X24999017Y9498363D01*
X24701637Y9200983D01*
X24467988Y8851302D01*
X24307047Y8462756D01*
X24225000Y8050279D01*
X24225000Y7629721D01*
X24307047Y7217244D01*
X24467988Y6828698D01*
X24701637Y6479017D01*
X24999017Y6181637D01*
X25348698Y5947988D01*
X25737244Y5787047D01*
X26149721Y5705000D01*
X26570279Y5705000D01*
X26982756Y5787047D01*
X27371302Y5947988D01*
X27720983Y6181637D01*
X28018363Y6479017D01*
X28252012Y6828698D01*
X28412953Y7217244D01*
X28495000Y7629721D01*
X28495000Y8050279D01*
X28412953Y8462756D01*
X28252012Y8851302D01*
X28018363Y9200983D01*
X27720983Y9498363D01*
X27371302Y9732012D01*
X27096600Y9845797D01*
X27096600Y20742891D01*
X27935110Y21581400D01*
X32328690Y21581400D01*
X30944733Y20197442D01*
X30916626Y20174375D01*
X30893560Y20146269D01*
X30893558Y20146267D01*
X30824576Y20062212D01*
X30756178Y19934247D01*
X30714059Y19795398D01*
X30699836Y19651000D01*
X30703401Y19614807D01*
X30703400Y9845797D01*
X30428698Y9732012D01*
X30079017Y9498363D01*
X29781637Y9200983D01*
X29547988Y8851302D01*
X29387047Y8462756D01*
X29305000Y8050279D01*
X29305000Y7629721D01*
X29387047Y7217244D01*
X29547988Y6828698D01*
X29781637Y6479017D01*
X30079017Y6181637D01*
X30428698Y5947988D01*
X30817244Y5787047D01*
X31229721Y5705000D01*
X31650279Y5705000D01*
X32062756Y5787047D01*
X32451302Y5947988D01*
X32800983Y6181637D01*
X33098363Y6479017D01*
X33332012Y6828698D01*
X33492953Y7217244D01*
X33575000Y7629721D01*
X33575000Y8050279D01*
X33492953Y8462756D01*
X33332012Y8851302D01*
X33098363Y9200983D01*
X32800983Y9498363D01*
X32451302Y9732012D01*
X32176600Y9845797D01*
X32176600Y19345891D01*
X33396110Y20565400D01*
X37281691Y20565400D01*
X36024732Y19308441D01*
X35996626Y19285375D01*
X35973560Y19257269D01*
X35973558Y19257267D01*
X35904576Y19173212D01*
X35836178Y19045247D01*
X35812496Y18967178D01*
X35799720Y18925059D01*
X35794059Y18906398D01*
X35779836Y18762000D01*
X35783401Y18725807D01*
X35783400Y9845797D01*
X35508698Y9732012D01*
X35159017Y9498363D01*
X34861637Y9200983D01*
X34627988Y8851302D01*
X34467047Y8462756D01*
X34385000Y8050279D01*
X34385000Y7629721D01*
X34467047Y7217244D01*
X34627988Y6828698D01*
X34861637Y6479017D01*
X35159017Y6181637D01*
X35508698Y5947988D01*
X35897244Y5787047D01*
X36309721Y5705000D01*
X36730279Y5705000D01*
X37142756Y5787047D01*
X37531302Y5947988D01*
X37880983Y6181637D01*
X38178363Y6479017D01*
X38412012Y6828698D01*
X38572953Y7217244D01*
X38655000Y7629721D01*
X38655000Y8050279D01*
X38572953Y8462756D01*
X38412012Y8851302D01*
X38178363Y9200983D01*
X37880983Y9498363D01*
X37531302Y9732012D01*
X37256600Y9845797D01*
X37256600Y18456891D01*
X38222109Y19422400D01*
X45246817Y19422400D01*
X45283000Y19418836D01*
X45319183Y19422400D01*
X45319186Y19422400D01*
X45427399Y19433058D01*
X45566249Y19475178D01*
X45694213Y19543576D01*
X45806375Y19635625D01*
X45829445Y19663736D01*
X47556273Y21390563D01*
X47584374Y21413625D01*
X47594401Y21425843D01*
X47594400Y13972183D01*
X47590836Y13936000D01*
X47594400Y13899817D01*
X47594400Y13899815D01*
X47605058Y13791602D01*
X47647178Y13652752D01*
X47647179Y13652751D01*
X47715576Y13524788D01*
X47720375Y13518941D01*
X47807625Y13412626D01*
X47835732Y13389559D01*
X48927557Y12297733D01*
X48950625Y12269625D01*
X49062787Y12177576D01*
X49190751Y12109178D01*
X49329601Y12067058D01*
X49437814Y12056400D01*
X49437823Y12056400D01*
X49473999Y12052837D01*
X49510175Y12056400D01*
X64662891Y12056400D01*
X66263401Y10455889D01*
X66263401Y9845798D01*
X65988698Y9732012D01*
X65639017Y9498363D01*
X65341637Y9200983D01*
X65107988Y8851302D01*
X64947047Y8462756D01*
X64865000Y8050279D01*
X64865000Y7629721D01*
X64947047Y7217244D01*
X65107988Y6828698D01*
X65341637Y6479017D01*
X65639017Y6181637D01*
X65988698Y5947988D01*
X66377244Y5787047D01*
X66789721Y5705000D01*
X67210279Y5705000D01*
X67622756Y5787047D01*
X68011302Y5947988D01*
X68360983Y6181637D01*
X68658363Y6479017D01*
X68892012Y6828698D01*
X69052953Y7217244D01*
X69135000Y7629721D01*
X69135000Y8050279D01*
X69945000Y8050279D01*
X69945000Y7629721D01*
X70027047Y7217244D01*
X70187988Y6828698D01*
X70421637Y6479017D01*
X70719017Y6181637D01*
X71068698Y5947988D01*
X71457244Y5787047D01*
X71869721Y5705000D01*
X72290279Y5705000D01*
X72702756Y5787047D01*
X73091302Y5947988D01*
X73440983Y6181637D01*
X73738363Y6479017D01*
X73972012Y6828698D01*
X74132953Y7217244D01*
X74215000Y7629721D01*
X74215000Y8050279D01*
X75025000Y8050279D01*
X75025000Y7629721D01*
X75107047Y7217244D01*
X75267988Y6828698D01*
X75501637Y6479017D01*
X75799017Y6181637D01*
X76148698Y5947988D01*
X76537244Y5787047D01*
X76949721Y5705000D01*
X77370279Y5705000D01*
X77782756Y5787047D01*
X78171302Y5947988D01*
X78520983Y6181637D01*
X78818363Y6479017D01*
X79052012Y6828698D01*
X79212953Y7217244D01*
X79295000Y7629721D01*
X79295000Y8050279D01*
X80105000Y8050279D01*
X80105000Y7629721D01*
X80187047Y7217244D01*
X80347988Y6828698D01*
X80581637Y6479017D01*
X80879017Y6181637D01*
X81228698Y5947988D01*
X81617244Y5787047D01*
X82029721Y5705000D01*
X82450279Y5705000D01*
X82862756Y5787047D01*
X83251302Y5947988D01*
X83600983Y6181637D01*
X83898363Y6479017D01*
X84132012Y6828698D01*
X84292953Y7217244D01*
X84375000Y7629721D01*
X84375000Y8050279D01*
X85185000Y8050279D01*
X85185000Y7629721D01*
X85267047Y7217244D01*
X85427988Y6828698D01*
X85661637Y6479017D01*
X85959017Y6181637D01*
X86308698Y5947988D01*
X86697244Y5787047D01*
X87109721Y5705000D01*
X87530279Y5705000D01*
X87942756Y5787047D01*
X88331302Y5947988D01*
X88680983Y6181637D01*
X88978363Y6479017D01*
X89212012Y6828698D01*
X89372953Y7217244D01*
X89455000Y7629721D01*
X89455000Y8050279D01*
X90265000Y8050279D01*
X90265000Y7629721D01*
X90347047Y7217244D01*
X90507988Y6828698D01*
X90741637Y6479017D01*
X91039017Y6181637D01*
X91388698Y5947988D01*
X91777244Y5787047D01*
X92189721Y5705000D01*
X92610279Y5705000D01*
X93022756Y5787047D01*
X93411302Y5947988D01*
X93760983Y6181637D01*
X93927693Y6348347D01*
X96167952Y6348347D01*
X96323962Y6032786D01*
X96698745Y5841980D01*
X97103551Y5727956D01*
X97522824Y5695098D01*
X97940451Y5744666D01*
X98340383Y5874757D01*
X98636038Y6032786D01*
X98792048Y6348347D01*
X101247952Y6348347D01*
X101403962Y6032786D01*
X101778745Y5841980D01*
X102183551Y5727956D01*
X102602824Y5695098D01*
X103020451Y5744666D01*
X103420383Y5874757D01*
X103716038Y6032786D01*
X103872048Y6348347D01*
X106200952Y6348347D01*
X106356962Y6032786D01*
X106731745Y5841980D01*
X107136551Y5727956D01*
X107555824Y5695098D01*
X107973451Y5744666D01*
X108373383Y5874757D01*
X108669038Y6032786D01*
X108825048Y6348347D01*
X111280952Y6348347D01*
X111436962Y6032786D01*
X111811745Y5841980D01*
X112216551Y5727956D01*
X112635824Y5695098D01*
X113053451Y5744666D01*
X113453383Y5874757D01*
X113749038Y6032786D01*
X113905048Y6348347D01*
X116487952Y6348347D01*
X116643962Y6032786D01*
X117018745Y5841980D01*
X117423551Y5727956D01*
X117842824Y5695098D01*
X118260451Y5744666D01*
X118660383Y5874757D01*
X118956038Y6032786D01*
X119112048Y6348347D01*
X121567952Y6348347D01*
X121723962Y6032786D01*
X122098745Y5841980D01*
X122503551Y5727956D01*
X122922824Y5695098D01*
X123340451Y5744666D01*
X123740383Y5874757D01*
X124036038Y6032786D01*
X124192048Y6348347D01*
X122880000Y7660395D01*
X121567952Y6348347D01*
X119112048Y6348347D01*
X117800000Y7660395D01*
X116487952Y6348347D01*
X113905048Y6348347D01*
X112593000Y7660395D01*
X111280952Y6348347D01*
X108825048Y6348347D01*
X107513000Y7660395D01*
X106200952Y6348347D01*
X103872048Y6348347D01*
X102560000Y7660395D01*
X101247952Y6348347D01*
X98792048Y6348347D01*
X97480000Y7660395D01*
X96167952Y6348347D01*
X93927693Y6348347D01*
X94058363Y6479017D01*
X94292012Y6828698D01*
X94452953Y7217244D01*
X94535000Y7629721D01*
X94535000Y7797176D01*
X95335098Y7797176D01*
X95384666Y7379549D01*
X95514757Y6979617D01*
X95672786Y6683962D01*
X95988347Y6527952D01*
X97300395Y7840000D01*
X97659605Y7840000D01*
X98971653Y6527952D01*
X99287214Y6683962D01*
X99478020Y7058745D01*
X99592044Y7463551D01*
X99618189Y7797176D01*
X100415098Y7797176D01*
X100464666Y7379549D01*
X100594757Y6979617D01*
X100752786Y6683962D01*
X101068347Y6527952D01*
X102380395Y7840000D01*
X102739605Y7840000D01*
X104051653Y6527952D01*
X104367214Y6683962D01*
X104558020Y7058745D01*
X104672044Y7463551D01*
X104698189Y7797176D01*
X105368098Y7797176D01*
X105417666Y7379549D01*
X105547757Y6979617D01*
X105705786Y6683962D01*
X106021347Y6527952D01*
X107333395Y7840000D01*
X107692605Y7840000D01*
X109004653Y6527952D01*
X109320214Y6683962D01*
X109511020Y7058745D01*
X109625044Y7463551D01*
X109651189Y7797176D01*
X110448098Y7797176D01*
X110497666Y7379549D01*
X110627757Y6979617D01*
X110785786Y6683962D01*
X111101347Y6527952D01*
X112413395Y7840000D01*
X112772605Y7840000D01*
X114084653Y6527952D01*
X114400214Y6683962D01*
X114591020Y7058745D01*
X114705044Y7463551D01*
X114731189Y7797176D01*
X115655098Y7797176D01*
X115704666Y7379549D01*
X115834757Y6979617D01*
X115992786Y6683962D01*
X116308347Y6527952D01*
X117620395Y7840000D01*
X117979605Y7840000D01*
X119291653Y6527952D01*
X119607214Y6683962D01*
X119798020Y7058745D01*
X119912044Y7463551D01*
X119938189Y7797176D01*
X120735098Y7797176D01*
X120784666Y7379549D01*
X120914757Y6979617D01*
X121072786Y6683962D01*
X121388347Y6527952D01*
X122700395Y7840000D01*
X123059605Y7840000D01*
X124371653Y6527952D01*
X124687214Y6683962D01*
X124878020Y7058745D01*
X124992044Y7463551D01*
X125024902Y7882824D01*
X124975334Y8300451D01*
X124845243Y8700383D01*
X124687214Y8996038D01*
X124371653Y9152048D01*
X123059605Y7840000D01*
X122700395Y7840000D01*
X121388347Y9152048D01*
X121072786Y8996038D01*
X120881980Y8621255D01*
X120767956Y8216449D01*
X120735098Y7797176D01*
X119938189Y7797176D01*
X119944902Y7882824D01*
X119895334Y8300451D01*
X119765243Y8700383D01*
X119607214Y8996038D01*
X119291653Y9152048D01*
X117979605Y7840000D01*
X117620395Y7840000D01*
X116308347Y9152048D01*
X115992786Y8996038D01*
X115801980Y8621255D01*
X115687956Y8216449D01*
X115655098Y7797176D01*
X114731189Y7797176D01*
X114737902Y7882824D01*
X114688334Y8300451D01*
X114558243Y8700383D01*
X114400214Y8996038D01*
X114084653Y9152048D01*
X112772605Y7840000D01*
X112413395Y7840000D01*
X111101347Y9152048D01*
X110785786Y8996038D01*
X110594980Y8621255D01*
X110480956Y8216449D01*
X110448098Y7797176D01*
X109651189Y7797176D01*
X109657902Y7882824D01*
X109608334Y8300451D01*
X109478243Y8700383D01*
X109320214Y8996038D01*
X109004653Y9152048D01*
X107692605Y7840000D01*
X107333395Y7840000D01*
X106021347Y9152048D01*
X105705786Y8996038D01*
X105514980Y8621255D01*
X105400956Y8216449D01*
X105368098Y7797176D01*
X104698189Y7797176D01*
X104704902Y7882824D01*
X104655334Y8300451D01*
X104525243Y8700383D01*
X104367214Y8996038D01*
X104051653Y9152048D01*
X102739605Y7840000D01*
X102380395Y7840000D01*
X101068347Y9152048D01*
X100752786Y8996038D01*
X100561980Y8621255D01*
X100447956Y8216449D01*
X100415098Y7797176D01*
X99618189Y7797176D01*
X99624902Y7882824D01*
X99575334Y8300451D01*
X99445243Y8700383D01*
X99287214Y8996038D01*
X98971653Y9152048D01*
X97659605Y7840000D01*
X97300395Y7840000D01*
X95988347Y9152048D01*
X95672786Y8996038D01*
X95481980Y8621255D01*
X95367956Y8216449D01*
X95335098Y7797176D01*
X94535000Y7797176D01*
X94535000Y8050279D01*
X94452953Y8462756D01*
X94292012Y8851302D01*
X94058363Y9200983D01*
X93927693Y9331653D01*
X96167952Y9331653D01*
X97480000Y8019605D01*
X98792048Y9331653D01*
X101247952Y9331653D01*
X102560000Y8019605D01*
X103872048Y9331653D01*
X106200952Y9331653D01*
X107513000Y8019605D01*
X108825048Y9331653D01*
X111280952Y9331653D01*
X112593000Y8019605D01*
X113905048Y9331653D01*
X116487952Y9331653D01*
X117800000Y8019605D01*
X119112048Y9331653D01*
X121567952Y9331653D01*
X122880000Y8019605D01*
X124192048Y9331653D01*
X124036038Y9647214D01*
X123661255Y9838020D01*
X123256449Y9952044D01*
X122837176Y9984902D01*
X122419549Y9935334D01*
X122019617Y9805243D01*
X121723962Y9647214D01*
X121567952Y9331653D01*
X119112048Y9331653D01*
X118956038Y9647214D01*
X118581255Y9838020D01*
X118176449Y9952044D01*
X117757176Y9984902D01*
X117339549Y9935334D01*
X116939617Y9805243D01*
X116643962Y9647214D01*
X116487952Y9331653D01*
X113905048Y9331653D01*
X113749038Y9647214D01*
X113374255Y9838020D01*
X112969449Y9952044D01*
X112550176Y9984902D01*
X112132549Y9935334D01*
X111732617Y9805243D01*
X111436962Y9647214D01*
X111280952Y9331653D01*
X108825048Y9331653D01*
X108669038Y9647214D01*
X108294255Y9838020D01*
X107889449Y9952044D01*
X107470176Y9984902D01*
X107052549Y9935334D01*
X106652617Y9805243D01*
X106356962Y9647214D01*
X106200952Y9331653D01*
X103872048Y9331653D01*
X103716038Y9647214D01*
X103341255Y9838020D01*
X102936449Y9952044D01*
X102517176Y9984902D01*
X102099549Y9935334D01*
X101699617Y9805243D01*
X101403962Y9647214D01*
X101247952Y9331653D01*
X98792048Y9331653D01*
X98636038Y9647214D01*
X98261255Y9838020D01*
X97856449Y9952044D01*
X97437176Y9984902D01*
X97019549Y9935334D01*
X96619617Y9805243D01*
X96323962Y9647214D01*
X96167952Y9331653D01*
X93927693Y9331653D01*
X93760983Y9498363D01*
X93411302Y9732012D01*
X93022756Y9892953D01*
X92610279Y9975000D01*
X92189721Y9975000D01*
X91777244Y9892953D01*
X91388698Y9732012D01*
X91039017Y9498363D01*
X90741637Y9200983D01*
X90507988Y8851302D01*
X90347047Y8462756D01*
X90265000Y8050279D01*
X89455000Y8050279D01*
X89372953Y8462756D01*
X89212012Y8851302D01*
X88978363Y9200983D01*
X88680983Y9498363D01*
X88331302Y9732012D01*
X87942756Y9892953D01*
X87530279Y9975000D01*
X87109721Y9975000D01*
X86697244Y9892953D01*
X86308698Y9732012D01*
X85959017Y9498363D01*
X85661637Y9200983D01*
X85427988Y8851302D01*
X85267047Y8462756D01*
X85185000Y8050279D01*
X84375000Y8050279D01*
X84292953Y8462756D01*
X84132012Y8851302D01*
X83898363Y9200983D01*
X83600983Y9498363D01*
X83251302Y9732012D01*
X82862756Y9892953D01*
X82450279Y9975000D01*
X82029721Y9975000D01*
X81617244Y9892953D01*
X81228698Y9732012D01*
X80879017Y9498363D01*
X80581637Y9200983D01*
X80347988Y8851302D01*
X80187047Y8462756D01*
X80105000Y8050279D01*
X79295000Y8050279D01*
X79212953Y8462756D01*
X79052012Y8851302D01*
X78818363Y9200983D01*
X78520983Y9498363D01*
X78171302Y9732012D01*
X77782756Y9892953D01*
X77370279Y9975000D01*
X76949721Y9975000D01*
X76537244Y9892953D01*
X76148698Y9732012D01*
X75799017Y9498363D01*
X75501637Y9200983D01*
X75267988Y8851302D01*
X75107047Y8462756D01*
X75025000Y8050279D01*
X74215000Y8050279D01*
X74132953Y8462756D01*
X73972012Y8851302D01*
X73738363Y9200983D01*
X73440983Y9498363D01*
X73091302Y9732012D01*
X72702756Y9892953D01*
X72290279Y9975000D01*
X71869721Y9975000D01*
X71457244Y9892953D01*
X71068698Y9732012D01*
X70719017Y9498363D01*
X70421637Y9200983D01*
X70187988Y8851302D01*
X70027047Y8462756D01*
X69945000Y8050279D01*
X69135000Y8050279D01*
X69052953Y8462756D01*
X68892012Y8851302D01*
X68658363Y9200983D01*
X68360983Y9498363D01*
X68011302Y9732012D01*
X67736600Y9845797D01*
X67736600Y10724814D01*
X67740164Y10761000D01*
X67725942Y10905399D01*
X67698633Y10995424D01*
X67683822Y11044249D01*
X67615424Y11172213D01*
X67523375Y11284375D01*
X67495269Y11307441D01*
X65514445Y13288264D01*
X65491375Y13316375D01*
X65379213Y13408424D01*
X65251249Y13476822D01*
X65112399Y13518942D01*
X65004186Y13529600D01*
X65004183Y13529600D01*
X64968000Y13533164D01*
X64931817Y13529600D01*
X49779110Y13529600D01*
X49067600Y14241109D01*
X49067600Y21871759D01*
X49120179Y21924338D01*
X49231368Y22090744D01*
X49307956Y22275644D01*
X49347000Y22471933D01*
X49347000Y22672067D01*
X49307956Y22868356D01*
X49231368Y23053256D01*
X49209258Y23086346D01*
X64666798Y23159013D01*
X64712112Y23150000D01*
X64987888Y23150000D01*
X65042071Y23160778D01*
X66661492Y23168391D01*
X66697178Y23050752D01*
X66761099Y22931164D01*
X66765576Y22922788D01*
X66820214Y22856212D01*
X66857625Y22810626D01*
X66885732Y22787559D01*
X67723559Y21949731D01*
X67746625Y21921625D01*
X67858787Y21829576D01*
X67986751Y21761178D01*
X68083524Y21731822D01*
X68125601Y21719058D01*
X68270000Y21704836D01*
X68306186Y21708400D01*
X82076817Y21708400D01*
X82113000Y21704836D01*
X82149183Y21708400D01*
X82149186Y21708400D01*
X82257399Y21719058D01*
X82396249Y21761178D01*
X82524213Y21829576D01*
X82636375Y21921625D01*
X82659446Y21949737D01*
X83070100Y22360391D01*
X133719997Y22360391D01*
X133906073Y22019234D01*
X134323409Y21803487D01*
X134774815Y21673304D01*
X135242946Y21633687D01*
X135709811Y21686158D01*
X136157468Y21828703D01*
X136513927Y22019234D01*
X136700003Y22360391D01*
X135210000Y23850395D01*
X133719997Y22360391D01*
X83070100Y22360391D01*
X84706763Y23997054D01*
X132813687Y23997054D01*
X132866158Y23530189D01*
X133008703Y23082532D01*
X133199234Y22726073D01*
X133540391Y22539997D01*
X135030395Y24030000D01*
X135389605Y24030000D01*
X136879609Y22539997D01*
X137220766Y22726073D01*
X137436513Y23143409D01*
X137566696Y23594815D01*
X137606313Y24062946D01*
X137553842Y24529811D01*
X137411297Y24977468D01*
X137220766Y25333927D01*
X136879609Y25520003D01*
X135389605Y24030000D01*
X135030395Y24030000D01*
X133540391Y25520003D01*
X133199234Y25333927D01*
X132983487Y24916591D01*
X132853304Y24465185D01*
X132813687Y23997054D01*
X84706763Y23997054D01*
X86037269Y25327559D01*
X86065375Y25350625D01*
X86157424Y25462787D01*
X86225822Y25590751D01*
X86258843Y25699609D01*
X133719997Y25699609D01*
X135210000Y24209605D01*
X136700003Y25699609D01*
X136513927Y26040766D01*
X136096591Y26256513D01*
X135645185Y26386696D01*
X135177054Y26426313D01*
X134710189Y26373842D01*
X134262532Y26231297D01*
X133906073Y26040766D01*
X133719997Y25699609D01*
X86258843Y25699609D01*
X86267942Y25729601D01*
X86278600Y25837814D01*
X86278600Y25837823D01*
X86282163Y25873999D01*
X86278600Y25910175D01*
X86278600Y33213067D01*
X101671000Y33213067D01*
X101671000Y33012933D01*
X101710044Y32816644D01*
X101786632Y32631744D01*
X101897821Y32465338D01*
X102039338Y32323821D01*
X102205744Y32212632D01*
X102390644Y32136044D01*
X102586933Y32097000D01*
X102661291Y32097000D01*
X103918558Y30839732D01*
X103941625Y30811625D01*
X104053787Y30719576D01*
X104181751Y30651178D01*
X104320598Y30609059D01*
X104320601Y30609058D01*
X104465000Y30594836D01*
X104501186Y30598400D01*
X129011928Y30598400D01*
X129011928Y30450000D01*
X129024188Y30325518D01*
X129060498Y30205820D01*
X129119463Y30095506D01*
X129198815Y29998815D01*
X129295506Y29919463D01*
X129405820Y29860498D01*
X129447690Y29847797D01*
X129346525Y29746632D01*
X129184010Y29503411D01*
X129072068Y29233158D01*
X129015000Y28946260D01*
X129015000Y28653740D01*
X129072068Y28366842D01*
X129184010Y28096589D01*
X129346525Y27853368D01*
X129553368Y27646525D01*
X129796589Y27484010D01*
X130066842Y27372068D01*
X130353740Y27315000D01*
X130646260Y27315000D01*
X130933158Y27372068D01*
X131203411Y27484010D01*
X131446632Y27646525D01*
X131500000Y27699893D01*
X131553368Y27646525D01*
X131796589Y27484010D01*
X132066842Y27372068D01*
X132353740Y27315000D01*
X132646260Y27315000D01*
X132933158Y27372068D01*
X133203411Y27484010D01*
X133446632Y27646525D01*
X133653475Y27853368D01*
X133815990Y28096589D01*
X133927932Y28366842D01*
X133985000Y28653740D01*
X133985000Y28946260D01*
X133927932Y29233158D01*
X133815990Y29503411D01*
X133653475Y29746632D01*
X133446632Y29953475D01*
X133283590Y30062416D01*
X133348792Y30271603D01*
X132500000Y31120395D01*
X132485858Y31106252D01*
X132306253Y31285857D01*
X132320395Y31300000D01*
X132679605Y31300000D01*
X133528397Y30451208D01*
X133777472Y30528843D01*
X133903371Y30792883D01*
X133975339Y31076411D01*
X133990611Y31368531D01*
X133948599Y31658019D01*
X133850919Y31933747D01*
X133777472Y32071157D01*
X133528397Y32148792D01*
X132679605Y31300000D01*
X132320395Y31300000D01*
X132306253Y31314142D01*
X132485858Y31493747D01*
X132500000Y31479605D01*
X133348792Y32328397D01*
X133271157Y32577472D01*
X133007117Y32703371D01*
X132723589Y32775339D01*
X132431469Y32790611D01*
X132141981Y32748599D01*
X131866253Y32650919D01*
X131790150Y32610241D01*
X131704494Y32680537D01*
X131594180Y32739502D01*
X131474482Y32775812D01*
X131350000Y32788072D01*
X129650000Y32788072D01*
X129525518Y32775812D01*
X129405820Y32739502D01*
X129295506Y32680537D01*
X129198815Y32601185D01*
X129119463Y32504494D01*
X129060498Y32394180D01*
X129024188Y32274482D01*
X129011928Y32150000D01*
X129011928Y32071600D01*
X104770110Y32071600D01*
X103703000Y33138709D01*
X103703000Y33213067D01*
X103663956Y33409356D01*
X103587368Y33594256D01*
X103476179Y33760662D01*
X103334662Y33902179D01*
X103168256Y34013368D01*
X102983356Y34089956D01*
X102787067Y34129000D01*
X102586933Y34129000D01*
X102390644Y34089956D01*
X102205744Y34013368D01*
X102039338Y33902179D01*
X101897821Y33760662D01*
X101786632Y33594256D01*
X101710044Y33409356D01*
X101671000Y33213067D01*
X86278600Y33213067D01*
X86278600Y34400391D01*
X133719997Y34400391D01*
X133906073Y34059234D01*
X134323409Y33843487D01*
X134774815Y33713304D01*
X135242946Y33673687D01*
X135709811Y33726158D01*
X136157468Y33868703D01*
X136513927Y34059234D01*
X136700003Y34400391D01*
X135210000Y35890395D01*
X133719997Y34400391D01*
X86278600Y34400391D01*
X86278600Y35206759D01*
X86331179Y35259338D01*
X86442368Y35425744D01*
X86518956Y35610644D01*
X86558000Y35806933D01*
X86558000Y36007067D01*
X86552036Y36037054D01*
X132813687Y36037054D01*
X132866158Y35570189D01*
X133008703Y35122532D01*
X133199234Y34766073D01*
X133540391Y34579997D01*
X135030395Y36070000D01*
X135389605Y36070000D01*
X136879609Y34579997D01*
X137220766Y34766073D01*
X137436513Y35183409D01*
X137566696Y35634815D01*
X137606313Y36102946D01*
X137553842Y36569811D01*
X137411297Y37017468D01*
X137220766Y37373927D01*
X136879609Y37560003D01*
X135389605Y36070000D01*
X135030395Y36070000D01*
X133540391Y37560003D01*
X133199234Y37373927D01*
X132983487Y36956591D01*
X132853304Y36505185D01*
X132813687Y36037054D01*
X86552036Y36037054D01*
X86518956Y36203356D01*
X86442368Y36388256D01*
X86331179Y36554662D01*
X86209775Y36676066D01*
X87273318Y37739609D01*
X133719997Y37739609D01*
X135210000Y36249605D01*
X136700003Y37739609D01*
X136513927Y38080766D01*
X136096591Y38296513D01*
X135645185Y38426696D01*
X135177054Y38466313D01*
X134710189Y38413842D01*
X134262532Y38271297D01*
X133906073Y38080766D01*
X133719997Y37739609D01*
X87273318Y37739609D01*
X87307269Y37773559D01*
X87335375Y37796625D01*
X87417459Y37896644D01*
X87427424Y37908787D01*
X87427939Y37909751D01*
X87495822Y38036751D01*
X87537942Y38175601D01*
X87548600Y38283814D01*
X87552164Y38320000D01*
X87548600Y38356186D01*
X87548600Y42901411D01*
X94063000Y42901411D01*
X94063000Y42628589D01*
X94116225Y42361011D01*
X94220629Y42108957D01*
X94372201Y41882114D01*
X94565114Y41689201D01*
X94791957Y41537629D01*
X95044011Y41433225D01*
X95311589Y41380000D01*
X95584411Y41380000D01*
X95851989Y41433225D01*
X96104043Y41537629D01*
X96330886Y41689201D01*
X96523799Y41882114D01*
X96675371Y42108957D01*
X96779775Y42361011D01*
X96833000Y42628589D01*
X96833000Y42901411D01*
X96779775Y43168989D01*
X96675371Y43421043D01*
X96523799Y43647886D01*
X96330886Y43840799D01*
X96104043Y43992371D01*
X95851989Y44096775D01*
X95584411Y44150000D01*
X95311589Y44150000D01*
X95044011Y44096775D01*
X94791957Y43992371D01*
X94565114Y43840799D01*
X94372201Y43647886D01*
X94220629Y43421043D01*
X94116225Y43168989D01*
X94063000Y42901411D01*
X87548600Y42901411D01*
X87548600Y45010391D01*
X134259997Y45010391D01*
X134446073Y44669234D01*
X134863409Y44453487D01*
X135314815Y44323304D01*
X135782946Y44283687D01*
X136249811Y44336158D01*
X136697468Y44478703D01*
X137053927Y44669234D01*
X137240003Y45010391D01*
X135750000Y46500395D01*
X134259997Y45010391D01*
X87548600Y45010391D01*
X87548600Y47781411D01*
X94063000Y47781411D01*
X94063000Y47508589D01*
X94116225Y47241011D01*
X94220629Y46988957D01*
X94372201Y46762114D01*
X94565114Y46569201D01*
X94791957Y46417629D01*
X95044011Y46313225D01*
X95311589Y46260000D01*
X95584411Y46260000D01*
X95851989Y46313225D01*
X96104043Y46417629D01*
X96330886Y46569201D01*
X96523799Y46762114D01*
X96675371Y46988957D01*
X96779775Y47241011D01*
X96833000Y47508589D01*
X96833000Y47781411D01*
X96779775Y48048989D01*
X96675371Y48301043D01*
X96523799Y48527886D01*
X96330886Y48720799D01*
X96104043Y48872371D01*
X95851989Y48976775D01*
X95584411Y49030000D01*
X95311589Y49030000D01*
X95044011Y48976775D01*
X94791957Y48872371D01*
X94565114Y48720799D01*
X94372201Y48527886D01*
X94220629Y48301043D01*
X94116225Y48048989D01*
X94063000Y47781411D01*
X87548600Y47781411D01*
X87548600Y55465000D01*
X131008000Y55465000D01*
X131008000Y46575000D01*
X131010440Y46550224D01*
X131017667Y46526399D01*
X131029403Y46504443D01*
X131045197Y46485197D01*
X131064443Y46469403D01*
X131086399Y46457667D01*
X131110224Y46450440D01*
X131135000Y46448000D01*
X133376059Y46448000D01*
X133406158Y46180189D01*
X133548703Y45732532D01*
X133739234Y45376073D01*
X134080391Y45189997D01*
X135570395Y46680000D01*
X135929605Y46680000D01*
X137419609Y45189997D01*
X137760766Y45376073D01*
X137976513Y45793409D01*
X138106696Y46244815D01*
X138146313Y46712946D01*
X138093842Y47179811D01*
X137951297Y47627468D01*
X137760766Y47983927D01*
X137419609Y48170003D01*
X135929605Y46680000D01*
X135570395Y46680000D01*
X135556253Y46694142D01*
X135735858Y46873747D01*
X135750000Y46859605D01*
X137240003Y48349609D01*
X137053927Y48690766D01*
X136636591Y48906513D01*
X136185185Y49036696D01*
X135717054Y49076313D01*
X135250189Y49023842D01*
X135072000Y48967102D01*
X135072000Y55465000D01*
X135069560Y55489776D01*
X135062333Y55513601D01*
X135050597Y55535557D01*
X135034803Y55554803D01*
X135015557Y55570597D01*
X134993601Y55582333D01*
X134969776Y55589560D01*
X134945000Y55592000D01*
X133772275Y55592000D01*
X133825960Y55784435D01*
X133040000Y56570395D01*
X132254040Y55784435D01*
X132307725Y55592000D01*
X131135000Y55592000D01*
X131110224Y55589560D01*
X131086399Y55582333D01*
X131064443Y55570597D01*
X131045197Y55554803D01*
X131029403Y55535557D01*
X131017667Y55513601D01*
X131010440Y55489776D01*
X131008000Y55465000D01*
X87548600Y55465000D01*
X87548600Y56677983D01*
X131638090Y56677983D01*
X131679078Y56405867D01*
X131772364Y56146977D01*
X131834344Y56031020D01*
X132074435Y55964040D01*
X132860395Y56750000D01*
X133219605Y56750000D01*
X134005565Y55964040D01*
X134245656Y56031020D01*
X134362756Y56280048D01*
X134429023Y56547135D01*
X134441910Y56822017D01*
X134400922Y57094133D01*
X134307636Y57353023D01*
X134245656Y57468980D01*
X134005565Y57535960D01*
X133219605Y56750000D01*
X132860395Y56750000D01*
X132074435Y57535960D01*
X131834344Y57468980D01*
X131717244Y57219952D01*
X131650977Y56952865D01*
X131638090Y56677983D01*
X87548600Y56677983D01*
X87548600Y57715565D01*
X132254040Y57715565D01*
X133040000Y56929605D01*
X133825960Y57715565D01*
X133758980Y57955656D01*
X133509952Y58072756D01*
X133242865Y58139023D01*
X133000384Y58150391D01*
X134259997Y58150391D01*
X134446073Y57809234D01*
X134863409Y57593487D01*
X135314815Y57463304D01*
X135782946Y57423687D01*
X136249811Y57476158D01*
X136697468Y57618703D01*
X137053927Y57809234D01*
X137240003Y58150391D01*
X135750000Y59640395D01*
X134259997Y58150391D01*
X133000384Y58150391D01*
X132967983Y58151910D01*
X132695867Y58110922D01*
X132436977Y58017636D01*
X132321020Y57955656D01*
X132254040Y57715565D01*
X87548600Y57715565D01*
X87548600Y59787054D01*
X133353687Y59787054D01*
X133406158Y59320189D01*
X133548703Y58872532D01*
X133739234Y58516073D01*
X134080391Y58329997D01*
X135570395Y59820000D01*
X135929605Y59820000D01*
X137419609Y58329997D01*
X137760766Y58516073D01*
X137976513Y58933409D01*
X138106696Y59384815D01*
X138146313Y59852946D01*
X138093842Y60319811D01*
X137951297Y60767468D01*
X137760766Y61123927D01*
X137419609Y61310003D01*
X135929605Y59820000D01*
X135570395Y59820000D01*
X134080391Y61310003D01*
X133739234Y61123927D01*
X133523487Y60706591D01*
X133393304Y60255185D01*
X133353687Y59787054D01*
X87548600Y59787054D01*
X87548600Y61489609D01*
X134259997Y61489609D01*
X135750000Y59999605D01*
X137240003Y61489609D01*
X137053927Y61830766D01*
X136636591Y62046513D01*
X136185185Y62176696D01*
X135717054Y62216313D01*
X135250189Y62163842D01*
X134802532Y62021297D01*
X134446073Y61830766D01*
X134259997Y61489609D01*
X87548600Y61489609D01*
X87548600Y62130759D01*
X87601179Y62183338D01*
X87712368Y62349744D01*
X87788956Y62534644D01*
X87828000Y62730933D01*
X87828000Y62856400D01*
X138591817Y62856400D01*
X138628000Y62852836D01*
X138664183Y62856400D01*
X138664186Y62856400D01*
X138772399Y62867058D01*
X138911249Y62909178D01*
X139039213Y62977576D01*
X139151375Y63069625D01*
X139174446Y63097737D01*
X143060273Y66983563D01*
X143088374Y67006625D01*
X143111437Y67034727D01*
X143111442Y67034732D01*
X143180424Y67118787D01*
X143222669Y67197822D01*
X143248822Y67246751D01*
X143290942Y67385601D01*
X143301600Y67493814D01*
X143301600Y67493815D01*
X143305164Y67530000D01*
X143301600Y67566186D01*
X143301600Y75709572D01*
X143305597Y75714443D01*
X143317333Y75736399D01*
X143324560Y75760224D01*
X143327000Y75785000D01*
X143327000Y80230000D01*
X143324560Y80254776D01*
X143317333Y80278601D01*
X143305597Y80300557D01*
X143289803Y80319803D01*
X143270557Y80335597D01*
X143248601Y80347333D01*
X143224776Y80354560D01*
X143223405Y80354695D01*
X143314269Y80445559D01*
X143342375Y80468625D01*
X143424459Y80568644D01*
X143434424Y80580787D01*
X143456649Y80622368D01*
X143502822Y80708751D01*
X143544942Y80847601D01*
X143555600Y80955814D01*
X143559164Y80992000D01*
X143555600Y81028186D01*
X143555600Y87559825D01*
X143559163Y87596001D01*
X143555600Y87632177D01*
X143555600Y87632186D01*
X143544942Y87740399D01*
X143502822Y87879249D01*
X143434424Y88007213D01*
X143342374Y88119375D01*
X143314267Y88142442D01*
X142151024Y89305685D01*
X142101010Y89557125D01*
X141988042Y89829853D01*
X141824039Y90075302D01*
X141615302Y90284039D01*
X141449897Y90394559D01*
X141548488Y90453183D01*
X141766854Y90649707D01*
X141942684Y90885056D01*
X142069222Y91150186D01*
X142114958Y91300974D01*
X141993817Y91533000D01*
X140787000Y91533000D01*
X140787000Y91513000D01*
X140533000Y91513000D01*
X140533000Y91533000D01*
X140513000Y91533000D01*
X140513000Y91787000D01*
X140533000Y91787000D01*
X140533000Y92994464D01*
X140787000Y92994464D01*
X140787000Y91787000D01*
X141993817Y91787000D01*
X142114958Y92019026D01*
X142069222Y92169814D01*
X141942684Y92434944D01*
X141766854Y92670293D01*
X141548488Y92866817D01*
X141295978Y93016964D01*
X141019027Y93114963D01*
X140787000Y92994464D01*
X140533000Y92994464D01*
X140300973Y93114963D01*
X140024022Y93016964D01*
X139771512Y92866817D01*
X139553146Y92670293D01*
X139391692Y92454187D01*
X139284039Y92615302D01*
X139075302Y92824039D01*
X138829853Y92988042D01*
X138557125Y93101010D01*
X138267599Y93158600D01*
X137972401Y93158600D01*
X137682875Y93101010D01*
X137410147Y92988042D01*
X137164698Y92824039D01*
X136955961Y92615302D01*
X136791958Y92369853D01*
X136678990Y92097125D01*
X136621400Y91807599D01*
X136621400Y91512401D01*
X136678990Y91222875D01*
X136791958Y90950147D01*
X136955961Y90704698D01*
X137164698Y90495961D01*
X137330103Y90385441D01*
X137231512Y90326817D01*
X137013146Y90130293D01*
X136837316Y89894944D01*
X136710778Y89629814D01*
X136665042Y89479026D01*
X136786183Y89247000D01*
X137993000Y89247000D01*
X137993000Y89267000D01*
X138247000Y89267000D01*
X138247000Y89247000D01*
X138267000Y89247000D01*
X138267000Y88993000D01*
X138247000Y88993000D01*
X138247000Y88973000D01*
X137993000Y88973000D01*
X137993000Y88993000D01*
X136786183Y88993000D01*
X136665042Y88760974D01*
X136710778Y88610186D01*
X136837316Y88345056D01*
X137013146Y88109707D01*
X137231512Y87913183D01*
X137330103Y87854559D01*
X137164698Y87744039D01*
X136955961Y87535302D01*
X136791958Y87289853D01*
X136678990Y87017125D01*
X136621400Y86727599D01*
X136621400Y86432401D01*
X136678990Y86142875D01*
X136718869Y86046600D01*
X106675110Y86046600D01*
X100820446Y91901263D01*
X100797375Y91929375D01*
X100685213Y92021424D01*
X100557249Y92089822D01*
X100418399Y92131942D01*
X100310186Y92142600D01*
X100310183Y92142600D01*
X100274000Y92146164D01*
X100237817Y92142600D01*
X82367309Y92142600D01*
X84005269Y93780559D01*
X84033375Y93803625D01*
X84125424Y93915787D01*
X84193822Y94043751D01*
X84235942Y94182601D01*
X84246600Y94290814D01*
X84246600Y94290823D01*
X84250163Y94326999D01*
X84246600Y94363175D01*
X84246600Y95978000D01*
X85415000Y95978000D01*
X85439776Y95980440D01*
X85463601Y95987667D01*
X85485557Y95999403D01*
X85504803Y96015197D01*
X85520597Y96034443D01*
X85532333Y96056399D01*
X85539560Y96080224D01*
X85542000Y96105000D01*
X85542000Y101185000D01*
X90368000Y101185000D01*
X90368000Y96105000D01*
X90370440Y96080224D01*
X90377667Y96056399D01*
X90389403Y96034443D01*
X90405197Y96015197D01*
X90424443Y95999403D01*
X90446399Y95987667D01*
X90470224Y95980440D01*
X90495000Y95978000D01*
X101925000Y95978000D01*
X101949776Y95980440D01*
X101973601Y95987667D01*
X101995557Y95999403D01*
X102014803Y96015197D01*
X102030597Y96034443D01*
X102042333Y96056399D01*
X102049560Y96080224D01*
X102052000Y96105000D01*
X102052000Y101185000D01*
X102049560Y101209776D01*
X102042333Y101233601D01*
X102030597Y101255557D01*
X102014803Y101274803D01*
X101995557Y101290597D01*
X101973601Y101302333D01*
X101949776Y101309560D01*
X101925000Y101312000D01*
X90495000Y101312000D01*
X90470224Y101309560D01*
X90446399Y101302333D01*
X90424443Y101290597D01*
X90405197Y101274803D01*
X90389403Y101255557D01*
X90377667Y101233601D01*
X90370440Y101209776D01*
X90368000Y101185000D01*
X85542000Y101185000D01*
X85539560Y101209776D01*
X85532333Y101233601D01*
X85520597Y101255557D01*
X85504803Y101274803D01*
X85485557Y101290597D01*
X85463601Y101302333D01*
X85439776Y101309560D01*
X85415000Y101312000D01*
X73985000Y101312000D01*
X73960224Y101309560D01*
X73936399Y101302333D01*
X73914443Y101290597D01*
X73895197Y101274803D01*
X73879403Y101255557D01*
X73867667Y101233601D01*
X73860440Y101209776D01*
X73858000Y101185000D01*
X73858000Y96105000D01*
X73860440Y96080224D01*
X73867667Y96056399D01*
X73879403Y96034443D01*
X73895197Y96015197D01*
X73914443Y95999403D01*
X73936399Y95987667D01*
X73960224Y95980440D01*
X73985000Y95978000D01*
X80233400Y95978000D01*
X80233401Y94124111D01*
X79775891Y93666600D01*
X70164590Y93666600D01*
X70175000Y93718933D01*
X70175000Y93919067D01*
X70135956Y94115356D01*
X70059368Y94300256D01*
X69948179Y94466662D01*
X69806662Y94608179D01*
X69640256Y94719368D01*
X69455356Y94795956D01*
X69259067Y94835000D01*
X69058933Y94835000D01*
X68862644Y94795956D01*
X68677744Y94719368D01*
X68511338Y94608179D01*
X68458759Y94555600D01*
X66887441Y94555600D01*
X66900179Y94568338D01*
X67011368Y94734744D01*
X67087956Y94919644D01*
X67127000Y95115933D01*
X67127000Y95316067D01*
X67087956Y95512356D01*
X67011368Y95697256D01*
X66900179Y95863662D01*
X66758662Y96005179D01*
X66592256Y96116368D01*
X66407356Y96192956D01*
X66211067Y96232000D01*
X66010933Y96232000D01*
X65814644Y96192956D01*
X65629744Y96116368D01*
X65463338Y96005179D01*
X65410759Y95952600D01*
X45856241Y95952600D01*
X45803662Y96005179D01*
X45637256Y96116368D01*
X45452356Y96192956D01*
X45256067Y96232000D01*
X45055933Y96232000D01*
X44859644Y96192956D01*
X44674744Y96116368D01*
X44508338Y96005179D01*
X44366821Y95863662D01*
X44255632Y95697256D01*
X44179044Y95512356D01*
X44140000Y95316067D01*
X44140000Y95115933D01*
X44179044Y94919644D01*
X44220181Y94820330D01*
X44097644Y94795956D01*
X43912744Y94719368D01*
X43746338Y94608179D01*
X43604821Y94466662D01*
X43493632Y94300256D01*
X43417044Y94115356D01*
X43378000Y93919067D01*
X43378000Y93718933D01*
X43388410Y93666600D01*
X35960428Y93666600D01*
X35955557Y93670597D01*
X35933601Y93682333D01*
X35909776Y93689560D01*
X35885000Y93692000D01*
X29027000Y93692000D01*
X29027000Y100328347D01*
X36223952Y100328347D01*
X36379962Y100012786D01*
X36754745Y99821980D01*
X37159551Y99707956D01*
X37578824Y99675098D01*
X37996451Y99724666D01*
X38396383Y99854757D01*
X38692038Y100012786D01*
X38848048Y100328347D01*
X37536000Y101640395D01*
X36223952Y100328347D01*
X29027000Y100328347D01*
X29027000Y101185000D01*
X29024560Y101209776D01*
X29017333Y101233601D01*
X29005597Y101255557D01*
X28989803Y101274803D01*
X28970557Y101290597D01*
X28948601Y101302333D01*
X28924776Y101309560D01*
X28900000Y101312000D01*
X27122000Y101312000D01*
X27122000Y101777176D01*
X35391098Y101777176D01*
X35440666Y101359549D01*
X35570757Y100959617D01*
X35728786Y100663962D01*
X36044347Y100507952D01*
X37356395Y101820000D01*
X37715605Y101820000D01*
X39027653Y100507952D01*
X39343214Y100663962D01*
X39534020Y101038745D01*
X39648044Y101443551D01*
X39680902Y101862824D01*
X39631334Y102280451D01*
X39501243Y102680383D01*
X39343214Y102976038D01*
X39027653Y103132048D01*
X37715605Y101820000D01*
X37356395Y101820000D01*
X36044347Y103132048D01*
X35728786Y102976038D01*
X35537980Y102601255D01*
X35423956Y102196449D01*
X35391098Y101777176D01*
X27122000Y101777176D01*
X27122000Y103311653D01*
X36223952Y103311653D01*
X37536000Y101999605D01*
X38848048Y103311653D01*
X38692038Y103627214D01*
X38317255Y103818020D01*
X37912449Y103932044D01*
X37493176Y103964902D01*
X37075549Y103915334D01*
X36675617Y103785243D01*
X36379962Y103627214D01*
X36223952Y103311653D01*
X27122000Y103311653D01*
X27122000Y104360000D01*
X40203000Y104360000D01*
X40203000Y99280000D01*
X40205440Y99255224D01*
X40212667Y99231399D01*
X40224403Y99209443D01*
X40240197Y99190197D01*
X40259443Y99174403D01*
X40281399Y99162667D01*
X40305224Y99155440D01*
X40330000Y99153000D01*
X45410000Y99153000D01*
X45434776Y99155440D01*
X45458601Y99162667D01*
X45480557Y99174403D01*
X45499803Y99190197D01*
X45515597Y99209443D01*
X45527333Y99231399D01*
X45534560Y99255224D01*
X45537000Y99280000D01*
X45537000Y102299119D01*
X137478724Y102299119D01*
X137838912Y101809452D01*
X138502882Y101449151D01*
X139224385Y101225306D01*
X139975695Y101146520D01*
X140727938Y101215822D01*
X141452208Y101430548D01*
X142120670Y101782445D01*
X142161088Y101809452D01*
X142521276Y102299119D01*
X140000000Y104820395D01*
X137478724Y102299119D01*
X45537000Y102299119D01*
X45537000Y104360000D01*
X45534560Y104384776D01*
X45527333Y104408601D01*
X45515597Y104430557D01*
X45499803Y104449803D01*
X45480557Y104465597D01*
X45458601Y104477333D01*
X45434776Y104484560D01*
X45410000Y104487000D01*
X40330000Y104487000D01*
X40305224Y104484560D01*
X40281399Y104477333D01*
X40259443Y104465597D01*
X40240197Y104449803D01*
X40224403Y104430557D01*
X40212667Y104408601D01*
X40205440Y104384776D01*
X40203000Y104360000D01*
X27122000Y104360000D01*
X27119560Y104384776D01*
X27112333Y104408601D01*
X27100597Y104430557D01*
X27084803Y104449803D01*
X27065557Y104465597D01*
X27043601Y104477333D01*
X27019776Y104484560D01*
X26995000Y104487000D01*
X16835000Y104487000D01*
X16810224Y104484560D01*
X16786399Y104477333D01*
X16764443Y104465597D01*
X16745197Y104449803D01*
X16729403Y104430557D01*
X16717667Y104408601D01*
X16710440Y104384776D01*
X16708000Y104360000D01*
X16708000Y99280000D01*
X16710440Y99255224D01*
X16717667Y99231399D01*
X16729403Y99209443D01*
X16745197Y99190197D01*
X16764443Y99174403D01*
X16786399Y99162667D01*
X16810224Y99155440D01*
X16835000Y99153000D01*
X21127291Y99153000D01*
X21153000Y99127291D01*
X21153000Y95571600D01*
X11247000Y95571600D01*
X11247000Y97375000D01*
X11244560Y97399776D01*
X11237333Y97423601D01*
X11225597Y97445557D01*
X11209803Y97464803D01*
X11190557Y97480597D01*
X11168601Y97492333D01*
X11144776Y97499560D01*
X11120000Y97502000D01*
X6040000Y97502000D01*
X6015224Y97499560D01*
X5991399Y97492333D01*
X5969443Y97480597D01*
X5950197Y97464803D01*
X5934403Y97445557D01*
X5922667Y97423601D01*
X5915440Y97399776D01*
X5913000Y97375000D01*
X5913000Y87215000D01*
X5915440Y87190224D01*
X5922667Y87166399D01*
X5934403Y87144443D01*
X5950197Y87125197D01*
X5969443Y87109403D01*
X5991399Y87097667D01*
X6015224Y87090440D01*
X6040000Y87088000D01*
X11120000Y87088000D01*
X11144776Y87090440D01*
X11168601Y87097667D01*
X11190557Y87109403D01*
X11209803Y87125197D01*
X11225597Y87144443D01*
X11237333Y87166399D01*
X11244560Y87190224D01*
X11247000Y87215000D01*
X11247000Y94098400D01*
X21204572Y94098400D01*
X21209443Y94094403D01*
X21231399Y94082667D01*
X21255224Y94075440D01*
X21280000Y94073000D01*
X21762291Y94073000D01*
X23591400Y92243890D01*
X23591401Y86362193D01*
X23587836Y86326000D01*
X23596707Y86235942D01*
X23602059Y86181601D01*
X23619100Y86125424D01*
X23641245Y86052424D01*
X23644179Y86042751D01*
X23649093Y86033558D01*
X23693000Y85951413D01*
X23693000Y80230000D01*
X23695440Y80205224D01*
X23702667Y80181399D01*
X23714403Y80159443D01*
X23730197Y80140197D01*
X23749443Y80124403D01*
X23771399Y80112667D01*
X23795224Y80105440D01*
X23820000Y80103000D01*
X28620291Y80103000D01*
X27134732Y78617441D01*
X27106626Y78594375D01*
X27083560Y78566269D01*
X27083558Y78566267D01*
X27014576Y78482212D01*
X26946178Y78354247D01*
X26904059Y78215398D01*
X26889836Y78071000D01*
X26893401Y78034807D01*
X26893400Y75977241D01*
X26840821Y75924662D01*
X26729632Y75758256D01*
X26653044Y75573356D01*
X26614000Y75377067D01*
X26614000Y75176933D01*
X26653044Y74980644D01*
X26729632Y74795744D01*
X26840821Y74629338D01*
X26982338Y74487821D01*
X27148744Y74376632D01*
X27333644Y74300044D01*
X27529933Y74261000D01*
X27730067Y74261000D01*
X27926356Y74300044D01*
X28111256Y74376632D01*
X28277662Y74487821D01*
X28419179Y74629338D01*
X28530368Y74795744D01*
X28606956Y74980644D01*
X28646000Y75176933D01*
X28646000Y75377067D01*
X28606956Y75573356D01*
X28530368Y75758256D01*
X28419179Y75924662D01*
X28366600Y75977241D01*
X28366600Y77765891D01*
X30703709Y80103000D01*
X35885000Y80103000D01*
X35909776Y80105440D01*
X35933601Y80112667D01*
X35955557Y80124403D01*
X35974803Y80140197D01*
X35990597Y80159443D01*
X36002333Y80181399D01*
X36009560Y80205224D01*
X36012000Y80230000D01*
X36012000Y80616357D01*
X36173400Y80648462D01*
X36173401Y69970193D01*
X36169836Y69934000D01*
X36184059Y69789602D01*
X36226178Y69650753D01*
X36294576Y69522788D01*
X36342619Y69464248D01*
X36386626Y69410625D01*
X36414732Y69387559D01*
X41809067Y63993224D01*
X41766044Y63889356D01*
X41727000Y63693067D01*
X41727000Y63492933D01*
X41766044Y63296644D01*
X41842632Y63111744D01*
X41953821Y62945338D01*
X42095338Y62803821D01*
X42261744Y62692632D01*
X42446644Y62616044D01*
X42642933Y62577000D01*
X42843067Y62577000D01*
X43039356Y62616044D01*
X43224256Y62692632D01*
X43390662Y62803821D01*
X43443241Y62856400D01*
X85796000Y62856400D01*
X85796000Y62800381D01*
X85642067Y62831000D01*
X85441933Y62831000D01*
X85245644Y62791956D01*
X85060744Y62715368D01*
X84894338Y62604179D01*
X84752821Y62462662D01*
X84641632Y62296256D01*
X84565044Y62111356D01*
X84526000Y61915067D01*
X84526000Y61714933D01*
X84565044Y61518644D01*
X84641632Y61333744D01*
X84752821Y61167338D01*
X84805400Y61114759D01*
X84805401Y38893242D01*
X84752821Y38840662D01*
X84641632Y38674256D01*
X84565044Y38489356D01*
X84526000Y38293067D01*
X84526000Y38092933D01*
X84565044Y37896644D01*
X84641632Y37711744D01*
X84752821Y37545338D01*
X84874225Y37423934D01*
X81680891Y34230600D01*
X55987186Y34230600D01*
X55951000Y34234164D01*
X55914814Y34230600D01*
X55806601Y34219942D01*
X55667751Y34177822D01*
X55539787Y34109424D01*
X55427625Y34017375D01*
X55404559Y33989269D01*
X51645733Y30230442D01*
X51617625Y30207374D01*
X51607600Y30195159D01*
X51607600Y30761759D01*
X51660179Y30814338D01*
X51771368Y30980744D01*
X51847956Y31165644D01*
X51887000Y31361933D01*
X51887000Y31562067D01*
X51847956Y31758356D01*
X51771368Y31943256D01*
X51660179Y32109662D01*
X51518662Y32251179D01*
X51352256Y32362368D01*
X51167356Y32438956D01*
X50971067Y32478000D01*
X50770933Y32478000D01*
X50574644Y32438956D01*
X50389744Y32362368D01*
X50337600Y32327526D01*
X50337600Y42220814D01*
X50341164Y42257000D01*
X50326942Y42401399D01*
X50284822Y42540248D01*
X50284822Y42540249D01*
X50216424Y42668213D01*
X50147442Y42752268D01*
X50147437Y42752273D01*
X50124374Y42780375D01*
X50096274Y42803436D01*
X31732446Y61167263D01*
X31709375Y61195375D01*
X31597213Y61287424D01*
X31469249Y61355822D01*
X31330399Y61397942D01*
X31222186Y61408600D01*
X31222183Y61408600D01*
X31186000Y61412164D01*
X31149817Y61408600D01*
X29397590Y61408600D01*
X29408000Y61460933D01*
X29408000Y61535291D01*
X30449710Y62577000D01*
X30524067Y62577000D01*
X30720356Y62616044D01*
X30905256Y62692632D01*
X31071662Y62803821D01*
X31213179Y62945338D01*
X31324368Y63111744D01*
X31400956Y63296644D01*
X31440000Y63492933D01*
X31440000Y63693067D01*
X31400956Y63889356D01*
X31324368Y64074256D01*
X31213179Y64240662D01*
X31071662Y64382179D01*
X30905256Y64493368D01*
X30720356Y64569956D01*
X30524067Y64609000D01*
X30323933Y64609000D01*
X30127644Y64569956D01*
X29942744Y64493368D01*
X29776338Y64382179D01*
X29634821Y64240662D01*
X29523632Y64074256D01*
X29447044Y63889356D01*
X29408000Y63693067D01*
X29408000Y63618710D01*
X28366291Y62577000D01*
X28291933Y62577000D01*
X28095644Y62537956D01*
X27910744Y62461368D01*
X27744338Y62350179D01*
X27602821Y62208662D01*
X27491632Y62042256D01*
X27415044Y61857356D01*
X27376000Y61661067D01*
X27376000Y61460933D01*
X27386410Y61408600D01*
X8072000Y61408600D01*
X8072000Y62450000D01*
X8069560Y62474776D01*
X8062333Y62498601D01*
X8050597Y62520557D01*
X8034803Y62539803D01*
X8015557Y62555597D01*
X7993601Y62567333D01*
X7969776Y62574560D01*
X7945000Y62577000D01*
X4135000Y62577000D01*
X4110224Y62574560D01*
X4086399Y62567333D01*
X4064443Y62555597D01*
X4045197Y62539803D01*
X4029403Y62520557D01*
X4017667Y62498601D01*
X4010440Y62474776D01*
X4008000Y62450000D01*
X-4349000Y62450000D01*
X-4349000Y84675000D01*
X4008000Y84675000D01*
X4008000Y73245000D01*
X4010440Y73220224D01*
X4017667Y73196399D01*
X4029403Y73174443D01*
X4045197Y73155197D01*
X4064443Y73139403D01*
X4086399Y73127667D01*
X4110224Y73120440D01*
X4135000Y73118000D01*
X7945000Y73118000D01*
X7969776Y73120440D01*
X7993601Y73127667D01*
X8015557Y73139403D01*
X8034803Y73155197D01*
X8050597Y73174443D01*
X8062333Y73196399D01*
X8069560Y73220224D01*
X8072000Y73245000D01*
X8072000Y84675000D01*
X8069560Y84699776D01*
X8062333Y84723601D01*
X8050597Y84745557D01*
X8034803Y84764803D01*
X8015557Y84780597D01*
X7993601Y84792333D01*
X7969776Y84799560D01*
X7945000Y84802000D01*
X4135000Y84802000D01*
X4110224Y84799560D01*
X4086399Y84792333D01*
X4064443Y84780597D01*
X4045197Y84764803D01*
X4029403Y84745557D01*
X4017667Y84723601D01*
X4010440Y84699776D01*
X4008000Y84675000D01*
X-4349000Y84675000D01*
X-4349000Y102299119D01*
X-2521276Y102299119D01*
X-2161088Y101809452D01*
X-1497118Y101449151D01*
X-775615Y101225306D01*
X-24305Y101146520D01*
X727938Y101215822D01*
X1452208Y101430548D01*
X2120670Y101782445D01*
X2161088Y101809452D01*
X2521276Y102299119D01*
X0Y104820395D01*
X-2521276Y102299119D01*
X-4349000Y102299119D01*
X-4349000Y105024305D01*
X-3853480Y105024305D01*
X-3784178Y104272062D01*
X-3569452Y103547792D01*
X-3217555Y102879330D01*
X-3190548Y102838912D01*
X-2700881Y102478724D01*
X-179605Y105000000D01*
X179605Y105000000D01*
X2700881Y102478724D01*
X3190548Y102838912D01*
X3550849Y103502882D01*
X3774694Y104224385D01*
X3853480Y104975695D01*
X3849002Y105024305D01*
X136146520Y105024305D01*
X136215822Y104272062D01*
X136430548Y103547792D01*
X136782445Y102879330D01*
X136809452Y102838912D01*
X137299119Y102478724D01*
X139820395Y105000000D01*
X140179605Y105000000D01*
X142700881Y102478724D01*
X143190548Y102838912D01*
X143550849Y103502882D01*
X143774694Y104224385D01*
X143853480Y104975695D01*
X143784178Y105727938D01*
X143569452Y106452208D01*
X143217555Y107120670D01*
X143190548Y107161088D01*
X142700881Y107521276D01*
X140179605Y105000000D01*
X139820395Y105000000D01*
X137299119Y107521276D01*
X136809452Y107161088D01*
X136449151Y106497118D01*
X136225306Y105775615D01*
X136146520Y105024305D01*
X3849002Y105024305D01*
X3784178Y105727938D01*
X3569452Y106452208D01*
X3217555Y107120670D01*
X3190548Y107161088D01*
X2700881Y107521276D01*
X179605Y105000000D01*
X-179605Y105000000D01*
X-2700881Y107521276D01*
X-3190548Y107161088D01*
X-3550849Y106497118D01*
X-3774694Y105775615D01*
X-3853480Y105024305D01*
X-4349000Y105024305D01*
X-4349000Y107375721D01*
X-4317118Y107700881D01*
X-2521276Y107700881D01*
X0Y105179605D01*
X2521276Y107700881D01*
X137478724Y107700881D01*
X140000000Y105179605D01*
X142521276Y107700881D01*
X142161088Y108190548D01*
X141497118Y108550849D01*
X140775615Y108774694D01*
X140024305Y108853480D01*
X139272062Y108784178D01*
X138547792Y108569452D01*
X137879330Y108217555D01*
X137838912Y108190548D01*
X137478724Y107700881D01*
X2521276Y107700881D01*
X2161088Y108190548D01*
X1497118Y108550849D01*
X775615Y108774694D01*
X24305Y108853480D01*
X-727938Y108784178D01*
X-1452208Y108569452D01*
X-2120670Y108217555D01*
X-2161088Y108190548D01*
X-2521276Y107700881D01*
X-4317118Y107700881D01*
X-4310091Y107772545D01*
X-4204220Y108123208D01*
X-4032256Y108446625D01*
X-3800746Y108730484D01*
X-3518514Y108963965D01*
X-3196305Y109138183D01*
X-2846386Y109246502D01*
X-2451557Y109288000D01*
X142405721Y109288000D01*
X142802545Y109249091D01*
G37*
%TD.AperFunction*%
%TD*%
D26*
%TO.N,GND*%
X4873000Y100127000D02*
X-4349000Y100127000D01*
X-4349000Y107375721D01*
X-4310091Y107772545D01*
X-4204220Y108123208D01*
X-4032256Y108446625D01*
X-3800746Y108730484D01*
X-3518514Y108963965D01*
X-3196305Y109138183D01*
X-2846386Y109246502D01*
X-2451557Y109288000D01*
X4873000Y109288000D01*
X4873000Y100127000D01*
%TA.AperFunction,Conductor*%
D27*
G36*
X4873000Y100127000D02*
G01*
X-4349000Y100127000D01*
X-4349000Y107375721D01*
X-4310091Y107772545D01*
X-4204220Y108123208D01*
X-4032256Y108446625D01*
X-3800746Y108730484D01*
X-3518514Y108963965D01*
X-3196305Y109138183D01*
X-2846386Y109246502D01*
X-2451557Y109288000D01*
X4873000Y109288000D01*
X4873000Y100127000D01*
G37*
%TD.AperFunction*%
%TD*%
D26*
%TO.N,GND*%
X4864000Y-4327000D02*
X-2436721Y-4327000D01*
X-2833545Y-4288091D01*
X-3184206Y-4182220D01*
X-3507623Y-4010257D01*
X-3791482Y-3778748D01*
X-4024965Y-3496514D01*
X-4199184Y-3174304D01*
X-4307502Y-2824385D01*
X-4349000Y-2429557D01*
X-4349000Y4792000D01*
X4864000Y4792000D01*
X4864000Y-4327000D01*
%TA.AperFunction,Conductor*%
D27*
G36*
X4864000Y-4327000D02*
G01*
X-2436721Y-4327000D01*
X-2833545Y-4288091D01*
X-3184206Y-4182220D01*
X-3507623Y-4010257D01*
X-3791482Y-3778748D01*
X-4024965Y-3496514D01*
X-4199184Y-3174304D01*
X-4307502Y-2824385D01*
X-4349000Y-2429557D01*
X-4349000Y4792000D01*
X4864000Y4792000D01*
X4864000Y-4327000D01*
G37*
%TD.AperFunction*%
%TD*%
D26*
%TO.N,GND*%
X144318001Y-2414711D02*
X144279091Y-2811545D01*
X144173220Y-3162206D01*
X144001257Y-3485623D01*
X143769748Y-3769482D01*
X143487514Y-4002965D01*
X143165304Y-4177184D01*
X142815385Y-4285502D01*
X142420557Y-4327000D01*
X135105000Y-4327000D01*
X135105000Y4759000D01*
X144318001Y4759000D01*
X144318001Y-2414711D01*
%TA.AperFunction,Conductor*%
D27*
G36*
X144318001Y-2414711D02*
G01*
X144279091Y-2811545D01*
X144173220Y-3162206D01*
X144001257Y-3485623D01*
X143769748Y-3769482D01*
X143487514Y-4002965D01*
X143165304Y-4177184D01*
X142815385Y-4285502D01*
X142420557Y-4327000D01*
X135105000Y-4327000D01*
X135105000Y4759000D01*
X144318001Y4759000D01*
X144318001Y-2414711D01*
G37*
%TD.AperFunction*%
%TD*%
M02*
