%TF.GenerationSoftware,KiCad,Pcbnew,5.99.0+really5.1.10+dfsg1-1*%
%TF.CreationDate,2022-01-03T15:11:42+11:00*%
%TF.ProjectId,els,656c732e-6b69-4636-9164-5f7063625858,v0.1*%
%TF.SameCoordinates,PX3938700PY8a48640*%
%TF.FileFunction,Paste,Top*%
%TF.FilePolarity,Positive*%
%FSLAX46Y46*%
G04 Gerber Fmt 4.6, Leading zero omitted, Abs format (unit mm)*
G04 Created by KiCad (PCBNEW 5.99.0+really5.1.10+dfsg1-1) date 2022-01-03 15:11:42*
%MOMM*%
%LPD*%
G01*
G04 APERTURE LIST*
%ADD10R,1.750000X0.450000*%
%ADD11R,1.500000X0.600000*%
%ADD12R,1.750000X0.550000*%
G04 APERTURE END LIST*
%TO.C,R6*%
G36*
G01*
X77250001Y69500000D02*
X76349999Y69500000D01*
G75*
G02*
X76100000Y69749999I0J249999D01*
G01*
X76100000Y70400001D01*
G75*
G02*
X76349999Y70650000I249999J0D01*
G01*
X77250001Y70650000D01*
G75*
G02*
X77500000Y70400001I0J-249999D01*
G01*
X77500000Y69749999D01*
G75*
G02*
X77250001Y69500000I-249999J0D01*
G01*
G37*
G36*
G01*
X77250001Y67450000D02*
X76349999Y67450000D01*
G75*
G02*
X76100000Y67699999I0J249999D01*
G01*
X76100000Y68350001D01*
G75*
G02*
X76349999Y68600000I249999J0D01*
G01*
X77250001Y68600000D01*
G75*
G02*
X77500000Y68350001I0J-249999D01*
G01*
X77500000Y67699999D01*
G75*
G02*
X77250001Y67450000I-249999J0D01*
G01*
G37*
%TD*%
%TO.C,R1*%
G36*
G01*
X86149999Y68600000D02*
X87050001Y68600000D01*
G75*
G02*
X87300000Y68350001I0J-249999D01*
G01*
X87300000Y67699999D01*
G75*
G02*
X87050001Y67450000I-249999J0D01*
G01*
X86149999Y67450000D01*
G75*
G02*
X85900000Y67699999I0J249999D01*
G01*
X85900000Y68350001D01*
G75*
G02*
X86149999Y68600000I249999J0D01*
G01*
G37*
G36*
G01*
X86149999Y70650000D02*
X87050001Y70650000D01*
G75*
G02*
X87300000Y70400001I0J-249999D01*
G01*
X87300000Y69749999D01*
G75*
G02*
X87050001Y69500000I-249999J0D01*
G01*
X86149999Y69500000D01*
G75*
G02*
X85900000Y69749999I0J249999D01*
G01*
X85900000Y70400001D01*
G75*
G02*
X86149999Y70650000I249999J0D01*
G01*
G37*
%TD*%
D10*
%TO.C,U4*%
X113780000Y48895000D03*
X113780000Y48245000D03*
X113780000Y47595000D03*
X113780000Y46945000D03*
X113780000Y46295000D03*
X113780000Y45645000D03*
X113780000Y44995000D03*
X113780000Y44345000D03*
X113780000Y43695000D03*
X113780000Y43045000D03*
X113780000Y42395000D03*
X113780000Y41745000D03*
X113780000Y41095000D03*
X113780000Y40445000D03*
X106580000Y40445000D03*
X106580000Y41095000D03*
X106580000Y41745000D03*
X106580000Y42395000D03*
X106580000Y43045000D03*
X106580000Y43695000D03*
X106580000Y44345000D03*
X106580000Y44995000D03*
X106580000Y45645000D03*
X106580000Y46295000D03*
X106580000Y46945000D03*
X106580000Y47595000D03*
X106580000Y48245000D03*
X106580000Y48895000D03*
%TD*%
D11*
%TO.C,U3*%
X112880000Y64672500D03*
X112880000Y63402500D03*
X112880000Y62132500D03*
X112880000Y60862500D03*
X112880000Y59592500D03*
X112880000Y58322500D03*
X112880000Y57052500D03*
X112880000Y55782500D03*
X107480000Y55782500D03*
X107480000Y57052500D03*
X107480000Y58322500D03*
X107480000Y59592500D03*
X107480000Y60862500D03*
X107480000Y62132500D03*
X107480000Y63402500D03*
X107480000Y64672500D03*
%TD*%
D12*
%TO.C,U2*%
X82130000Y64355000D03*
X82130000Y63085000D03*
X82130000Y61815000D03*
X82130000Y60545000D03*
X74730000Y60545000D03*
X74730000Y61815000D03*
X74730000Y63085000D03*
X74730000Y64355000D03*
%TD*%
%TO.C,R5*%
G36*
G01*
X118365999Y40410000D02*
X119266001Y40410000D01*
G75*
G02*
X119516000Y40160001I0J-249999D01*
G01*
X119516000Y39509999D01*
G75*
G02*
X119266001Y39260000I-249999J0D01*
G01*
X118365999Y39260000D01*
G75*
G02*
X118116000Y39509999I0J249999D01*
G01*
X118116000Y40160001D01*
G75*
G02*
X118365999Y40410000I249999J0D01*
G01*
G37*
G36*
G01*
X118365999Y42460000D02*
X119266001Y42460000D01*
G75*
G02*
X119516000Y42210001I0J-249999D01*
G01*
X119516000Y41559999D01*
G75*
G02*
X119266001Y41310000I-249999J0D01*
G01*
X118365999Y41310000D01*
G75*
G02*
X118116000Y41559999I0J249999D01*
G01*
X118116000Y42210001D01*
G75*
G02*
X118365999Y42460000I249999J0D01*
G01*
G37*
%TD*%
%TO.C,R4*%
G36*
G01*
X116079999Y40410000D02*
X116980001Y40410000D01*
G75*
G02*
X117230000Y40160001I0J-249999D01*
G01*
X117230000Y39509999D01*
G75*
G02*
X116980001Y39260000I-249999J0D01*
G01*
X116079999Y39260000D01*
G75*
G02*
X115830000Y39509999I0J249999D01*
G01*
X115830000Y40160001D01*
G75*
G02*
X116079999Y40410000I249999J0D01*
G01*
G37*
G36*
G01*
X116079999Y42460000D02*
X116980001Y42460000D01*
G75*
G02*
X117230000Y42210001I0J-249999D01*
G01*
X117230000Y41559999D01*
G75*
G02*
X116980001Y41310000I-249999J0D01*
G01*
X116079999Y41310000D01*
G75*
G02*
X115830000Y41559999I0J249999D01*
G01*
X115830000Y42210001D01*
G75*
G02*
X116079999Y42460000I249999J0D01*
G01*
G37*
%TD*%
%TO.C,R3*%
G36*
G01*
X101740001Y48930000D02*
X100839999Y48930000D01*
G75*
G02*
X100590000Y49179999I0J249999D01*
G01*
X100590000Y49830001D01*
G75*
G02*
X100839999Y50080000I249999J0D01*
G01*
X101740001Y50080000D01*
G75*
G02*
X101990000Y49830001I0J-249999D01*
G01*
X101990000Y49179999D01*
G75*
G02*
X101740001Y48930000I-249999J0D01*
G01*
G37*
G36*
G01*
X101740001Y46880000D02*
X100839999Y46880000D01*
G75*
G02*
X100590000Y47129999I0J249999D01*
G01*
X100590000Y47780001D01*
G75*
G02*
X100839999Y48030000I249999J0D01*
G01*
X101740001Y48030000D01*
G75*
G02*
X101990000Y47780001I0J-249999D01*
G01*
X101990000Y47129999D01*
G75*
G02*
X101740001Y46880000I-249999J0D01*
G01*
G37*
%TD*%
%TO.C,R2*%
G36*
G01*
X102363999Y37235000D02*
X103264001Y37235000D01*
G75*
G02*
X103514000Y36985001I0J-249999D01*
G01*
X103514000Y36334999D01*
G75*
G02*
X103264001Y36085000I-249999J0D01*
G01*
X102363999Y36085000D01*
G75*
G02*
X102114000Y36334999I0J249999D01*
G01*
X102114000Y36985001D01*
G75*
G02*
X102363999Y37235000I249999J0D01*
G01*
G37*
G36*
G01*
X102363999Y39285000D02*
X103264001Y39285000D01*
G75*
G02*
X103514000Y39035001I0J-249999D01*
G01*
X103514000Y38384999D01*
G75*
G02*
X103264001Y38135000I-249999J0D01*
G01*
X102363999Y38135000D01*
G75*
G02*
X102114000Y38384999I0J249999D01*
G01*
X102114000Y39035001D01*
G75*
G02*
X102363999Y39285000I249999J0D01*
G01*
G37*
%TD*%
%TO.C,C12*%
G36*
G01*
X89918000Y48295001D02*
X89918000Y47394999D01*
G75*
G02*
X89668001Y47145000I-249999J0D01*
G01*
X89017999Y47145000D01*
G75*
G02*
X88768000Y47394999I0J249999D01*
G01*
X88768000Y48295001D01*
G75*
G02*
X89017999Y48545000I249999J0D01*
G01*
X89668001Y48545000D01*
G75*
G02*
X89918000Y48295001I0J-249999D01*
G01*
G37*
G36*
G01*
X91968000Y48295001D02*
X91968000Y47394999D01*
G75*
G02*
X91718001Y47145000I-249999J0D01*
G01*
X91067999Y47145000D01*
G75*
G02*
X90818000Y47394999I0J249999D01*
G01*
X90818000Y48295001D01*
G75*
G02*
X91067999Y48545000I249999J0D01*
G01*
X91718001Y48545000D01*
G75*
G02*
X91968000Y48295001I0J-249999D01*
G01*
G37*
%TD*%
%TO.C,C11*%
G36*
G01*
X89918000Y43215001D02*
X89918000Y42314999D01*
G75*
G02*
X89668001Y42065000I-249999J0D01*
G01*
X89017999Y42065000D01*
G75*
G02*
X88768000Y42314999I0J249999D01*
G01*
X88768000Y43215001D01*
G75*
G02*
X89017999Y43465000I249999J0D01*
G01*
X89668001Y43465000D01*
G75*
G02*
X89918000Y43215001I0J-249999D01*
G01*
G37*
G36*
G01*
X91968000Y43215001D02*
X91968000Y42314999D01*
G75*
G02*
X91718001Y42065000I-249999J0D01*
G01*
X91067999Y42065000D01*
G75*
G02*
X90818000Y42314999I0J249999D01*
G01*
X90818000Y43215001D01*
G75*
G02*
X91067999Y43465000I249999J0D01*
G01*
X91718001Y43465000D01*
G75*
G02*
X91968000Y43215001I0J-249999D01*
G01*
G37*
%TD*%
%TO.C,C10*%
G36*
G01*
X107444000Y35976001D02*
X107444000Y35075999D01*
G75*
G02*
X107194001Y34826000I-249999J0D01*
G01*
X106543999Y34826000D01*
G75*
G02*
X106294000Y35075999I0J249999D01*
G01*
X106294000Y35976001D01*
G75*
G02*
X106543999Y36226000I249999J0D01*
G01*
X107194001Y36226000D01*
G75*
G02*
X107444000Y35976001I0J-249999D01*
G01*
G37*
G36*
G01*
X109494000Y35976001D02*
X109494000Y35075999D01*
G75*
G02*
X109244001Y34826000I-249999J0D01*
G01*
X108593999Y34826000D01*
G75*
G02*
X108344000Y35075999I0J249999D01*
G01*
X108344000Y35976001D01*
G75*
G02*
X108593999Y36226000I249999J0D01*
G01*
X109244001Y36226000D01*
G75*
G02*
X109494000Y35976001I0J-249999D01*
G01*
G37*
%TD*%
%TO.C,C9*%
G36*
G01*
X113424000Y35075999D02*
X113424000Y35976001D01*
G75*
G02*
X113673999Y36226000I249999J0D01*
G01*
X114324001Y36226000D01*
G75*
G02*
X114574000Y35976001I0J-249999D01*
G01*
X114574000Y35075999D01*
G75*
G02*
X114324001Y34826000I-249999J0D01*
G01*
X113673999Y34826000D01*
G75*
G02*
X113424000Y35075999I0J249999D01*
G01*
G37*
G36*
G01*
X111374000Y35075999D02*
X111374000Y35976001D01*
G75*
G02*
X111623999Y36226000I249999J0D01*
G01*
X112274001Y36226000D01*
G75*
G02*
X112524000Y35976001I0J-249999D01*
G01*
X112524000Y35075999D01*
G75*
G02*
X112274001Y34826000I-249999J0D01*
G01*
X111623999Y34826000D01*
G75*
G02*
X111374000Y35075999I0J249999D01*
G01*
G37*
%TD*%
%TO.C,C8*%
G36*
G01*
X113424000Y37361999D02*
X113424000Y38262001D01*
G75*
G02*
X113673999Y38512000I249999J0D01*
G01*
X114324001Y38512000D01*
G75*
G02*
X114574000Y38262001I0J-249999D01*
G01*
X114574000Y37361999D01*
G75*
G02*
X114324001Y37112000I-249999J0D01*
G01*
X113673999Y37112000D01*
G75*
G02*
X113424000Y37361999I0J249999D01*
G01*
G37*
G36*
G01*
X111374000Y37361999D02*
X111374000Y38262001D01*
G75*
G02*
X111623999Y38512000I249999J0D01*
G01*
X112274001Y38512000D01*
G75*
G02*
X112524000Y38262001I0J-249999D01*
G01*
X112524000Y37361999D01*
G75*
G02*
X112274001Y37112000I-249999J0D01*
G01*
X111623999Y37112000D01*
G75*
G02*
X111374000Y37361999I0J249999D01*
G01*
G37*
%TD*%
%TO.C,C7*%
G36*
G01*
X117742000Y44029499D02*
X117742000Y44929501D01*
G75*
G02*
X117991999Y45179500I249999J0D01*
G01*
X118642001Y45179500D01*
G75*
G02*
X118892000Y44929501I0J-249999D01*
G01*
X118892000Y44029499D01*
G75*
G02*
X118642001Y43779500I-249999J0D01*
G01*
X117991999Y43779500D01*
G75*
G02*
X117742000Y44029499I0J249999D01*
G01*
G37*
G36*
G01*
X115692000Y44029499D02*
X115692000Y44929501D01*
G75*
G02*
X115941999Y45179500I249999J0D01*
G01*
X116592001Y45179500D01*
G75*
G02*
X116842000Y44929501I0J-249999D01*
G01*
X116842000Y44029499D01*
G75*
G02*
X116592001Y43779500I-249999J0D01*
G01*
X115941999Y43779500D01*
G75*
G02*
X115692000Y44029499I0J249999D01*
G01*
G37*
%TD*%
%TO.C,C6*%
G36*
G01*
X117742000Y46315499D02*
X117742000Y47215501D01*
G75*
G02*
X117991999Y47465500I249999J0D01*
G01*
X118642001Y47465500D01*
G75*
G02*
X118892000Y47215501I0J-249999D01*
G01*
X118892000Y46315499D01*
G75*
G02*
X118642001Y46065500I-249999J0D01*
G01*
X117991999Y46065500D01*
G75*
G02*
X117742000Y46315499I0J249999D01*
G01*
G37*
G36*
G01*
X115692000Y46315499D02*
X115692000Y47215501D01*
G75*
G02*
X115941999Y47465500I249999J0D01*
G01*
X116592001Y47465500D01*
G75*
G02*
X116842000Y47215501I0J-249999D01*
G01*
X116842000Y46315499D01*
G75*
G02*
X116592001Y46065500I-249999J0D01*
G01*
X115941999Y46065500D01*
G75*
G02*
X115692000Y46315499I0J249999D01*
G01*
G37*
%TD*%
%TO.C,C5*%
G36*
G01*
X100077999Y37235000D02*
X100978001Y37235000D01*
G75*
G02*
X101228000Y36985001I0J-249999D01*
G01*
X101228000Y36334999D01*
G75*
G02*
X100978001Y36085000I-249999J0D01*
G01*
X100077999Y36085000D01*
G75*
G02*
X99828000Y36334999I0J249999D01*
G01*
X99828000Y36985001D01*
G75*
G02*
X100077999Y37235000I249999J0D01*
G01*
G37*
G36*
G01*
X100077999Y39285000D02*
X100978001Y39285000D01*
G75*
G02*
X101228000Y39035001I0J-249999D01*
G01*
X101228000Y38384999D01*
G75*
G02*
X100978001Y38135000I-249999J0D01*
G01*
X100077999Y38135000D01*
G75*
G02*
X99828000Y38384999I0J249999D01*
G01*
X99828000Y39035001D01*
G75*
G02*
X100077999Y39285000I249999J0D01*
G01*
G37*
%TD*%
%TO.C,C4*%
G36*
G01*
X116587999Y63270000D02*
X117488001Y63270000D01*
G75*
G02*
X117738000Y63020001I0J-249999D01*
G01*
X117738000Y62369999D01*
G75*
G02*
X117488001Y62120000I-249999J0D01*
G01*
X116587999Y62120000D01*
G75*
G02*
X116338000Y62369999I0J249999D01*
G01*
X116338000Y63020001D01*
G75*
G02*
X116587999Y63270000I249999J0D01*
G01*
G37*
G36*
G01*
X116587999Y65320000D02*
X117488001Y65320000D01*
G75*
G02*
X117738000Y65070001I0J-249999D01*
G01*
X117738000Y64419999D01*
G75*
G02*
X117488001Y64170000I-249999J0D01*
G01*
X116587999Y64170000D01*
G75*
G02*
X116338000Y64419999I0J249999D01*
G01*
X116338000Y65070001D01*
G75*
G02*
X116587999Y65320000I249999J0D01*
G01*
G37*
%TD*%
%TO.C,C3*%
G36*
G01*
X84722001Y69504000D02*
X83821999Y69504000D01*
G75*
G02*
X83572000Y69753999I0J249999D01*
G01*
X83572000Y70404001D01*
G75*
G02*
X83821999Y70654000I249999J0D01*
G01*
X84722001Y70654000D01*
G75*
G02*
X84972000Y70404001I0J-249999D01*
G01*
X84972000Y69753999D01*
G75*
G02*
X84722001Y69504000I-249999J0D01*
G01*
G37*
G36*
G01*
X84722001Y67454000D02*
X83821999Y67454000D01*
G75*
G02*
X83572000Y67703999I0J249999D01*
G01*
X83572000Y68354001D01*
G75*
G02*
X83821999Y68604000I249999J0D01*
G01*
X84722001Y68604000D01*
G75*
G02*
X84972000Y68354001I0J-249999D01*
G01*
X84972000Y67703999D01*
G75*
G02*
X84722001Y67454000I-249999J0D01*
G01*
G37*
%TD*%
%TO.C,C2*%
G36*
G01*
X82436001Y69504000D02*
X81535999Y69504000D01*
G75*
G02*
X81286000Y69753999I0J249999D01*
G01*
X81286000Y70404001D01*
G75*
G02*
X81535999Y70654000I249999J0D01*
G01*
X82436001Y70654000D01*
G75*
G02*
X82686000Y70404001I0J-249999D01*
G01*
X82686000Y69753999D01*
G75*
G02*
X82436001Y69504000I-249999J0D01*
G01*
G37*
G36*
G01*
X82436001Y67454000D02*
X81535999Y67454000D01*
G75*
G02*
X81286000Y67703999I0J249999D01*
G01*
X81286000Y68354001D01*
G75*
G02*
X81535999Y68604000I249999J0D01*
G01*
X82436001Y68604000D01*
G75*
G02*
X82686000Y68354001I0J-249999D01*
G01*
X82686000Y67703999D01*
G75*
G02*
X82436001Y67454000I-249999J0D01*
G01*
G37*
%TD*%
%TO.C,C1*%
G36*
G01*
X101856000Y61249001D02*
X101856000Y60348999D01*
G75*
G02*
X101606001Y60099000I-249999J0D01*
G01*
X100955999Y60099000D01*
G75*
G02*
X100706000Y60348999I0J249999D01*
G01*
X100706000Y61249001D01*
G75*
G02*
X100955999Y61499000I249999J0D01*
G01*
X101606001Y61499000D01*
G75*
G02*
X101856000Y61249001I0J-249999D01*
G01*
G37*
G36*
G01*
X103906000Y61249001D02*
X103906000Y60348999D01*
G75*
G02*
X103656001Y60099000I-249999J0D01*
G01*
X103005999Y60099000D01*
G75*
G02*
X102756000Y60348999I0J249999D01*
G01*
X102756000Y61249001D01*
G75*
G02*
X103005999Y61499000I249999J0D01*
G01*
X103656001Y61499000D01*
G75*
G02*
X103906000Y61249001I0J-249999D01*
G01*
G37*
%TD*%
M02*
