M48
METRIC,TZ
T1C0.381
T2C0.800
T3C0.920
T4C1.000
T5C1.016
T6C1.020
T7C1.520
T8C2.300
T9C2.330
T10C3.200
%
G90
G05
T1
X11247Y43781
X14295Y28287
X16327Y27525
X16835Y25620
X24582Y55846
X25217Y90263
X26614Y82897
X27122Y56735
X27630Y75277
X27757Y55719
X28011Y90263
X28392Y61561
X30170Y55592
X30424Y63593
X30424Y57116
X31694Y55846
X31948Y31081
X35885Y81627
X40965Y77690
X42235Y73880
X42743Y63593
X44140Y83024
X44140Y78452
X44394Y93819
X44648Y31462
X45156Y95216
X47061Y83024
X48331Y81754
X48331Y22572
X50871Y31462
X50871Y28287
X51633Y79468
X52649Y82262
X57729Y66133
X58745Y75277
X60015Y68419
X63698Y20413
X66111Y95216
X69159Y93819
X71318Y79722
X71572Y59402
X74112Y30954
X74620Y32478
X76334Y32161
X76779Y66514
X78557Y81246
X78938Y30319
X80589Y79722
X82113Y32478
X84399Y78960
X85542Y61815
X85542Y38193
X85542Y35907
X86812Y62831
X91130Y78706
X93289Y80865
X101163Y78452
X102687Y33113
X120340Y45686
X129865Y78579
X131643Y78579
X132913Y64482
T2
X95448Y47645
X95448Y42765
T3
X130500Y31300
X130500Y28800
X132500Y31300
X132500Y28800
X133040Y56750
X133040Y54250
X133040Y52250
X133040Y49750
T4
X6040Y82770
X6040Y80230
X6040Y77690
X6040Y75150
X6040Y60672
X6040Y58132
X6040Y55592
X6040Y53052
X6040Y38320
X6040Y35780
X6040Y33240
X6040Y30700
X75890Y98010
X78430Y98010
X80970Y98010
X83510Y98010
X92400Y98010
X94940Y98010
X97480Y98010
X100020Y98010
T5
X138120Y91660
X138120Y89120
X138120Y86580
X138120Y84040
X138120Y81500
X138120Y78960
X138120Y76420
X138120Y73880
X140660Y91660
X140660Y89120
X140660Y86580
X140660Y84040
X140660Y81500
X140660Y78960
X140660Y76420
X140660Y73880
T6
X26750Y88050
X26750Y85510
X26750Y27090
X26750Y24550
X29290Y88050
X29290Y85510
X29290Y27090
X29290Y24550
X31830Y88050
X31830Y85510
X31830Y27090
X31830Y24550
X34370Y88050
X34370Y85510
X34370Y27090
X34370Y24550
X36910Y88050
X36910Y85510
X36910Y27090
X36910Y24550
X39450Y88050
X39450Y85510
X39450Y27090
X39450Y24550
X41990Y88050
X41990Y85510
X41990Y27090
X41990Y24550
X44530Y88050
X44530Y85510
X44530Y27090
X44530Y24550
X47070Y88050
X47070Y85510
X47070Y27090
X47070Y24550
X49610Y88050
X49610Y85510
X49610Y27090
X49610Y24550
X52150Y88050
X52150Y85510
X52150Y27090
X52150Y24550
X54690Y88050
X54690Y85510
X54690Y27090
X54690Y24550
X57230Y88050
X57230Y85510
X57230Y27090
X57230Y24550
X59770Y88050
X59770Y85510
X59770Y27090
X59770Y24550
X62310Y88050
X62310Y85510
X62310Y27090
X62310Y24550
X64850Y88050
X64850Y85510
X64850Y27090
X64850Y24550
X67390Y88050
X67390Y85510
X67390Y27090
X67390Y24550
X69930Y88050
X69930Y85510
X69930Y27090
X69930Y24550
X72470Y88050
X72470Y85510
X72470Y27090
X72470Y24550
T7
X8326Y94835
X8326Y89755
X9215Y11650
X9215Y6570
X16200Y7840
X19375Y101693
X21280Y7840
X24455Y101693
X26360Y7840
X31440Y7840
X36520Y7840
X37536Y101820
X41600Y7840
X42616Y101820
X46680Y7840
X51760Y7840
X56840Y7840
X61920Y7840
X67000Y7840
X72080Y7840
X77160Y7840
X82240Y7840
X87320Y7840
X92400Y7840
X97480Y7840
X102560Y7840
X107513Y7840
X112593Y7840
X117800Y7840
X122880Y7840
X129865Y11650
X129865Y6570
T8
X135750Y59820
X135750Y46680
T9
X135210Y36070
X135210Y24030
T10
X0Y105000
X0Y0
X140000Y105000
X140000Y0
T0
M30
